<svg width="254" height="119" viewBox="0 0 254 119" fill="none" xmlns="http://www.w3.org/2000/svg">
<g id="&#239;&#188;&#172;&#239;&#188;&#175;&#239;&#188;&#167;&#239;&#188;&#175;">
<g id="Group">
<path id="Vector" d="M14.4949 0.860992H2.445C1.09874 0.860992 0 2.08694 0 3.58905V35.861C0 37.3631 1.09874 38.5891 2.445 38.5891H14.4949C15.8412 38.5891 16.9399 37.3631 16.9399 35.861V3.58905C16.9399 2.08694 15.8412 0.860992 14.4949 0.860992ZM15.6661 3.58905V4.63313H11.899V2.28228H14.4949C15.1409 2.28228 15.6661 2.86831 15.6661 3.58905ZM15.497 36.5346L13.0581 33.4832C12.8649 33.2407 12.7623 32.9376 12.7623 32.6143V27.8587H15.6721V35.8678C15.6721 36.1102 15.6057 36.3393 15.5031 36.5346H15.497ZM1.27381 35.8678V27.8587H4.18366V32.6143C4.18366 32.9376 4.08103 33.2407 3.88784 33.4832L1.44889 36.5346C1.34626 36.3393 1.27985 36.1102 1.27985 35.8678H1.27381ZM4.83566 34.4263C5.2341 33.9278 5.45747 33.2811 5.45747 32.6076V27.852H11.4824V32.6076C11.4824 33.2811 11.7058 33.9211 12.1042 34.4263L14.2957 37.1678H2.63818L4.82962 34.4263H4.83566ZM1.27381 26.4307V19.0548H2.1854C2.66837 19.0548 3.06681 18.617 3.06681 18.0714V13.9018H1.793V17.6268H1.27381V11.0188L3.68258 13.7065V19.0548H4.9564V13.7065L6.99087 11.4364H8.68124V17.6335H6.84599V13.9085H5.57218V18.0781C5.57218 18.617 5.96458 19.0615 6.45358 19.0615H9.07968C9.56265 19.0615 9.96109 18.6237 9.96109 18.0781V11.4432H12.5691V18.0781C12.5691 18.617 12.9615 19.0615 13.4505 19.0615H15.6782V26.4374H1.28589L1.27381 26.4307ZM8.91669 10.0152L11.2591 6.53267L13.6014 10.0152H8.92272H8.91669ZM7.32291 10.0152H6.99087L5.21599 8.03478L6.99087 6.05441H9.9792L7.32291 10.0084V10.0152ZM4.31647 12.4132L2.80722 10.7292L4.31647 9.04518L5.82573 10.7292L4.31647 12.4132ZM10.6191 4.63313H6.99087L4.88395 2.28228H10.6191V4.63313ZM5.82573 5.34714L4.31647 7.03113L2.80722 5.34714L4.31647 3.66315L5.82573 5.34714ZM3.41696 8.03478L1.27381 10.426V5.64352L3.41696 8.03478ZM13.8369 17.6335V11.4364H15.6661V17.6335H13.8369ZM15.1952 10.0152L12.5389 6.06115H15.6721V10.0152H15.2012H15.1952ZM2.43896 2.28228H3.74899L1.26777 5.05076V3.58905C1.26777 2.86831 1.793 2.28228 2.43896 2.28228Z" fill="white"/>
<path id="Vector_2" d="M13.5896 22.1936H3.34473V23.6149H13.5896V22.1936Z" fill="white"/>
</g>
<g id="Group_2">
<path id="Vector_3" d="M10.2811 50.0939C10.2267 50.0872 10.2207 50.067 10.2207 50.0131V46.5508C10.2207 46.4902 10.2449 46.47 10.2811 46.47H15.2797C15.3159 46.47 15.3401 46.4902 15.3401 46.5373V49.8986C15.3401 49.9525 15.3341 49.9659 15.2858 49.9794L14.5613 50.0737C14.5251 50.0804 14.4889 50.067 14.4889 50.0131V47.5208H13.2513V49.7841C13.2513 49.8245 13.2453 49.8447 13.197 49.8447H12.4544C12.4182 49.8447 12.4061 49.8177 12.4061 49.7841V47.5208H11.0659V50.1545C11.0659 50.2084 11.0417 50.2219 11.0055 50.2152L10.2811 50.0872V50.0939Z" fill="white"/>
<path id="Vector_4" d="M15.3461 52.2629V53.6572C15.3461 53.7111 15.328 53.7246 15.2918 53.7448C14.501 54.0075 12.1888 54.7619 11.4643 54.937C12.1284 55.1324 14.4889 55.9878 15.2918 56.2573C15.322 56.2775 15.3461 56.2842 15.3461 56.3381V57.6988C15.3461 57.7392 15.3401 57.7594 15.2978 57.7661L10.2811 58.0019C10.2328 58.0086 10.2207 57.9817 10.2207 57.9413V56.978C10.2207 56.9376 10.2267 56.9107 10.275 56.9107C11.9352 56.8702 14.181 56.85 14.676 56.8568C13.9274 56.648 11.3194 55.7521 10.2871 55.4018C10.2328 55.3951 10.2267 55.3614 10.2267 55.321V54.452C10.2267 54.3914 10.2328 54.3712 10.2811 54.3645C11.4643 53.9873 13.7343 53.2935 14.6881 53.051V53.0307C13.9033 53.024 11.9171 52.9499 10.2811 52.8623C10.2328 52.8623 10.2267 52.8421 10.2267 52.795V51.9261C10.2267 51.8722 10.2328 51.8587 10.2871 51.8654L15.3039 52.1955C15.3522 52.2022 15.3522 52.2224 15.3522 52.2629H15.3461Z" fill="white"/>
<path id="Vector_5" d="M15.267 60.0563C15.3033 60.0563 15.3274 60.0631 15.3395 60.1102C15.3455 60.4268 15.3636 61.2149 15.3636 61.801C15.3636 63.6197 14.5064 63.8958 14.0053 63.8958C13.4499 63.8958 13.1299 63.5658 12.9911 63.3502C12.8402 63.6735 12.5021 64.1855 11.7837 64.1855C10.7996 64.1855 10.208 63.2357 10.208 61.801C10.208 61.0465 10.214 60.4538 10.2261 60.1237C10.2322 60.0833 10.2563 60.0631 10.2865 60.0631H15.2731L15.267 60.0563ZM11.0109 61.0937C11.0049 61.2823 10.9928 61.5046 10.9928 61.7673C10.9868 62.5823 11.2343 63.1077 11.7595 63.1077C12.0795 63.1077 12.3391 62.9326 12.4357 62.4813C12.4719 62.3264 12.49 62.1243 12.49 61.8885V61.0937H11.0109ZM13.299 61.0937V61.7538C13.299 62.0704 13.2748 62.4139 13.2507 62.5486C13.3835 62.7305 13.5646 62.8787 13.8664 62.8787C14.3253 62.8787 14.5547 62.4948 14.5547 61.7807C14.5547 61.5046 14.5486 61.2755 14.5486 61.0937H13.299Z" fill="white"/>
<path id="Vector_6" d="M10.2207 66.0312C10.2207 65.9773 10.2388 65.9638 10.2811 65.9638H15.2677C15.3039 65.9638 15.3401 65.9705 15.3401 66.0244C15.3582 66.7115 15.3642 67.0752 15.3642 67.7488C15.3642 69.1432 14.827 69.9582 13.8248 69.9582C13.1487 69.9582 12.6597 69.4732 12.4544 68.8333C12.0982 69.123 10.6976 70.167 10.3113 70.4163C10.263 70.4432 10.2267 70.45 10.2267 70.3961V69.3048C10.2267 69.2375 10.2449 69.2105 10.263 69.1836C10.6131 68.9344 11.5126 68.3214 12.056 67.9374C12.1526 67.8768 12.1888 67.8297 12.1888 67.7354V66.9877H10.2871C10.2388 66.9877 10.2267 66.9607 10.2267 66.9203V66.0244L10.2207 66.0312ZM12.9917 67.7556C12.9917 68.4628 13.2754 68.9142 13.7705 68.9142C14.2655 68.9142 14.5432 68.4561 14.5432 67.7152C14.5432 67.4188 14.5372 67.1426 14.5251 67.0011H12.9857V67.7556H12.9917Z" fill="white"/>
<path id="Vector_7" d="M11.5728 72.8346L10.2869 72.3563C10.2386 72.3361 10.2266 72.3159 10.2266 72.262V71.3931C10.2266 71.3392 10.2507 71.3257 10.305 71.3324L14.8751 73.1242C14.9535 73.1579 15.032 73.1848 15.2977 73.205C15.3278 73.205 15.352 73.2252 15.352 73.2589V74.4714C15.352 74.5185 15.346 74.5253 15.3037 74.532L10.299 76.5461C10.2507 76.5528 10.2266 76.5461 10.2266 76.4922V75.5155C10.2266 75.4751 10.2447 75.4481 10.2749 75.4279L11.5789 74.9227V72.8413L11.5728 72.8346ZM12.418 74.6331C12.9311 74.4512 14.0178 74.0403 14.5611 73.8652C14.0359 73.717 13.1243 73.3667 12.418 73.1107V74.6331Z" fill="white"/>
<path id="Vector_8" d="M10.3831 81.9146C10.3348 81.9146 10.2986 81.8944 10.2805 81.854C10.1839 81.5643 10.1416 81.14 10.1416 80.655C10.1416 79.0451 10.9928 77.671 12.7677 77.671C14.3373 77.671 15.418 78.8902 15.418 80.783C15.418 81.3488 15.3697 81.6991 15.2851 81.9146C15.267 81.9483 15.2489 81.9685 15.2006 81.9685H14.4581C14.3977 81.9685 14.3977 81.9348 14.4098 81.9011C14.5245 81.625 14.5788 81.2208 14.5788 80.7695C14.5788 79.5436 13.8785 78.7554 12.7858 78.7554C11.4335 78.7554 10.9747 79.8669 10.9747 80.783C10.9747 81.2073 11.0049 81.5307 11.1075 81.854C11.1256 81.8877 11.1136 81.9146 11.0713 81.9146H10.377H10.3831Z" fill="white"/>
<path id="Vector_9" d="M10.2811 87.3371C10.2267 87.3303 10.2207 87.3101 10.2207 87.2562V83.7939C10.2207 83.7333 10.2449 83.7131 10.2811 83.7131H15.2797C15.3159 83.7131 15.3401 83.7333 15.3401 83.7805V87.1417C15.3401 87.1956 15.3341 87.2091 15.2858 87.2225L14.5613 87.3168C14.5251 87.3236 14.4889 87.3101 14.4889 87.2562V84.7639H13.2513V87.0272C13.2513 87.0676 13.2453 87.0878 13.197 87.0878H12.4544C12.4182 87.0878 12.4061 87.0609 12.4061 87.0272V84.7639H11.0659V87.3977C11.0659 87.4516 11.0417 87.465 11.0055 87.4583L10.2811 87.3303V87.3371Z" fill="white"/>
<path id="Vector_10" d="M11.5728 92.9548L10.2869 92.4765C10.2386 92.4563 10.2266 92.4361 10.2266 92.3822V91.5133C10.2266 91.4594 10.2507 91.4459 10.305 91.4527L14.8751 93.2444C14.9535 93.2781 15.032 93.305 15.2977 93.3252C15.3278 93.3252 15.352 93.3455 15.352 93.3791V94.5916C15.352 94.6387 15.346 94.6455 15.3037 94.6522L10.299 96.6663C10.2507 96.673 10.2266 96.6663 10.2266 96.6124V95.6357C10.2266 95.5953 10.2447 95.5683 10.2749 95.5481L11.5789 95.0429V92.9615L11.5728 92.9548ZM12.418 94.7533C12.9311 94.5714 14.0178 94.1605 14.5611 93.9854C14.0359 93.8372 13.1243 93.4869 12.418 93.2309V94.7533Z" fill="white"/>
<path id="Vector_11" d="M10.2207 101.146C10.2207 101.078 10.2448 101.058 10.2992 101.058H15.2737C15.3099 101.058 15.3461 101.078 15.3461 101.126V102.055C15.3461 102.089 15.322 102.109 15.2918 102.109H11.0719V104.669C11.0719 104.723 11.0478 104.736 11.0176 104.729L10.2871 104.581C10.2328 104.574 10.2267 104.547 10.2267 104.5V101.139L10.2207 101.146Z" fill="white"/>
<path id="Vector_12" d="M10.2931 107.316C10.2388 107.316 10.2207 107.296 10.2207 107.249V106.332C10.2207 106.279 10.2449 106.265 10.2931 106.265H15.2858C15.3401 106.265 15.3461 106.292 15.3461 106.332V107.249C15.3461 107.302 15.328 107.316 15.2858 107.316H10.2931Z" fill="white"/>
<path id="Vector_13" d="M10.2811 110.536C10.2328 110.536 10.2207 110.515 10.2207 110.468V109.545C10.2207 109.505 10.2449 109.485 10.2811 109.485H15.2918C15.328 109.485 15.3461 109.505 15.3461 109.552V112.913C15.3461 112.967 15.328 112.981 15.2858 112.994L14.5613 113.082C14.513 113.089 14.501 113.062 14.501 113.015V110.542H13.1366V112.765C13.1366 112.806 13.1305 112.833 13.0823 112.833H12.3518C12.3155 112.833 12.2974 112.806 12.2974 112.765V110.542H10.2931L10.2811 110.536Z" fill="white"/>
<path id="Vector_14" d="M10.2811 118.363C10.2267 118.356 10.2207 118.336 10.2207 118.282V114.82C10.2207 114.759 10.2449 114.739 10.2811 114.739H15.2797C15.3159 114.739 15.3401 114.759 15.3401 114.806V118.168C15.3401 118.221 15.3341 118.235 15.2858 118.248L14.5613 118.343C14.5251 118.349 14.4889 118.336 14.4889 118.282V115.79H13.2513V118.053C13.2513 118.093 13.2453 118.114 13.197 118.114H12.4544C12.4182 118.114 12.4061 118.087 12.4061 118.053V115.79H11.0659V118.424C11.0659 118.477 11.0417 118.491 11.0055 118.484L10.2811 118.356V118.363Z" fill="white"/>
<path id="Vector_15" d="M3.67032 51.5356C2.05843 51.5423 1.00195 50.4309 1.00195 48.8479C1.00195 47.1572 2.12484 46.1468 3.64617 46.1468C5.1675 46.1468 6.28435 47.2447 6.28435 48.8479C6.28435 50.5521 5.11316 51.5288 3.67032 51.5356ZM1.8411 48.8816C1.8411 49.865 2.56554 50.4578 3.65221 50.4511C4.74491 50.4511 5.45124 49.8516 5.45124 48.8344C5.45124 47.9116 4.80528 47.2447 3.65221 47.2447C2.64402 47.2447 1.8411 47.8173 1.8411 48.8883V48.8816Z" fill="white"/>
<path id="Vector_16" d="M1.14631 54.4184C1.09801 54.4184 1.08594 54.3982 1.08594 54.351V53.4282C1.08594 53.3878 1.11008 53.3676 1.14631 53.3676H6.15704C6.19326 53.3676 6.21137 53.3878 6.21137 53.4349V56.7962C6.21137 56.8501 6.19326 56.8635 6.151 56.877L5.42655 56.9646C5.37826 56.9713 5.36618 56.9444 5.36618 56.8972V54.4251H4.00182V56.648C4.00182 56.6884 3.99578 56.7154 3.94749 56.7154H3.21701C3.18078 56.7154 3.16267 56.6884 3.16267 56.648V54.4251H1.15838L1.14631 54.4184Z" fill="white"/>
<path id="Vector_17" d="M1.14631 65.1354C1.09197 65.1286 1.08594 65.1084 1.08594 65.0545V61.5922C1.08594 61.5316 1.11008 61.5114 1.14631 61.5114H6.14496C6.18118 61.5114 6.20533 61.5316 6.20533 61.5788V64.94C6.20533 64.9939 6.1993 65.0074 6.151 65.0208L5.42655 65.1151C5.39033 65.1219 5.35411 65.1084 5.35411 65.0545V62.5622H4.11652V64.8255C4.11652 64.8659 4.11049 64.8861 4.06219 64.8861H3.31963C3.28341 64.8861 3.27134 64.8592 3.27134 64.8255V62.5622H1.93112V65.196C1.93112 65.2499 1.90697 65.2633 1.87075 65.2566L1.14631 65.1286V65.1354Z" fill="white"/>
<path id="Vector_18" d="M2.43219 68.0992L1.14631 67.6209C1.09801 67.6007 1.08594 67.5805 1.08594 67.5266V66.6577C1.08594 66.6038 1.11008 66.5903 1.16442 66.5971L5.73444 68.3888C5.81292 68.4225 5.89141 68.4495 6.15704 68.4697C6.18722 68.4697 6.21137 68.4899 6.21137 68.5235V69.736C6.21137 69.7832 6.20533 69.7899 6.16307 69.7966L1.15838 71.8107C1.11008 71.8174 1.08594 71.8107 1.08594 71.7568V70.7801C1.08594 70.7397 1.10405 70.7127 1.13423 70.6925L2.43823 70.1873V68.1059L2.43219 68.0992ZM3.28341 69.9044C3.79656 69.7225 4.88322 69.3117 5.42655 69.1365C4.90133 68.9883 3.98975 68.6381 3.28341 68.3821V69.9044Z" fill="white"/>
<path id="Vector_19" d="M1.28569 73.2656C1.30984 73.2184 1.34002 73.205 1.40039 73.205H2.20936C2.23954 73.205 2.25765 73.2386 2.23954 73.2723C1.96787 73.7438 1.83506 74.3164 1.83506 74.8216C1.83506 75.5356 2.08258 75.8387 2.42065 75.8387C2.71043 75.8387 2.92776 75.6299 3.17528 74.9698L3.33224 74.5521C3.73672 73.4811 4.21968 73.205 4.80527 73.205C5.63838 73.205 6.27831 73.9122 6.27831 75.2257C6.27831 75.7714 6.20586 76.2698 6.07305 76.5595C6.0489 76.5999 6.02475 76.6133 5.97042 76.6133H5.21579C5.18561 76.6133 5.15543 76.5864 5.18561 76.5325C5.35465 76.2025 5.4452 75.7242 5.4452 75.219C5.4452 74.4713 5.1675 74.2356 4.88979 74.2356C4.61209 74.2356 4.41287 74.4376 4.15931 75.1247L4.03254 75.4548C3.60995 76.5864 3.12095 76.9097 2.50517 76.9097C1.59358 76.9097 1.00195 76.1082 1.00195 74.7946C1.00195 74.1615 1.11062 73.6293 1.28569 73.2723V73.2656Z" fill="white"/>
<path id="Vector_20" d="M1.14631 82.3457C1.09197 82.339 1.08594 82.3188 1.08594 82.2649V78.8026C1.08594 78.742 1.11008 78.7218 1.14631 78.7218H6.14496C6.18118 78.7218 6.20533 78.742 6.20533 78.7892V82.1504C6.20533 82.2043 6.1993 82.2178 6.151 82.2312L5.42655 82.3255C5.39033 82.3323 5.35411 82.3188 5.35411 82.2649V79.7726H4.11652V82.0359C4.11652 82.0763 4.11049 82.0965 4.06219 82.0965H3.31963C3.28341 82.0965 3.27134 82.0696 3.27134 82.0359V79.7726H1.93112V82.4064C1.93112 82.4603 1.90697 82.4737 1.87075 82.467L1.14631 82.339V82.3457Z" fill="white"/>
</g>
<g id="Group_3">
<g id="Group_4">
<path id="Vector_21" d="M253.693 58.716H207.286V44.2539H235.129C237.429 44.2539 239.289 42.1725 239.289 39.6128H207.28V25.1507H244.728C247.028 25.1507 248.887 23.0693 248.887 20.5096H157.028C154.728 20.5096 152.869 22.5911 152.869 25.1507H194.476V39.6128H166.633C164.333 39.6128 162.473 41.6942 162.473 44.2539H194.482V58.716H152.235C149.935 58.716 148.075 60.7974 148.075 63.3571H249.539C251.84 63.3571 253.699 61.2756 253.699 58.716H253.693Z" fill="white"/>
<path id="Vector_22" d="M214.169 17.1419H214.223C219.88 17.1419 225.229 15.6465 229.962 12.9993C234.134 10.6687 234.079 3.9327 229.908 1.6088C229.865 1.58185 229.817 1.56165 229.775 1.5347C227.179 0.10668 224.064 1.02277 222.422 3.68347C219.953 7.68463 216.831 11.1536 213.233 13.8952C211.941 14.8786 212.606 17.1419 214.163 17.1419H214.169Z" fill="white"/>
<path id="Vector_23" d="M171.795 12.9993C176.528 15.6465 181.877 17.1419 187.534 17.1419H187.588C189.152 17.1419 189.81 14.8786 188.518 13.8952C184.92 11.1536 181.799 7.68463 179.329 3.68347C177.687 1.02277 174.572 0.10668 171.976 1.5347C171.934 1.56165 171.886 1.58185 171.843 1.6088C167.672 3.9327 167.618 10.6687 171.789 12.9993H171.795Z" fill="white"/>
<path id="Vector_24" d="M251.091 115.082C232.727 110.617 217.918 98.3571 211.205 82.467H246.328C248.628 82.467 250.488 80.3856 250.488 77.8259H205.578C206.611 73.9797 207.202 69.9785 207.256 65.8629H206.816C200.187 65.8629 194.464 70.6993 192.321 77.6979C192.309 77.7383 192.291 77.7788 192.279 77.8259H155.429C153.129 77.8259 151.269 79.9073 151.269 82.467H190.558C183.845 98.3504 169.036 110.617 150.671 115.082C149.144 115.453 148.063 116.975 148.063 118.713C171.131 118.713 191.107 106.77 200.869 89.3444C210.637 106.764 230.608 118.713 253.675 118.713C253.675 116.975 252.595 115.453 251.073 115.082H251.091Z" fill="white"/>
</g>
<g id="Group_5">
<path id="Vector_25" d="M87.005 85.8552V45.5001C87.005 43.9239 85.858 42.644 84.4453 42.644H68.1212C66.7086 42.644 65.5615 43.9239 65.5615 45.5001V85.8552C65.5615 87.4314 66.7086 88.7112 68.1212 88.7112H84.4453C85.858 88.7112 87.005 87.4314 87.005 85.8552ZM78.9999 84.0702H73.5606V47.2851H78.9999V84.0702Z" fill="white"/>
<path id="Vector_26" d="M60.7568 115.143H131.813C134.113 115.143 135.972 113.062 135.972 110.502H64.9163C62.6162 110.502 60.7568 112.583 60.7568 115.143Z" fill="white"/>
<path id="Vector_27" d="M78.0946 29.3674C77.6056 30.7752 78.5353 32.2841 79.8876 32.2841H88.925C90.3377 32.2841 91.4847 33.5639 91.4847 35.1401V95.1373C91.4847 96.7135 90.3377 97.9933 88.925 97.9933H81.2459C78.9458 97.9933 77.0864 100.075 77.0864 102.634H99.4898C101.259 102.634 102.689 101.038 102.689 99.0643V31.2131C102.689 29.2394 101.259 27.643 99.4898 27.643H91.5028L97.3406 10.857H128.021C130.321 10.857 132.18 8.77561 132.18 6.21594H68.1214C65.8213 6.21594 63.9619 8.29735 63.9619 10.857H84.5361L78.1006 29.3674H78.0946Z" fill="white"/>
<path id="Vector_28" d="M63.159 65.6272C58.0578 55.658 54.8159 44.3483 53.9647 32.291H62.9961C65.2962 32.291 67.1556 30.2095 67.1556 27.6499H53.7111V0.860992C48.2295 0.860992 43.7862 5.81866 43.7862 11.9349V27.6499H34.5013C32.2012 27.6499 30.3418 29.7313 30.3418 32.291H42.7901C41.7578 46.8002 38.5099 60.6157 33.4146 73.3062C31.3983 78.3245 30.3418 83.7604 30.3418 89.2569C35.6182 81.7935 40.1278 73.6362 43.7862 64.9401V118.713C49.2679 118.713 53.7111 113.756 53.7111 107.639V58.6892C56.1561 63.3302 59.0056 67.6749 62.2112 71.6559C63.799 70.1672 64.1853 67.6345 63.159 65.6205V65.6272Z" fill="white"/>
<path id="Vector_29" d="M125.407 27.643H111.328C109.028 27.643 107.169 29.7244 107.169 32.2841H115.597C118.543 32.2841 120.982 34.8034 121.259 38.077C121.465 40.5222 121.573 42.9943 121.573 45.5001C121.573 54.4858 120.239 63.1213 117.794 71.191C114.371 62.4477 112.451 52.8018 112.451 42.644C107.603 42.644 103.903 47.6084 104.905 52.9029C106.734 62.5622 110.121 71.5817 114.751 79.6177C112.017 86.1044 108.539 92.1196 104.422 97.5151C103.975 98.1011 104.03 98.9835 104.561 99.4753C105.014 99.8996 105.678 99.9131 106.143 99.5022C110.755 95.4135 114.884 90.6916 118.476 85.4847C122.334 91.0216 126.819 95.9793 131.824 100.223C133.52 101.664 135.965 100.337 135.965 97.9597C130.442 92.9212 125.696 86.8656 121.935 80.0622C129.186 67.5266 133.406 52.6065 133.406 36.5749C133.406 31.6644 129.802 27.6498 125.401 27.6498L125.407 27.643Z" fill="white"/>
</g>
</g>
</g>
</svg>
