<svg width="820" height="19" viewBox="0 0 820 19" fill="none" xmlns="http://www.w3.org/2000/svg">
<path d="M0.12 15V0.419999H3.54C8.04 0.419999 10.22 3.2 10.22 7.68C10.22 12.14 8.04 15 3.58 15H0.12ZM1.3 14H3.42C7.26 14 8.98 11.46 8.98 7.68C8.98 3.88 7.26 1.44 3.42 1.44H1.3V14ZM30.9575 15V0.419999H39.0175V1.46H32.1375V6.76H37.9175V7.8H32.1375V13.98H39.2375V15H30.9575ZM62.9223 15V1.46H58.3423V0.419999H68.7223V1.46H64.1423V15H62.9223ZM86.0236 15L91.1236 0.419999H92.3636L97.4636 15H96.2036L93.3636 6.52C92.7836 4.8 92.3036 3.26 91.7836 1.5H91.7036C91.1836 3.28 90.6836 4.8 90.1036 6.52L87.2436 15H86.0236ZM88.4236 10.12V9.14H95.0036V10.12H88.4236ZM117.161 15V0.419999H118.341V15H117.161ZM140.011 15V0.419999H141.191V13.98H147.831V15H140.011ZM171.251 15.28C169.151 15.28 167.471 14.38 166.291 13.08L167.051 12.26C168.091 13.44 169.611 14.2 171.271 14.2C173.431 14.2 174.771 13.06 174.771 11.4C174.771 9.62 173.611 9.08 172.171 8.44L170.011 7.48C168.711 6.9 167.051 5.98 167.051 3.82C167.051 1.66 168.871 0.159999 171.371 0.159999C173.111 0.159999 174.551 0.94 175.471 1.92L174.791 2.7C173.931 1.84 172.791 1.24 171.371 1.24C169.491 1.24 168.271 2.22 168.271 3.72C168.271 5.4 169.691 6 170.751 6.46L172.911 7.42C174.591 8.16 175.971 9.08 175.971 11.3C175.971 13.56 174.131 15.28 171.251 15.28ZM218.226 15V0.419999H226.266V1.46H219.406V7.08H225.206V8.08H219.406V15H218.226ZM246.271 15V0.419999H247.451V15H246.271ZM269.12 15V0.419999H273.36C276.28 0.419999 278.22 1.5 278.22 4.32C278.22 7.04 276.28 8.42 273.36 8.42H270.3V15H269.12ZM270.3 7.44H273.1C275.6 7.44 277 6.42 277 4.32C277 2.2 275.6 1.44 273.1 1.44H270.3V7.44ZM277.18 15L273.1 8.1L274.18 7.66L278.54 15H277.18ZM302.215 15.28C300.115 15.28 298.435 14.38 297.255 13.08L298.015 12.26C299.055 13.44 300.575 14.2 302.235 14.2C304.395 14.2 305.735 13.06 305.735 11.4C305.735 9.62 304.575 9.08 303.135 8.44L300.975 7.48C299.675 6.9 298.015 5.98 298.015 3.82C298.015 1.66 299.835 0.159999 302.335 0.159999C304.075 0.159999 305.515 0.94 306.435 1.92L305.755 2.7C304.895 1.84 303.755 1.24 302.335 1.24C300.455 1.24 299.235 2.22 299.235 3.72C299.235 5.4 300.655 6 301.715 6.46L303.875 7.42C305.555 8.16 306.935 9.08 306.935 11.3C306.935 13.56 305.095 15.28 302.215 15.28ZM330.008 15V1.46H325.428V0.419999H335.808V1.46H331.228V15H330.008ZM352.982 18.52L352.662 17.76C353.722 17.22 354.422 16.28 354.422 15.02L354.162 13.62L354.962 14.74C354.762 15.04 354.462 15.1 354.162 15.1C353.602 15.1 353.142 14.74 353.142 14.1C353.142 13.46 353.642 13.08 354.182 13.08C354.922 13.08 355.402 13.74 355.402 14.8C355.402 16.46 354.422 17.8 352.982 18.52ZM381.242 15.28C377.702 15.28 375.202 12.3 375.202 7.68C375.202 3.04 377.702 0.159999 381.242 0.159999C384.782 0.159999 387.302 3.06 387.302 7.68C387.302 12.3 384.782 15.28 381.242 15.28ZM381.242 14.26C384.122 14.26 386.062 11.66 386.062 7.68C386.062 3.72 384.122 1.24 381.242 1.24C378.362 1.24 376.442 3.72 376.442 7.68C376.442 11.66 378.362 14.26 381.242 14.26ZM385.542 18.5C382.942 18.5 381.202 16.98 380.522 15L381.802 14.94C382.402 16.54 383.802 17.44 385.682 17.44C386.342 17.44 386.802 17.34 387.162 17.24L387.422 18.22C387.022 18.38 386.302 18.5 385.542 18.5ZM412.954 15.28C410.334 15.28 407.974 13.9 407.974 9.32V0.419999H409.174V9.24C409.174 13.04 410.914 14.2 412.954 14.2C414.994 14.2 416.794 13.04 416.794 9.24V0.419999H417.954V9.32C417.954 13.9 415.554 15.28 412.954 15.28ZM437.106 15L442.206 0.419999H443.446L448.546 15H447.286L444.446 6.52C443.866 4.8 443.386 3.26 442.866 1.5H442.786C442.266 3.28 441.766 4.8 441.186 6.52L438.326 15H437.106ZM439.506 10.12V9.14H446.086V10.12H439.506ZM468.244 15V0.419999H469.424V13.98H476.064V15H468.244ZM496.093 15V0.419999H497.273V15H496.093ZM522.043 15V1.46H517.463V0.419999H527.843V1.46H523.263V15H522.043ZM551.122 15V1.46H546.542V0.419999H556.922V1.46H552.342V15H551.122ZM598.916 15V0.419999H606.956V1.46H600.096V7.08H605.896V8.08H600.096V15H598.916ZM631.846 15.28C628.306 15.28 625.806 12.3 625.806 7.68C625.806 3.04 628.306 0.159999 631.846 0.159999C635.386 0.159999 637.906 3.06 637.906 7.68C637.906 12.3 635.386 15.28 631.846 15.28ZM631.846 14.2C634.726 14.2 636.666 11.64 636.666 7.68C636.666 3.72 634.726 1.24 631.846 1.24C628.966 1.24 627.046 3.72 627.046 7.68C627.046 11.64 628.966 14.2 631.846 14.2ZM658.638 15V0.419999H662.878C665.798 0.419999 667.738 1.5 667.738 4.32C667.738 7.04 665.798 8.42 662.878 8.42H659.818V15H658.638ZM659.818 7.44H662.618C665.118 7.44 666.518 6.42 666.518 4.32C666.518 2.2 665.118 1.44 662.618 1.44H659.818V7.44ZM666.698 15L662.618 8.1L663.698 7.66L668.058 15H666.698ZM688.206 15V0.419999H696.266V1.46H689.386V6.76H695.166V7.8H689.386V13.98H696.486V15H688.206ZM717.071 15V0.419999H718.671L721.651 8.82C722.031 9.86 722.411 10.94 722.791 12H722.871C723.251 10.94 723.611 9.86 723.971 8.82L726.951 0.419999H728.571V15H727.411V5.76C727.411 4.56 727.491 2.96 727.571 1.74H727.471L726.351 5L723.291 13.44H722.311L719.231 5L718.091 1.74H718.011C718.091 2.96 718.171 4.56 718.171 5.76V15H717.071ZM755.333 15.28C751.793 15.28 749.293 12.3 749.293 7.68C749.293 3.04 751.793 0.159999 755.333 0.159999C758.873 0.159999 761.393 3.06 761.393 7.68C761.393 12.3 758.873 15.28 755.333 15.28ZM755.333 14.2C758.213 14.2 760.153 11.64 760.153 7.68C760.153 3.72 758.213 1.24 755.333 1.24C752.453 1.24 750.533 3.72 750.533 7.68C750.533 11.64 752.453 14.2 755.333 14.2ZM785.965 15.28C783.865 15.28 782.185 14.38 781.005 13.08L781.765 12.26C782.805 13.44 784.325 14.2 785.985 14.2C788.145 14.2 789.485 13.06 789.485 11.4C789.485 9.62 788.325 9.08 786.885 8.44L784.725 7.48C783.425 6.9 781.765 5.98 781.765 3.82C781.765 1.66 783.585 0.159999 786.085 0.159999C787.825 0.159999 789.265 0.94 790.185 1.92L789.505 2.7C788.645 1.84 787.505 1.24 786.085 1.24C784.205 1.24 782.985 2.22 782.985 3.72C782.985 5.4 784.405 6 785.465 6.46L787.625 7.42C789.305 8.16 790.685 9.08 790.685 11.3C790.685 13.56 788.845 15.28 785.965 15.28ZM813.757 15V1.46H809.177V0.419999H819.557V1.46H814.977V15H813.757Z" fill="#DCA435" fill-opacity="0.7"/>
</svg>
