<svg width="212" height="44" viewBox="0 0 212 44" fill="none" xmlns="http://www.w3.org/2000/svg">
<path d="M26.3501 6.10965L35.9801 1.40967H36.9401V34.8097C36.9401 37.0297 37.0301 38.4097 37.2201 38.9497C37.4101 39.4897 37.7901 39.9097 38.3701 40.1997C38.9501 40.4897 40.1401 40.6597 41.9301 40.6997V41.7797H27.0501V40.6997C28.9201 40.6597 30.1201 40.4997 30.6701 40.2197C31.2101 39.9397 31.5901 39.5597 31.8101 39.0797C32.0201 38.5997 32.1301 37.1797 32.1301 34.8097V13.4597C32.1301 10.5797 32.0301 8.72968 31.8401 7.91968C31.7001 7.29968 31.4601 6.83965 31.1001 6.54965C30.7401 6.25965 30.3101 6.10965 29.8001 6.10965C29.0801 6.10965 28.0801 6.40967 26.8001 7.00967L26.3601 6.10965H26.3501Z" fill="white"/>
<path d="M60.09 21.8596C56.96 19.2896 54.94 17.2297 54.04 15.6797C53.14 14.1197 52.68 12.5097 52.68 10.8397C52.68 8.26966 53.67 6.05968 55.65 4.19968C57.63 2.33968 60.27 1.40967 63.56 1.40967C66.85 1.40967 69.31 2.27967 71.26 4.00967C73.2 5.73967 74.18 7.70966 74.18 9.92966C74.18 11.4097 73.65 12.9197 72.6 14.4497C71.55 15.9897 69.36 17.7897 66.04 19.8697C69.46 22.5097 71.73 24.5996 72.84 26.1096C74.32 28.0896 75.06 30.1797 75.06 32.3797C75.06 35.1597 74 37.5397 71.88 39.5097C69.76 41.4797 66.98 42.4697 63.54 42.4697C59.79 42.4697 56.86 41.2897 54.76 38.9397C53.09 37.0497 52.25 34.9897 52.25 32.7597C52.25 31.0097 52.84 29.2697 54.01 27.5497C55.19 25.8297 57.21 23.9297 60.09 21.8497V21.8596ZM61.46 22.9697C59.85 24.3297 58.65 25.8097 57.87 27.4197C57.09 29.0297 56.7 30.7597 56.7 32.6297C56.7 35.1397 57.39 37.1497 58.76 38.6497C60.13 40.1597 61.88 40.9097 64 40.9097C66.12 40.9097 67.78 40.3197 69.05 39.1297C70.31 37.9397 70.95 36.5097 70.95 34.8097C70.95 33.4097 70.58 32.1497 69.84 31.0497C68.46 28.9897 65.67 26.2997 61.47 22.9697H61.46ZM64.67 18.7397C67 16.6397 68.48 14.9797 69.1 13.7697C69.72 12.5497 70.03 11.1797 70.03 9.63968C70.03 7.59968 69.46 5.99966 68.31 4.83966C67.16 3.67966 65.6 3.09967 63.61 3.09967C61.62 3.09967 60.01 3.66967 58.77 4.81967C57.53 5.96967 56.9 7.30967 56.9 8.84967C56.9 9.85967 57.16 10.8697 57.67 11.8797C58.18 12.8897 58.92 13.8497 59.87 14.7697L64.65 18.7397H64.67Z" fill="white"/>
<path d="M80.3201 19.6797H95.4001V24.0797H80.3201V19.6797Z" fill="white"/>
<path d="M100.22 9.75992C101.35 7.09992 102.77 5.0399 104.49 3.5899C106.21 2.1399 108.36 1.41992 110.92 1.41992C114.09 1.41992 116.52 2.44992 118.21 4.50992C119.49 6.04992 120.13 7.68991 120.13 9.43991C120.13 12.3199 118.32 15.2899 114.71 18.3699C117.14 19.3199 118.98 20.6799 120.22 22.4499C121.46 24.2199 122.09 26.2999 122.09 28.6899C122.09 32.1099 121 35.0799 118.82 37.5899C115.98 40.8599 111.87 42.4899 106.48 42.4899C103.82 42.4899 102 42.1599 101.04 41.4999C100.08 40.8399 99.6001 40.1299 99.6001 39.3699C99.6001 38.8099 99.8301 38.3099 100.29 37.8799C100.75 37.4499 101.3 37.2399 101.94 37.2399C102.43 37.2399 102.92 37.3199 103.43 37.4699C103.76 37.5699 104.51 37.9199 105.68 38.5299C106.85 39.1399 107.65 39.5099 108.1 39.6199C108.82 39.8299 109.59 39.9399 110.4 39.9399C112.38 39.9399 114.11 39.1699 115.58 37.6399C117.05 36.0999 117.78 34.2899 117.78 32.1799C117.78 30.6399 117.44 29.1499 116.76 27.6899C116.25 26.5999 115.7 25.7699 115.1 25.2099C114.26 24.4299 113.12 23.7299 111.66 23.0899C110.2 22.4599 108.71 22.1399 107.2 22.1399H106.27V21.2599C107.81 21.0699 109.35 20.5099 110.89 19.5999C112.43 18.6899 113.56 17.5899 114.26 16.2999C114.96 15.0099 115.31 13.6099 115.31 12.0699C115.31 10.0699 114.68 8.4499 113.43 7.2099C112.18 5.9799 110.61 5.35989 108.75 5.35989C105.74 5.35989 103.22 6.96992 101.2 10.1999L100.24 9.72992L100.22 9.75992Z" fill="white"/>
<path d="M153.85 34.1699L151.08 41.7799H127.75V40.6999C134.61 34.4399 139.45 29.3199 142.25 25.3599C145.05 21.3899 146.45 17.7699 146.45 14.4799C146.45 11.9699 145.68 9.9099 144.15 8.2999C142.61 6.6899 140.78 5.87991 138.64 5.87991C136.7 5.87991 134.95 6.4499 133.4 7.5899C131.85 8.7299 130.71 10.3899 129.97 12.5899H128.89C129.38 8.9899 130.63 6.22991 132.64 4.30991C134.65 2.38991 137.17 1.41992 140.18 1.41992C143.39 1.41992 146.07 2.44992 148.22 4.50992C150.37 6.56992 151.44 8.9999 151.44 11.7999C151.44 13.7999 150.97 15.8099 150.04 17.8099C148.6 20.9599 146.27 24.2999 143.04 27.8099C138.2 33.0999 135.17 36.2899 133.97 37.3799H144.3C146.4 37.3799 147.87 37.2999 148.72 37.1499C149.57 36.9899 150.33 36.6799 151.01 36.1999C151.69 35.7199 152.28 35.0499 152.79 34.1699H153.87H153.85Z" fill="white"/>
<path d="M168.04 23.0296H172.51C172.57 23.0296 172.62 23.0496 172.66 23.0896C172.7 23.1296 172.72 23.1796 172.72 23.2396V24.0996C172.72 24.1596 172.7 24.2096 172.66 24.2496C172.62 24.2896 172.57 24.3096 172.51 24.3096H168.04V33.6796C170.63 32.7096 172.04 32.1896 172.26 32.1096C172.49 32.0296 172.62 31.9896 172.66 31.9896C172.7 31.9896 172.74 32.0096 172.77 32.0396C172.8 32.0696 172.83 32.1096 172.85 32.1496C172.95 32.4596 173 32.6296 173 32.6696C173 32.7296 172.97 32.7796 172.91 32.8196C168.63 35.3096 165.5 37.0996 163.51 38.1896C163.39 38.5796 163.15 38.8496 162.8 38.9896C162.76 39.0096 162.72 39.0196 162.68 39.0196C162.62 39.0196 162.57 38.9796 162.53 38.8996L161.24 36.3096C161.24 36.3096 161.21 36.2296 161.21 36.1896C161.21 36.1496 161.23 36.1096 161.26 36.0796C161.29 36.0496 161.33 36.0196 161.37 35.9996C161.92 35.8596 163.35 35.3796 165.66 34.5796V24.3096H162.02C161.96 24.3096 161.91 24.2896 161.88 24.2596C161.85 24.2296 161.82 24.1896 161.8 24.1496C161.66 23.5496 161.58 23.2396 161.58 23.1896C161.58 23.1396 161.6 23.1096 161.64 23.0696C161.68 23.0296 161.73 23.0096 161.79 23.0096H165.64V15.5796C165.64 15.5196 165.66 15.4696 165.7 15.4296C165.74 15.3896 165.79 15.3696 165.85 15.3696H167.82C167.88 15.3696 167.93 15.3896 167.97 15.4296C168.01 15.4696 168.03 15.5196 168.03 15.5796V23.0096L168.04 23.0296ZM190.71 30.5796C190.71 30.6396 190.69 30.6896 190.65 30.7296C190.61 30.7696 190.56 30.7896 190.5 30.7896H181.25V41.7396C181.25 41.8396 181.21 41.9296 181.14 41.9896C181.07 42.0496 181 42.1096 180.92 42.1696C180.85 42.2296 180.65 42.3196 180.32 42.4496C179.99 42.5696 179.66 42.6396 179.33 42.6396H179.02C178.96 42.6396 178.91 42.6196 178.87 42.5796C178.83 42.5396 178.81 42.4896 178.81 42.4296V30.8096H170.15C170.09 30.8096 170.04 30.7896 170.01 30.7596C169.98 30.7296 169.95 30.6896 169.93 30.6496C169.76 30.0096 169.68 29.6696 169.68 29.6296C169.68 29.5896 169.7 29.5496 169.74 29.5096C169.78 29.4696 169.83 29.4496 169.89 29.4496H178.8V17.7596H171.18C171.12 17.7596 171.07 17.7396 171.04 17.7096C171.01 17.6796 170.98 17.6396 170.96 17.5996C170.79 16.9596 170.71 16.6196 170.71 16.5796C170.71 16.5396 170.73 16.4996 170.77 16.4596C170.81 16.4196 170.86 16.3996 170.92 16.3996H189.82C189.88 16.3996 189.93 16.4196 189.97 16.4596C190.01 16.4996 190.03 16.5496 190.03 16.6096V17.5296C190.03 17.5896 190.01 17.6396 189.97 17.6796C189.93 17.7196 189.88 17.7396 189.82 17.7396H181.22V29.4296H190.47C190.53 29.4296 190.58 29.4496 190.62 29.4896C190.66 29.5296 190.68 29.5796 190.68 29.6396V30.5696L190.71 30.5796ZM173.04 19.2396H173.13C173.13 19.2396 173.22 19.2696 173.28 19.3296C175.5 21.4696 176.7 23.5796 176.89 25.6796C176.91 25.8696 176.92 26.0396 176.92 26.1996C176.92 27.1496 176.65 27.7796 176.12 28.1096C175.93 28.2096 175.75 28.2596 175.57 28.2596C175.22 28.2596 174.87 28.0896 174.52 27.7396C174.48 27.6996 174.46 27.6496 174.46 27.5896C174.44 25.4296 173.77 22.7996 172.46 19.6996C172.44 19.6596 172.43 19.6196 172.43 19.5796C172.43 19.5396 172.45 19.4996 172.48 19.4696C172.51 19.4396 172.55 19.4096 172.59 19.3896L173.05 19.2396H173.04ZM182.6 28.2396C182.52 28.1996 182.48 28.1496 182.48 28.0996C182.48 28.0496 182.48 27.9996 182.51 27.9596C183.5 25.4896 184.41 22.6196 185.25 19.3296C185.27 19.2896 185.3 19.2496 185.33 19.2196C185.36 19.1896 185.4 19.1696 185.44 19.1696C185.48 19.1696 185.52 19.1796 185.56 19.1996L187.66 20.3096C187.74 20.3496 187.78 20.3996 187.78 20.4496C187.78 20.4996 187.77 20.5496 187.75 20.5896C186.21 24.0196 184.75 26.6296 183.37 28.4196C183.31 28.4796 183.26 28.5096 183.22 28.5096C183.18 28.5096 183.14 28.5096 183.1 28.4796L182.61 28.2296L182.6 28.2396Z" fill="white"/>
<path d="M0.800095 43.1599C0.680095 43.1599 0.610088 43.0699 0.590088 42.8899V1.14987C0.590088 1.06987 0.610085 1.00987 0.650085 0.959869C0.690085 0.909869 0.740095 0.879883 0.800095 0.879883H2.55009C2.67009 0.879883 2.74009 0.969872 2.76009 1.14987V42.8899C2.76009 42.9699 2.74009 43.0299 2.70009 43.0799C2.66009 43.1299 2.61009 43.1599 2.55009 43.1599H0.800095Z" fill="#DCA435"/>
<path d="M209.7 43.1599C209.58 43.1599 209.51 43.0699 209.49 42.8899V1.14987C209.49 1.06987 209.51 1.00987 209.55 0.959869C209.59 0.909869 209.64 0.879883 209.7 0.879883H211.45C211.57 0.879883 211.64 0.969872 211.66 1.14987V42.8899C211.66 42.9699 211.64 43.0299 211.6 43.0799C211.56 43.1299 211.51 43.1599 211.45 43.1599H209.7Z" fill="#DCA435"/>
</svg>
