<svg width="152" height="152" viewBox="0 0 152 152" fill="none" xmlns="http://www.w3.org/2000/svg">
<circle cx="76" cy="76" r="76" fill="#DCA435"/>
<path d="M38.888 45.736H69.452V49.984H38.888V45.736ZM37.736 67.516H70.532V71.836H37.736V67.516ZM51.74 39.4H56.276V48.112H51.74V39.4ZM59.912 51.208L64.88 52.108C64.52 53.572 64.136 55.072 63.728 56.608C63.32 58.144 62.888 59.656 62.432 61.144C62 62.608 61.568 64 61.136 65.32C60.704 66.64 60.272 67.828 59.84 68.884L55.628 67.948C56.06 66.844 56.48 65.608 56.888 64.24C57.296 62.872 57.692 61.444 58.076 59.956C58.46 58.444 58.808 56.944 59.12 55.456C59.432 53.968 59.696 52.552 59.912 51.208ZM43.532 52.432L47.672 51.352C48.248 52.816 48.764 54.388 49.22 56.068C49.7 57.724 50.096 59.344 50.408 60.928C50.744 62.488 50.972 63.916 51.092 65.212L46.628 66.4C46.556 65.128 46.376 63.688 46.088 62.08C45.8 60.472 45.428 58.828 44.972 57.148C44.54 55.444 44.06 53.872 43.532 52.432ZM84.392 48.184H93.932V51.964H84.392V48.184ZM82.448 41.2H86.552V67.948L82.448 68.632V41.2ZM79.964 67.084C81.14 66.844 82.472 66.556 83.96 66.22C85.472 65.86 87.068 65.476 88.748 65.068C90.428 64.66 92.096 64.252 93.752 63.844L94.256 67.876C92.792 68.308 91.292 68.74 89.756 69.172C88.22 69.604 86.732 70.012 85.292 70.396C83.852 70.804 82.508 71.176 81.26 71.512L79.964 67.084ZM88.892 61.324L92.348 59.632C93.116 60.64 93.86 61.744 94.58 62.944C95.324 64.12 95.984 65.284 96.56 66.436C97.16 67.588 97.604 68.632 97.892 69.568L94.076 71.476C93.836 70.564 93.44 69.52 92.888 68.344C92.336 67.168 91.712 65.968 91.016 64.744C90.32 63.496 89.612 62.356 88.892 61.324ZM84.356 41.2H96.488V58.912H84.356V54.916H92.492V45.196H84.356V41.2ZM108.008 41.128H112.508V62.944C112.508 63.976 112.388 64.852 112.148 65.572C111.932 66.268 111.5 66.82 110.852 67.228C110.204 67.612 109.436 67.864 108.548 67.984C107.684 68.08 106.664 68.128 105.488 68.128C105.44 67.696 105.344 67.192 105.2 66.616C105.056 66.016 104.876 65.44 104.66 64.888C104.444 64.312 104.228 63.82 104.012 63.412C104.708 63.46 105.38 63.484 106.028 63.484C106.7 63.484 107.168 63.472 107.432 63.448C107.648 63.448 107.792 63.412 107.864 63.34C107.96 63.244 108.008 63.076 108.008 62.836V41.128ZM98.504 41.128H110.348V45.484H102.896V73.168H98.504V41.128ZM37.844 81.948H49.364V85.692H37.844V81.948ZM37.016 93.504H50.696V97.32H37.016V93.504ZM42.38 95.592H46.556V109.596C46.556 110.604 46.436 111.408 46.196 112.008C45.98 112.608 45.536 113.076 44.864 113.412C44.192 113.724 43.4 113.928 42.488 114.024C41.576 114.12 40.52 114.168 39.32 114.168C39.224 113.544 39.044 112.836 38.78 112.044C38.54 111.252 38.288 110.58 38.024 110.028C38.792 110.052 39.536 110.064 40.256 110.064C41 110.064 41.492 110.064 41.732 110.064C41.996 110.04 42.164 109.992 42.236 109.92C42.332 109.848 42.38 109.716 42.38 109.524V95.592ZM48.032 81.948H48.968L49.76 81.696L52.388 83.568C51.812 84.504 51.152 85.476 50.408 86.484C49.664 87.492 48.896 88.452 48.104 89.364C47.312 90.276 46.52 91.08 45.728 91.776C45.464 91.368 45.08 90.912 44.576 90.408C44.096 89.904 43.688 89.508 43.352 89.22C43.928 88.644 44.516 87.972 45.116 87.204C45.74 86.436 46.316 85.656 46.844 84.864C47.372 84.048 47.768 83.328 48.032 82.704V81.948ZM49.436 93.504H50.012L50.588 93.396L53.252 94.008C52.868 95.496 52.436 97.02 51.956 98.58C51.5 100.14 51.068 101.46 50.66 102.54L47.456 101.856C47.696 101.208 47.924 100.44 48.14 99.552C48.38 98.664 48.62 97.74 48.86 96.78C49.1 95.82 49.292 94.908 49.436 94.044V93.504ZM38.492 89.724L40.652 86.916C41.66 87.348 42.704 87.876 43.784 88.5C44.888 89.1 45.92 89.724 46.88 90.372C47.864 90.996 48.656 91.608 49.256 92.208L46.916 95.376C46.364 94.8 45.62 94.176 44.684 93.504C43.748 92.808 42.728 92.124 41.624 91.452C40.544 90.78 39.5 90.204 38.492 89.724ZM52.172 81.84H70.604V85.44H52.172V81.84ZM57.356 96.24V98.544H65.42V96.24H57.356ZM57.356 101.496V103.836H65.42V101.496H57.356ZM57.356 91.02V93.324H65.42V91.02H57.356ZM53.432 87.852H69.56V106.968H53.432V87.852ZM59.228 83.784L64.124 84.36C63.788 85.488 63.44 86.592 63.08 87.672C62.72 88.752 62.396 89.676 62.108 90.444L58.328 89.724C58.472 89.148 58.592 88.512 58.688 87.816C58.808 87.12 58.916 86.424 59.012 85.728C59.108 85.032 59.18 84.384 59.228 83.784ZM56.924 107.04L60.488 109.344C59.816 109.968 59.012 110.592 58.076 111.216C57.164 111.84 56.204 112.428 55.196 112.98C54.188 113.532 53.204 113.988 52.244 114.348C51.908 113.94 51.464 113.46 50.912 112.908C50.36 112.356 49.856 111.888 49.4 111.504C50.336 111.168 51.284 110.748 52.244 110.244C53.204 109.74 54.092 109.212 54.908 108.66C55.724 108.084 56.396 107.544 56.924 107.04ZM62.18 109.452L65.348 107.256C66.044 107.688 66.776 108.18 67.544 108.732C68.312 109.284 69.044 109.836 69.74 110.388C70.46 110.94 71.06 111.444 71.54 111.9L68.12 114.348C67.712 113.892 67.172 113.376 66.5 112.8C65.828 112.224 65.108 111.636 64.34 111.036C63.572 110.436 62.852 109.908 62.18 109.452ZM96.668 96.708L100.16 94.98C100.784 95.796 101.408 96.696 102.032 97.68C102.656 98.64 103.22 99.6 103.724 100.56C104.228 101.496 104.6 102.348 104.84 103.116L101.096 105.06C100.88 104.316 100.532 103.464 100.052 102.504C99.596 101.52 99.068 100.524 98.468 99.516C97.892 98.508 97.292 97.572 96.668 96.708ZM97.892 86.52H110.816V90.624H97.892V86.52ZM108.944 86.52H113.12C113.12 86.52 113.12 86.652 113.12 86.916C113.12 87.18 113.12 87.468 113.12 87.78C113.12 88.092 113.108 88.344 113.084 88.536C112.964 92.496 112.832 95.868 112.688 98.652C112.568 101.412 112.412 103.692 112.22 105.492C112.028 107.292 111.8 108.708 111.536 109.74C111.296 110.772 110.984 111.528 110.6 112.008C110.096 112.704 109.568 113.184 109.016 113.448C108.488 113.712 107.84 113.904 107.072 114.024C106.424 114.12 105.584 114.168 104.552 114.168C103.544 114.168 102.5 114.156 101.42 114.132C101.396 113.508 101.252 112.776 100.988 111.936C100.724 111.12 100.388 110.4 99.98 109.776C101.132 109.872 102.188 109.932 103.148 109.956C104.108 109.98 104.816 109.992 105.272 109.992C105.656 109.992 105.956 109.944 106.172 109.848C106.412 109.752 106.64 109.596 106.856 109.38C107.144 109.068 107.396 108.432 107.612 107.472C107.828 106.512 108.008 105.168 108.152 103.44C108.32 101.688 108.464 99.492 108.584 96.852C108.728 94.212 108.848 91.056 108.944 87.384V86.52ZM98.108 80.364L102.572 81.372C102.068 83.148 101.456 84.9 100.736 86.628C100.04 88.332 99.272 89.928 98.432 91.416C97.592 92.904 96.716 94.2 95.804 95.304C95.516 95.04 95.144 94.74 94.688 94.404C94.232 94.068 93.752 93.744 93.248 93.432C92.744 93.12 92.312 92.868 91.952 92.676C92.888 91.716 93.74 90.588 94.508 89.292C95.276 87.972 95.96 86.556 96.56 85.044C97.184 83.508 97.7 81.948 98.108 80.364ZM85.4 80.436L89.216 81.768C88.736 82.704 88.232 83.664 87.704 84.648C87.176 85.608 86.66 86.544 86.156 87.456C85.652 88.344 85.16 89.124 84.68 89.796L81.764 88.608C82.196 87.864 82.64 87.024 83.096 86.088C83.552 85.128 83.984 84.156 84.392 83.172C84.8 82.188 85.136 81.276 85.4 80.436ZM89.72 84.72L93.392 86.232C92.504 87.6 91.544 89.04 90.512 90.552C89.48 92.04 88.436 93.468 87.38 94.836C86.324 96.204 85.34 97.404 84.428 98.436L81.8 97.104C82.496 96.288 83.204 95.364 83.924 94.332C84.644 93.3 85.352 92.232 86.048 91.128C86.768 90.024 87.44 88.92 88.064 87.816C88.712 86.688 89.264 85.656 89.72 84.72ZM79.856 88.968L81.908 86.016C82.532 86.544 83.18 87.144 83.852 87.816C84.524 88.464 85.136 89.112 85.688 89.76C86.264 90.408 86.696 91.008 86.984 91.56L84.788 94.908C84.5 94.356 84.08 93.732 83.528 93.036C83 92.316 82.412 91.608 81.764 90.912C81.116 90.192 80.48 89.544 79.856 88.968ZM88.856 93.396L91.916 92.064C92.396 92.856 92.864 93.708 93.32 94.62C93.776 95.532 94.172 96.432 94.508 97.32C94.844 98.184 95.096 98.964 95.264 99.66L91.952 101.172C91.808 100.5 91.58 99.72 91.268 98.832C90.956 97.92 90.584 96.996 90.152 96.06C89.744 95.1 89.312 94.212 88.856 93.396ZM79.856 96.276C81.512 96.228 83.504 96.156 85.832 96.06C88.184 95.964 90.572 95.856 92.996 95.736L92.96 99.156C90.704 99.324 88.46 99.492 86.228 99.66C83.996 99.804 81.992 99.924 80.216 100.02L79.856 96.276ZM89.468 102.396L92.636 101.352C93.14 102.432 93.608 103.608 94.04 104.88C94.472 106.152 94.784 107.256 94.976 108.192L91.628 109.416C91.46 108.456 91.172 107.328 90.764 106.032C90.356 104.712 89.924 103.5 89.468 102.396ZM81.404 101.568L84.968 102.216C84.776 103.944 84.488 105.648 84.104 107.328C83.72 109.008 83.276 110.424 82.772 111.576C82.532 111.408 82.208 111.216 81.8 111C81.392 110.808 80.972 110.616 80.54 110.424C80.132 110.232 79.772 110.088 79.46 109.992C79.988 108.912 80.408 107.628 80.72 106.14C81.032 104.628 81.26 103.104 81.404 101.568ZM85.58 98.184H89.396V114.24H85.58V98.184Z" fill="white"/>
</svg>
