<svg width="259" height="22" viewBox="0 0 259 22" fill="none" xmlns="http://www.w3.org/2000/svg">
<g clip-path="url(#clip0_4_201)">
<path d="M187.578 10.5702C187.578 15.9946 183.182 20.3908 177.757 20.3908C172.333 20.3908 167.937 15.9946 167.937 10.5702C167.937 5.14579 172.333 0.749512 177.757 0.749512C183.182 0.749512 187.578 5.14579 187.578 10.5702Z" fill="white"/>
<path d="M177.752 20.3908C183.176 20.3908 187.572 15.994 187.572 10.5702C187.572 5.14637 183.176 0.749512 177.752 0.749512C172.328 0.749512 167.931 5.14637 167.931 10.5702C167.931 15.994 172.328 20.3908 177.752 20.3908Z" stroke="white" stroke-width="1.49934" stroke-miterlimit="10"/>
<path d="M175.219 6.68247C177.853 4.18178 181.109 2.50574 182.935 2.93412C181.457 1.93278 179.674 1.34375 177.752 1.34375C172.649 1.34375 168.52 5.47764 168.52 10.5807C168.52 12.7601 169.275 14.7628 170.539 16.3425C169.8 13.9061 172.284 9.47231 175.219 6.68782" fill="#C7000B"/>
<path d="M184.145 3.91406C184.638 5.03321 184.049 6.84313 182.009 9.03859C179.562 11.6624 177.752 12.8405 176.579 12.1176C175.401 11.3947 178.298 7.58744 179.203 7.04661C180.108 6.50578 179.744 8.13363 179.744 8.13363C179.744 8.13363 183.728 5.68649 182.55 4.33174C181.789 3.45891 177.934 6.23268 175.851 8.94756C173.768 11.6624 172.627 14.4309 173.859 15.7374C175.396 17.3653 178.93 15.1912 181.918 12.9315C183.005 12.1176 183.005 12.6584 182.641 13.2046C182.641 13.2046 177.184 20.1069 172.317 18.04C173.843 19.1538 175.722 19.8124 177.752 19.8124C182.855 19.8124 186.989 15.6785 186.989 10.5808C186.989 7.96228 185.896 5.60082 184.145 3.91942" fill="#C7000B"/>
<path d="M217.254 7.86608C217.254 7.73221 217.152 7.62511 217.013 7.62511H214.748C214.871 7.41627 214.994 7.18066 215.144 6.92899L215.246 6.75764H216.788V5.86339C216.788 5.72952 216.676 5.61707 216.542 5.61707H212.74C212.638 5.33326 212.515 5.02269 212.381 4.77637L210.941 5.03875C211.016 5.2101 211.091 5.4243 211.149 5.62242H206.941V6.76299H208.681C208.708 6.81118 208.74 6.8808 208.772 6.95041C208.858 7.14853 208.959 7.39485 209.018 7.63046H206.523V8.77103H217.249V7.87678L217.254 7.86608ZM213.238 7.62511H210.518C210.443 7.36273 210.309 7.03073 210.17 6.75764H213.586C213.5 7.02002 213.361 7.34131 213.238 7.62511Z" fill="white"/>
<path d="M213.538 15.1864H210.946C210.389 15.1864 210.191 15.1489 210.191 14.8276V13.7834C210.191 13.6496 210.084 13.5425 209.95 13.5371H208.756V14.8383C208.756 16.0057 209.238 16.3644 210.796 16.3644H214.079C215.23 16.3644 215.471 15.5826 215.481 14.2975H214.132C214.068 15.165 213.998 15.1864 213.538 15.1864Z" fill="white"/>
<path d="M216.205 12.9905V9.46165C216.205 9.32778 216.097 9.22069 215.964 9.21533H207.546V12.9958H211.176L210.769 13.4938C211.476 13.9275 212.199 14.6344 212.66 15.0146L213.693 14.1096C213.383 13.8633 212.622 13.3117 212.033 12.9958H216.21L216.205 12.9905ZM208.938 10.131H214.743V10.6665H208.938V10.131ZM208.938 11.5072H214.743V12.0641H208.938V11.5072Z" fill="white"/>
<path d="M206.105 15.7861H207.728C208.022 15.1275 208.338 14.0405 208.515 13.5371H207.187C206.882 14.2386 206.368 15.3631 206.111 15.7861" fill="white"/>
<path d="M216.204 13.2637L215.283 13.8366C215.765 14.3882 216.67 15.4323 216.949 15.8447L217.988 14.929C217.715 14.5809 216.515 13.5314 216.199 13.2583" fill="white"/>
<path d="M201.329 7.11644C201.329 6.98257 201.217 6.87012 201.083 6.87012H199.942V13.7885H201.329V7.11644Z" fill="white"/>
<path d="M203.407 5.20482C203.407 5.07095 203.294 4.9585 203.16 4.9585H201.993V14.7149C201.993 14.9237 201.907 14.988 201.709 14.988C201.511 14.988 200.868 14.988 200.237 14.9773L200.67 16.4552C201.661 16.4552 202.368 16.407 202.802 16.1553C203.262 15.9197 203.407 15.5235 203.407 14.731V5.20482Z" fill="white"/>
<path d="M198.941 13.1942H194.587C194.614 13.071 194.625 12.83 194.646 12.7069H198.951V9.06029C198.951 8.92106 198.839 8.81396 198.705 8.81396H193.436V10.2383C193.436 11.6895 193.334 14.0027 192.36 15.5771H193.929C194.148 15.0791 194.319 14.4472 194.443 13.8849V16.2892H199.192V13.4351C199.192 13.3013 199.08 13.1942 198.946 13.1942M194.796 10.2383V9.78318H197.607V10.3133H194.796V10.2383ZM194.775 11.1379H197.613V11.6895H194.748C194.759 11.5181 194.775 11.2986 194.775 11.1379ZM197.896 15.2022H195.664V14.1527H197.896V15.2022Z" fill="white"/>
<path d="M197.222 5.17808L196.311 4.69079C196.145 4.60511 196.06 4.58905 195.872 4.81395C194.973 5.91704 193.907 7.0576 192.354 8.52481H194.239C194.475 8.30527 194.759 8.04824 194.951 7.81263V8.3963H197.961V7.75908C198.427 8.11785 198.828 8.43914 198.951 8.54088L199.664 7.30928C199.096 6.8809 197.913 6.06697 196.997 5.50472C197.072 5.39762 197.147 5.29588 197.222 5.17808ZM197.607 7.48063H195.24C195.53 7.18076 195.926 6.73096 196.204 6.43109C196.392 6.55425 197.002 7.02012 197.607 7.48063Z" fill="white"/>
<path d="M258.475 8.36407H256.515V5.18333C256.515 5.05482 256.414 4.94772 256.285 4.93701H255.102V8.36407H252.917V12.1874C252.917 13.3654 252.719 15.3735 252.162 16.3802H253.613C253.774 15.8822 254.041 14.7523 254.111 14.2115C254.357 14.1205 256.414 13.6225 257.393 13.3654V14.8755C257.393 15.0361 257.329 15.1004 257.147 15.1004C256.96 15.1111 256.365 15.1111 255.798 15.0736L256.205 16.4391C257.11 16.4391 257.699 16.4284 258.132 16.2035C258.593 15.9786 258.716 15.5823 258.716 14.9023V8.61039C258.716 8.47652 258.609 8.36943 258.475 8.36407ZM257.393 12.1499C256.189 12.423 255.086 12.6961 254.207 12.8674C254.213 12.7496 254.213 11.8715 254.207 11.0468C254.207 10.2543 254.207 9.60638 254.207 9.60638H257.393V12.1499Z" fill="white"/>
<path d="M252.205 14.4632L250.775 14.6881V11.486H252.226V10.2329H250.775V9.2316H251.782V8.32129C252.007 8.54083 252.183 8.71754 252.258 8.7818L252.895 7.68407C252.414 7.23962 251.798 6.62918 250.909 5.91164C250.946 5.85809 251.091 5.62783 251.16 5.53145L250.357 5.04416C250.165 4.94242 250.079 4.90494 249.886 5.13519C249.179 6.06693 248.226 7.13253 246.946 8.47658H248.247V9.2316H249.586V10.2329H247.862V11.486H249.586V14.8862C249.003 14.9773 248.322 15.0576 247.862 15.1272V16.5087C249.067 16.2303 250.754 15.9197 252.253 15.5556L252.205 14.4579V14.4632ZM249.094 8.07497C249.49 7.64123 250.052 7.03079 250.223 6.84872C250.416 6.97724 251.021 7.57162 251.53 8.07497H249.099H249.094Z" fill="white"/>
<path d="M251 14.008L251.873 14.2757C252.076 13.7563 252.322 12.9584 252.563 12.257L251.45 11.9785C251.337 12.6425 251.171 13.4082 251 14.008Z" fill="white"/>
<path d="M249.302 14.2385C249.211 13.6601 249.008 12.7498 248.799 12.0537L247.808 12.3107C247.99 13.0015 248.183 13.9172 248.247 14.533L249.302 14.2385Z" fill="white"/>
<path d="M254.7 7.63062C254.539 7.10585 254.202 6.13663 253.795 5.46729L252.617 6.00276C253.195 6.9934 253.409 7.893 253.495 8.1179L254.705 7.63597L254.7 7.63062Z" fill="white"/>
<path d="M259 5.97571L257.757 5.53662C257.522 6.27558 257.27 7.02525 256.922 7.67318L258.148 8.13904C258.491 7.48576 258.764 6.80035 259 5.98107" fill="white"/>
<path d="M257.297 11.0578C256.729 10.7205 255.621 10.3403 254.77 10.1636L254.213 11.0364C255.069 11.2774 256.119 11.7004 256.665 12.0485L257.297 11.0578Z" fill="white"/>
<path d="M244.783 8.84619H238.55V10.2491H241.806V14.7579C241.806 14.9453 241.72 14.9935 241.495 14.9935C241.27 15.0042 240.456 15.0042 239.75 14.9667L240.194 16.466C241.297 16.466 242.111 16.4393 242.63 16.2197C243.177 15.9948 243.327 15.5879 243.327 14.7954V10.2491H245.024V9.09251C245.024 8.95864 244.917 8.8569 244.783 8.85155" fill="white"/>
<path d="M244.804 5.97044C244.804 5.83657 244.697 5.72412 244.563 5.72412H238.78V7.12707H244.804V5.97044Z" fill="white"/>
<path d="M237.57 7.53935C237.34 7.44296 237.243 7.41084 237.077 7.64109C237.077 7.64109 237.077 7.64109 237.077 7.64645C236.044 9.07617 234.754 10.538 233.506 11.7964H235.412V16.4229H236.885V10.2596C237.393 9.59559 238.186 8.57282 238.555 7.94096L237.57 7.534V7.53935Z" fill="white"/>
<path d="M235.498 8.44431C236.097 7.76426 237.029 6.59156 237.64 5.72944L236.681 5.33319L236.611 5.30641C236.499 5.26357 236.392 5.24751 236.242 5.44564C236.231 5.4617 236.221 5.47241 236.21 5.48312C235.428 6.50588 234.341 7.66787 233.597 8.44431H235.498Z" fill="white"/>
<path d="M228.868 11.5611C229.415 11.1917 230.079 10.7044 230.577 10.3188L229.661 9.51026C229.479 9.35497 229.377 9.41923 229.265 9.51561C228.665 10.0779 227.792 10.7311 227.026 11.2452C226.78 10.7097 226.421 10.1903 225.934 9.74587C226.207 9.57452 226.453 9.31213 226.678 9.11401H229.377V8.1555C229.377 8.02163 229.27 7.91453 229.136 7.90918H222.502V9.11401H224.681C223.503 9.70839 222.041 10.2546 220.643 10.5437L221.398 11.695C222.566 11.3844 223.765 10.9614 224.847 10.3938C224.954 10.4955 225.104 10.699 225.179 10.849C224.103 11.5665 222.084 12.3055 220.558 12.6267L221.291 13.7673C222.705 13.3336 224.499 12.5357 225.741 11.7539C225.816 11.9146 225.907 12.1127 225.955 12.2626C224.552 13.355 222.336 14.3242 220.376 14.7472L221.147 15.9735C222.796 15.4755 224.777 14.533 226.191 13.5638C226.191 14.1582 226.009 14.6401 225.822 14.8597C225.618 15.1006 225.425 15.1435 225.125 15.1435C224.826 15.1435 224.445 15.1328 224.012 15.0792L224.408 16.4822C224.767 16.4929 225.141 16.509 225.415 16.4929C226.057 16.4822 226.453 16.359 226.914 15.9413C227.519 15.3845 227.824 13.9654 227.476 12.4768C227.621 12.3804 227.728 12.3001 227.851 12.2144C228.461 13.7138 229.382 14.9721 230.577 15.7486L231.792 14.683C230.539 13.9976 229.575 12.9587 228.884 11.5665" fill="white"/>
<path d="M221.934 7.17002H229.865V8.70149H231.273V6.21687C231.273 6.083 231.16 5.9759 231.032 5.9759H226.86C226.737 5.61713 226.523 5.1352 226.325 4.79785L224.761 5.2423C224.863 5.42972 224.97 5.73494 225.061 5.97055H220.574V8.70149H221.934V7.17002Z" fill="white"/>
<path d="M37.3656 5.87427V3.229C32.6373 4.96931 26.9987 5.91175 21.071 5.91175C15.1432 5.91175 9.50999 4.97466 4.77637 3.229V5.87427C9.60102 7.52354 15.2128 8.40708 21.071 8.40708C26.9291 8.40708 32.5409 7.52354 37.3656 5.87427Z" fill="#DCA435"/>
<path d="M42.1421 11.8236C35.4808 10.5277 28.375 9.84766 21.0711 9.84766C13.7671 9.84766 6.66135 10.5277 0 11.8236V14.3617C5.25304 13.3122 10.8059 12.6643 16.5249 12.4394C14.3776 15.0043 10.0616 17.0552 4.78182 17.9976V20.5465C11.9412 19.3845 17.4726 16.3162 19.5717 12.359C20.0697 12.3537 20.5731 12.343 21.0711 12.343C21.5691 12.343 22.0724 12.3537 22.5704 12.359C24.6695 16.3162 30.201 19.3845 37.3603 20.5465V17.9976C32.0805 17.0552 27.7645 15.0043 25.6173 12.4394C31.3362 12.6643 36.8891 13.3122 42.1421 14.3617V11.8236Z" fill="#DCA435"/>
<path d="M51.7111 16.8623C51.4487 16.8623 51.3202 16.7766 51.3202 16.6106C51.3684 15.8717 51.4059 15.1273 51.422 14.3777V13.1246C51.0257 14.3723 50.4849 15.3094 49.7888 15.9359L49.6121 15.8342C49.7138 15.4915 49.7941 15.1755 49.8637 14.8917C49.9494 14.4794 49.9976 14.0243 50.019 13.5102C50.0404 13.0015 50.0244 12.5731 49.9762 12.2304L51.422 12.557V11.4165C51.106 11.5396 50.8008 11.6574 50.5063 11.7538C50.4313 11.9198 50.3135 12.0109 50.1529 12.0323L49.6281 10.4526C49.9869 10.4526 50.4849 10.4419 51.1221 10.4151C51.3417 9.94391 51.5666 9.42985 51.8129 8.85689C52.1877 7.93587 52.4394 7.13265 52.5679 6.44724C53.4943 6.83814 54.0779 7.11659 54.3136 7.27723C54.4903 7.39503 54.501 7.47536 54.351 7.51819L54.1101 7.58245C53.6924 8.13399 53.2694 8.65341 52.841 9.14069L52.8892 9.12998C53.5907 9.38166 54.094 9.71365 54.3939 10.1206C54.6509 10.4633 54.7419 10.8007 54.6563 11.138C54.5813 11.454 54.4046 11.6574 54.1315 11.7378C53.8316 11.8234 53.5425 11.7271 53.264 11.4486C53.264 11.1702 53.2426 10.9292 53.1998 10.7204L52.9856 10.8221V12.0912L53.0605 12.0644C53.7031 12.3643 54.1636 12.723 54.4421 13.1407C54.667 13.4941 54.7366 13.8368 54.6563 14.1688C54.5813 14.4794 54.4153 14.6722 54.1529 14.7471C53.8691 14.8221 53.6014 14.7204 53.3497 14.4473C53.3765 13.8475 53.2533 13.1246 52.9856 12.2893V13.6708C53.0123 14.8328 53.0391 15.7324 53.0712 16.3696C53.0123 16.4767 52.8731 16.5838 52.6589 16.6856C52.3751 16.8087 52.0592 16.873 51.7058 16.873L51.7111 16.8623ZM50.4206 9.05502C50.3457 8.4178 50.0833 7.78058 49.6281 7.14871L49.7406 7.08446C50.185 7.15942 50.5491 7.26652 50.8329 7.4111V7.38432C51.0579 6.47937 51.1703 5.63331 51.1703 4.83545C52.1716 5.16209 52.8035 5.3977 53.0659 5.53693C53.248 5.63867 53.2694 5.71899 53.1141 5.77789L52.8731 5.87963C52.3805 6.53827 51.8236 7.1273 51.2024 7.636C51.5451 7.89303 51.7058 8.19825 51.6897 8.54096C51.679 8.85153 51.5451 9.06573 51.2774 9.19424C50.9989 9.33882 50.7151 9.29063 50.4099 9.05502H50.4206ZM51.7111 10.3884C52.1127 10.3616 52.584 10.3402 53.1302 10.3134C53.0445 9.95462 52.932 9.58514 52.7928 9.21031C52.418 9.63869 52.0538 10.0296 51.7165 10.3884H51.7111ZM53.4461 16.8355L53.3711 16.6963C54.5063 15.8342 55.1971 14.6186 55.4274 13.0443C55.4702 12.7927 55.4809 12.4071 55.4648 11.8877C55.4488 11.4379 55.4166 11.047 55.3792 10.715C55.3417 10.383 55.3149 10.3348 55.3042 10.5704L56.5358 10.5597L57.6282 10.6079C57.6014 10.8274 57.4568 10.9506 57.1891 10.9827C57.1409 12.4071 56.8892 13.537 56.434 14.3723C55.8504 15.47 54.8544 16.2893 53.4461 16.8302V16.8355ZM54.8383 10.8007L54.185 8.89437C54.7955 8.89437 55.3203 8.89437 55.7647 8.88366C55.9414 8.18219 56.0646 7.57174 56.1395 7.05233H55.497C55.1435 7.06304 54.7794 7.12194 54.3939 7.22904L54.0672 6.60253C54.517 6.65072 55.0632 6.6882 55.7004 6.70427H56.4769C56.4769 5.98673 56.4448 5.41377 56.3751 4.98538C57.3872 5.17816 58.0298 5.32273 58.3082 5.42448C58.4903 5.49944 58.5278 5.57976 58.4207 5.66544L58.2333 5.7886V6.70427H58.924L59.2989 6.16343C59.331 6.1206 59.3845 6.05634 59.4488 5.95995C59.6094 5.73505 59.7112 5.6226 59.7647 5.6226C59.8504 5.6226 60.1021 5.80466 60.5305 6.16879C60.9588 6.53291 61.173 6.76317 61.173 6.8542C61.1409 6.98807 61.0285 7.05768 60.8357 7.05768H58.1744C57.5478 7.802 56.9749 8.40709 56.4662 8.87831C56.916 8.8676 57.6603 8.85153 58.6884 8.81405H58.8758C58.7152 8.48741 58.4849 8.07509 58.1851 7.58245L58.2868 7.51819C59.1918 7.72703 59.8718 8.05367 60.3323 8.49812C60.7179 8.8676 60.9106 9.26385 60.9106 9.69223C60.8999 10.0778 60.75 10.3509 60.4608 10.5062C60.1503 10.6668 59.8183 10.6133 59.4541 10.3455C59.3899 10.0349 59.2667 9.67617 59.09 9.26385C58.1101 9.63333 56.8196 10.0564 55.2132 10.5329C55.1275 10.6829 55.0043 10.7739 54.8383 10.8114V10.8007ZM58.9669 16.5464C58.4582 16.5464 58.1262 16.4446 57.9762 16.2465C57.8316 16.0698 57.762 15.711 57.762 15.1648V12.7927C57.762 11.8234 57.7138 11.0095 57.6121 10.3562C58.5813 10.549 59.1971 10.6989 59.4541 10.806C59.6309 10.881 59.6576 10.9613 59.5398 11.047L59.3524 11.1702V14.6829C59.3524 14.8168 59.406 14.8864 59.513 14.8864H59.9896C60.0914 14.8703 60.1663 14.8221 60.2145 14.7364C60.2895 14.5865 60.4662 14.0457 60.7393 13.1193H60.8625L60.8999 14.8275C61.0659 14.9185 61.1784 15.0202 61.2373 15.1273C61.2801 15.213 61.3015 15.3415 61.3015 15.5182C61.3015 16.2036 60.7179 16.5464 59.5452 16.5464H58.9562H58.9669Z" fill="white"/>
<path d="M63.1972 16.8624C63.1705 16.2948 63.0955 15.9039 62.9723 15.695C62.8224 15.4273 62.544 15.2506 62.1316 15.1703V15.0096C62.5065 15.0257 62.8867 15.0471 63.2615 15.0739C63.4061 15.0739 63.4757 15.0096 63.4757 14.8865V12.2251L63.0473 12.525C62.9884 12.7178 62.876 12.8356 62.71 12.8891L62.0674 10.9079C62.2709 10.865 62.7367 10.7526 63.4703 10.5705V8.3108H63.0794C62.8706 8.32151 62.6618 8.37506 62.4529 8.48751L62.1263 7.861C62.378 7.90919 62.6885 7.94667 63.0527 7.96274H63.465V7.43797C63.465 6.38308 63.4114 5.52631 63.3043 4.86768C64.0005 5.01225 64.5038 5.12471 64.8197 5.22109C65.1035 5.30677 65.2695 5.38173 65.3231 5.44599C65.3659 5.48883 65.3392 5.53702 65.2481 5.59593L65.0339 5.73515V7.9199L65.3124 7.34158C65.3392 7.29339 65.3713 7.21842 65.4141 7.12739C65.5373 6.87572 65.6283 6.75256 65.6765 6.75256C65.7515 6.75256 65.9389 6.95604 66.2334 7.36836C66.5279 7.78068 66.6778 8.027 66.6778 8.12338C66.6511 8.25725 66.5493 8.32686 66.3619 8.32686H65.0339V10.1743C65.5855 10.0243 66.0567 9.89046 66.4369 9.77265L66.4637 9.8851C66.0728 10.2385 65.5962 10.6348 65.0339 11.0792V15.0043C65.0339 15.6254 64.9268 16.0592 64.718 16.3108C64.461 16.6268 63.9469 16.8195 63.1865 16.8892L63.1972 16.8624ZM66.6082 16.8624L66.5226 16.7017C67.299 16.1663 67.9791 15.4916 68.5574 14.683C69.1036 13.9119 69.5212 13.0658 69.8265 12.1341H69.7783C69.0018 13.5478 67.6417 14.6616 65.6979 15.4701L65.5962 15.3095C66.6243 14.5545 67.4382 13.5692 68.0326 12.3483C67.2936 12.9266 66.4101 13.4246 65.3713 13.853L65.2695 13.6924C66.2227 12.9962 66.9884 12.0431 67.5667 10.8168H67.042C66.7582 10.8275 66.4637 10.8811 66.1638 10.9935L65.8479 10.367C66.3084 10.4152 66.8653 10.4527 67.5185 10.4688H71.3847L72.038 9.6013C71.781 9.70304 71.54 9.75123 71.3204 9.75123H71.0206V9.30143H68.5841V9.59059C68.5841 9.67627 68.4342 9.77801 68.1343 9.90652C67.8077 10.0511 67.4918 10.1207 67.1812 10.1207C66.9724 10.1207 66.8653 10.035 66.8653 9.86904C66.8974 9.49956 66.9242 9.02834 66.9402 8.45002V7.60932C66.9402 6.55443 66.8867 5.70302 66.7796 5.04974L68.6484 5.7887H70.8921L71.2455 5.36032C71.2455 5.36032 71.3044 5.29606 71.3472 5.24787C71.5239 5.03903 71.6417 4.93193 71.7006 4.93193C71.7863 4.93193 72.054 5.114 72.5146 5.47277C72.9751 5.83154 73.2053 6.05644 73.2053 6.15282C73.1036 6.27598 72.9483 6.37237 72.7288 6.43127V9.20505C72.7288 9.26931 72.6109 9.36034 72.3753 9.46743C72.4021 9.49421 72.4449 9.53169 72.5146 9.57988C73.0929 10.0511 73.5105 10.3938 73.7676 10.6241C73.7408 10.7579 73.6284 10.8275 73.4302 10.8275H69.4248C69.216 11.1542 68.959 11.4755 68.6591 11.7914H71.4436L71.8452 11.3898C71.888 11.3577 71.9416 11.3041 72.0059 11.2292C72.1719 11.0632 72.2843 10.9775 72.3325 10.9775C72.4182 10.9775 72.6645 11.1595 73.0875 11.5237C73.5105 11.8878 73.714 12.118 73.714 12.2091C73.623 12.3269 73.457 12.4019 73.2267 12.434C73.1518 13.6656 73.034 14.5759 72.8733 15.1703C72.7073 15.7647 72.461 16.177 72.1344 16.4126C71.7221 16.6964 71.1866 16.841 70.5279 16.841C70.544 16.2894 70.4797 15.9146 70.3245 15.7111C70.1477 15.4701 69.8372 15.2881 69.3981 15.1703C68.6431 15.8396 67.7167 16.4072 66.6136 16.8784L66.6082 16.8624ZM68.5788 7.363H71.0152V6.1314H68.5788V7.363ZM68.5788 8.94266H71.0152V7.71106H68.5788V8.94266ZM70.6243 15.0792C70.785 15.0792 70.9081 15.0471 70.9992 14.9775C71.2562 14.7687 71.4436 13.8209 71.5507 12.1288H71.5025C71.0902 13.2265 70.4423 14.1903 69.5427 15.0257C70.046 15.0578 70.4048 15.0739 70.6243 15.0739V15.0792Z" fill="white"/>
<path d="M85.1572 16.7607C84.8038 16.6429 84.4664 16.4287 84.1398 16.1075C83.856 15.8237 83.6257 15.5559 83.449 15.3042C82.6619 15.9468 81.7034 16.4234 80.5735 16.734L80.4718 16.5733C81.4249 16.0218 82.2228 15.2828 82.8707 14.3672C82.5119 13.6978 82.2281 12.916 82.0193 12.0218H81.2428C81.2161 12.3752 81.1679 12.7232 81.0929 13.0767C81.6391 13.2105 82.0193 13.4247 82.2495 13.7192C82.4316 13.9602 82.4798 14.2172 82.3888 14.485C82.3031 14.7259 82.1371 14.8812 81.8854 14.9508C81.6177 15.0258 81.3606 14.9508 81.109 14.7259C81.1357 14.3939 81.0822 14.0459 80.9483 13.6978C80.5307 15.0526 79.6311 16.0967 78.2495 16.8357L78.1264 16.6751C78.7261 16.0057 79.1438 15.2293 79.3687 14.3511C79.5186 13.7835 79.6096 13.007 79.6311 12.0325H79.192C79.1063 12.2841 78.951 12.4394 78.7261 12.4983C78.4851 12.5626 78.2549 12.4823 78.0353 12.2467C78.0675 11.6255 77.9497 10.9936 77.6819 10.3511V13.3765C77.698 14.4153 77.7301 15.3953 77.7836 16.327C77.7247 16.4341 77.5641 16.5465 77.2964 16.6644C77.0019 16.7875 76.7127 16.8518 76.4289 16.8518C76.1451 16.8518 76.0005 16.7661 76.0005 16.6001C76.0005 16.5519 76.0005 16.4823 76.0112 16.3966C76.0701 15.5184 76.1076 14.6402 76.1237 13.7621V12.2199C75.7381 12.8143 75.2669 13.3712 74.7047 13.8906L74.5654 13.7674C75.2241 12.5037 75.6846 10.7473 75.947 8.49831H75.5935C75.4115 8.50902 75.2241 8.56257 75.042 8.67502L74.7154 8.04851C74.9724 8.09671 75.2937 8.13419 75.6685 8.15025H76.1183V7.4702C76.1183 6.41531 76.0648 5.55854 75.9577 4.8999C76.6538 5.04984 77.1571 5.173 77.4731 5.26403C77.7569 5.3497 77.9229 5.42467 77.9764 5.48893C78.0193 5.53177 77.9925 5.57996 77.9015 5.63886L77.6766 5.77809V7.90929L77.8908 7.49697C77.8908 7.49697 77.9282 7.43271 77.955 7.37381C78.0621 7.18104 78.1424 7.08465 78.196 7.08465C78.2709 7.08465 78.453 7.26672 78.7475 7.62549C79.042 7.98426 79.1866 8.20916 79.1866 8.30554C79.1598 8.43941 79.0581 8.50902 78.8707 8.50902H77.6766V10.003C78.2013 10.2279 78.6029 10.5064 78.8707 10.833C79.0956 11.1114 79.2187 11.3953 79.2348 11.7005H81.9336C81.9068 11.5827 81.8747 11.406 81.8319 11.1596L81.7569 10.7098C81.6391 10.7848 81.5052 10.8169 81.3553 10.7955C81.2054 10.7687 81.0608 10.6884 80.9162 10.5438C80.9162 10.3671 80.9055 10.1904 80.8787 10.0191C80.5253 10.2707 80.1023 10.5653 79.6096 10.8973C79.5347 11.0579 79.4276 11.1489 79.283 11.1757L78.5815 9.70849C78.6672 9.70849 78.8225 9.7085 79.0474 9.69779C79.2401 9.68172 79.3847 9.67101 79.4865 9.67101C79.5454 9.51037 79.631 9.25869 79.7489 8.90528C79.8238 8.66967 79.8827 8.49296 79.9256 8.38051C79.69 8.46619 79.4543 8.41264 79.2241 8.23058C79.208 7.98961 79.1384 7.72187 79.0099 7.43807C78.9028 7.18639 78.7689 6.96685 78.619 6.77408L78.7314 6.69911C78.9082 6.71517 79.117 6.75801 79.358 6.82227C79.4597 6.14757 79.5079 5.53177 79.5079 4.99093C80.3111 5.27474 80.8091 5.47822 81.0019 5.60673C81.1518 5.69776 81.1572 5.77273 81.0126 5.83163L80.7877 5.91731C80.3968 6.37782 80.0701 6.74195 79.8078 7.00969C79.9898 7.12749 80.129 7.25601 80.2201 7.40058L80.4075 6.77408L81.4731 7.21317C81.457 6.26002 81.4463 5.52106 81.4463 5.007C82.3406 5.09267 82.9028 5.16764 83.1277 5.24796C83.2937 5.29616 83.3098 5.37112 83.1759 5.46215L82.9617 5.60138C82.951 5.84234 82.951 6.20111 82.951 6.67769L82.9885 6.65092C83.1706 6.67769 83.3312 6.71517 83.4651 6.76337C83.5722 6.09402 83.6204 5.50499 83.6043 4.99629C84.4396 5.29616 84.9591 5.51035 85.1625 5.63886C85.3125 5.7406 85.3178 5.82092 85.1732 5.87983L84.9323 5.9655C84.6003 6.30821 84.2576 6.63485 83.9149 6.94543C84.1077 7.05252 84.2469 7.18104 84.3433 7.32026L84.445 6.94543L84.4825 6.83298C84.5414 6.65092 84.5949 6.55453 84.6431 6.55453C84.7449 6.55453 85.018 6.64556 85.4571 6.83298C85.9283 7.02575 86.1585 7.16497 86.1585 7.2453C86.0836 7.41129 85.9283 7.48626 85.6927 7.45949C85.532 7.66297 85.2857 7.96284 84.9537 8.36445L85.0019 8.35374C85.5213 8.5947 85.8854 8.88386 86.0943 9.22121C86.271 9.49966 86.3138 9.76204 86.2335 10.0137C86.1692 10.2493 86.0247 10.3939 85.8051 10.4528C85.5695 10.501 85.3553 10.4207 85.1518 10.2011C85.1625 10.078 85.1518 9.87985 85.1411 9.61211C84.7716 9.84772 84.3807 10.0833 83.9631 10.3296C84.3968 10.3457 84.702 10.4475 84.8787 10.6295C85.0287 10.7795 85.0662 10.9508 84.9912 11.1436C84.9162 11.3363 84.777 11.4595 84.5789 11.5184C84.3433 11.5934 84.113 11.5505 83.8881 11.3953C83.8774 11.1543 83.7971 10.8973 83.6364 10.6295C83.5882 10.6456 83.5507 10.6563 83.524 10.6563L83.0367 9.27476C83.101 10.2011 83.2241 11.0204 83.4008 11.7219H84.7074L84.9858 11.2721C85.0126 11.2293 85.0501 11.1703 85.0983 11.0954C85.2161 10.9026 85.3018 10.8062 85.35 10.8062C85.4249 10.8062 85.6177 10.9615 85.9229 11.2721C86.2281 11.5827 86.3834 11.7808 86.3834 11.8718C86.3567 12.0057 86.2549 12.0753 86.0675 12.0753H84.3968C85.0662 12.3698 85.4785 12.5787 85.6391 12.7018C85.7569 12.8036 85.7409 12.8678 85.5909 12.9053L85.3392 12.9535C85.1197 13.4033 84.8573 13.8263 84.5467 14.2065C84.6699 14.3511 84.8198 14.501 84.9858 14.6563C85.0715 14.7473 85.1358 14.7902 85.1893 14.7795C85.2429 14.7688 85.2964 14.7152 85.35 14.6028C85.5909 14.1744 85.8372 13.655 86.0782 13.0338L86.2174 13.0606L85.939 15.2293C86.3299 15.9468 86.4263 16.418 86.2174 16.6322C85.9497 16.9 85.5963 16.9589 85.1518 16.8089L85.1572 16.7607ZM79.9256 9.60675L80.793 9.55856C80.7502 9.40863 80.6859 9.19444 80.6056 8.91599L80.5949 8.8785C80.5681 8.91063 80.5307 8.95883 80.4718 9.01773C80.2308 9.28547 80.0487 9.48359 79.9309 9.60675H79.9256ZM81.5802 9.18373C81.5641 8.97489 81.5481 8.65896 81.532 8.23058C81.5213 8.02174 81.5159 7.86645 81.5052 7.76471C81.441 7.83968 81.3446 7.95748 81.2161 8.11813C81.0072 8.37515 80.8466 8.56793 80.7395 8.69644C81.0983 8.84638 81.3821 9.01237 81.5802 9.18373ZM83.0474 9.15695H83.6846C83.7489 8.99095 83.8506 8.71251 83.9845 8.32696C83.7917 8.3698 83.5936 8.30554 83.3955 8.13954C83.4062 7.91464 83.3633 7.67368 83.2723 7.422C83.1973 7.18104 83.0902 6.9722 82.9564 6.79549C82.9564 7.66832 82.9831 8.45012 83.042 9.15695H83.0474ZM83.7649 12.7447C83.8292 12.5947 83.9256 12.3538 84.0434 12.0164H83.5186C83.6204 12.3484 83.7007 12.5947 83.7703 12.7447H83.7649ZM84.2522 9.14624L85.0929 9.10876C85.0501 8.89992 84.9858 8.66431 84.8894 8.40728C84.6056 8.73928 84.3915 8.99095 84.2469 9.14624H84.2522Z" fill="white"/>
<path d="M88.9588 16.8516C88.6643 16.8516 88.5197 16.7659 88.5197 16.5999C88.5787 15.7539 88.6161 14.8221 88.6322 13.7994V12.2679C88.2734 12.8355 87.8397 13.3817 87.3256 13.9011L87.1757 13.778C87.7594 12.5249 88.161 10.7579 88.3805 8.48209H88.0271C87.845 8.4928 87.6576 8.54634 87.4756 8.65879L87.1489 8.03229C87.4274 8.08048 87.7594 8.11796 88.1556 8.13403H88.6322V7.41649C88.6322 6.36159 88.5787 5.50483 88.4716 4.84619C89.173 4.99077 89.6871 5.10322 90.0137 5.19961C90.3082 5.28528 90.4796 5.36025 90.5278 5.42451C90.5706 5.46735 90.5439 5.51554 90.4528 5.57444L90.2279 5.72438V8.09654L90.5064 7.60926C90.5064 7.60926 90.5492 7.545 90.5813 7.4861C90.7259 7.23442 90.8223 7.11126 90.8812 7.11126C90.9562 7.11126 91.1543 7.28797 91.4756 7.63068C91.7969 7.97874 91.9575 8.19828 91.9575 8.28931C91.9307 8.42318 91.829 8.4928 91.6416 8.4928H90.2226V9.43524C90.9615 9.66014 91.4595 9.98678 91.7273 10.4152C91.7273 10.1367 91.7166 9.88504 91.6898 9.64943L93.3337 10.3777H93.987V9.4995H93.0445C92.4983 9.5102 91.9254 9.56375 91.3149 9.6762L90.9883 9.04969C91.3042 9.09789 91.6844 9.13537 92.1182 9.15143H92.6429V8.06977H92.3645C92.2467 8.08048 92.1235 8.13403 91.9896 8.24648L91.663 7.61997C91.8558 7.66816 92.0807 7.70564 92.3431 7.72171H92.6429V6.7043H92.252C92.0432 6.71501 91.8236 6.77391 91.5987 6.88101L91.2721 6.2545C91.5238 6.30269 91.8344 6.34017 92.1985 6.35624H92.6376C92.6376 5.83147 92.6108 5.37631 92.5626 5.00148C93.4087 5.18354 93.9495 5.33348 94.1798 5.44057C94.3404 5.51554 94.3672 5.58515 94.2654 5.65476L94.1048 5.7565V6.35624H95.0579C95.0579 5.83147 95.0312 5.37631 94.983 5.00148C95.8451 5.18354 96.3859 5.33348 96.6162 5.44057C96.7822 5.51554 96.8143 5.59051 96.7019 5.66547L96.5251 5.77792V6.35624H96.7019L97.0017 5.91715C97.0285 5.88502 97.066 5.83147 97.1142 5.7565C97.248 5.57444 97.3391 5.47806 97.3926 5.47806C97.4783 5.47806 97.6871 5.62799 98.0245 5.9225C98.3618 6.21702 98.5332 6.41514 98.5332 6.50617C98.5011 6.64004 98.3886 6.7043 98.2065 6.7043H96.5251V7.72171H96.6858L96.9482 7.3201C96.9749 7.28797 97.0071 7.23978 97.0499 7.18088C97.1731 7.00417 97.2641 6.91849 97.3123 6.91849C97.398 6.91849 97.5907 7.05236 97.8906 7.32545C98.1905 7.59855 98.3404 7.78061 98.3404 7.87164C98.3136 8.00551 98.2119 8.07512 98.0245 8.07512H96.5198V9.15679H96.9107L97.2106 8.7177C97.2373 8.68557 97.2748 8.63202 97.323 8.55705C97.4569 8.37499 97.5479 8.27861 97.6015 8.27861C97.6871 8.27861 97.896 8.42854 98.2333 8.72305C98.5707 9.01757 98.742 9.21569 98.742 9.30672C98.7099 9.44059 98.5974 9.5102 98.4154 9.5102H95.4542V10.3884H96.0914L96.3913 10.0136C96.3913 10.0136 96.4502 9.9493 96.493 9.89039C96.643 9.71369 96.7447 9.62801 96.7929 9.62801C96.8786 9.62801 97.1249 9.78865 97.5372 10.1099C97.9495 10.4312 98.1584 10.6401 98.1584 10.7311C98.0566 10.8489 97.912 10.9292 97.7193 10.9721V11.6628L97.821 11.4593C97.821 11.4593 97.8371 11.4326 97.8478 11.4112C97.9067 11.3094 97.9656 11.2612 98.0245 11.2612C98.0995 11.2612 98.2655 11.4004 98.5118 11.6735C98.7581 11.9466 98.8866 12.134 98.8866 12.2251C98.8545 12.3589 98.7474 12.4286 98.5707 12.4286H97.7193V13.4192L97.8424 13.1568C97.8424 13.1568 97.8692 13.114 97.8906 13.0711C97.9495 12.9533 98.0031 12.8944 98.0513 12.8944C98.1262 12.8944 98.2976 13.0551 98.5707 13.3817C98.8438 13.7084 98.9776 13.9172 98.9776 14.0082C98.9509 14.1421 98.8545 14.2117 98.6778 14.2117H97.7139V15.2398C97.7139 15.7753 97.6122 16.1501 97.414 16.3697C97.157 16.6374 96.6537 16.8034 95.9093 16.873C95.8826 16.3643 95.813 16.0377 95.6952 15.8931C95.5345 15.6575 95.2507 15.5076 94.8437 15.4433V15.2827C95.2293 15.2987 95.6095 15.3201 95.9843 15.3469C96.1289 15.3469 96.1985 15.2666 96.1985 15.1059V14.2171H93.2373V14.9346C93.2373 15.0417 93.2373 15.1863 93.248 15.363C93.2641 15.7753 93.2801 16.0805 93.2962 16.2786C93.2641 16.4018 93.1142 16.5303 92.8464 16.6535C92.5519 16.7981 92.252 16.8677 91.9415 16.8677C91.7219 16.8677 91.6148 16.782 91.6148 16.616C91.6576 16.2412 91.6844 15.7378 91.7005 15.1113V14.2224H91.4006C91.256 14.2331 91.1061 14.2867 90.9508 14.3991L90.6349 13.7726C90.8384 13.8208 91.0793 13.8583 91.3631 13.8744H91.7005V12.4446H91.5506C91.5024 12.4553 91.4542 12.5035 91.4113 12.5946L91.4006 12.6213L91.074 11.9948C91.1971 12.043 91.3524 12.0805 91.5238 12.0966H91.7005V11.5182C91.5773 11.6789 91.4113 11.7592 91.2132 11.7699C90.9937 11.786 90.7848 11.7003 90.5867 11.5075C90.576 10.9988 90.4475 10.4312 90.1958 9.81543V13.4299C90.2119 14.4687 90.244 15.4487 90.2975 16.3804C90.2386 16.4875 90.078 16.5999 89.8103 16.7177C89.5104 16.8409 89.2159 16.9052 88.9321 16.9052L88.9588 16.8516ZM93.2641 12.043H93.9923V10.715H93.2641V12.043ZM93.2641 13.8262H93.9923V12.3964H93.2641V13.8262ZM94.1155 7.70029H95.0686V6.68288H94.1155V7.70029ZM94.1155 9.13001H95.0686V8.04835H94.1155V9.13001ZM95.4703 12.043H96.2253V10.715H95.4703V12.043ZM95.4703 13.8262H96.2253V12.3964H95.4703V13.8262Z" fill="white"/>
<path d="M111.208 16.8623C110.946 16.8623 110.817 16.7766 110.817 16.6106C110.865 15.8717 110.903 15.1273 110.919 14.3777V13.1246C110.523 14.3723 109.982 15.3094 109.286 15.9359L109.109 15.8342C109.211 15.4915 109.291 15.1755 109.361 14.8917C109.446 14.4794 109.494 14.0243 109.516 13.5102C109.537 13.0015 109.521 12.5731 109.473 12.2304L110.919 12.557V11.4165C110.603 11.5396 110.298 11.6574 110.003 11.7538C109.928 11.9198 109.81 12.0109 109.65 12.0323L109.125 10.4526C109.484 10.4526 109.982 10.4419 110.619 10.4151C110.838 9.94391 111.063 9.42985 111.31 8.85689C111.685 7.93587 111.936 7.13265 112.065 6.44724C112.991 6.83814 113.575 7.11659 113.81 7.27723C113.987 7.39503 113.998 7.47536 113.848 7.51819L113.607 7.58245C113.189 8.13399 112.766 8.65341 112.338 9.14069L112.386 9.12998C113.087 9.38166 113.591 9.71365 113.891 10.1206C114.148 10.4633 114.239 10.8007 114.153 11.138C114.078 11.454 113.901 11.6574 113.628 11.7378C113.328 11.8234 113.039 11.7271 112.761 11.4486C112.761 11.1702 112.739 10.9292 112.697 10.7204L112.482 10.8221V12.0912L112.557 12.0644C113.2 12.3643 113.66 12.723 113.939 13.1407C114.164 13.4941 114.233 13.8368 114.153 14.1688C114.078 14.4794 113.912 14.6722 113.65 14.7471C113.366 14.8221 113.098 14.7204 112.847 14.4473C112.873 13.8475 112.75 13.1246 112.482 12.2893V13.6708C112.509 14.8328 112.536 15.7324 112.568 16.3696C112.509 16.4767 112.37 16.5838 112.156 16.6856C111.872 16.8087 111.556 16.873 111.203 16.873L111.208 16.8623ZM109.917 9.05502C109.842 8.4178 109.58 7.78058 109.125 7.14871L109.237 7.08446C109.682 7.15942 110.046 7.26652 110.33 7.4111V7.38432C110.555 6.47937 110.667 5.63331 110.667 4.83545C111.668 5.16209 112.3 5.3977 112.563 5.53693C112.745 5.63867 112.766 5.71899 112.611 5.77789L112.37 5.87963C111.877 6.53827 111.32 7.1273 110.699 7.636C111.042 7.89303 111.203 8.19825 111.187 8.54096C111.176 8.85153 111.042 9.06573 110.774 9.19424C110.496 9.33882 110.212 9.29063 109.907 9.05502H109.917ZM111.208 10.3884C111.61 10.3616 112.081 10.3402 112.627 10.3134C112.541 9.95462 112.429 9.58514 112.29 9.21031C111.915 9.63869 111.551 10.0296 111.213 10.3884H111.208ZM112.943 16.8355L112.868 16.6963C114.003 15.8342 114.694 14.6186 114.924 13.0443C114.967 12.7927 114.978 12.4071 114.962 11.8877C114.946 11.4379 114.913 11.047 114.876 10.715C114.839 10.383 114.812 10.3348 114.801 10.5704L116.033 10.5597L117.125 10.6079C117.098 10.8274 116.954 10.9506 116.686 10.9827C116.638 12.4071 116.386 13.537 115.931 14.3723C115.347 15.47 114.351 16.2893 112.943 16.8302V16.8355ZM114.335 10.8007L113.682 8.89437C114.292 8.89437 114.817 8.89437 115.262 8.88366C115.438 8.18219 115.561 7.57174 115.636 7.05233H114.994C114.64 7.06304 114.276 7.12194 113.891 7.22904L113.564 6.60253C114.014 6.65072 114.56 6.6882 115.197 6.70427H115.974C115.974 5.98673 115.942 5.41377 115.872 4.98538C116.884 5.17816 117.527 5.32273 117.805 5.42448C117.987 5.49944 118.025 5.57976 117.918 5.66544L117.73 5.7886V6.70427H118.421L118.796 6.16343C118.828 6.1206 118.881 6.05634 118.946 5.95995C119.106 5.73505 119.208 5.6226 119.262 5.6226C119.347 5.6226 119.599 5.80466 120.027 6.16879C120.456 6.53291 120.67 6.76317 120.67 6.8542C120.638 6.98807 120.525 7.05768 120.333 7.05768H117.671C117.045 7.802 116.472 8.40709 115.963 8.87831C116.413 8.8676 117.157 8.85153 118.185 8.81405H118.373C118.212 8.48741 117.982 8.07509 117.682 7.58245L117.784 7.51819C118.689 7.72703 119.369 8.05367 119.829 8.49812C120.215 8.8676 120.407 9.26385 120.407 9.69223C120.397 10.0778 120.247 10.3509 119.958 10.5062C119.647 10.6668 119.315 10.6133 118.951 10.3455C118.887 10.0349 118.764 9.67617 118.587 9.26385C117.607 9.63333 116.316 10.0564 114.71 10.5329C114.624 10.6829 114.501 10.7739 114.335 10.8114V10.8007ZM118.464 16.5464C117.955 16.5464 117.623 16.4446 117.473 16.2465C117.328 16.0698 117.259 15.711 117.259 15.1648V12.7927C117.259 11.8234 117.211 11.0095 117.109 10.3562C118.078 10.549 118.694 10.6989 118.951 10.806C119.128 10.881 119.154 10.9613 119.037 11.047L118.849 11.1702V14.6829C118.849 14.8168 118.903 14.8864 119.01 14.8864H119.486C119.588 14.8703 119.663 14.8221 119.711 14.7364C119.786 14.5865 119.963 14.0457 120.236 13.1193H120.359L120.397 14.8275C120.563 14.9185 120.675 15.0202 120.734 15.1273C120.777 15.213 120.798 15.3415 120.798 15.5182C120.798 16.2036 120.215 16.5464 119.042 16.5464H118.453H118.464Z" fill="white"/>
<path d="M121.677 16.8516L121.628 16.7392C122.833 15.9467 123.679 14.9132 124.161 13.6387C124.547 12.632 124.745 11.3308 124.761 9.7244H123.808C123.24 9.73511 122.646 9.78865 122.025 9.9011L121.709 9.2746C122.169 9.32279 122.726 9.36027 123.379 9.37634H130.458L131.401 8.09654C131.604 8.26254 131.808 8.42854 132.017 8.59989C132.477 8.97473 132.841 9.28531 133.109 9.52627C133.077 9.66014 132.954 9.72975 132.745 9.72975H129.784V14.4473C129.784 14.5491 129.811 14.6187 129.859 14.6561C129.907 14.6936 130.003 14.7151 130.148 14.7151H130.962C131.278 14.7151 131.487 14.7151 131.588 14.7043C131.722 14.7043 131.829 14.6401 131.904 14.5009C132.038 14.2974 132.274 13.6709 132.606 12.6053H132.718L132.756 14.6133C132.975 14.7043 133.125 14.8168 133.205 14.94C133.27 15.047 133.307 15.197 133.307 15.3898C133.307 15.7646 133.125 16.0377 132.766 16.2037C132.375 16.3857 131.701 16.4821 130.748 16.4821H129.693C129.013 16.4821 128.563 16.3804 128.338 16.1769C128.113 15.9734 128.001 15.5611 128.001 14.94V9.72975H126.732C126.624 11.5718 126.244 13.0283 125.591 14.0993C124.788 15.3951 123.481 16.3161 121.677 16.8623V16.8516ZM123.256 6.73643L122.94 6.10992C123.401 6.15811 123.958 6.1956 124.611 6.21166H129.543L130.458 5.00684C130.662 5.16748 130.86 5.32277 131.058 5.4727C131.503 5.83147 131.851 6.13134 132.102 6.3616C132.076 6.49546 131.963 6.55972 131.765 6.55972H125.141C124.547 6.57043 123.92 6.62933 123.262 6.73643H123.256Z" fill="white"/>
<path d="M134.26 16.8892L134.159 16.75C134.978 15.995 135.604 14.9454 136.043 13.6014C135.819 13.0338 135.631 12.4019 135.492 11.7058C135.465 11.7647 135.428 11.8557 135.379 11.9842C135.16 12.5037 135.01 12.8464 134.93 13.0124C135.015 13.1302 134.994 13.2319 134.881 13.3122L134.126 12.3484C134.56 12.0699 134.962 11.7647 135.331 11.4327L135.379 10.8812L135.904 11.0418L135.578 11.4916C135.786 12.1128 136.001 12.5947 136.22 12.9481C136.413 12.1877 136.552 11.2239 136.649 10.0619H136.284L136.06 10.5759C135.626 10.7098 135.112 10.667 134.528 10.4528C135.112 9.02841 135.62 7.679 136.049 6.39921H135.508C135.224 6.40992 134.924 6.46347 134.603 6.57592L134.276 5.94941C134.603 5.9976 134.994 6.03508 135.454 6.05115H136.017L136.333 5.64954C136.365 5.61741 136.408 5.56386 136.456 5.49961C136.595 5.3229 136.697 5.23722 136.745 5.23722C136.831 5.23722 137.088 5.42464 137.521 5.79412C137.955 6.1636 138.175 6.39921 138.175 6.49024C138.068 6.6134 137.886 6.69372 137.634 6.72585C137.43 7.27739 137.034 8.27338 136.429 9.71382H136.531L136.895 9.28543C136.922 9.25331 136.959 9.20511 137.007 9.14621C137.184 8.94273 137.296 8.84634 137.345 8.84634C137.43 8.84634 137.677 9.0284 138.1 9.39788C138.523 9.76736 138.726 9.99762 138.726 10.0887C138.667 10.1957 138.523 10.2707 138.287 10.3136C138.078 11.8343 137.714 13.0766 137.195 14.0298C137.703 14.4046 138.367 14.667 139.176 14.8062C139.845 14.9294 140.777 14.9936 141.977 14.9936C143.867 14.9936 145.125 14.9829 145.752 14.9669V15.1061C145.468 15.181 145.243 15.3578 145.072 15.6308C144.927 15.8825 144.852 16.1877 144.831 16.5465H141.896C140.558 16.5465 139.513 16.4287 138.758 16.1931C137.891 15.9254 137.205 15.4595 136.713 14.8009C136.086 15.663 135.267 16.3591 134.255 16.8839L134.26 16.8892ZM140.584 14.8276C140.327 14.8276 140.193 14.742 140.193 14.576C140.209 14.4314 140.226 14.244 140.242 14.0137C140.252 13.9066 140.252 13.8156 140.252 13.7513V13.2105H139.513C139.085 13.2212 138.635 13.2801 138.159 13.3872L137.843 12.7607C138.292 12.8089 138.839 12.8464 139.476 12.8624H140.252V11.5559H139.653C139.321 11.5666 138.967 11.6201 138.598 11.7326L138.271 11.1061C138.646 11.1543 139.101 11.1917 139.626 11.2078H140.252V9.92801H139.69C139.363 9.93872 139.031 9.99227 138.683 10.1047L138.346 9.47821C138.705 9.5264 139.139 9.56388 139.653 9.57995H140.252V8.31086H139.449C138.973 8.32157 138.48 8.37512 137.966 8.48757L137.639 7.86106C138.1 7.90926 138.657 7.94674 139.31 7.9628H140.252V6.72049H139.69C139.363 6.7312 139.031 6.79011 138.683 6.8972L138.346 6.27069C138.705 6.31889 139.139 6.35637 139.653 6.37243H140.252C140.252 5.7727 140.226 5.2747 140.167 4.88916C140.863 5.03374 141.371 5.14619 141.698 5.24258C141.982 5.32825 142.148 5.40322 142.201 5.46748C142.244 5.51031 142.218 5.55851 142.127 5.61741L141.912 5.76734V6.36708H142.555L142.882 5.97618C142.908 5.94405 142.946 5.89586 142.994 5.83696C143.144 5.66025 143.246 5.57457 143.294 5.57457C143.38 5.57457 143.637 5.74057 144.065 6.07792C144.493 6.41527 144.713 6.62411 144.713 6.71514C144.627 6.83295 144.477 6.91862 144.263 6.96681V7.95745L144.542 7.41662C144.558 7.38449 144.584 7.33629 144.616 7.27739C144.761 6.99894 144.857 6.86507 144.916 6.86507C144.991 6.86507 145.179 7.04714 145.479 7.41662C145.778 7.7861 145.928 8.01635 145.928 8.10738C145.902 8.24125 145.8 8.31086 145.612 8.31086H144.258V10.003C144.242 10.0619 144.07 10.1422 143.744 10.2439C143.77 10.2707 143.808 10.3082 143.867 10.3564C144.402 10.8062 144.777 11.1435 144.997 11.3631C144.97 11.497 144.857 11.5666 144.659 11.5666H141.912V12.8731H142.865L143.278 12.3109L143.39 12.161C143.594 11.8771 143.722 11.7326 143.781 11.7326C143.867 11.7326 144.14 11.9253 144.606 12.3109C145.072 12.6964 145.302 12.932 145.302 13.0231C145.27 13.1569 145.152 13.2266 144.948 13.2266H141.912V13.6282C141.918 13.7138 141.923 13.8156 141.923 13.9441L141.961 14.3564C141.934 14.4582 141.778 14.5599 141.495 14.6723C141.184 14.7901 140.879 14.8491 140.579 14.8491L140.584 14.8276ZM141.918 7.95209H142.683V6.70979H141.918V7.95209ZM141.918 9.56924H142.683V8.30015H141.918V9.56924ZM141.918 11.2024H142.86L143.497 10.2975C143.315 10.3457 143.128 10.3725 142.946 10.3725H142.683V9.92265H141.918V11.2024Z" fill="white"/>
<path d="M146.989 8.01606L146.662 7.38955C147.123 7.43774 147.68 7.47523 148.333 7.49129H150.341L150.667 7.02542C150.694 6.9933 150.732 6.93975 150.78 6.86478C150.93 6.65594 151.032 6.54885 151.08 6.54885C151.165 6.54885 151.385 6.70949 151.749 7.02542C152.113 7.34136 152.295 7.55019 152.295 7.64122C152.269 7.77509 152.161 7.84471 151.969 7.84471H148.542C148.038 7.85542 147.519 7.91432 146.983 8.02141L146.989 8.01606ZM147.599 16.8514C147.406 16.8514 147.31 16.7658 147.31 16.5998C147.342 16.2303 147.369 15.7644 147.385 15.1968V14.3668C147.385 13.3226 147.331 12.4712 147.224 11.818L148.97 12.5194H149.773L150.1 12.1285C150.132 12.0964 150.175 12.0429 150.223 11.9786C150.368 11.818 150.464 11.7376 150.512 11.7376C150.598 11.7376 150.844 11.8983 151.267 12.2249C151.69 12.5516 151.894 12.7604 151.894 12.8514C151.803 12.9746 151.663 13.0549 151.481 13.0924V14.0455C151.497 14.8166 151.524 15.4217 151.556 15.8662C151.508 15.9572 151.331 16.0643 151.032 16.1821C150.716 16.3053 150.432 16.3695 150.18 16.3695C149.961 16.3695 149.854 16.2838 149.854 16.1178C149.864 16.0857 149.87 16.0322 149.88 15.9679C149.891 15.9197 149.896 15.8769 149.907 15.8447V15.5824H148.943V15.8447C148.949 15.9197 148.954 16.0054 148.954 16.0964C148.959 16.1875 148.97 16.2517 148.981 16.2838C148.965 16.4016 148.815 16.5248 148.531 16.648C148.231 16.7818 147.926 16.8514 147.615 16.8514H147.599ZM147.626 9.65998L147.299 9.03347C147.744 9.08166 148.279 9.11914 148.906 9.13521H149.671L149.987 8.68541C150.014 8.65328 150.046 8.60508 150.089 8.54618C150.239 8.32664 150.341 8.21954 150.389 8.21954C150.475 8.21954 150.694 8.37483 151.048 8.68541C151.401 8.99598 151.583 9.19411 151.583 9.28514C151.551 9.41901 151.439 9.48862 151.257 9.48862H148.734C148.381 9.49933 148.017 9.55288 147.631 9.66533L147.626 9.65998ZM147.626 11.3039L147.299 10.6774C147.744 10.7256 148.279 10.7631 148.906 10.7791H149.671L149.987 10.3293C150.014 10.2972 150.046 10.249 150.089 10.1901C150.239 9.97055 150.341 9.86346 150.389 9.86346C150.475 9.86346 150.694 10.0187 151.048 10.3293C151.401 10.6399 151.583 10.838 151.583 10.9291C151.551 11.0629 151.439 11.1325 151.257 11.1325H148.734C148.381 11.1433 148.017 11.1968 147.631 11.3092L147.626 11.3039ZM147.69 6.42033L147.364 5.79383C147.781 5.84202 148.29 5.8795 148.895 5.89557H149.634L149.95 5.4297C149.977 5.39757 150.014 5.34402 150.062 5.26906C150.212 5.06022 150.314 4.95312 150.362 4.95312C150.448 4.95312 150.667 5.11377 151.032 5.4297C151.396 5.74563 151.578 5.95447 151.578 6.0455C151.551 6.17937 151.444 6.24898 151.251 6.24898H149.57C148.975 6.25969 148.349 6.31324 147.69 6.42569V6.42033ZM148.933 15.2289H149.896V12.8675H148.933V15.2289ZM150.941 16.8247L150.876 16.6854C152.097 16.0589 153.088 15.2343 153.848 14.2115C153.329 13.403 152.938 12.3427 152.681 11.0362H152.402C152.269 11.0469 152.135 11.1004 152.001 11.2129L151.674 10.5864C152.135 10.6345 152.692 10.672 153.345 10.6881H155.251L155.69 10.2222C155.69 10.2222 155.755 10.158 155.803 10.0991C156.022 9.86346 156.156 9.74565 156.215 9.74565C156.301 9.74565 156.568 9.95449 157.029 10.3722C157.489 10.7898 157.72 11.0469 157.72 11.1379C157.645 11.2557 157.479 11.3253 157.216 11.3521C156.847 12.407 156.327 13.3226 155.647 14.0991C156.376 14.49 157.291 14.8166 158.394 15.079L158.384 15.2182C157.645 15.3842 157.152 15.9197 156.89 16.8247C155.904 16.3374 155.123 15.7805 154.544 15.1433C153.575 15.8983 152.37 16.4552 150.93 16.8247H150.941ZM151.706 10.4525L151.631 10.34C151.974 9.86346 152.21 9.26908 152.333 8.55689C152.418 8.10709 152.456 7.52877 152.456 6.8273V6.05086C152.456 5.71886 152.44 5.43505 152.408 5.21015L154.266 5.91163H154.844L155.198 5.49931C155.224 5.46718 155.262 5.41899 155.321 5.36009C155.481 5.16732 155.583 5.07093 155.631 5.07093C155.717 5.07093 155.947 5.23157 156.327 5.55286C156.708 5.87415 156.9 6.08298 156.9 6.17401C156.836 6.27576 156.718 6.34001 156.547 6.3775V7.97322C156.547 8.08032 156.59 8.13386 156.67 8.13386H157.008C157.082 8.13386 157.147 8.09103 157.195 8.0107C157.318 7.79116 157.495 7.35207 157.72 6.68272H157.832L157.87 8.06425C158.02 8.15528 158.127 8.25167 158.186 8.35341C158.228 8.43909 158.25 8.56225 158.25 8.72824C158.25 9.36546 157.704 9.6814 156.617 9.6814H156.092C155.605 9.6814 155.294 9.59036 155.149 9.40295C155.032 9.2423 154.973 8.8996 154.973 8.37483V6.26505H154.02V6.8273C154.02 8.5676 153.243 9.77778 151.696 10.4525H151.706ZM154.453 13.2852C154.844 12.5569 155.139 11.8072 155.331 11.0415H152.884C153.216 11.9304 153.741 12.6747 154.453 13.2852Z" fill="white"/>
<path d="M104.017 11.7323C104.561 11.7323 105.002 11.2912 105.002 10.747C105.002 10.2028 104.561 9.76172 104.017 9.76172C103.472 9.76172 103.031 10.2028 103.031 10.747C103.031 11.2912 103.472 11.7323 104.017 11.7323Z" fill="white"/>
</g>
<defs>
<clipPath id="clip0_4_201">
<rect width="259" height="21.146" fill="white"/>
</clipPath>
</defs>
</svg>
