<svg width="564" height="123" viewBox="0 0 564 123" fill="none" xmlns="http://www.w3.org/2000/svg">
<path d="M1.9399 28.6802H64.9299C65.0699 28.6802 65.1799 28.7302 65.2699 28.8202C65.3599 28.9102 65.4099 29.0302 65.4099 29.1602V31.4202C65.4099 31.5602 65.3599 31.6702 65.2699 31.7602C65.1799 31.8502 65.0599 31.9002 64.9299 31.9002H2.6299C2.4899 31.9002 2.3799 31.8702 2.2899 31.8002C2.1999 31.7302 2.1499 31.6502 2.1499 31.5602C1.6499 30.0102 1.3999 29.1801 1.3999 29.0901C1.3999 29.0001 1.4599 28.9102 1.5699 28.8202C1.6799 28.7302 1.8099 28.6802 1.9499 28.6802H1.9399Z" fill="white"/>
<path d="M79.2699 64.4301C78.9999 64.4301 78.8399 64.2701 78.7899 63.9501V36.7101C76.6899 40.9601 74.0999 44.8501 71.0399 48.3801C70.8999 48.5201 70.7599 48.5901 70.6299 48.5901C70.4999 48.5901 70.3799 48.5201 70.2899 48.3801L69.3299 47.4901C69.1899 47.4001 69.1199 47.3001 69.1199 47.1801C69.1199 47.0601 69.1599 46.9601 69.2599 46.8701C73.2799 40.1001 76.1399 31.0401 77.8399 19.7001H70.9099C70.7699 19.7001 70.6599 19.6701 70.5699 19.6001C70.4799 19.5301 70.4299 19.4501 70.4299 19.3601C70.0199 17.9901 69.8099 17.2601 69.8099 17.1601C69.8099 17.0601 69.8699 16.9801 69.9799 16.8901C70.0899 16.8001 70.2199 16.7501 70.3599 16.7501H78.7999V0.900116C78.7999 0.760116 78.8499 0.640111 78.9399 0.520111C79.0299 0.410111 79.1099 0.350098 79.1799 0.350098C79.2499 0.350098 81.0699 0.650112 84.6399 1.24011C84.8699 1.24011 85.0099 1.40009 85.0499 1.72009V16.7501H94.4499C94.5899 16.7501 94.6999 16.8001 94.7899 16.8901C94.8799 16.9801 94.9299 17.1001 94.9299 17.2301V19.2201C94.9299 19.3601 94.8799 19.4701 94.7899 19.5601C94.6999 19.6501 94.5799 19.7001 94.4499 19.7001H85.0499V22.8601C89.5799 25.1001 92.2299 27.7301 93.0099 30.7501C93.1499 31.3001 93.2199 31.8301 93.2199 32.3301C93.2199 33.6101 92.7199 34.5701 91.7099 35.2101C91.2099 35.5801 90.6799 35.7601 90.1299 35.7601C89.3499 35.7601 88.5699 35.3901 87.7999 34.6601C87.7099 34.5701 87.6599 34.4501 87.6599 34.3201C87.3899 32.2601 86.5199 29.8401 85.0499 27.0501V62.1801C85.0499 62.7701 84.5399 63.3001 83.5099 63.7601C82.4799 64.2201 81.4399 64.4501 80.3899 64.4501H79.2899L79.2699 64.4301ZM133.21 12.7601C133.35 12.7601 133.46 12.8101 133.55 12.9001C133.64 12.9901 133.69 13.1101 133.69 13.2401V15.1601C133.69 15.3001 133.64 15.4101 133.55 15.5001C133.46 15.5901 133.34 15.6401 133.21 15.6401H119.76C123.37 18.7101 128.13 20.7901 134.03 21.8801C134.17 21.8801 134.28 21.9301 134.37 22.0201C134.46 22.1101 134.51 22.1901 134.51 22.2601C134.51 22.3301 134.46 22.6401 134.37 23.1901C134.37 23.4201 134.26 23.5601 134.03 23.6001C132.2 24.0601 131.03 25.4501 130.53 27.7901C130.53 27.8801 130.48 27.9701 130.39 28.0601C130.3 28.1501 130.21 28.2001 130.12 28.2001C130.03 28.2001 129.94 28.1801 129.85 28.1301C127.38 27.0801 125.16 25.7501 123.19 24.1501V31.4201C123.19 31.6501 123.08 31.8801 122.85 32.1101C122.62 32.3401 122.05 32.6401 121.13 33.0001C120.21 33.3701 119.32 33.5501 118.45 33.5501H117.63C117.49 33.5501 117.38 33.5101 117.29 33.4101C117.2 33.3201 117.15 33.2001 117.15 33.0701V31.4901H105.96V32.3801C105.96 32.5601 105.89 32.7501 105.75 32.9301C105.34 33.3001 104.54 33.6801 103.35 34.1001C102.62 34.2801 101.93 34.3701 101.29 34.3701H100.54C100.4 34.3701 100.29 34.3301 100.2 34.2301C100.11 34.1401 100.06 34.0201 100.06 33.8901V23.4601C97.5399 25.2901 94.7799 26.9101 91.7599 28.3301C91.6699 28.3801 91.5799 28.4001 91.4899 28.4001C91.3499 28.4001 91.2399 28.3101 91.1499 28.1301L90.5299 27.3101C90.4399 27.2201 90.3899 27.1301 90.3899 27.0401C90.3899 26.8601 90.4799 26.7201 90.6599 26.6301C95.0099 23.7001 98.5699 20.0401 101.37 15.6501H92.5199C92.3799 15.6501 92.2699 15.6201 92.1799 15.5501C92.0899 15.4801 92.0399 15.4001 92.0399 15.3101C91.6299 13.9801 91.4199 13.2701 91.4199 13.1801C91.4199 13.0901 91.4799 13.0001 91.5899 12.9101C91.6999 12.8201 91.8299 12.7701 91.9699 12.7701H103.02C103.66 11.5301 104.21 10.1901 104.67 8.72009C100.92 8.95009 97.0999 9.06009 93.2099 9.06009C93.0699 9.06009 92.9599 9.03011 92.8699 8.96011C92.7799 8.89011 92.7299 8.81009 92.7299 8.72009C92.4999 7.85009 92.3899 7.37009 92.3899 7.28009C92.3899 7.19009 92.4499 7.1001 92.5599 7.0101C92.6699 6.9201 92.7799 6.87012 92.8699 6.87012C97.8999 6.32012 103.19 5.4501 108.72 4.2601C114.35 3.0201 118.83 1.79011 122.17 0.55011C122.26 0.51011 122.35 0.480103 122.44 0.480103C122.53 0.480103 122.62 0.530117 122.71 0.620117C122.8 0.710117 122.85 0.800106 122.85 0.890106L124.5 6.1701C124.5 6.1701 124.57 6.2801 124.57 6.3801C124.57 6.4801 124.51 6.5601 124.4 6.6601C124.28 6.7501 124.18 6.80011 124.09 6.80011C120.25 7.30011 116.29 7.7401 112.22 8.1001C111.62 9.6101 110.87 11.1701 109.96 12.7701H133.22L133.21 12.7601ZM130.87 35.6801C131.01 35.6801 131.12 35.7301 131.21 35.8201C131.3 35.9101 131.35 36.0301 131.35 36.1601V57.5001C131.35 59.7901 130.84 61.4601 129.81 62.5101C128.78 63.5601 126.82 64.2001 123.94 64.4301C123.89 64.4701 123.84 64.5001 123.77 64.5001C123.7 64.5001 123.62 64.4401 123.53 64.3301C123.44 64.2201 123.39 64.1101 123.39 64.0201C123.25 62.5101 122.93 61.5001 122.43 61.0001C121.56 60.2201 120.14 59.7001 118.18 59.4201C118.04 59.4201 117.94 59.3701 117.87 59.2801C117.8 59.1901 117.77 59.0701 117.77 58.9401V57.8401C117.77 57.7001 117.81 57.5801 117.91 57.4601C118 57.3501 118.08 57.2901 118.15 57.2901C118.22 57.2901 119.08 57.3601 120.72 57.5001C122.37 57.6401 123.46 57.7101 124.01 57.7101C124.56 57.7101 124.9 57.6701 125.04 57.5701C125.13 57.4801 125.18 57.3001 125.18 57.0201V38.6301H98.4199V62.2301C98.4199 62.4601 98.3099 62.6901 98.0799 62.9201C97.8499 63.1501 97.3899 63.4201 96.7099 63.7401C95.6999 64.2001 94.6699 64.4301 93.6199 64.4301H92.7999C92.6599 64.4301 92.5499 64.3801 92.4599 64.2901C92.3699 64.2001 92.3199 64.0801 92.3199 63.9501V36.1601C92.3199 36.0201 92.3599 35.9101 92.4599 35.8201C92.5499 35.7301 92.6699 35.6801 92.7999 35.6801H130.88H130.87ZM102.4 42.2001C102.4 41.9301 102.56 41.7701 102.88 41.7201H120.24C120.38 41.7201 120.49 41.7701 120.58 41.8601C120.67 41.9501 120.72 42.0701 120.72 42.2001V54.2801C120.72 54.5101 120.6 54.7501 120.38 55.0001C120.15 55.2501 119.74 55.5101 119.14 55.7901C117.81 56.2501 116.99 56.4801 116.67 56.4801C116.62 56.4801 116.6 56.4601 116.6 56.4101H115.91C115.77 56.4101 115.66 56.3701 115.57 56.2701C115.48 56.1801 115.43 56.0601 115.43 55.9301V53.7301H107.68V55.7901C107.68 56.0201 107.58 56.2401 107.37 56.4401C107.16 56.6401 106.76 56.8901 106.17 57.1601C105.25 57.4801 104.39 57.6401 103.56 57.6401H102.87C102.73 57.6401 102.62 57.5901 102.53 57.5001C102.44 57.4101 102.39 57.2901 102.39 57.1601V42.2001H102.4ZM118.11 18.8001C117.42 17.8001 116.78 16.7401 116.19 15.6401H108.02C106.88 17.1001 105.85 18.3201 104.93 19.2801L116.94 20.0301L118.11 18.7901V18.8001ZM105.96 22.9901V28.5501H117.15V22.9901H105.96ZM107.68 44.6701V50.7801H115.43V44.6701H107.68Z" fill="white"/>
<path d="M143.71 38.91C143.44 38.91 143.27 38.75 143.23 38.43V17.71C142.04 18.99 140.85 20.14 139.66 21.14C139.57 21.23 139.46 21.28 139.35 21.28C139.24 21.28 139.13 21.24 139.04 21.14C138.31 20.68 137.91 20.42 137.84 20.35C137.77 20.28 137.74 20.19 137.74 20.08C137.74 19.97 137.78 19.86 137.88 19.77C141.68 14.56 144.6 8.17 146.66 0.630005C146.66 0.540005 146.7 0.450016 146.8 0.360016C146.89 0.270016 146.99 0.220001 147.11 0.220001C147.23 0.220001 147.33 0.240009 147.42 0.290009C150.21 1.89001 151.64 2.73001 151.71 2.79001C151.78 2.86001 151.81 2.94 151.81 3.03C151.81 3.12 151.79 3.19002 151.74 3.24002C151.37 4.80002 150.62 6.67003 149.48 8.87003L170 9.14001C170.14 9.14001 170.25 9.19 170.34 9.28C170.43 9.37 170.48 9.49003 170.48 9.62003V11.61C170.48 11.75 170.43 11.86 170.34 11.95C170.25 12.04 170.13 12.09 170 12.09H160.12V17.1H168.35C171.32 12.85 173.54 7.36 175.01 0.630005C175.01 0.540005 175.05 0.450016 175.15 0.360016C175.25 0.270016 175.33 0.220001 175.42 0.220001C175.51 0.220001 175.6 0.240009 175.69 0.290009L180.01 2.42001C180.24 2.51001 180.35 2.67002 180.35 2.90002C180.35 2.95002 180.33 2.99001 180.28 3.04001C179.64 5.33001 178.95 7.25002 178.22 8.80002L200.66 9.14001C200.8 9.14001 200.91 9.19 201 9.28C201.09 9.37 201.14 9.49003 201.14 9.62003V11.61C201.14 11.75 201.09 11.86 201 11.95C200.91 12.04 200.79 12.09 200.66 12.09H189.75V17.1H199.08C199.22 17.1 199.33 17.15 199.42 17.24C199.51 17.33 199.56 17.45 199.56 17.58V19.57C199.56 19.71 199.51 19.82 199.42 19.91C199.33 20 199.21 20.05 199.08 20.05H189.75V25.2H199.15C199.29 25.2 199.4 25.25 199.49 25.34C199.58 25.43 199.63 25.55 199.63 25.68V27.67C199.63 27.81 199.58 27.92 199.49 28.01C199.4 28.1 199.28 28.15 199.15 28.15H189.75V33.23H201.62C201.76 33.23 201.87 33.28 201.96 33.37C202.05 33.46 202.1 33.58 202.1 33.71V35.7C202.1 35.84 202.05 35.95 201.96 36.04C201.87 36.13 201.75 36.18 201.62 36.18H177.88V36.59C177.88 36.86 177.67 37.21 177.26 37.62C176.99 37.85 176.46 38.1 175.68 38.37C175.08 38.55 174.33 38.64 173.42 38.64H172.6C172.46 38.64 172.35 38.6 172.26 38.5C172.17 38.4 172.12 38.29 172.12 38.16V17.85C171.11 18.9 170.11 19.86 169.1 20.73C168.96 20.82 168.85 20.87 168.76 20.87C168.67 20.87 168.58 20.83 168.49 20.73L167.53 20.11C167.39 20.06 167.23 20.04 167.05 20.04H160.12V25.19H168.77C168.91 25.19 169.02 25.24 169.11 25.33C169.2 25.42 169.25 25.54 169.25 25.67V27.66C169.25 27.8 169.2 27.91 169.11 28C169.02 28.09 168.9 28.14 168.77 28.14H160.12V33.22H171.03C171.17 33.22 171.28 33.27 171.37 33.36C171.46 33.45 171.51 33.57 171.51 33.7V35.69C171.51 35.83 171.46 35.94 171.37 36.03C171.28 36.12 171.16 36.17 171.03 36.17H148.93V36.92C148.93 37.15 148.86 37.34 148.72 37.5C148.58 37.66 148.38 37.83 148.1 38.01C147.78 38.24 147.3 38.44 146.66 38.63C146.02 38.81 145.31 38.9 144.53 38.9H143.71V38.91ZM165.25 54.28C160.17 51.17 156.03 47.24 152.83 42.48H141.65C141.51 42.48 141.4 42.45 141.31 42.38C141.22 42.31 141.17 42.23 141.17 42.14C140.71 40.77 140.48 40.04 140.48 39.94C140.48 39.84 140.54 39.76 140.65 39.67C140.76 39.58 140.89 39.53 141.03 39.53H190.64C190.78 39.53 190.89 39.58 190.98 39.67C191.07 39.76 191.12 39.88 191.12 40.01V43.03C191.12 43.17 191.1 43.28 191.05 43.37C187.53 47.26 183.13 50.69 177.88 53.66C185.11 55.63 193.39 56.91 202.72 57.5C202.86 57.5 202.98 57.55 203.1 57.64C203.21 57.73 203.27 57.81 203.27 57.88C203.27 57.95 203.22 58.3 203.13 58.94C203.13 59.17 203.01 59.31 202.79 59.35C200.5 59.94 199.08 61.55 198.54 64.15C198.54 64.24 198.49 64.33 198.4 64.42C198.31 64.51 198.23 64.56 198.16 64.56C198.09 64.56 198.03 64.54 197.99 64.49C186.96 63.03 177.84 60.58 170.61 57.15C161.87 60.9 151.49 63.35 139.46 64.49C139.41 64.53 139.36 64.56 139.29 64.56C139.22 64.56 139.15 64.51 139.08 64.42C139.01 64.33 138.95 64.26 138.91 64.21L138.43 63.04C138.38 62.95 138.36 62.86 138.36 62.76C138.36 62.66 138.41 62.58 138.5 62.49C138.59 62.4 138.71 62.35 138.84 62.35C148.67 60.57 157.48 57.87 165.26 54.25L165.25 54.28ZM154.62 17.09V12.08H148.92V17.09H154.62ZM148.92 25.18H154.62V20.03H148.92V25.18ZM148.92 33.21H154.62V28.13H148.92V33.21ZM152.83 0.140015C152.92 0.0500146 153 0 153.07 0C153.14 0 153.17 0.0200073 153.17 0.0700073C157.84 0.940007 160.6 2.68 161.47 5.28C161.65 5.78 161.74 6.24002 161.74 6.65002C161.74 7.70002 161.28 8.55 160.37 9.19C159.87 9.56 159.29 9.74002 158.65 9.74002C158.01 9.74002 157.28 9.44001 156.45 8.85001C156.36 8.76001 156.31 8.64001 156.31 8.51001C156.17 7.41001 155.69 6.20003 154.87 4.87003C154 3.50003 153.06 2.35 152.06 1.44C151.92 1.3 151.85 1.17 151.85 1.03C151.85 0.849999 151.94 0.710026 152.12 0.620026L152.81 0.140015H152.83ZM170.95 51.46C175.75 48.71 179.64 45.72 182.62 42.47H156.2C159.77 46.04 164.69 49.03 170.95 51.46ZM184.19 17.09V12.08H177.88V17.09H184.19ZM177.88 25.18H184.19V20.03H177.88V25.18ZM177.88 33.21H184.19V28.13H177.88V33.21ZM182.13 0.140015C182.22 0.0500146 182.31 0 182.4 0C182.49 0 182.54 0.0200073 182.54 0.0700073C187.16 0.940007 189.91 2.65 190.77 5.22C191 5.81 191.11 6.34002 191.11 6.80002C191.11 7.76002 190.65 8.56001 189.74 9.20001C189.24 9.61001 188.66 9.82001 188.02 9.82001C187.38 9.82001 186.67 9.52002 185.89 8.93002C185.75 8.84002 185.68 8.72 185.68 8.59C185.54 7.49 185.06 6.26 184.24 4.88C183.42 3.51 182.5 2.39002 181.49 1.52002C181.35 1.38002 181.28 1.25002 181.28 1.11002C181.28 0.970016 181.35 0.840012 181.49 0.700012L182.11 0.150024L182.13 0.140015Z" fill="white"/>
<path d="M265.23 49.8902C265.23 50.1602 265.07 50.3202 264.75 50.3702H243.2V59.6302H270.65C270.79 59.6302 270.9 59.6702 270.99 59.7702C271.08 59.8702 271.13 59.9802 271.13 60.1102V62.1002C271.13 62.2402 271.08 62.3502 270.99 62.4402C270.9 62.5302 270.78 62.5802 270.65 62.5802H208.28C208.14 62.5802 208.03 62.5502 207.94 62.4802C207.85 62.4102 207.8 62.3302 207.8 62.2402C207.39 60.8702 207.18 60.1402 207.18 60.0402C207.18 59.9402 207.24 59.8602 207.35 59.7702C207.46 59.6802 207.59 59.6302 207.73 59.6302H236.55V50.3702H218.02C217.88 50.3702 217.77 50.3402 217.68 50.2702C217.59 50.2002 217.54 50.1202 217.54 50.0302C217.13 48.6602 216.92 47.9502 216.92 47.9002C216.92 47.6302 217.1 47.4702 217.47 47.4202H236.55V39.6702H223.86C220.2 44.1102 216.13 47.5602 211.65 50.0302C211.56 50.0802 211.45 50.1002 211.34 50.1002C211.23 50.1002 211.12 50.0602 211.03 49.9602C210.48 49.4102 210.17 49.1102 210.1 49.0702C210.03 49.0302 210 48.9302 210 48.8002C210 48.6702 210.09 48.5102 210.27 48.3502C210.45 48.1902 210.66 48.0002 210.89 47.7702C215.46 43.1502 219.15 37.3002 221.94 30.2002C221.21 30.3802 220.45 30.4802 219.68 30.4802H218.79C218.52 30.4802 218.35 30.3202 218.31 30.0002V5.16016C218.31 5.02016 218.35 4.91016 218.45 4.82016C218.55 4.73016 218.66 4.68018 218.79 4.68018H260.44C260.58 4.68018 260.69 4.73016 260.78 4.82016C260.87 4.91016 260.92 5.03016 260.92 5.16016V27.6702C260.92 27.8502 260.8 28.0702 260.58 28.3202C260.35 28.5702 259.7 28.8802 258.62 29.2502C257.54 29.6202 256.57 29.8002 255.7 29.8002H254.74C254.6 29.8002 254.49 29.7602 254.4 29.6602C254.31 29.5702 254.26 29.4502 254.26 29.3202V26.9202H224.96V27.8802L231.07 30.7602C231.3 30.8502 231.41 31.0102 231.41 31.2402C231.41 31.2902 231.36 31.4002 231.27 31.5802C231.18 31.7602 231.04 31.9702 230.86 32.2002C230.36 32.6602 229.69 32.8902 228.87 32.8902H228.53C227.8 34.1302 227 35.3802 226.13 36.6602H236.56V28.2902C236.56 28.1502 236.6 28.0302 236.7 27.9102C236.8 27.7902 236.87 27.7402 236.94 27.7402C237.01 27.7402 238.96 28.0102 242.81 28.5602C242.95 28.5602 243.05 28.6102 243.12 28.7002C243.19 28.7902 243.22 28.9102 243.22 29.0402V36.6602H266C266.14 36.6602 266.25 36.7102 266.34 36.8002C266.43 36.8902 266.48 37.0102 266.48 37.1402V39.2002C266.48 39.3402 266.43 39.4502 266.34 39.5402C266.25 39.6302 266.13 39.6802 266 39.6802H243.22V47.4302H264.77C264.91 47.4302 265.02 47.4802 265.11 47.5702C265.2 47.6602 265.25 47.7802 265.25 47.9102V49.9002L265.23 49.8902ZM254.25 14.1402V7.62018H224.95V14.1402H254.25ZM224.95 17.0901V23.9502H254.25V17.0901H224.95Z" fill="white"/>
<path d="M302.35 64.4998C302.08 64.4998 301.91 64.3398 301.87 64.0198V36.2298C299.72 40.7098 297.2 44.7598 294.32 48.3798C294.18 48.5198 294.06 48.5898 293.94 48.5898C293.82 48.5898 293.7 48.5398 293.56 48.4498C292.87 47.8098 292.5 47.4698 292.43 47.4198C292.36 47.3798 292.33 47.2998 292.33 47.1798C292.33 47.0598 292.35 46.9598 292.4 46.8698C296.24 40.1498 299.01 31.0898 300.7 19.6998H294.18C294.04 19.6998 293.93 19.6698 293.84 19.5998C293.75 19.5298 293.7 19.4498 293.7 19.3598C293.29 17.9898 293.08 17.2598 293.08 17.1598C293.08 17.0598 293.14 16.9798 293.25 16.8898C293.36 16.7998 293.49 16.7498 293.63 16.7498H301.86V0.559753C301.86 0.419753 301.9 0.299779 302 0.179779C302.09 0.0697791 302.18 0.00976562 302.27 0.00976562C302.36 0.00976562 304.08 0.30978 307.42 0.89978C307.65 0.89978 307.79 1.05976 307.83 1.37976V16.7498H316.75C316.89 16.7498 317 16.7998 317.09 16.8898C317.18 16.9798 317.23 17.0998 317.23 17.2298V19.2198C317.23 19.3598 317.18 19.4698 317.09 19.5598C317 19.6498 316.88 19.6998 316.75 19.6998H307.83V24.4298C312.22 27.1798 314.62 30.1698 315.04 33.4198C315.08 33.7398 315.11 34.0598 315.11 34.3798C315.11 35.8898 314.56 36.9198 313.46 37.4698C313.09 37.6498 312.71 37.7398 312.29 37.7398C311.56 37.7398 310.83 37.4198 310.09 36.7798C310 36.6898 309.95 36.5698 309.95 36.4398C309.77 34.4298 309.06 32.0698 307.82 29.3698V62.0998C307.82 62.6898 307.27 63.2698 306.17 63.8098C304.75 64.3098 303.84 64.5598 303.42 64.5598C303.37 64.5598 303.35 64.5398 303.35 64.4898H302.32L302.35 64.4998ZM357.59 59.4898V61.5498C357.59 61.6898 357.54 61.7998 357.45 61.8898C357.36 61.9798 357.24 62.0298 357.11 62.0298H311.62C311.48 62.0298 311.37 61.9898 311.28 61.9298C311.19 61.8698 311.14 61.7798 311.14 61.6898C310.73 60.2698 310.52 59.5198 310.52 59.4298C310.52 59.3398 310.58 59.2498 310.69 59.1598C310.8 59.0698 310.93 59.0198 311.07 59.0198H357.11C357.25 59.0198 357.36 59.0598 357.45 59.1598C357.54 59.2498 357.59 59.3698 357.59 59.4998V59.4898ZM323.07 19.2798C322.93 19.2798 322.82 19.2398 322.73 19.1398C322.64 19.0498 322.59 18.9298 322.59 18.7998V15.5798C323.46 13.5198 324.33 11.2298 325.2 8.71976H315.11C314.97 8.71976 314.86 8.68978 314.77 8.61978C314.68 8.54978 314.63 8.46976 314.63 8.37976C314.22 6.95976 314.01 6.20978 314.01 6.11978C314.01 6.02978 314.07 5.93976 314.18 5.84976C314.29 5.75976 314.42 5.70978 314.56 5.70978H355.46C355.6 5.70978 355.71 5.75976 355.8 5.84976C355.89 5.93976 355.94 6.05976 355.94 6.18976V8.24976C355.94 8.38976 355.89 8.49975 355.8 8.58975C355.71 8.67975 355.59 8.72977 355.46 8.72977H331.72C330.48 12.0198 329.5 14.5598 328.77 16.3498H338.58C338.72 16.3498 338.83 16.3998 338.92 16.4898C339.01 16.5798 339.06 16.6998 339.06 16.8298V19.5098C338.88 31.0398 338.49 39.4998 337.89 44.8998C337.3 50.5298 336.22 54.1198 334.67 55.6698C332.89 57.4098 330.53 58.2798 327.6 58.2798C327.46 58.2798 327.35 58.2398 327.26 58.1398C327.17 58.0498 327.12 57.9298 327.12 57.7998C327.12 56.1498 326.85 55.1198 326.3 54.7098C326.3 54.6698 326.28 54.6398 326.23 54.6398C325.73 54.0498 324.29 53.4998 321.91 52.9898C321.77 52.9898 321.67 52.9398 321.6 52.8498C321.53 52.7598 321.5 52.6398 321.5 52.5098V51.3398C321.5 51.1998 321.54 51.0798 321.64 50.9598C321.73 50.8498 321.81 50.7898 321.88 50.7898C321.95 50.7898 322.01 50.8098 322.05 50.8598C325.3 51.1798 327.4 51.3398 328.36 51.3398C329.32 51.3398 330.03 51.1298 330.49 50.7198C330.81 50.3498 331.13 49.5298 331.45 48.2498C332.37 44.7698 332.98 35.1198 333.3 19.2898H323.08L323.07 19.2798ZM325.06 47.2098H324.44C324.3 47.2098 324.19 47.1698 324.1 47.0698C324.01 46.9798 323.96 46.8598 323.96 46.7298V44.3998H320.12V47.6298C320.12 47.8598 320.02 48.0798 319.81 48.2798C319.6 48.4898 319.23 48.7298 318.68 48.9998C317.9 49.3198 317.1 49.4798 316.28 49.4798H315.59C315.45 49.4798 315.34 49.4398 315.25 49.3398C315.16 49.2498 315.11 49.1298 315.11 48.9998V24.9198C315.11 24.7798 315.15 24.6698 315.25 24.5798C315.34 24.4898 315.46 24.4398 315.59 24.4398H328.49C328.63 24.4398 328.74 24.4898 328.83 24.5798C328.92 24.6698 328.97 24.7898 328.97 24.9198V45.3698C328.97 45.5498 328.88 45.7398 328.7 45.9198C328.52 46.0998 328.04 46.3698 327.26 46.7098C326.48 47.0498 325.75 47.2198 325.06 47.2198V47.2098ZM320.12 27.3798V41.4498H323.96V27.3798H320.12ZM353.88 20.5898V23.1298C353.1 28.4398 352.07 32.8298 350.79 36.2998C353.81 40.1898 355.32 43.7298 355.32 46.9398C355.32 48.6798 354.95 49.8898 354.22 50.5798C353.76 51.0798 353.18 51.3298 352.47 51.3298C351.76 51.3298 350.99 50.9898 350.17 50.2998C350.08 50.2098 350.03 50.0898 350.03 49.9598C349.71 47.7598 348.95 45.3198 347.77 42.6198C345.53 46.5998 342.58 49.9898 338.92 52.7798C338.78 52.8698 338.67 52.9198 338.58 52.9198C338.44 52.9198 338.31 52.8498 338.17 52.7098L337.42 51.8898C337.33 51.7998 337.28 51.6798 337.28 51.5498C337.28 51.4198 337.32 51.2998 337.42 51.2098C340.76 47.5498 343.32 42.9098 345.1 37.2798C343.04 33.6198 340.98 30.5998 338.92 28.2198C338.83 28.0798 338.78 27.9698 338.78 27.8798C338.78 27.6998 338.87 27.5398 339.05 27.3998L340.01 26.8498C340.1 26.8098 340.19 26.7798 340.28 26.7798C340.37 26.7798 340.46 26.8298 340.55 26.9198C343.02 28.6998 345.01 30.2798 346.52 31.6498C347.11 28.6798 347.55 25.8198 347.82 23.0698H340.13C339.9 23.0698 339.74 22.9798 339.65 22.7998L338.62 20.8098C338.62 20.8098 338.55 20.6898 338.55 20.5698C338.55 20.4498 338.61 20.3498 338.72 20.2598C338.83 20.1698 338.96 20.1198 339.1 20.1198H353.37C353.51 20.1198 353.62 20.1698 353.71 20.2598C353.8 20.3498 353.85 20.4698 353.85 20.5998L353.88 20.5898Z" fill="white"/>
<path d="M425.18 44.47C425.18 44.74 425.02 44.9 424.7 44.95H395.19C394.64 47.28 393.77 49.34 392.58 51.13C391.34 52.96 389.54 54.74 387.16 56.48C382.63 59.77 374.62 62.47 363.14 64.58C363.14 64.62 363.09 64.65 363 64.65C362.91 64.65 362.83 64.6 362.76 64.51C362.69 64.42 362.63 64.35 362.59 64.3L362.04 63.07C361.99 62.98 361.97 62.89 361.97 62.79C361.97 62.69 362.01 62.61 362.11 62.52C362.2 62.43 362.29 62.38 362.38 62.38C370.89 60.05 377.04 57.46 380.84 54.63C384.41 51.98 386.79 48.75 387.98 44.95H365.34C365.2 44.95 365.09 44.92 365 44.85C364.91 44.78 364.86 44.7 364.86 44.61C364.4 43.24 364.17 42.51 364.17 42.41C364.17 42.31 364.24 42.23 364.38 42.14C364.47 42.05 364.59 42 364.72 42H388.67C389.04 40.17 389.29 37.75 389.42 34.73C389.42 34.59 389.46 34.47 389.56 34.35C389.65 34.24 389.73 34.18 389.8 34.18C389.87 34.18 391.94 34.45 396.01 35C396.1 35 396.2 35.05 396.32 35.14C396.43 35.23 396.49 35.31 396.49 35.38C396.49 35.45 396.47 35.51 396.42 35.55C396.24 38.48 396.05 40.63 395.87 42H424.69C424.83 42 424.94 42.05 425.03 42.14C425.12 42.23 425.17 42.35 425.17 42.48V44.47H425.18ZM425.52 31.91V33.9C425.52 34.04 425.47 34.15 425.38 34.24C425.29 34.33 425.17 34.38 425.04 34.38H363.56C363.42 34.38 363.31 34.35 363.22 34.28C363.13 34.21 363.08 34.13 363.08 34.04C362.62 32.67 362.39 31.94 362.39 31.84C362.39 31.74 362.45 31.66 362.56 31.57C362.67 31.48 362.8 31.43 362.94 31.43H390.25V24.29H370.56C370.42 24.29 370.31 24.26 370.22 24.19C370.13 24.12 370.08 24.04 370.08 23.95C369.67 22.58 369.46 21.85 369.46 21.75C369.46 21.65 369.52 21.57 369.63 21.48C369.74 21.39 369.87 21.34 370.01 21.34H390.25V14.48H366.58C366.44 14.48 366.33 14.45 366.24 14.38C366.15 14.31 366.1 14.23 366.1 14.14C365.64 12.77 365.41 12.04 365.41 11.94C365.41 11.84 365.47 11.76 365.58 11.67C365.69 11.58 365.82 11.53 365.96 11.53H398.69C400.38 8.24 401.94 4.60003 403.36 0.620026C403.4 0.580026 403.46 0.510004 403.53 0.410004C403.6 0.320004 403.68 0.27002 403.77 0.27002C403.86 0.27002 403.95 0.289996 404.04 0.339996L409.46 2.54001C409.46 2.54001 409.57 2.64002 409.67 2.71002C409.76 2.78002 409.81 2.87001 409.81 2.98001C409.81 3.09001 409.76 3.20001 409.67 3.29001C407.79 6.31001 405.39 9.05002 402.46 11.52H423.11C423.25 11.52 423.36 11.57 423.45 11.66C423.54 11.75 423.59 11.87 423.59 12V13.99C423.59 14.13 423.54 14.24 423.45 14.33C423.36 14.42 423.24 14.47 423.11 14.47H397.03V21.33H418.71C418.85 21.33 418.96 21.38 419.05 21.47C419.14 21.56 419.19 21.68 419.19 21.81V23.8C419.19 23.94 419.14 24.05 419.05 24.14C418.96 24.23 418.84 24.28 418.71 24.28H397.03V31.42H425.03C425.17 31.42 425.28 31.47 425.37 31.56C425.46 31.65 425.51 31.77 425.51 31.9L425.52 31.91ZM377.49 0.76001C377.58 0.67001 377.67 0.620026 377.76 0.620026C377.85 0.620026 377.9 0.640002 377.9 0.690002C383.34 1.65 386.66 3.62 387.85 6.59C388.12 7.28 388.26 7.92001 388.26 8.51001C388.26 9.52001 387.89 10.35 387.16 11.01C386.43 11.67 385.66 12.01 384.86 12.01C384.06 12.01 383.2 11.69 382.29 11.05C382.15 10.96 382.08 10.84 382.08 10.71C381.81 9.34002 381.19 7.87001 380.23 6.32001C379.13 4.58001 378.01 3.19 376.87 2.13C376.73 1.99 376.66 1.86 376.66 1.72C376.66 1.58 376.73 1.45 376.87 1.31L377.49 0.76001ZM398.35 46.66C398.44 46.48 398.54 46.39 398.66 46.39C398.78 46.39 398.83 46.41 398.83 46.46C409.76 48.43 417.36 51.7 421.61 56.27C423.3 58.15 424.15 59.84 424.15 61.35C424.15 61.85 424.06 62.31 423.87 62.72C423.41 63.91 422.54 64.5 421.26 64.5C420.8 64.5 420.4 64.45 420.06 64.36C419.72 64.27 419.5 64.18 419.41 64.08C417.31 61.47 414.17 58.66 410.01 55.64C405.85 52.58 401.84 50.11 398 48.23C397.77 48.14 397.66 48.01 397.66 47.85C397.66 47.69 397.7 47.56 397.8 47.47L398.35 46.65V46.66Z" fill="white"/>
<path d="M494.76 59.0799V61.0699C494.76 61.2099 494.71 61.3199 494.62 61.4099C494.53 61.4999 494.41 61.5499 494.28 61.5499H431.49C431.35 61.5499 431.24 61.5199 431.15 61.4499C431.06 61.3799 431.01 61.2999 431.01 61.2099C430.6 59.8399 430.39 59.1099 430.39 59.0099C430.39 58.9099 430.45 58.8299 430.56 58.7399C430.67 58.6499 430.8 58.5999 430.94 58.5999H458.87V39.3899H439.25C439.11 39.3899 439 39.3599 438.91 39.2899C438.82 39.2199 438.77 39.1399 438.77 39.0499C438.4 37.6799 438.22 36.9499 438.22 36.8499C438.22 36.7499 438.28 36.6699 438.39 36.5799C438.5 36.4899 438.63 36.4399 438.77 36.4399H458.88V20.0399H445.16C441.18 26.7199 436.7 32.0499 431.71 36.0299C431.57 36.1199 431.46 36.1699 431.37 36.1699C431.28 36.1699 431.19 36.1199 431.1 36.0299C430.41 35.6199 430.04 35.3799 429.97 35.3099C429.9 35.2399 429.87 35.1499 429.87 35.0399C429.87 34.9299 429.91 34.7999 430.01 34.6599C432.98 30.9099 435.75 26.2199 438.31 20.5899C440.96 14.9199 443.04 9.0899 444.55 3.0899C444.55 2.9999 444.59 2.90992 444.69 2.81992C444.78 2.72992 444.87 2.67993 444.96 2.67993C445.05 2.67993 445.14 2.69991 445.23 2.74991L450.99 5.35992C451.22 5.44992 451.33 5.6099 451.33 5.8399C451.33 5.8899 451.31 5.92992 451.26 5.97992C450.16 9.86992 448.7 13.5499 446.87 17.0299H458.88V0.96991C458.88 0.82991 458.92 0.709905 459.02 0.589905C459.11 0.479905 459.19 0.419922 459.26 0.419922C459.33 0.419922 461.35 0.739913 465.33 1.37991C465.47 1.37991 465.57 1.42993 465.64 1.51993C465.71 1.60993 465.74 1.72992 465.74 1.85992V17.0299H490.37C490.51 17.0299 490.62 17.0799 490.71 17.1699C490.8 17.2599 490.85 17.3799 490.85 17.5099V19.5699C490.85 19.7099 490.8 19.8199 490.71 19.9099C490.62 19.9999 490.5 20.0499 490.37 20.0499H465.74V36.4499H487.97C488.11 36.4499 488.22 36.4999 488.31 36.5899C488.4 36.6799 488.45 36.7999 488.45 36.9299V38.9199C488.45 39.0599 488.4 39.1699 488.31 39.2599C488.22 39.3499 488.1 39.3999 487.97 39.3999H465.74V58.6099H494.28C494.42 58.6099 494.53 58.6499 494.62 58.7499C494.71 58.8499 494.76 58.9599 494.76 59.0899V59.0799Z" fill="white"/>
<path d="M499.42 16.61C499.51 16.47 499.59 16.4 499.66 16.4C499.73 16.4 499.78 16.4199 499.83 16.4699C505.78 17.0199 509.55 18.7599 511.15 21.6899C511.56 22.5599 511.77 23.3799 511.77 24.1599C511.77 24.9799 511.44 25.74 510.77 26.42C510.11 27.11 509.4 27.45 508.64 27.45C507.88 27.45 507.1 27.2199 506.27 26.7599C506.18 26.6699 506.11 26.55 506.06 26.42C505.46 24.68 504.09 22.7399 501.94 20.5899C500.93 19.5899 499.9 18.7099 498.85 17.9799C498.67 17.8899 498.58 17.7599 498.58 17.5999C498.58 17.4399 498.65 17.3099 498.79 17.2199L499.41 16.5999L499.42 16.61ZM499.77 44.8099C499.77 44.5399 499.93 44.38 500.25 44.33H503.34C503.71 44.33 503.96 44.2499 504.09 44.0899C504.23 43.9299 504.43 43.5999 504.71 43.0899C505.63 41.5399 510.27 31.81 518.64 13.93C518.73 13.7 518.89 13.5899 519.12 13.5899C519.16 13.5899 519.6 13.7299 520.42 13.9999C520.51 13.9999 520.6 14.05 520.69 14.14C520.78 14.23 520.83 14.32 520.83 14.42C520.83 14.52 520.81 14.5999 520.76 14.6899C520.07 16.5699 518.93 19.74 517.33 24.2299L513.21 35.55C512.11 38.62 511.43 40.6299 511.15 41.5899C510.42 44.2899 510.03 46.2999 509.98 47.6299C510.07 48.2199 510.44 49.7599 511.08 52.2299C511.77 54.47 512.11 56.6 512.11 58.61C512.11 60.76 511.54 62.41 510.4 63.55C509.53 64.37 508.45 64.7899 507.17 64.7899C506.3 64.7899 505.59 64.4399 505.04 63.7299C504.49 63.02 504.15 62.09 504.01 60.95V60.8099C504.42 58.1999 504.63 55.8699 504.63 53.8099C504.63 53.1199 504.61 52.4599 504.56 51.8199C504.42 49.4899 504.03 48.11 503.39 47.7C502.7 47.2 501.63 46.88 500.17 46.74C500.08 46.74 499.99 46.6999 499.9 46.5999C499.81 46.5099 499.76 46.3899 499.76 46.2599V44.8199L499.77 44.8099ZM504.5 1.50995C504.59 1.41995 504.67 1.36996 504.74 1.36996C504.81 1.36996 504.86 1.38994 504.91 1.43994C510.95 2.07994 514.84 3.92994 516.58 6.99994C517.08 7.91994 517.33 8.77995 517.33 9.60995C517.33 10.53 516.98 11.34 516.27 12.05C515.56 12.76 514.83 13.11 514.07 13.11C513.31 13.11 512.53 12.9 511.7 12.49C511.61 12.4 511.54 12.28 511.49 12.15C510.94 10.64 509.93 9.03995 508.47 7.34995C507.05 5.56995 505.54 4.07995 503.94 2.88995C503.76 2.74995 503.67 2.61995 503.67 2.47995C503.67 2.33995 503.74 2.20995 503.88 2.06995L504.5 1.51996V1.50995ZM563.65 22.4399V24.4999C563.65 24.6399 563.6 24.7499 563.51 24.8399C563.42 24.9299 563.3 24.9799 563.17 24.9799H543.13V37.4699H557.4C557.54 37.4699 557.65 37.52 557.74 37.61C557.83 37.7 557.88 37.82 557.88 37.95V61.83C557.88 62.01 557.77 62.2299 557.54 62.4799C557.31 62.7299 556.76 63.0399 555.89 63.4099C554.29 63.9099 553.28 64.1599 552.87 64.1599C552.82 64.1599 552.8 64.1399 552.8 64.0899H551.91C551.77 64.0899 551.66 64.04 551.57 63.95C551.48 63.86 551.43 63.74 551.43 63.61V58.87H528.24V62.0999C528.24 62.3699 528.13 62.6299 527.9 62.8499C527.67 63.0799 527.19 63.35 526.46 63.67C525.45 64.13 524.38 64.36 523.23 64.36H522.41C522.27 64.36 522.16 64.3099 522.07 64.2199C521.98 64.1299 521.93 64.0099 521.93 63.8799V37.9399C521.93 37.7999 521.97 37.6899 522.07 37.5999C522.17 37.5099 522.28 37.46 522.41 37.46H536.61V24.9699H518.77C518.63 24.9699 518.52 24.94 518.43 24.87C518.34 24.8 518.29 24.7199 518.29 24.6299C517.88 23.2099 517.67 22.46 517.67 22.37C517.67 22.28 517.73 22.1899 517.84 22.0999C517.95 22.0099 518.08 21.96 518.22 21.96H536.61V10.8399C530.62 11.5699 524.99 12.0499 519.73 12.2799C519.73 12.3299 519.69 12.3499 519.63 12.3499C519.57 12.3499 519.48 12.3 519.39 12.21C519.3 12.12 519.25 12.0299 519.25 11.9399C519.02 11.1199 518.91 10.6599 518.91 10.5699C518.91 10.4799 518.95 10.39 519.05 10.3C519.14 10.21 519.26 10.1599 519.39 10.1599C525.29 9.19994 531.54 7.84995 538.12 6.10995C544.71 4.36995 549.92 2.67994 553.76 1.02994C553.85 0.989938 553.94 0.959961 554.03 0.959961C554.12 0.959961 554.2 1.00995 554.27 1.09995C554.34 1.18995 554.4 1.25994 554.44 1.30994L556.57 7.06995C556.61 7.15995 556.64 7.24994 556.64 7.33994C556.64 7.42994 556.59 7.51995 556.5 7.60995C556.41 7.69995 556.29 7.74994 556.16 7.74994C552.45 8.47994 548.11 9.20995 543.12 9.94995V21.96H563.16C563.3 21.96 563.41 22.0099 563.5 22.0999C563.59 22.1899 563.64 22.3099 563.64 22.4399H563.65ZM551.44 55.92V40.4099H528.25V55.92H551.44Z" fill="white"/>
<path d="M12.1 93.3399C12.19 93.4099 12.24 93.4699 12.24 93.5299C12.24 93.5899 12.23 93.6399 12.21 93.6899C9.55 100.31 5.75 105.16 0.81 108.24C0.76 108.29 0.71 108.31 0.65 108.31C0.59 108.31 0.54 108.29 0.49 108.24C0.23 107.98 0.09 107.84 0.05 107.82C0.02 107.8 0 107.75 0 107.68C0 107.61 0.03 107.55 0.1 107.51C1.89 105.69 3.59 103.41 5.17 100.67C6.75 97.93 7.99 95.02 8.88 91.95C8.88 91.9 8.9 91.8599 8.95 91.8099C9 91.7599 9.05 91.74 9.11 91.74C9.17 91.74 9.22 91.7499 9.27 91.7799L12.1 93.3499V93.3399ZM21.09 108.69C21.09 108.69 21.18 108.66 21.23 108.66C21.28 108.66 21.32 108.68 21.37 108.73C25.36 111.32 27.93 114.14 29.1 117.19C29.47 118.17 29.66 119.02 29.66 119.74C29.66 120.67 29.39 121.39 28.86 121.91C28.58 122.19 28.26 122.33 27.9 122.33C27.54 122.33 27.15 122.19 26.73 121.91C26.45 121.75 26.31 121.61 26.31 121.49C26.15 120.32 25.76 118.98 25.16 117.47C19.59 118.8 13.2 120.05 6 121.21C5.72 121.68 5.35 121.98 4.88 122.12C4.86 122.14 4.82 122.15 4.78 122.15C4.74 122.15 4.69 122.13 4.66 122.08C4.62 122.03 4.6 122 4.57 121.97L3.21 118.16C3.21 118.16 3.17 118.07 3.17 118.02C3.17 117.97 3.19 117.93 3.24 117.88C3.29 117.83 3.33 117.81 3.38 117.81C3.89 117.67 4.23 117.53 4.39 117.39C5.84 115.8 7.43 113.39 9.18 110.15C10.97 106.91 12.25 104.15 12.99 101.86C12.99 101.81 13.01 101.77 13.06 101.72C13.11 101.67 13.16 101.65 13.22 101.65C13.28 101.65 13.33 101.67 13.38 101.72C15.36 102.96 16.37 103.59 16.41 103.63C16.45 103.67 16.46 103.71 16.46 103.75C16.46 103.79 16.45 103.84 16.43 103.89C15.36 106.36 13.83 108.9 11.85 111.51C10.08 113.91 8.32 116.01 6.57 117.8C11.12 117.54 17.13 116.97 24.61 116.09C23.63 113.88 22.29 111.61 20.59 109.31C20.54 109.26 20.52 109.22 20.52 109.17C20.52 109.08 20.57 109 20.66 108.92L21.12 108.67L21.09 108.69ZM16.33 92.71C16.26 92.71 16.2 92.6899 16.16 92.6599C16.11 92.6299 16.09 92.5799 16.09 92.5399C15.86 91.8399 15.74 91.47 15.74 91.42C15.74 91.37 15.77 91.3299 15.83 91.2799C15.89 91.2299 15.95 91.21 16.02 91.21H21.02C21.09 91.21 21.15 91.2299 21.19 91.2799C21.23 91.3299 21.26 91.38 21.26 91.45V92.67C22.03 95.28 23.37 97.6699 25.28 99.8399C27.19 102.03 29.56 103.7 32.38 104.84C32.5 104.89 32.55 104.97 32.55 105.09C32.55 105.11 32.5 105.28 32.41 105.58C32.39 105.67 32.33 105.73 32.24 105.75C31.7 105.91 31.21 106.22 30.77 106.66C30.35 107.1 30.05 107.58 29.86 108.09C29.86 108.14 29.84 108.18 29.79 108.23C29.74 108.28 29.69 108.3 29.63 108.3C29.57 108.3 29.52 108.28 29.47 108.23C24.39 104.94 21.17 99.77 19.82 92.7H16.32L16.33 92.71Z" fill="white"/>
<path d="M37.3101 122.4C37.1701 122.4 37.0901 122.32 37.0601 122.15V92.0398C37.0601 91.9698 37.0801 91.9098 37.1301 91.8698C37.1801 91.8198 37.2301 91.7998 37.3001 91.7998H65.3101C65.3801 91.7998 65.4401 91.8198 65.4801 91.8698C65.5201 91.9198 65.5501 91.9698 65.5501 92.0398V120.82C65.5501 120.94 65.4901 121.06 65.3601 121.2C65.2301 121.34 64.9601 121.5 64.5401 121.69C63.9801 121.97 63.4401 122.11 62.9301 122.11H62.5101C62.4401 122.11 62.3801 122.09 62.3401 122.04C62.3001 121.99 62.2701 121.94 62.2701 121.87V119.81H40.3101V121.03C40.3101 121.33 40.0401 121.65 39.5101 121.97C39.0001 122.25 38.4401 122.39 37.8301 122.39H37.3101V122.4ZM53.4301 113.77C53.5501 114.14 53.6001 114.35 53.6001 114.4C53.6001 114.47 53.5501 114.54 53.4601 114.61C50.5001 116.27 48.3201 117.47 46.9201 118.21C46.7801 118.47 46.5901 118.67 46.3601 118.8C46.3101 118.82 46.2601 118.84 46.1901 118.84C46.1201 118.84 46.0601 118.79 46.0201 118.7L44.4501 116.57C44.4501 116.57 44.3801 116.48 44.3801 116.43C44.3801 116.34 44.4301 116.27 44.5201 116.22C44.9901 115.92 45.2801 115.68 45.3901 115.52C45.5101 115.4 45.5701 115.25 45.5701 115.06V113.03C44.1201 113.64 42.5301 114.17 40.7801 114.64C40.7601 114.66 40.7201 114.68 40.6701 114.68C40.6001 114.68 40.5301 114.63 40.4601 114.54L40.1401 113.95C40.1401 113.95 40.1001 113.85 40.1001 113.79C40.1001 113.73 40.1201 113.69 40.1701 113.65C40.2201 113.61 40.2501 113.59 40.2701 113.56C43.2301 112.44 45.7001 111.01 47.6801 109.26H46.3201V109.54C46.3201 109.66 46.2701 109.77 46.1601 109.87C46.0501 109.97 45.8301 110.1 45.4801 110.24H45.4401C44.9501 110.4 44.4701 110.49 44.0101 110.49H43.6601C43.5901 110.49 43.5301 110.47 43.4901 110.42C43.4401 110.37 43.4201 110.32 43.4201 110.25V103.71C43.4201 103.64 43.4401 103.58 43.4901 103.54C43.5401 103.49 43.5901 103.47 43.6601 103.47H58.7701C58.8401 103.47 58.9001 103.49 58.9401 103.54C58.9801 103.59 59.0101 103.64 59.0101 103.71V108.82L61.0401 110.71C61.1101 110.76 61.1501 110.82 61.1501 110.88C61.1501 110.94 61.0901 111.04 60.9801 111.16C60.8701 111.28 60.7001 111.33 60.4901 111.33C60.2801 111.33 60.0601 111.28 59.8201 111.19C59.0301 111.63 58.1601 112.08 57.2301 112.52C59.2801 113.64 60.4801 114.81 60.8301 116.02C60.9001 116.23 60.9301 116.42 60.9301 116.58C60.9301 117.14 60.6501 117.51 60.0901 117.7C59.9501 117.75 59.7701 117.77 59.5701 117.77C59.3701 117.77 59.1001 117.7 58.8001 117.56L58.7301 117.49C58.0801 116.6 56.9901 115.59 55.4801 114.45C54.0101 113.26 52.3601 112.19 50.5101 111.23C50.3901 111.16 50.3401 111.08 50.3401 110.98C50.3401 110.96 50.3501 110.92 50.3801 110.87C50.5701 110.5 50.6801 110.29 50.7101 110.24C50.7401 110.19 50.7901 110.17 50.8301 110.17C50.8701 110.17 50.9101 110.18 50.9301 110.21C52.7201 110.65 54.3001 111.18 55.6501 111.78C56.2801 111.17 56.8601 110.56 57.4001 109.93C57.0501 110 56.8501 110.03 56.7901 110.03C56.7301 110.03 56.7001 110.02 56.7001 109.99H56.3201C56.2501 109.99 56.1901 109.97 56.1501 109.92C56.1101 109.87 56.0801 109.81 56.0801 109.75V109.26H51.5301C50.7801 110.01 49.7501 110.78 48.4201 111.57V115C49.8901 114.58 51.0401 114.24 51.8801 113.97C52.7201 113.7 53.1601 113.57 53.2101 113.57C53.2601 113.57 53.3001 113.59 53.3501 113.64C53.4001 113.69 53.4201 113.73 53.4201 113.78L53.4301 113.77ZM62.2801 93.3098H40.3201V118.31H62.2801V93.3098ZM61.9601 100.55V101.56C61.9601 101.63 61.9401 101.69 61.8901 101.73C61.8401 101.78 61.7801 101.8 61.7201 101.8H41.3001C41.2301 101.8 41.1701 101.78 41.1301 101.75C41.0801 101.72 41.0601 101.67 41.0601 101.63C40.8501 100.93 40.7501 100.56 40.7501 100.51C40.7501 100.46 40.7801 100.42 40.8401 100.37C40.9001 100.32 40.9601 100.3 41.0301 100.3H49.7001V98.2398H43.0201C42.9501 98.2398 42.8901 98.2198 42.8401 98.1898C42.7901 98.1598 42.7701 98.1098 42.7701 98.0698C42.5601 97.3498 42.4601 96.9598 42.4601 96.9198C42.4601 96.8798 42.4901 96.8298 42.5501 96.7798C42.6101 96.7298 42.6701 96.7098 42.7401 96.7098H49.7001V93.9498C49.7001 93.8798 49.7201 93.8198 49.7701 93.7598C49.8201 93.6998 49.8601 93.6698 49.8901 93.6698C49.9201 93.6698 50.8001 93.7998 52.5301 94.0498C52.6001 94.0498 52.6501 94.0698 52.6901 94.1198C52.7301 94.1698 52.7401 94.2298 52.7401 94.2898V96.6998H60.1501C60.2201 96.6998 60.2801 96.7198 60.3301 96.7698C60.3801 96.8198 60.4001 96.8698 60.4001 96.9398V97.9898C60.4001 98.0598 60.3801 98.1198 60.3301 98.1598C60.2801 98.2098 60.2201 98.2298 60.1501 98.2298H52.7401V100.29H61.7301C61.8001 100.29 61.8601 100.31 61.9001 100.36C61.9501 100.41 61.9701 100.46 61.9701 100.53L61.9601 100.55ZM56.0901 104.95H46.3301V107.71H56.0901V104.95Z" fill="white"/>
<path d="M84.25 108.14L74.7 97.73H76.35L82.33 104.33C83.25 105.31 83.98 106.05 85.14 107.24H85.3C86.3 106.05 86.99 105.31 87.91 104.33L93.77 97.73H95.42L85.91 108.2L96.23 119.32H94.46L88.28 112.42C87.36 111.38 86.27 110.31 85.03 109H84.87L81.82 112.42L75.64 119.32H74.03L84.27 108.14H84.25Z" fill="#DCA435"/>
<path d="M114.25 104.25C114.37 104.6 114.42 104.8 114.42 104.84C114.42 104.91 114.37 104.97 114.28 105.01C113.56 105.48 112.26 106.23 110.4 107.28V118.4C110.4 119.78 110.12 120.75 109.56 121.32C109 121.89 107.95 122.25 106.41 122.39C106.39 122.41 106.36 122.43 106.32 122.43C106.28 122.43 106.24 122.4 106.2 122.34C106.15 122.28 106.13 122.23 106.13 122.18C106.06 121.27 105.86 120.65 105.54 120.33C105.07 119.91 104.27 119.61 103.13 119.42C103.06 119.42 103.01 119.4 102.97 119.35C102.93 119.3 102.92 119.24 102.92 119.18V118.66C102.92 118.59 102.94 118.53 102.99 118.47C103.04 118.41 103.08 118.38 103.11 118.38C103.14 118.38 103.65 118.42 104.63 118.5C105.61 118.58 106.31 118.62 106.73 118.62C106.92 118.62 107.04 118.58 107.11 118.51C107.18 118.44 107.21 118.34 107.21 118.2V109.14C106.88 109.3 106.44 109.54 105.88 109.84C105.32 110.14 104.89 110.38 104.59 110.54C104.45 111.03 104.16 111.36 103.72 111.52C103.67 111.54 103.63 111.56 103.58 111.56C103.53 111.56 103.49 111.54 103.46 111.49C103.43 111.44 103.4 111.41 103.37 111.39L102.01 107.96C102.01 107.96 101.97 107.87 101.97 107.82C101.97 107.77 101.99 107.73 102.04 107.68C102.09 107.63 102.13 107.61 102.18 107.61C103.37 107.33 105.05 106.85 107.22 106.18V99.2599H103.09C103.02 99.2599 102.96 99.2399 102.92 99.2099C102.87 99.1799 102.85 99.1298 102.85 99.0898C102.64 98.3898 102.54 98.0198 102.54 97.9698C102.54 97.9198 102.57 97.8799 102.63 97.8299C102.69 97.7799 102.75 97.7599 102.82 97.7599H107.23V89.8899C107.23 89.8199 107.25 89.7599 107.3 89.6999C107.35 89.6399 107.39 89.6099 107.42 89.6099C107.45 89.6099 108.38 89.7599 110.2 90.0699C110.32 90.0699 110.39 90.1498 110.41 90.3098V97.7599H114.89C114.96 97.7599 115.02 97.7799 115.06 97.8299C115.1 97.8799 115.13 97.9298 115.13 97.9998V99.0099C115.13 99.0799 115.11 99.1399 115.06 99.1799C115.01 99.2199 114.96 99.2498 114.89 99.2498H110.41V105.2C111.25 104.94 112.05 104.69 112.82 104.43C113.59 104.17 114 104.05 114.04 104.05C114.08 104.05 114.13 104.07 114.18 104.12C114.23 104.17 114.25 104.21 114.25 104.26V104.25ZM133.17 113.21C133.17 113.35 133.09 113.43 132.92 113.45H124.67V118.07C125.6 118.19 126.81 118.24 128.31 118.24C131.9 118.24 134 118.24 134.62 118.22C135.24 118.21 135.56 118.2 135.6 118.2C135.64 118.2 135.68 118.22 135.72 118.27C135.77 118.32 135.79 118.37 135.79 118.44V118.89C135.79 118.96 135.77 119.02 135.74 119.06C135.7 119.11 135.66 119.13 135.62 119.13C134.83 119.32 134.43 119.98 134.43 121.12C134.43 121.19 134.41 121.25 134.36 121.29C134.31 121.33 134.26 121.36 134.19 121.36H128.14C125.06 121.36 122.65 120.92 120.9 120.03C119.27 119.19 117.96 117.68 116.98 115.48C115.65 118.6 113.66 120.91 111 122.4C110.95 122.42 110.9 122.44 110.84 122.44C110.78 122.44 110.73 122.42 110.68 122.37C110.38 122.07 110.21 121.9 110.17 121.88C110.13 121.86 110.12 121.81 110.12 121.74C110.12 121.67 110.16 121.61 110.23 121.57C113.12 118.63 114.74 114.58 115.09 109.4C115.09 109.35 115.11 109.3 115.16 109.24C115.21 109.18 115.25 109.15 115.3 109.15C115.35 109.15 115.38 109.16 115.4 109.18L118.13 109.91C118.13 109.91 118.22 109.93 118.27 109.98C118.32 110.03 118.34 110.07 118.34 110.1C118.34 110.13 118.33 110.16 118.3 110.19C118.09 111.82 117.85 113.03 117.57 113.83C118.48 115.49 119.77 116.64 121.45 117.29V108.09H114.98C114.91 108.09 114.85 108.07 114.81 108.04C114.76 108 114.74 107.96 114.74 107.92C114.51 107.22 114.39 106.85 114.39 106.8C114.39 106.75 114.42 106.71 114.48 106.66C114.54 106.61 114.6 106.59 114.67 106.59H121.45V103.44H112.95C112.88 103.44 112.82 103.42 112.78 103.39C112.73 103.35 112.71 103.31 112.71 103.27C112.5 102.57 112.4 102.2 112.4 102.15C112.4 102.1 112.43 102.06 112.49 102.01C112.55 101.96 112.61 101.94 112.68 101.94H121.46V99.0399H115.34C115.27 99.0399 115.21 99.0199 115.17 98.9899C115.12 98.9599 115.1 98.9099 115.1 98.8699C114.87 98.1699 114.75 97.7998 114.75 97.7498C114.75 97.6998 114.78 97.6599 114.84 97.6099C114.9 97.5599 114.96 97.5399 115.03 97.5399H121.46V95.0598H113.49C113.42 95.0598 113.36 95.0399 113.32 95.0099C113.27 94.9699 113.25 94.9299 113.25 94.8899C113.04 94.1899 112.94 93.8199 112.94 93.7699C112.94 93.7199 112.97 93.6799 113.03 93.6299C113.09 93.5799 113.15 93.5598 113.22 93.5598H121.47V89.9899C121.47 89.9199 121.49 89.8599 121.54 89.7999C121.59 89.7399 121.63 89.7099 121.66 89.7099C121.69 89.7099 122.63 89.8599 124.48 90.1699C124.55 90.1699 124.6 90.1899 124.64 90.2399C124.68 90.2899 124.69 90.3499 124.69 90.4199V93.5699H134.76C134.83 93.5699 134.89 93.5899 134.93 93.6399C134.97 93.6899 135 93.7398 135 93.8098V94.8199C135 94.8899 134.98 94.9499 134.93 94.9899C134.88 95.0399 134.83 95.0598 134.76 95.0598H124.69V97.5399H131.54C131.61 97.5399 131.67 97.5599 131.71 97.6099C131.75 97.6599 131.78 97.7098 131.78 97.7798V101.94H135.59C135.66 101.94 135.72 101.96 135.76 102.01C135.81 102.06 135.83 102.11 135.83 102.18V103.19C135.83 103.26 135.81 103.32 135.76 103.36C135.71 103.4 135.65 103.43 135.59 103.43H131.78V108.33C131.78 108.42 131.73 108.53 131.62 108.64C131.52 108.76 131.25 108.91 130.83 109.1C130.27 109.31 129.78 109.41 129.36 109.41H128.94C128.87 109.41 128.81 109.39 128.77 109.34C128.73 109.29 128.7 109.23 128.7 109.16V108.08H124.68V111.86H132.93C133 111.86 133.06 111.88 133.1 111.93C133.15 111.98 133.17 112.04 133.17 112.1V113.15V113.21ZM128.69 99.0799H124.67V101.98H128.69V99.0799ZM128.69 103.48H124.67V106.63H128.69V103.48Z" fill="white"/>
<path d="M139.95 107.65C139.81 107.65 139.73 107.57 139.7 107.4V105.83C139.7 105.83 139.71 105.74 139.74 105.69C140.91 104.03 142.13 102.18 143.41 100.13H138.41C138.34 100.13 138.28 100.11 138.24 100.08C138.19 100.04 138.17 99.9999 138.17 99.9599C137.94 99.2599 137.82 98.8899 137.82 98.8399C137.82 98.7899 137.85 98.7499 137.91 98.6999C137.97 98.6499 138.03 98.6299 138.1 98.6299H146.32C146.39 98.6299 146.45 98.6499 146.49 98.6999C146.54 98.7499 146.56 98.8099 146.56 98.8699V100.48C146.56 100.48 146.55 100.57 146.53 100.62C144.83 103.21 143.58 105.05 142.79 106.14H147.51C147.58 106.14 147.64 106.16 147.68 106.21C147.72 106.26 147.75 106.31 147.75 106.38V107.64C146.96 110.6 145.71 113.07 144.01 115.05C144.17 115.17 144.28 115.26 144.33 115.33C145.71 116.64 147.41 117.51 149.45 117.95C151.49 118.39 154.42 118.62 158.24 118.62C162.76 118.62 166.73 118.55 170.13 118.41C170.2 118.41 170.26 118.43 170.3 118.48C170.34 118.53 170.37 118.58 170.37 118.65V119.1C170.37 119.17 170.35 119.23 170.32 119.27C170.28 119.32 170.23 119.34 170.16 119.34C169.65 119.43 169.23 119.67 168.9 120.04C168.57 120.41 168.38 120.86 168.31 121.37C168.31 121.49 168.23 121.56 168.06 121.58H157.39C153.71 121.58 150.87 121.24 148.89 120.57C146.89 119.87 145.08 118.59 143.47 116.72C143.31 116.53 143.19 116.44 143.12 116.44C143 116.44 142.89 116.53 142.77 116.72C141.84 118.19 140.95 119.68 140.11 121.2C140.16 121.29 140.18 121.37 140.18 121.44C140.18 121.7 140.05 121.91 139.8 122.07C139.75 122.12 139.71 122.14 139.66 122.14C139.59 122.14 139.52 122.11 139.45 122.04L137.25 119.24C137.2 119.17 137.18 119.11 137.18 119.07C137.18 118.98 137.23 118.91 137.32 118.86C137.69 118.58 138.51 117.92 139.77 116.87C141.01 115.87 141.86 115.24 142.32 114.98C143.44 112.88 144.2 110.43 144.59 107.64H139.94L139.95 107.65ZM139.81 89.9899C139.81 89.9899 139.9 89.9199 139.95 89.9199C140 89.9199 140.03 89.9299 140.05 89.9599C142.92 90.7299 144.69 91.9199 145.37 93.5299C145.53 93.9299 145.62 94.2999 145.62 94.6499C145.62 95.1899 145.42 95.6399 145.03 96.0099C144.73 96.2899 144.39 96.4299 144.02 96.4299C143.65 96.4299 143.24 96.2699 142.8 95.9399C142.73 95.8899 142.7 95.8399 142.7 95.7699C142.54 94.9799 142.14 94.0999 141.51 93.1499C140.88 92.1699 140.2 91.3599 139.48 90.6999C139.41 90.6299 139.38 90.5599 139.38 90.4899C139.38 90.4199 139.42 90.3499 139.48 90.2799L139.83 89.9999L139.81 89.9899ZM147.5 112.93C147.5 112.79 147.59 112.71 147.78 112.68H156.1V110.23H152.32V110.65C152.32 110.79 152.26 110.92 152.15 111.05C152.03 111.18 151.8 111.31 151.45 111.45C150.94 111.64 150.44 111.73 149.95 111.73H149.57C149.5 111.73 149.44 111.71 149.4 111.66C149.35 111.61 149.33 111.56 149.33 111.49V100.89C149.33 100.82 149.35 100.76 149.4 100.72C149.45 100.68 149.5 100.65 149.57 100.65H156.11V98.4799H148.94C148.87 98.4799 148.81 98.4599 148.77 98.4299C148.72 98.3899 148.7 98.3499 148.7 98.3099C148.49 97.6099 148.38 97.2399 148.38 97.1899C148.38 97.1399 148.41 97.0999 148.47 97.0499C148.53 96.9999 148.59 96.9799 148.66 96.9799H156.11V93.8299C156.11 93.7599 156.13 93.6999 156.18 93.6399C156.23 93.5799 156.27 93.5499 156.32 93.5499C156.37 93.5499 157.25 93.6999 158.98 94.0099C159.05 94.0099 159.1 94.0299 159.14 94.0799C159.18 94.1299 159.19 94.1799 159.19 94.2499V96.9799H162.83C163.86 95.6999 164.39 95.0399 164.42 94.9999C164.46 94.9699 164.5 94.9499 164.56 94.9499C164.62 94.9499 164.67 94.9699 164.72 95.0199L165.07 95.2699C165.14 94.7599 165.22 94.1299 165.31 93.3799H150.97C150.85 94.9699 150.24 96.0699 149.12 96.6999C148.75 96.9299 148.35 97.0499 147.93 97.0499C147.35 97.0499 146.9 96.8899 146.6 96.5599C146.3 96.2799 146.15 95.9199 146.15 95.4799C146.15 94.7599 146.6 94.1599 147.51 93.6999C148.05 93.4399 148.51 92.9999 148.91 92.3699C149.26 91.7899 149.44 91.1799 149.44 90.5499L149.4 90.3399C149.4 90.2699 149.43 90.2099 149.49 90.1699C149.55 90.1199 149.61 90.0999 149.68 90.0999H150.27C150.39 90.0999 150.47 90.1499 150.52 90.2399C150.71 90.7799 150.85 91.3099 150.94 91.8499H168.39C168.46 91.8499 168.52 91.8699 168.56 91.9199C168.61 91.9699 168.63 92.0299 168.63 92.0999V93.5999C168.63 93.6699 168.62 93.7299 168.59 93.7699C167.82 94.7699 167.06 95.5999 166.32 96.2499C166.93 96.7399 167.4 97.1599 167.75 97.5099C167.82 97.5599 167.85 97.5999 167.85 97.6499C167.85 97.8599 167.76 98.0499 167.57 98.2299C167.38 98.4099 167.09 98.4899 166.7 98.4899H159.18V100.66H165.75C165.82 100.66 165.88 100.68 165.92 100.73C165.97 100.78 165.99 100.84 165.99 100.9V110.27C165.99 110.36 165.93 110.47 165.82 110.6C165.7 110.73 165.45 110.87 165.05 111.04C164.28 111.27 163.8 111.39 163.62 111.39C163.6 111.39 163.58 111.38 163.58 111.35H163.2C163.13 111.35 163.07 111.33 163.03 111.28C162.98 111.23 162.96 111.18 162.96 111.11V110.24H159.18V112.69H168.87C168.94 112.69 169 112.71 169.04 112.76C169.09 112.81 169.11 112.87 169.11 112.93V113.94C169.11 114.08 169.03 114.16 168.86 114.18H159.17V117.47C159.17 117.77 158.91 118.04 158.38 118.27C157.85 118.5 157.34 118.62 156.82 118.62H156.33C156.26 118.62 156.2 118.6 156.16 118.55C156.11 118.5 156.09 118.45 156.09 118.38V114.18H148.01C147.94 114.18 147.88 114.16 147.84 114.13C147.79 114.09 147.77 114.05 147.77 114.01C147.58 113.31 147.49 112.95 147.49 112.93H147.5ZM156.1 104.64V102.16H152.32V104.64H156.1ZM152.33 106.14V108.69H156.11V106.14H152.33ZM162.96 104.64V102.16H159.18V104.64H162.96ZM159.18 106.14V108.69H162.96V106.14H159.18Z" fill="white"/>
<path d="M186.85 108.14L177.3 97.73H178.95L184.93 104.33C185.85 105.31 186.58 106.05 187.74 107.24H187.9C188.9 106.05 189.59 105.31 190.51 104.33L196.37 97.73H198.02L188.51 108.2L198.83 119.32H197.06L190.88 112.42C189.96 111.38 188.87 110.31 187.63 109H187.47L184.42 112.42L178.24 119.32H176.63L186.87 108.14H186.85Z" fill="#DCA435"/>
<path d="M236.61 102.92V104.46C236.61 104.55 236.59 104.62 236.54 104.67C234.95 105.93 233.57 106.87 232.38 107.5C232.36 107.52 232.32 107.54 232.27 107.54C232.22 107.54 232.19 107.53 232.17 107.5C231.87 107.34 231.69 107.24 231.65 107.2C231.6 107.16 231.58 107.12 231.58 107.08C231.58 107.04 231.59 106.99 231.62 106.94C232.04 105.94 232.41 105.02 232.74 104.18H209.87V104.43C209.87 106.32 209.21 107.59 207.88 108.24C207.48 108.38 207.12 108.45 206.78 108.45C206.44 108.45 206.17 108.4 205.96 108.29C205.75 108.18 205.58 108.07 205.44 107.96C205.18 107.7 205.06 107.37 205.06 106.95C205.06 106.18 205.49 105.55 206.35 105.06C206.84 104.78 207.28 104.3 207.68 103.63C208.1 102.95 208.31 102.15 208.31 101.22C208.31 101.15 208.33 101.09 208.38 101.05C208.43 101 208.47 100.98 208.52 100.98C208.89 100.93 209.1 100.91 209.13 100.91C209.16 100.91 209.2 100.93 209.24 100.98C209.27 101.03 209.3 101.06 209.33 101.08C209.52 101.62 209.66 102.15 209.75 102.69H210.17C209.91 95.4901 209.79 91.8701 209.79 91.8301C209.79 91.7901 209.81 91.7501 209.86 91.7101C209.91 91.6701 209.97 91.6401 210.03 91.6401H212.69C213.81 90.9601 214.81 90.3001 215.7 89.6501C215.75 89.6001 215.79 89.5801 215.84 89.5801C215.89 89.5801 215.94 89.6001 216.01 89.6501C217.69 90.9801 218.55 91.6601 218.58 91.7001C218.62 91.7401 218.63 91.7901 218.63 91.8601C218.63 91.9301 218.58 92.0101 218.49 92.1101C218.35 92.2501 218.18 92.3201 217.97 92.3201C217.76 92.3201 217.55 92.2901 217.34 92.2201C215.99 92.6601 214.53 93.0001 212.97 93.2301L213.04 95.4001H217.87C217.94 95.4001 218 95.4201 218.04 95.4701C218.09 95.5201 218.11 95.5801 218.11 95.6401V96.6501C218.11 96.7201 218.09 96.7801 218.04 96.8201C217.99 96.8601 217.94 96.8901 217.87 96.8901H213.11L213.15 99.0901H218.05C218.12 99.0901 218.18 99.1101 218.22 99.1601C218.26 99.2101 218.29 99.2601 218.29 99.3301V100.31C218.29 100.38 218.27 100.44 218.22 100.48C218.17 100.53 218.12 100.55 218.05 100.55H213.22L213.29 102.68H229.72L229.83 100.55H226.51C226.44 100.55 226.38 100.53 226.34 100.5C226.29 100.47 226.27 100.42 226.27 100.38C226.04 99.7001 225.92 99.3401 225.92 99.3001C225.92 99.2601 225.95 99.2101 226.01 99.1601C226.07 99.1101 226.13 99.0901 226.2 99.0901H229.94L230.08 96.8901H226.62C226.55 96.8901 226.49 96.8701 226.45 96.8401C226.4 96.8001 226.38 96.7601 226.38 96.7201C226.15 96.0201 226.03 95.6501 226.03 95.6001C226.03 95.5501 226.06 95.5101 226.12 95.4601C226.18 95.4101 226.24 95.3901 226.31 95.3901H230.19L230.29 93.2201H226.3C226.23 93.2201 226.17 93.2001 226.13 93.1701C226.08 93.1301 226.06 93.0901 226.06 93.0501C225.83 92.3501 225.71 91.9801 225.71 91.9301C225.71 91.8801 225.74 91.8401 225.8 91.7901C225.86 91.7401 225.92 91.7201 225.99 91.7201H233.19C233.26 91.7201 233.32 91.7401 233.36 91.7901C233.41 91.8401 233.43 91.9001 233.43 91.9601V93.2201L232.84 102.7H236.41C236.48 102.7 236.54 102.72 236.58 102.77C236.63 102.82 236.65 102.87 236.65 102.94L236.61 102.92ZM237.27 113.94C237.27 114.08 237.19 114.16 237.02 114.18H223.24V118.41C223.24 119.72 222.94 120.67 222.33 121.28C221.72 121.89 220.56 122.27 218.83 122.43C218.81 122.45 218.78 122.47 218.74 122.47C218.7 122.47 218.66 122.44 218.62 122.38C218.58 122.32 218.55 122.27 218.55 122.22C218.43 121.36 218.18 120.75 217.78 120.4C217.22 119.93 216.22 119.6 214.77 119.39C214.7 119.39 214.65 119.37 214.61 119.32C214.57 119.27 214.56 119.22 214.56 119.15V118.63C214.56 118.56 214.58 118.5 214.63 118.44C214.68 118.38 214.72 118.35 214.75 118.35C214.78 118.35 215.45 118.4 216.74 118.49C218.03 118.58 218.86 118.63 219.22 118.63C219.58 118.63 219.78 118.61 219.83 118.56C219.83 118.54 219.85 118.51 219.88 118.49C219.91 118.47 219.93 118.37 219.93 118.21V114.19H206.29C206.22 114.19 206.16 114.17 206.11 114.14C206.06 114.1 206.04 114.06 206.04 114.02C205.81 113.32 205.69 112.95 205.69 112.9C205.69 112.85 205.73 112.81 205.79 112.76C205.84 112.71 205.9 112.69 205.96 112.69H219.91V110.31C219.91 110.24 219.93 110.18 219.98 110.12C220.03 110.06 220.07 110.03 220.1 110.03C220.13 110.03 220.98 110.1 222.64 110.24C223.46 109.75 224.35 109.09 225.33 108.25H212.53C212.46 108.25 212.4 108.23 212.36 108.2C212.32 108.17 212.29 108.12 212.29 108.08C212.06 107.4 211.94 107.04 211.94 107C211.94 106.96 211.97 106.91 212.03 106.86C212.09 106.81 212.15 106.79 212.22 106.79H230.05C230.12 106.79 230.18 106.81 230.22 106.86C230.26 106.91 230.29 106.96 230.29 107.03V108.39C230.29 108.51 230.24 108.59 230.15 108.64C228.31 109.48 226.35 110.22 224.28 110.88C224.23 111.07 224.13 111.24 223.96 111.39C223.79 111.54 223.54 111.66 223.19 111.76V112.7H236.97C237.04 112.7 237.1 112.72 237.14 112.77C237.19 112.82 237.21 112.88 237.21 112.94V113.95L237.27 113.94ZM224.12 99.2901C224.8 99.9201 225.13 100.56 225.13 101.21C225.13 101.37 225.11 101.55 225.06 101.75C225.01 101.95 224.9 102.13 224.73 102.31C224.56 102.48 224.33 102.57 224.05 102.57C223.75 102.57 223.47 102.49 223.21 102.32C223.16 102.3 223.13 102.26 223.1 102.22C222.89 101.75 222.56 101.29 222.12 100.82C220.88 101.64 219.55 102.32 218.13 102.88C218.08 102.9 218.04 102.92 217.99 102.92C217.92 102.92 217.86 102.87 217.82 102.78L217.47 102.26C217.47 102.26 217.4 102.17 217.4 102.12C217.4 102.03 217.45 101.96 217.54 101.91C218.71 101.19 219.75 100.36 220.69 99.4301C220.04 98.8701 219.36 98.4001 218.66 98.0301C218.57 97.9601 218.52 97.8801 218.52 97.8001C218.52 97.7201 218.55 97.6501 218.62 97.6101L218.97 97.2601C219.02 97.1901 219.06 97.1601 219.11 97.1601C219.16 97.1601 219.18 97.1701 219.18 97.1901C220.21 97.3501 221.16 97.6201 222.05 97.9901C222.54 97.3801 222.97 96.7301 223.34 96.0301C223.41 95.9401 223.48 95.8901 223.55 95.8901C223.62 95.8901 223.69 95.9101 223.76 95.9601C224.81 96.8501 225.35 97.3101 225.39 97.3401C225.43 97.3701 225.44 97.4201 225.44 97.4801C225.44 97.5401 225.43 97.5801 225.4 97.6001C225.1 98.1601 224.67 98.7201 224.11 99.2801L224.12 99.2901ZM223.7 93.1001C224.42 93.6801 224.78 94.2801 224.78 94.8801C224.78 95.3001 224.68 95.6101 224.48 95.8101C224.28 96.0101 224.04 96.1101 223.76 96.1101C223.64 96.1101 223.51 96.0901 223.38 96.0401C223.17 96.0401 223.03 95.9801 222.96 95.8701C222.68 95.4501 222.31 95.0301 221.84 94.6101C220.77 95.3801 219.59 96.0601 218.31 96.6401C218.26 96.6601 218.22 96.6701 218.17 96.6701C218.1 96.6701 218.04 96.6201 218 96.5301L217.62 96.0101C217.62 96.0101 217.55 95.9201 217.55 95.8701C217.55 95.7801 217.6 95.7101 217.69 95.6601C218.6 95.0301 219.48 94.2601 220.35 93.3501C219.84 92.9801 219.24 92.6001 218.57 92.2301C218.48 92.1601 218.43 92.0901 218.43 92.0201C218.43 91.9501 218.45 91.8901 218.5 91.8501C218.71 91.5501 218.83 91.3801 218.87 91.3401C218.91 91.3001 218.95 91.2901 218.99 91.2901C219.03 91.2901 219.06 91.3001 219.06 91.3301C220.13 91.4901 220.98 91.6901 221.61 91.9201C222.12 91.2901 222.53 90.6701 222.83 90.0701C222.9 89.9801 222.97 89.9301 223.04 89.9301C223.11 89.9301 223.18 89.9501 223.25 90.0001C224.25 90.9301 224.77 91.4101 224.81 91.4301C224.85 91.4501 224.86 91.4901 224.86 91.5501C224.86 91.6101 224.84 91.6601 224.79 91.7101C224.46 92.2501 224.1 92.7101 223.71 93.1101L223.7 93.1001Z" fill="white"/>
<path d="M271.85 119.36C271.85 119.85 271.65 120.22 271.26 120.48C270.93 120.71 270.22 120.9 269.13 121.04C268.03 121.18 266.66 121.26 265 121.28C263.37 121.33 261.03 121.35 257.97 121.35H249.58C246.85 121.35 244.98 121.08 243.95 120.55C242.85 119.99 242.31 118.85 242.31 117.12V93.52H241.19C241.12 93.52 241.06 93.5 241.02 93.47C240.98 93.44 240.95 93.39 240.95 93.35C240.74 92.65 240.64 92.28 240.64 92.23C240.64 92.18 240.67 92.14 240.73 92.09C240.79 92.04 240.85 92.02 240.92 92.02H270.85C270.92 92.02 270.98 92.04 271.02 92.09C271.06 92.14 271.09 92.19 271.09 92.26V93.27C271.09 93.34 271.07 93.4 271.02 93.44C270.97 93.48 270.92 93.51 270.85 93.51H245.36V116.8C245.36 117.5 245.61 117.97 246.09 118.2C246.6 118.5 247.67 118.66 249.31 118.66H258.23C262.29 118.66 264.91 118.6 266.1 118.49H266.14C267.21 118.44 268.24 118.26 269.22 117.93H269.74C271.16 118.19 271.87 118.66 271.87 119.36H271.85ZM247.62 117.68C247.48 117.68 247.4 117.6 247.37 117.43V107.11C247.37 107.04 247.39 106.98 247.44 106.94C247.49 106.89 247.54 106.87 247.61 106.87H256.91C256.98 106.87 257.04 106.89 257.08 106.94C257.13 106.99 257.15 107.04 257.15 107.11V116.03C257.15 116.12 257.09 116.24 256.98 116.38C256.86 116.5 256.58 116.63 256.14 116.78C255.7 116.93 255.27 117.01 254.85 117.01H254.47C254.4 117.01 254.34 116.99 254.3 116.94C254.26 116.89 254.23 116.84 254.23 116.77V115.37H250.28V116.63C250.28 116.75 250.22 116.86 250.11 116.98C250 117.1 249.77 117.24 249.45 117.4C248.98 117.59 248.49 117.68 247.98 117.68H247.63H247.62ZM250.28 108.38V113.87H254.23V108.38H250.28ZM254.33 103.69V104.53C254.33 104.62 254.29 104.72 254.23 104.81C254 105.04 253.56 105.25 252.94 105.44C252.54 105.53 252.17 105.58 251.82 105.58H251.44C251.37 105.58 251.31 105.56 251.27 105.51C251.22 105.46 251.2 105.4 251.2 105.34V96.25C251.2 96.18 251.22 96.12 251.27 96.08C251.32 96.03 251.37 96.01 251.44 96.01H265.46C265.53 96.01 265.59 96.03 265.63 96.08C265.67 96.13 265.7 96.18 265.7 96.25V104.08C265.7 104.17 265.64 104.28 265.53 104.41C265.41 104.54 265.1 104.68 264.6 104.85C264.1 105.01 263.63 105.1 263.18 105.1H262.73C262.66 105.1 262.6 105.08 262.56 105.03C262.51 104.98 262.49 104.93 262.49 104.86V103.71H254.34L254.33 103.69ZM254.33 97.54V102.16H262.48V97.54H254.33ZM266.71 116.91H266.33C266.26 116.91 266.2 116.89 266.16 116.84C266.12 116.79 266.09 116.73 266.09 116.67V115.38H262.07V116.18C262.07 116.3 262.02 116.41 261.91 116.53C261.81 116.65 261.54 116.79 261.11 116.95C260.68 117.11 260.22 117.2 259.73 117.2H259.38C259.31 117.2 259.25 117.18 259.21 117.13C259.16 117.08 259.14 117.03 259.14 116.96V107.13C259.14 107.06 259.16 107 259.21 106.96C259.26 106.92 259.32 106.89 259.38 106.89H268.82C268.89 106.89 268.95 106.91 269 106.96C269.05 107.01 269.07 107.06 269.07 107.13V115.91C269.07 116 269.02 116.1 268.91 116.21C268.81 116.32 268.54 116.46 268.12 116.65C267.58 116.84 267.12 116.93 266.72 116.93L266.71 116.91ZM262.06 108.38V113.87H266.08V108.38H262.06Z" fill="white"/>
<path d="M289.46 108.14L279.91 97.73H281.56L287.54 104.33C288.46 105.31 289.19 106.05 290.35 107.24H290.51C291.51 106.05 292.2 105.31 293.12 104.33L298.98 97.73H300.63L291.12 108.2L301.44 119.32H299.67L293.49 112.42C292.57 111.38 291.48 110.31 290.24 109H290.08L287.03 112.42L280.85 119.32H279.24L289.48 108.14H289.46Z" fill="#DCA435"/>
<path d="M339.87 94.1099V95.1599C339.87 95.2299 339.85 95.2899 339.8 95.3299C339.75 95.3699 339.7 95.3999 339.63 95.3999H308.93C308.86 95.3999 308.8 95.3799 308.75 95.3499C308.7 95.3099 308.68 95.2699 308.68 95.2299C308.45 94.5099 308.33 94.1199 308.33 94.0799C308.33 94.0399 308.36 93.9899 308.42 93.9398C308.48 93.8898 308.54 93.8699 308.61 93.8699H323.58V93.8299C323.3 92.6599 322.53 91.3899 321.27 90.0199C321.2 89.9699 321.16 89.9099 321.16 89.8499C321.16 89.7599 321.21 89.6899 321.3 89.6399L321.61 89.4299C321.61 89.4299 321.7 89.3599 321.73 89.3599C321.76 89.3599 321.78 89.3699 321.78 89.3999C324.39 89.7699 325.96 90.6199 326.5 91.9499C326.62 92.2499 326.67 92.5299 326.67 92.7899C326.67 93.1899 326.53 93.5499 326.25 93.8699H339.61C339.68 93.8699 339.74 93.8898 339.78 93.9398C339.83 93.9899 339.85 94.0499 339.85 94.1099H339.87ZM311.62 122.44C311.48 122.44 311.4 122.36 311.37 122.19V100.4C311.37 100.33 311.39 100.27 311.44 100.23C311.49 100.18 311.54 100.16 311.61 100.16H326.75C327.45 98.3199 328.01 96.6899 328.43 95.2599C328.43 95.2099 328.45 95.1699 328.5 95.1199C328.55 95.0699 328.59 95.0499 328.64 95.0499C328.69 95.0499 328.72 95.0598 328.75 95.0898L331.55 96.0298C331.55 96.0298 331.64 96.0499 331.69 96.0999C331.74 96.1499 331.76 96.1999 331.76 96.2599C331.76 96.3199 331.74 96.3699 331.69 96.4199C330.73 97.9599 329.77 99.2099 328.79 100.16H336.69C336.76 100.16 336.82 100.18 336.86 100.23C336.9 100.28 336.93 100.33 336.93 100.4V118.51C336.93 119.79 336.64 120.72 336.06 121.31C335.48 121.89 334.35 122.27 332.67 122.43C332.65 122.45 332.62 122.47 332.58 122.47C332.54 122.47 332.5 122.44 332.46 122.38C332.42 122.32 332.39 122.27 332.39 122.22C332.27 121.31 332.05 120.73 331.72 120.47C331.21 120 330.25 119.68 328.85 119.49C328.8 119.49 328.76 119.47 328.71 119.42C328.66 119.37 328.64 119.32 328.64 119.25V118.73C328.64 118.66 328.66 118.6 328.71 118.54C328.76 118.48 328.8 118.45 328.83 118.45C328.86 118.45 329.46 118.5 330.61 118.59C331.76 118.68 332.6 118.73 333.11 118.73L333.56 118.66C333.63 118.59 333.67 118.45 333.67 118.24V107.78C333.11 107.99 332.12 108.1 330.7 108.1C330.58 108.1 330.45 108.09 330.32 108.06H328.54C327.51 108.06 326.86 107.9 326.56 107.59C326.27 107.28 326.12 106.72 326.12 105.93V101.7H322.69C322.57 102.56 322.4 103.33 322.17 104.01C321.94 104.71 321.53 105.43 320.95 106.18C320.39 106.93 319.56 107.6 318.47 108.21C317.51 108.72 316.22 109.22 314.59 109.71V121.18C314.59 121.48 314.3 121.77 313.72 122.05C312.9 122.33 312.37 122.47 312.11 122.47L312.07 122.43H311.62V122.44ZM319.45 101.7H314.59V108.31C316.48 107.45 317.74 106.52 318.37 105.51C319 104.46 319.36 103.19 319.45 101.7ZM316.34 95.1599C316.34 95.1599 316.43 95.0898 316.46 95.0898C316.49 95.0898 316.52 95.0999 316.55 95.1299C319.09 95.7399 320.61 96.7299 321.1 98.0999C321.19 98.3999 321.24 98.6798 321.24 98.9398C321.24 99.4798 321.02 99.9299 320.58 100.3C320.23 100.56 319.86 100.68 319.48 100.68C319.1 100.68 318.68 100.51 318.24 100.16C318.17 100.11 318.14 100.06 318.14 99.9899C317.91 98.5899 317.17 97.1899 315.94 95.7899C315.89 95.7199 315.87 95.6599 315.87 95.6199C315.87 95.5299 315.92 95.4599 316.01 95.4099L316.36 95.1699L316.34 95.1599ZM330.4 109.39V117.92C330.4 118.01 330.35 118.11 330.24 118.22C330.13 118.32 329.87 118.46 329.45 118.62H329.41C328.87 118.78 328.41 118.86 328.01 118.86H327.59C327.52 118.86 327.46 118.84 327.42 118.79C327.38 118.74 327.35 118.68 327.35 118.62V117.26H320.92V118.45C320.92 118.57 320.86 118.68 320.75 118.8C320.64 118.92 320.4 119.06 320.05 119.22C319.54 119.41 319.02 119.5 318.51 119.5H318.13C318.06 119.5 318 119.48 317.96 119.43C317.92 119.38 317.89 119.33 317.89 119.26V109.4C317.89 109.33 317.91 109.27 317.96 109.22C318.01 109.17 318.06 109.15 318.13 109.15H330.16C330.23 109.15 330.29 109.17 330.33 109.22C330.38 109.27 330.4 109.33 330.4 109.4V109.39ZM320.92 110.69V115.73H327.35V110.69H320.92ZM333.23 105.55C333.23 105.55 333.43 105.58 333.69 105.65V101.7H328.76V105.48C328.78 105.55 328.81 105.61 328.83 105.65C328.92 105.67 329.04 105.69 329.18 105.69H331.87C332.06 105.69 332.17 105.69 332.2 105.67C332.23 105.65 332.26 105.65 332.29 105.65C332.32 105.65 332.51 105.61 332.88 105.55H333.23Z" fill="white"/>
<path d="M345.12 122.4C344.98 122.4 344.9 122.32 344.87 122.15V92.0398C344.87 91.9698 344.89 91.9098 344.94 91.8698C344.99 91.8198 345.04 91.7998 345.11 91.7998H373.12C373.19 91.7998 373.25 91.8198 373.29 91.8698C373.33 91.9198 373.36 91.9698 373.36 92.0398V120.82C373.36 120.94 373.3 121.06 373.17 121.2C373.04 121.34 372.77 121.5 372.35 121.69C371.79 121.97 371.25 122.11 370.74 122.11H370.32C370.25 122.11 370.19 122.09 370.15 122.04C370.11 121.99 370.08 121.94 370.08 121.87V119.81H348.12V121.03C348.12 121.33 347.85 121.65 347.32 121.97C346.81 122.25 346.25 122.39 345.64 122.39H345.12V122.4ZM370.09 103.45V104.5C370.09 104.57 370.07 104.63 370.02 104.67C369.97 104.72 369.92 104.74 369.85 104.74H364.95C367.23 105.81 368.71 107.05 369.39 108.45C369.6 108.89 369.7 109.29 369.7 109.64C369.7 110.06 369.51 110.4 369.14 110.65C368.93 110.79 368.69 110.86 368.42 110.86C368.15 110.86 367.87 110.79 367.56 110.65C367.51 110.63 367.48 110.59 367.45 110.54C366.96 109.72 366.17 108.77 365.07 107.67C363.97 106.57 362.89 105.59 361.82 104.73H356.05C355.56 105.34 355.11 105.86 354.69 106.3L356.05 106.93H363.71C363.78 106.93 363.84 106.95 363.88 107C363.93 107.05 363.95 107.1 363.95 107.17V108.39C363.9 109.81 363.79 110.87 363.6 111.57C363.44 112.32 363.1 112.84 362.59 113.14C361.91 113.58 361.05 113.8 360 113.8C359.93 113.8 359.87 113.78 359.83 113.73C359.79 113.68 359.76 113.62 359.76 113.55C359.76 112.97 359.64 112.59 359.41 112.43C359.39 112.43 359.37 112.42 359.37 112.39C359.18 112.23 358.68 112.05 357.87 111.87C357.82 111.87 357.78 111.85 357.75 111.8C357.72 111.75 357.7 111.7 357.7 111.63V111.07C357.7 110.93 357.78 110.85 357.94 110.82C358.06 110.82 358.44 110.84 359.09 110.89C359.74 110.94 360.19 110.96 360.44 110.96C360.69 110.96 360.85 110.91 360.95 110.82V110.79C361.02 110.72 361.1 110.5 361.18 110.12C361.26 109.75 361.32 109.18 361.37 108.41H355.77V114.28C355.77 114.42 355.81 114.5 355.88 114.53C356.02 114.6 356.37 114.64 356.93 114.64H360.46C362.28 114.64 363.34 114.62 363.64 114.57H363.68C363.94 114.55 364.09 114.48 364.13 114.36C364.13 114.34 364.14 114.32 364.17 114.32C364.38 114.02 364.69 113.02 365.11 111.31C365.13 111.22 365.21 111.16 365.36 111.14H365.81C365.88 111.14 365.94 111.16 365.98 111.21C366.03 111.26 366.05 111.32 366.05 111.38L366.15 114.35C366.83 114.65 367.16 115.04 367.16 115.5C367.16 115.8 367.04 116.08 366.81 116.32C366.58 116.57 366.19 116.75 365.66 116.86C364.77 117.05 362.98 117.14 360.28 117.14H356.5C355.08 117.14 354.12 116.99 353.63 116.68C353.14 116.33 352.9 115.67 352.9 114.69V107.98C351.57 109.08 350.07 110.04 348.39 110.88C348.34 110.9 348.3 110.92 348.25 110.92C348.2 110.92 348.14 110.88 348.07 110.81L347.72 110.39C347.67 110.32 347.65 110.26 347.65 110.22C347.65 110.13 347.7 110.06 347.79 110.01C349.84 108.7 351.66 106.93 353.25 104.69H348.67C348.6 104.69 348.54 104.67 348.5 104.64C348.45 104.61 348.43 104.56 348.43 104.52C348.22 103.8 348.11 103.41 348.11 103.37C348.11 103.33 348.14 103.28 348.2 103.23C348.26 103.18 348.32 103.16 348.39 103.16H354.23C354.72 102.25 355.14 101.42 355.49 100.68H349.96C349.89 100.68 349.83 100.66 349.79 100.63C349.74 100.6 349.72 100.55 349.72 100.51C349.51 99.8098 349.41 99.4398 349.41 99.3898C349.41 99.3398 349.44 99.2998 349.5 99.2498C349.56 99.1998 349.62 99.1798 349.69 99.1798H356.12C356.84 97.2198 357.39 95.2398 357.76 93.2398C357.76 93.1698 357.78 93.1098 357.83 93.0698C357.88 93.0298 357.92 92.9998 357.97 92.9998C358.02 92.9998 358.06 93.0098 358.11 93.0398L360.49 93.8798C360.49 93.8798 360.55 93.8998 360.6 93.9498C360.65 93.9998 360.67 94.0398 360.67 94.0898C360.67 94.1398 360.66 94.1598 360.64 94.1598C360.31 95.9998 359.85 97.6798 359.24 99.1998H368.23C368.3 99.1998 368.36 99.2198 368.4 99.2698C368.44 99.3198 368.47 99.3698 368.47 99.4398V100.45C368.47 100.52 368.45 100.58 368.4 100.62C368.35 100.67 368.3 100.69 368.23 100.69H358.58C358.16 101.55 357.69 102.38 357.18 103.17H369.84C369.91 103.17 369.97 103.19 370.01 103.24C370.06 103.29 370.08 103.35 370.08 103.41L370.09 103.45ZM370.09 93.3098H348.13V118.31H370.09V93.3098ZM351.03 93.9398C351.03 93.9398 351.12 93.8698 351.15 93.8698C351.18 93.8698 351.21 93.8798 351.24 93.9098C353.48 94.6298 354.77 95.6498 355.12 96.9498C355.19 97.1598 355.22 97.3598 355.22 97.5398C355.22 98.1198 354.95 98.5498 354.42 98.8298C354.21 98.9498 353.99 99.0098 353.75 99.0098C353.38 99.0098 353 98.8598 352.63 98.5498C352.58 98.4998 352.56 98.4498 352.56 98.3798C352.35 97.0998 351.67 95.8298 350.53 94.5698C350.48 94.4998 350.46 94.4398 350.46 94.3998C350.46 94.3098 350.51 94.2398 350.6 94.1898L351.02 93.9398H351.03ZM361.41 98.8698C361.32 98.8198 361.27 98.7698 361.27 98.6998C361.27 98.6298 361.29 98.5698 361.34 98.5298C362.04 97.4798 362.81 95.9798 363.65 94.0198C363.7 93.8998 363.78 93.8498 363.9 93.8498C363.92 93.8498 363.96 93.8598 364 93.8898L367.08 95.2898C367.2 95.3398 367.25 95.4198 367.25 95.5398C367.25 95.5598 367.23 95.6198 367.18 95.7098C367.13 95.7998 367.06 95.8998 366.97 95.9898C366.74 96.2198 366.4 96.3398 365.96 96.3398H365.75C364.35 97.6698 363.17 98.6498 362.22 99.2798C362.17 99.3298 362.13 99.3498 362.08 99.3498C362.03 99.3498 361.99 99.3298 361.94 99.2798L361.42 98.8998L361.41 98.8698Z" fill="white"/>
<path d="M387 119.107V116.871C388.218 115.503 389.398 114.147 390.542 112.803C391.685 111.459 392.716 110.274 393.636 109.248C394.978 107.685 396.059 106.329 396.879 105.18C397.699 104.007 398.308 102.908 398.706 101.882C399.104 100.856 399.303 99.7806 399.303 98.6567C399.303 96.7998 398.843 95.3827 397.923 94.4054C397.028 93.4036 395.761 92.9028 394.121 92.9028C393.474 92.9028 392.816 92.9883 392.145 93.1593C391.498 93.3303 390.803 93.6357 390.057 94.0755L391.66 93.0127L390.691 96.6776C390.492 97.4839 390.219 98.0459 389.871 98.3635C389.523 98.6567 389.137 98.8033 388.715 98.8033C388.292 98.8033 387.932 98.6933 387.634 98.4734C387.336 98.2291 387.124 97.9237 387 97.5572C387.174 96.2623 387.659 95.1872 388.454 94.3321C389.274 93.4769 390.281 92.8295 391.474 92.3897C392.667 91.9499 393.922 91.73 395.239 91.73C397.849 91.73 399.787 92.3652 401.055 93.6357C402.347 94.9062 402.993 96.6288 402.993 98.8033C402.993 99.9516 402.707 101.076 402.136 102.175C401.564 103.25 400.657 104.459 399.414 105.803C398.197 107.123 396.606 108.735 394.642 110.641C394.22 111.007 393.698 111.521 393.077 112.18C392.455 112.815 391.759 113.536 390.989 114.343C390.219 115.124 389.436 115.931 388.64 116.761L388.976 115.589V116.175H404.074V119.107H387Z" fill="white"/>
<path d="M409.828 119.73L409.53 118.74C412.289 117.788 414.55 116.554 416.315 115.039C418.079 113.5 419.384 111.679 420.229 109.578C421.074 107.477 421.497 105.095 421.497 102.432C421.497 100.233 421.273 98.4368 420.826 97.0441C420.378 95.627 419.77 94.5886 418.999 93.9289C418.229 93.2448 417.346 92.9028 416.352 92.9028C415.482 92.9028 414.662 93.1715 413.892 93.709C413.146 94.2221 412.537 95.004 412.065 96.0546C411.618 97.0808 411.394 98.3879 411.394 99.9761C411.394 102.151 411.916 103.849 412.96 105.07C414.028 106.292 415.383 106.903 417.023 106.903C418.042 106.903 418.962 106.695 419.782 106.28C420.627 105.84 421.397 105.18 422.093 104.301L422.839 104.521H422.541C421.944 105.693 421.062 106.634 419.894 107.343C418.726 108.051 417.334 108.405 415.718 108.405C414.177 108.405 412.811 108.088 411.618 107.452C410.425 106.793 409.48 105.864 408.784 104.667C408.113 103.446 407.778 102.004 407.778 100.343C407.778 98.5345 408.15 96.9953 408.896 95.7247C409.667 94.4298 410.698 93.4403 411.99 92.7562C413.308 92.072 414.762 91.73 416.352 91.73C418.166 91.73 419.732 92.1698 421.049 93.0494C422.392 93.9289 423.423 95.1872 424.144 96.8242C424.864 98.4612 425.225 100.416 425.225 102.688C425.225 105.376 424.616 107.868 423.398 110.165C422.205 112.461 420.465 114.428 418.179 116.065C415.892 117.702 413.109 118.924 409.828 119.73Z" fill="white"/>
<path d="M437.575 119.657C434.866 119.657 432.803 119.07 431.386 117.898C429.994 116.7 429.298 115.149 429.298 113.243C429.298 111.557 429.882 110.128 431.05 108.955C432.219 107.758 433.934 106.72 436.195 105.84V105.657L436.978 106.17C435.363 107.147 434.194 108.149 433.474 109.175C432.778 110.201 432.43 111.435 432.43 112.877C432.43 114.66 432.902 116.041 433.847 117.018C434.791 117.995 436.096 118.484 437.761 118.484C439.426 118.484 440.719 118.044 441.638 117.165C442.558 116.261 443.017 115.063 443.017 113.573C443.017 112.669 442.806 111.826 442.384 111.044C441.986 110.238 441.303 109.456 440.333 108.699C439.364 107.941 438.009 107.208 436.27 106.5C434.107 105.571 432.529 104.435 431.535 103.091C430.541 101.723 430.044 100.184 430.044 98.4734C430.044 97.1052 430.392 95.9202 431.088 94.9185C431.809 93.8923 432.753 93.1104 433.921 92.5729C435.114 92.011 436.444 91.73 437.91 91.73C439.501 91.73 440.843 91.9987 441.936 92.5363C443.03 93.0738 443.863 93.8068 444.434 94.7352C445.006 95.6637 445.292 96.7143 445.292 97.887C445.292 99.2064 444.819 100.477 443.875 101.699C442.955 102.92 441.327 103.995 438.991 104.924V105.07L438.357 104.631C439.749 103.678 440.756 102.676 441.377 101.625C441.998 100.55 442.309 99.2797 442.309 97.8138C442.309 96.4699 441.924 95.3216 441.153 94.3687C440.383 93.4158 439.277 92.9394 437.836 92.9394C437.04 92.9394 436.282 93.1227 435.561 93.4891C434.866 93.8556 434.294 94.3809 433.847 95.0651C433.424 95.7492 433.213 96.5677 433.213 97.5206C433.213 98.3268 433.374 99.1209 433.697 99.9028C434.045 100.685 434.642 101.442 435.487 102.175C436.357 102.908 437.587 103.604 439.178 104.264C441.713 105.388 443.539 106.597 444.658 107.892C445.801 109.187 446.373 110.726 446.373 112.51C446.373 113.952 446.012 115.21 445.292 116.285C444.571 117.36 443.552 118.191 442.235 118.777C440.917 119.363 439.364 119.657 437.575 119.657Z" fill="white"/>
<path d="M452.387 119.73L452.089 118.74C454.848 117.788 457.11 116.554 458.874 115.039C460.639 113.5 461.944 111.679 462.789 109.578C463.634 107.477 464.056 105.095 464.056 102.432C464.056 100.233 463.832 98.4368 463.385 97.0441C462.938 95.627 462.329 94.5886 461.558 93.9289C460.788 93.2448 459.906 92.9028 458.911 92.9028C458.042 92.9028 457.221 93.1715 456.451 93.709C455.705 94.2221 455.096 95.004 454.624 96.0546C454.177 97.0808 453.953 98.3879 453.953 99.9761C453.953 102.151 454.475 103.849 455.519 105.07C456.588 106.292 457.942 106.903 459.582 106.903C460.601 106.903 461.521 106.695 462.341 106.28C463.186 105.84 463.957 105.18 464.653 104.301L465.398 104.521H465.1C464.503 105.693 463.621 106.634 462.453 107.343C461.285 108.051 459.893 108.405 458.278 108.405C456.737 108.405 455.37 108.088 454.177 107.452C452.984 106.793 452.039 105.864 451.344 104.667C450.672 103.446 450.337 102.004 450.337 100.343C450.337 98.5345 450.71 96.9953 451.455 95.7247C452.226 94.4298 453.257 93.4403 454.55 92.7562C455.867 92.072 457.321 91.73 458.911 91.73C460.726 91.73 462.292 92.1698 463.609 93.0494C464.951 93.9289 465.982 95.1872 466.703 96.8242C467.424 98.4612 467.784 100.416 467.784 102.688C467.784 105.376 467.175 107.868 465.957 110.165C464.764 112.461 463.025 114.428 460.738 116.065C458.452 117.702 455.668 118.924 452.387 119.73Z" fill="white"/>
<path d="M471.41 110.165V108.149H481.29V110.165H471.41Z" fill="white"/>
<path d="M485.261 119.107V116.871C486.479 115.503 487.66 114.147 488.803 112.803C489.946 111.459 490.978 110.274 491.897 109.248C493.239 107.685 494.32 106.329 495.141 105.18C495.961 104.007 496.57 102.908 496.967 101.882C497.365 100.856 497.564 99.7806 497.564 98.6567C497.564 96.7998 497.104 95.3827 496.184 94.4054C495.29 93.4036 494.022 92.9028 492.382 92.9028C491.736 92.9028 491.077 92.9883 490.406 93.1593C489.76 93.3303 489.064 93.6357 488.318 94.0755L489.921 93.0127L488.952 96.6776C488.753 97.4839 488.48 98.0459 488.132 98.3635C487.784 98.6567 487.399 98.8033 486.976 98.8033C486.554 98.8033 486.193 98.6933 485.895 98.4734C485.597 98.2291 485.386 97.9237 485.261 97.5572C485.435 96.2623 485.92 95.1872 486.715 94.3321C487.535 93.4769 488.542 92.8295 489.735 92.3897C490.928 91.9499 492.183 91.73 493.5 91.73C496.11 91.73 498.049 92.3652 499.316 93.6357C500.608 94.9062 501.255 96.6288 501.255 98.8033C501.255 99.9516 500.969 101.076 500.397 102.175C499.826 103.25 498.918 104.459 497.676 105.803C496.458 107.123 494.867 108.735 492.904 110.641C492.481 111.007 491.959 111.521 491.338 112.18C490.717 112.815 490.021 113.536 489.25 114.343C488.48 115.124 487.697 115.931 486.902 116.761L487.237 115.589V116.175H502.336V119.107H485.261Z" fill="white"/>
<path d="M506.747 119.107V118.081L512.004 117.458H515.247L520.094 118.117V119.144L506.747 119.107ZM511.668 119.107C511.743 116.273 511.78 113.451 511.78 110.641V94.2954L506.598 95.1384V93.9656L514.986 91.9132L515.546 92.3164L515.396 98.1069V110.641C515.396 112.009 515.409 113.414 515.434 114.856C515.459 116.273 515.483 117.69 515.508 119.107H511.668Z" fill="white"/>
<path d="M532.611 119.657C530.747 119.657 529.131 119.217 527.764 118.337C526.422 117.458 525.391 116.212 524.67 114.599C523.949 112.987 523.589 111.081 523.589 108.882C523.589 106.707 523.962 104.655 524.707 102.725C525.478 100.795 526.584 99.0598 528.025 97.5206C529.467 95.9569 531.194 94.6741 533.207 93.6724C535.22 92.6706 537.482 92.0232 539.992 91.73L540.178 92.5729C537.345 93.1593 534.972 94.2099 533.058 95.7247C531.169 97.2396 529.74 99.0843 528.771 101.259C527.826 103.433 527.354 105.803 527.354 108.369C527.354 111.643 527.814 114.147 528.733 115.882C529.678 117.617 530.983 118.484 532.648 118.484C533.543 118.484 534.35 118.215 535.071 117.678C535.792 117.116 536.363 116.297 536.786 115.222C537.208 114.147 537.42 112.815 537.42 111.227C537.42 109.028 536.985 107.355 536.115 106.206C535.245 105.058 534.052 104.484 532.536 104.484C531.542 104.484 530.585 104.692 529.665 105.107C528.746 105.522 527.839 106.243 526.944 107.269L526.236 106.829H526.497C528.41 104.166 530.846 102.835 533.804 102.835C535.344 102.835 536.649 103.177 537.718 103.861C538.787 104.545 539.607 105.498 540.178 106.72C540.75 107.917 541.036 109.322 541.036 110.934C541.036 112.596 540.676 114.086 539.955 115.405C539.234 116.725 538.24 117.763 536.972 118.521C535.705 119.278 534.251 119.657 532.611 119.657Z" fill="white"/>
<path d="M553.202 119.657C550.493 119.657 548.43 119.07 547.013 117.898C545.622 116.7 544.926 115.149 544.926 113.243C544.926 111.557 545.51 110.128 546.678 108.955C547.846 107.758 549.561 106.72 551.822 105.84V105.657L552.605 106.17C550.99 107.147 549.822 108.149 549.101 109.175C548.405 110.201 548.057 111.435 548.057 112.877C548.057 114.66 548.529 116.041 549.474 117.018C550.418 117.995 551.723 118.484 553.388 118.484C555.053 118.484 556.346 118.044 557.265 117.165C558.185 116.261 558.645 115.063 558.645 113.573C558.645 112.669 558.434 111.826 558.011 111.044C557.613 110.238 556.93 109.456 555.961 108.699C554.991 107.941 553.637 107.208 551.897 106.5C549.735 105.571 548.157 104.435 547.162 103.091C546.168 101.723 545.671 100.184 545.671 98.4734C545.671 97.1052 546.019 95.9202 546.715 94.9185C547.436 93.8923 548.38 93.1104 549.548 92.5729C550.741 92.011 552.071 91.73 553.537 91.73C555.128 91.73 556.47 91.9987 557.564 92.5363C558.657 93.0738 559.49 93.8068 560.061 94.7352C560.633 95.6637 560.919 96.7143 560.919 97.887C560.919 99.2064 560.447 100.477 559.502 101.699C558.583 102.92 556.955 103.995 554.618 104.924V105.07L553.985 104.631C555.377 103.678 556.383 102.676 557.004 101.625C557.626 100.55 557.936 99.2797 557.936 97.8138C557.936 96.4699 557.551 95.3216 556.781 94.3687C556.01 93.4158 554.904 92.9394 553.463 92.9394C552.667 92.9394 551.909 93.1227 551.189 93.4891C550.493 93.8556 549.921 94.3809 549.474 95.0651C549.051 95.7492 548.84 96.5677 548.84 97.5206C548.84 98.3268 549.002 99.1209 549.325 99.9028C549.673 100.685 550.269 101.442 551.114 102.175C551.984 102.908 553.214 103.604 554.805 104.264C557.34 105.388 559.167 106.597 560.285 107.892C561.428 109.187 562 110.726 562 112.51C562 113.952 561.64 115.21 560.919 116.285C560.198 117.36 559.179 118.191 557.862 118.777C556.545 119.363 554.991 119.657 553.202 119.657Z" fill="white"/>
</svg>
