<svg width="421" height="175" viewBox="0 0 421 175" fill="none" xmlns="http://www.w3.org/2000/svg">
<path d="M24.04 0H4.08003C1.85003 0 0.0300293 1.82 0.0300293 4.05V51.96C0.0300293 54.19 1.85003 56.01 4.08003 56.01H24.04C26.27 56.01 28.09 54.19 28.09 51.96V4.05C28.09 1.82 26.27 0 24.04 0ZM25.98 4.05V5.6H19.74V2.11H24.04C25.11 2.11 25.98 2.98 25.98 4.05ZM25.7 52.96L21.66 48.43C21.34 48.07 21.17 47.62 21.17 47.14V40.08H25.99V51.97C25.99 52.33 25.88 52.67 25.71 52.96H25.7ZM2.14003 51.97V40.08H6.96003V47.14C6.96003 47.62 6.79003 48.07 6.47003 48.43L2.43003 52.96C2.26003 52.67 2.15003 52.33 2.15003 51.97H2.14003ZM8.04003 49.83C8.70003 49.09 9.07003 48.13 9.07003 47.13V40.07H19.05V47.13C19.05 48.13 19.42 49.08 20.08 49.83L23.71 53.9H4.40003L8.03003 49.83H8.04003ZM2.14003 37.96V27.01H3.65003C4.45003 27.01 5.11003 26.36 5.11003 25.55V19.36H3.00003V24.89H2.14003V15.08L6.13003 19.07V27.01H8.24003V19.07L11.61 15.7H14.41V24.9H11.37V19.37H9.26003V25.56C9.26003 26.36 9.91003 27.02 10.72 27.02H15.07C15.87 27.02 16.53 26.37 16.53 25.56V15.71H20.85V25.56C20.85 26.36 21.5 27.02 22.31 27.02H26V37.97H2.16003L2.14003 37.96ZM14.8 13.59L18.68 8.42L22.56 13.59H14.81H14.8ZM12.16 13.59H11.61L8.67003 10.65L11.61 7.71H16.56L12.16 13.58V13.59ZM7.18003 17.15L4.68003 14.65L7.18003 12.15L9.68003 14.65L7.18003 17.15ZM17.62 5.6H11.61L8.12003 2.11H17.62V5.6ZM9.68003 6.66L7.18003 9.16L4.68003 6.66L7.18003 4.16L9.68003 6.66ZM5.69003 10.65L2.14003 14.2V7.1L5.69003 10.65ZM22.95 24.9V15.7H25.98V24.9H22.95ZM25.2 13.59L20.8 7.72H25.99V13.59H25.21H25.2ZM4.07003 2.11H6.24003L2.13003 6.22V4.05C2.13003 2.98 3.00003 2.11 4.07003 2.11Z" fill="white"/>
<path d="M22.5401 31.6699H5.57007V33.7799H22.5401V31.6699Z" fill="white"/>
<path d="M17.06 73.09C16.97 73.08 16.96 73.05 16.96 72.97V67.83C16.96 67.74 17 67.71 17.06 67.71H25.34C25.4 67.71 25.44 67.74 25.44 67.81V72.8C25.44 72.88 25.43 72.9 25.35 72.92L24.15 73.06C24.09 73.07 24.03 73.05 24.03 72.97V69.27H21.98V72.63C21.98 72.69 21.97 72.72 21.89 72.72H20.66C20.6 72.72 20.58 72.68 20.58 72.63V69.27H18.36V73.18C18.36 73.26 18.32 73.28 18.26 73.27L17.06 73.08V73.09Z" fill="white"/>
<path d="M25.45 76.3101V78.3801C25.45 78.4601 25.42 78.4802 25.36 78.5102C24.05 78.9002 20.22 80.0201 19.02 80.2801C20.12 80.5701 24.03 81.8401 25.36 82.2401C25.41 82.2701 25.45 82.2801 25.45 82.3601V84.3801C25.45 84.4401 25.44 84.4702 25.37 84.4802L17.06 84.8302C16.98 84.8402 16.96 84.8001 16.96 84.7401V83.3101C16.96 83.2501 16.97 83.2101 17.05 83.2101C19.8 83.1501 23.52 83.1201 24.34 83.1301C23.1 82.8201 18.78 81.4901 17.07 80.9701C16.98 80.9601 16.97 80.9101 16.97 80.8501V79.5601C16.97 79.4701 16.98 79.4401 17.06 79.4301C19.02 78.8701 22.78 77.8402 24.36 77.4802V77.4501C23.06 77.4401 19.77 77.3301 17.06 77.2001C16.98 77.2001 16.97 77.1701 16.97 77.1001V75.8101C16.97 75.7301 16.98 75.7101 17.07 75.7201L25.38 76.2101C25.46 76.2201 25.46 76.2501 25.46 76.3101H25.45Z" fill="white"/>
<path d="M25.3199 87.8799C25.3799 87.8799 25.4199 87.8899 25.4399 87.9599C25.4499 88.4299 25.4799 89.5999 25.4799 90.4699C25.4799 93.1699 24.0599 93.5799 23.2299 93.5799C22.3099 93.5799 21.7799 93.0899 21.5499 92.7699C21.2999 93.2499 20.7399 94.0099 19.5499 94.0099C17.9199 94.0099 16.9399 92.5999 16.9399 90.4699C16.9399 89.3499 16.9499 88.4699 16.9699 87.9799C16.9799 87.9199 17.0199 87.8899 17.0699 87.8899H25.3299L25.3199 87.8799ZM18.2699 89.4199C18.2599 89.6999 18.2399 90.0299 18.2399 90.4199C18.2299 91.6299 18.6399 92.4099 19.5099 92.4099C20.0399 92.4099 20.4699 92.1499 20.6299 91.4799C20.6899 91.2499 20.7199 90.9499 20.7199 90.5999V89.4199H18.2699ZM22.0599 89.4199V90.3999C22.0599 90.8699 22.0199 91.3799 21.9799 91.5799C22.1999 91.8499 22.4999 92.0699 22.9999 92.0699C23.7599 92.0699 24.1399 91.4999 24.1399 90.4399C24.1399 90.0299 24.1299 89.6899 24.1299 89.4199H22.0599Z" fill="white"/>
<path d="M16.96 96.7499C16.96 96.6699 16.99 96.6499 17.06 96.6499H25.32C25.38 96.6499 25.44 96.6599 25.44 96.7399C25.47 97.7599 25.48 98.2999 25.48 99.2999C25.48 101.37 24.59 102.58 22.93 102.58C21.81 102.58 21 101.86 20.66 100.91C20.07 101.34 17.75 102.89 17.11 103.26C17.03 103.3 16.97 103.31 16.97 103.23V101.61C16.97 101.51 17 101.47 17.03 101.43C17.61 101.06 19.1 100.15 20 99.5799C20.16 99.4899 20.22 99.4199 20.22 99.2799V98.1699H17.07C16.99 98.1699 16.97 98.1299 16.97 98.0699V96.7399L16.96 96.7499ZM21.55 99.3099C21.55 100.36 22.02 101.03 22.84 101.03C23.66 101.03 24.12 100.35 24.12 99.2499C24.12 98.8099 24.11 98.3999 24.09 98.1899H21.54V99.3099H21.55Z" fill="white"/>
<path d="M19.2 106.85L17.07 106.14C16.99 106.11 16.97 106.08 16.97 106V104.71C16.97 104.63 17.01 104.61 17.1 104.62L24.67 107.28C24.8 107.33 24.93 107.37 25.37 107.4C25.42 107.4 25.46 107.43 25.46 107.48V109.28C25.46 109.35 25.45 109.36 25.38 109.37L17.09 112.36C17.01 112.37 16.97 112.36 16.97 112.28V110.83C16.97 110.77 17 110.73 17.05 110.7L19.21 109.95V106.86L19.2 106.85ZM20.6 109.52C21.45 109.25 23.25 108.64 24.15 108.38C23.28 108.16 21.77 107.64 20.6 107.26V109.52Z" fill="white"/>
<path d="M17.2298 120.33C17.1498 120.33 17.0898 120.3 17.0598 120.24C16.8998 119.81 16.8298 119.18 16.8298 118.46C16.8298 116.07 18.2398 114.03 21.1798 114.03C23.7798 114.03 25.5698 115.84 25.5698 118.65C25.5698 119.49 25.4898 120.01 25.3498 120.33C25.3198 120.38 25.2898 120.41 25.2098 120.41H23.9798C23.8798 120.41 23.8798 120.36 23.8998 120.31C24.0898 119.9 24.1798 119.3 24.1798 118.63C24.1798 116.81 23.0198 115.64 21.2098 115.64C18.9698 115.64 18.2098 117.29 18.2098 118.65C18.2098 119.28 18.2598 119.76 18.4298 120.24C18.4598 120.29 18.4398 120.33 18.3698 120.33H17.2198H17.2298Z" fill="white"/>
<path d="M17.06 128.38C16.97 128.37 16.96 128.34 16.96 128.26V123.12C16.96 123.03 17 123 17.06 123H25.34C25.4 123 25.44 123.03 25.44 123.1V128.09C25.44 128.17 25.43 128.19 25.35 128.21L24.15 128.35C24.09 128.36 24.03 128.34 24.03 128.26V124.56H21.98V127.92C21.98 127.98 21.97 128.01 21.89 128.01H20.66C20.6 128.01 20.58 127.97 20.58 127.92V124.56H18.36V128.47C18.36 128.55 18.32 128.57 18.26 128.56L17.06 128.37V128.38Z" fill="white"/>
<path d="M19.2 136.72L17.07 136.01C16.99 135.98 16.97 135.95 16.97 135.87V134.58C16.97 134.5 17.01 134.48 17.1 134.49L24.67 137.15C24.8 137.2 24.93 137.24 25.37 137.27C25.42 137.27 25.46 137.3 25.46 137.35V139.15C25.46 139.22 25.45 139.23 25.38 139.24L17.09 142.23C17.01 142.24 16.97 142.23 16.97 142.15V140.7C16.97 140.64 17 140.6 17.05 140.57L19.21 139.82V136.73L19.2 136.72ZM20.6 139.39C21.45 139.12 23.25 138.51 24.15 138.25C23.28 138.03 21.77 137.51 20.6 137.13V139.39Z" fill="white"/>
<path d="M16.96 148.88C16.96 148.78 17 148.75 17.09 148.75H25.33C25.39 148.75 25.45 148.78 25.45 148.85V150.23C25.45 150.28 25.41 150.31 25.36 150.31H18.37V154.11C18.37 154.19 18.33 154.21 18.28 154.2L17.07 153.98C16.98 153.97 16.97 153.93 16.97 153.86V148.87L16.96 148.88Z" fill="white"/>
<path d="M17.08 158.04C16.99 158.04 16.96 158.01 16.96 157.94V156.58C16.96 156.5 17 156.48 17.08 156.48H25.35C25.44 156.48 25.45 156.52 25.45 156.58V157.94C25.45 158.02 25.42 158.04 25.35 158.04H17.08Z" fill="white"/>
<path d="M17.06 162.82C16.98 162.82 16.96 162.79 16.96 162.72V161.35C16.96 161.29 17 161.26 17.06 161.26H25.36C25.42 161.26 25.45 161.29 25.45 161.36V166.35C25.45 166.43 25.42 166.45 25.35 166.47L24.15 166.6C24.07 166.61 24.05 166.57 24.05 166.5V162.83H21.79V166.13C21.79 166.19 21.78 166.23 21.7 166.23H20.49C20.43 166.23 20.4 166.19 20.4 166.13V162.83H17.08L17.06 162.82Z" fill="white"/>
<path d="M17.06 174.44C16.97 174.43 16.96 174.4 16.96 174.32V169.18C16.96 169.09 17 169.06 17.06 169.06H25.34C25.4 169.06 25.44 169.09 25.44 169.16V174.15C25.44 174.23 25.43 174.25 25.35 174.27L24.15 174.41C24.09 174.42 24.03 174.4 24.03 174.32V170.62H21.98V173.98C21.98 174.04 21.97 174.07 21.89 174.07H20.66C20.6 174.07 20.58 174.03 20.58 173.98V170.62H18.36V174.53C18.36 174.61 18.32 174.63 18.26 174.62L17.06 174.43V174.44Z" fill="white"/>
<path d="M6.10994 75.23C3.43994 75.24 1.68994 73.59 1.68994 71.24C1.68994 68.73 3.54994 67.23 6.06994 67.23C8.58994 67.23 10.4399 68.86 10.4399 71.24C10.4399 73.77 8.49994 75.22 6.10994 75.23ZM3.07994 71.29C3.07994 72.75 4.27994 73.63 6.07994 73.62C7.88994 73.62 9.05994 72.73 9.05994 71.22C9.05994 69.85 7.98994 68.86 6.07994 68.86C4.40994 68.86 3.07994 69.71 3.07994 71.3V71.29Z" fill="white"/>
<path d="M1.92983 79.5102C1.84983 79.5102 1.82983 79.4802 1.82983 79.4102V78.0402C1.82983 77.9802 1.86983 77.9502 1.92983 77.9502H10.2298C10.2898 77.9502 10.3198 77.9802 10.3198 78.0502V83.0402C10.3198 83.1202 10.2898 83.1402 10.2198 83.1602L9.01983 83.2902C8.93983 83.3002 8.91983 83.2602 8.91983 83.1902V79.5202H6.65984V82.8202C6.65984 82.8802 6.64983 82.9202 6.56983 82.9202H5.35983C5.29983 82.9202 5.26983 82.8802 5.26983 82.8202V79.5202H1.94983L1.92983 79.5102Z" fill="white"/>
<path d="M1.92983 95.42C1.83983 95.41 1.82983 95.38 1.82983 95.3V90.16C1.82983 90.07 1.86983 90.04 1.92983 90.04H10.2098C10.2698 90.04 10.3098 90.07 10.3098 90.14V95.13C10.3098 95.21 10.2998 95.23 10.2198 95.25L9.01983 95.39C8.95983 95.4 8.89983 95.38 8.89983 95.3V91.6H6.84983V94.96C6.84983 95.02 6.83983 95.05 6.75983 95.05H5.52983C5.46983 95.05 5.44983 95.01 5.44983 94.96V91.6H3.22984V95.51C3.22984 95.59 3.18983 95.61 3.12983 95.6L1.92983 95.41V95.42Z" fill="white"/>
<path d="M4.05983 99.8198L1.92983 99.1098C1.84983 99.0798 1.82983 99.0498 1.82983 98.9698V97.6798C1.82983 97.5998 1.86983 97.5798 1.95983 97.5898L9.52983 100.25C9.65983 100.3 9.78984 100.34 10.2298 100.37C10.2798 100.37 10.3198 100.4 10.3198 100.45V102.25C10.3198 102.32 10.3098 102.33 10.2398 102.34L1.94983 105.33C1.86983 105.34 1.82983 105.33 1.82983 105.25V103.8C1.82983 103.74 1.85984 103.7 1.90984 103.67L4.06983 102.92V99.8298L4.05983 99.8198ZM5.46983 102.5C6.31983 102.23 8.11983 101.62 9.01983 101.36C8.14983 101.14 6.63983 100.62 5.46983 100.24V102.5Z" fill="white"/>
<path d="M2.15994 107.49C2.19994 107.42 2.24994 107.4 2.34994 107.4H3.68994C3.73994 107.4 3.76994 107.45 3.73994 107.5C3.28994 108.2 3.06994 109.05 3.06994 109.8C3.06994 110.86 3.47994 111.31 4.03994 111.31C4.51994 111.31 4.87994 111 5.28994 110.02L5.54994 109.4C6.21994 107.81 7.01994 107.4 7.98994 107.4C9.36994 107.4 10.4299 108.45 10.4299 110.4C10.4299 111.21 10.3099 111.95 10.0899 112.38C10.0499 112.44 10.0099 112.46 9.91994 112.46H8.66994C8.61994 112.46 8.56994 112.42 8.61994 112.34C8.89994 111.85 9.04994 111.14 9.04994 110.39C9.04994 109.28 8.58994 108.93 8.12994 108.93C7.66994 108.93 7.33994 109.23 6.91994 110.25L6.70994 110.74C6.00994 112.42 5.19994 112.9 4.17994 112.9C2.66994 112.9 1.68994 111.71 1.68994 109.76C1.68994 108.82 1.86994 108.03 2.15994 107.5V107.49Z" fill="white"/>
<path d="M1.92983 120.97C1.83983 120.96 1.82983 120.93 1.82983 120.85V115.71C1.82983 115.62 1.86983 115.59 1.92983 115.59H10.2098C10.2698 115.59 10.3098 115.62 10.3098 115.69V120.68C10.3098 120.76 10.2998 120.78 10.2198 120.8L9.01983 120.94C8.95983 120.95 8.89983 120.93 8.89983 120.85V117.15H6.84983V120.51C6.84983 120.57 6.83983 120.6 6.75983 120.6H5.52983C5.46983 120.6 5.44983 120.56 5.44983 120.51V117.15H3.22984V121.06C3.22984 121.14 3.18983 121.16 3.12983 121.15L1.92983 120.96V120.97Z" fill="white"/>
<path d="M420.26 85.8899H343.39V64.4199H389.51C393.32 64.4199 396.4 61.3299 396.4 57.5299H343.38V36.0599H405.41C409.22 36.0599 412.3 32.9699 412.3 29.1699H260.14C256.33 29.1699 253.25 32.2599 253.25 36.0599H322.17V57.5299H276.05C272.24 57.5299 269.16 60.6199 269.16 64.4199H322.18V85.8899H252.2C248.39 85.8899 245.31 88.9799 245.31 92.7799H413.38C417.19 92.7799 420.27 89.6899 420.27 85.8899H420.26Z" fill="white"/>
<path d="M354.79 24.1698H354.88C364.25 24.1698 373.11 21.9498 380.95 18.0198C387.86 14.5598 387.77 4.55976 380.86 1.10976C380.79 1.06976 380.71 1.03976 380.64 0.999763C376.34 -1.12024 371.18 0.239763 368.46 4.18976C364.37 10.1298 359.2 15.2798 353.24 19.3498C351.1 20.8098 352.2 24.1698 354.78 24.1698H354.79Z" fill="white"/>
<path d="M284.6 18.0198C292.44 21.9498 301.3 24.1698 310.67 24.1698H310.76C313.35 24.1698 314.44 20.8098 312.3 19.3498C306.34 15.2798 301.17 10.1298 297.08 4.18976C294.36 0.239763 289.2 -1.12024 284.9 0.999763C284.83 1.03976 284.75 1.06976 284.68 1.10976C277.77 4.55976 277.68 14.5598 284.59 18.0198H284.6Z" fill="white"/>
<path d="M415.95 169.57C385.53 162.94 361 144.74 349.88 121.15H408.06C411.87 121.15 414.95 118.06 414.95 114.26H340.56C342.27 108.55 343.25 102.61 343.34 96.5H342.61C331.63 96.5 322.15 103.68 318.6 114.07C318.58 114.13 318.55 114.19 318.53 114.26H257.49C253.68 114.26 250.6 117.35 250.6 121.15H315.68C304.56 144.73 280.03 162.94 249.61 169.57C247.08 170.12 245.29 172.38 245.29 174.96C283.5 174.96 316.59 157.23 332.76 131.36C348.94 157.22 382.02 174.96 420.23 174.96C420.23 172.38 418.44 170.12 415.92 169.57H415.95Z" fill="white"/>
<path d="M144.15 126.18V66.2698C144.15 63.9298 142.25 62.0298 139.91 62.0298H112.87C110.53 62.0298 108.63 63.9298 108.63 66.2698V126.18C108.63 128.52 110.53 130.42 112.87 130.42H139.91C142.25 130.42 144.15 128.52 144.15 126.18ZM130.89 123.53H121.88V68.9198H130.89V123.53Z" fill="white"/>
<path d="M100.67 169.66H218.37C222.18 169.66 225.26 166.57 225.26 162.77H107.56C103.75 162.77 100.67 165.86 100.67 169.66Z" fill="white"/>
<path d="M129.39 42.3202C128.58 44.4102 130.12 46.6502 132.36 46.6502H147.33C149.67 46.6502 151.57 48.5502 151.57 50.8902V139.96C151.57 142.3 149.67 144.2 147.33 144.2H134.61C130.8 144.2 127.72 147.29 127.72 151.09H164.83C167.76 151.09 170.13 148.72 170.13 145.79V45.0602C170.13 42.1302 167.76 39.7602 164.83 39.7602H151.6L161.27 14.8402H212.09C215.9 14.8402 218.98 11.7502 218.98 7.9502H112.87C109.06 7.9502 105.98 11.0402 105.98 14.8402H140.06L129.4 42.3202H129.39Z" fill="white"/>
<path d="M104.65 96.15C96.2 81.35 90.83 64.56 89.42 46.66H104.38C108.19 46.66 111.27 43.57 111.27 39.77H89V0C79.92 0 72.56 7.36 72.56 16.44V39.77H57.18C53.37 39.77 50.29 42.86 50.29 46.66H70.91C69.2 68.2 63.82 88.71 55.38 107.55C52.04 115 50.29 123.07 50.29 131.23C59.03 120.15 66.5 108.04 72.56 95.13V174.96C81.64 174.96 89 167.6 89 158.52V85.85C93.05 92.74 97.77 99.19 103.08 105.1C105.71 102.89 106.35 99.13 104.65 96.14V96.15Z" fill="white"/>
<path d="M207.76 39.7598H184.44C180.63 39.7598 177.55 42.8498 177.55 46.6498H191.51C196.39 46.6498 200.43 50.3898 200.89 55.2498C201.23 58.8798 201.41 62.5498 201.41 66.2698C201.41 79.6098 199.2 92.4298 195.15 104.41C189.48 91.4298 186.3 77.1098 186.3 62.0298C178.27 62.0298 172.14 69.3998 173.8 77.2598C176.83 91.5998 182.44 104.99 190.11 116.92C185.58 126.55 179.82 135.48 173 143.49C172.26 144.36 172.35 145.67 173.23 146.4C173.98 147.03 175.08 147.05 175.85 146.44C183.49 140.37 190.33 133.36 196.28 125.63C202.67 133.85 210.1 141.21 218.39 147.51C221.2 149.65 225.25 147.68 225.25 144.15C216.1 136.67 208.24 127.68 202.01 117.58C214.02 98.9698 221.01 76.8198 221.01 53.0198C221.01 45.7298 215.04 39.7698 207.75 39.7698L207.76 39.7598Z" fill="white"/>
</svg>
