<svg width="314" height="10" viewBox="0 0 314 10" fill="none" xmlns="http://www.w3.org/2000/svg">
<path d="M4.32394 9.94665C1.87994 9.94665 0.215944 8.04865 0.215944 5.01965C0.215944 2.00365 1.93194 0.118648 4.44094 0.118648C5.72794 0.118648 6.54694 0.716648 7.05394 1.26265L6.59894 1.76965C6.11794 1.26265 5.46794 0.820648 4.45394 0.820648C2.34794 0.820648 1.02194 2.43265 1.02194 5.00665C1.02194 7.58065 2.25694 9.24465 4.40194 9.24465C5.20794 9.24465 5.98794 8.98465 6.40394 8.56865V5.72165H4.20694V5.05865H7.17094V8.86765C6.55994 9.49165 5.57194 9.94665 4.32394 9.94665ZM16.4259 9.76465L19.7409 0.287648H20.5469L23.8619 9.76465H23.0429L21.1969 4.25265C20.8199 3.13465 20.5079 2.13365 20.1699 0.989648H20.1179C19.7799 2.14665 19.4549 3.13465 19.0779 4.25265L17.2189 9.76465H16.4259ZM17.9859 6.59265V5.95565H22.2629V6.59265H17.9859ZM34.875 9.76465V0.963648H31.898V0.287648H38.645V0.963648H35.668V9.76465H34.875ZM48.6418 9.76465V0.287648H53.8808V0.963648H49.4088V4.40865H53.1658V5.08465H49.4088V9.10165H54.0238V9.76465H48.6418ZM65.4019 9.76465L63.2959 0.287648H64.0889L65.2459 5.78665C65.4539 6.81365 65.6619 7.82765 65.8829 8.86765H65.9349C66.1559 7.82765 66.4159 6.80065 66.6629 5.78665L68.0929 0.287648H68.8729L70.3159 5.78665C70.5629 6.80065 70.7969 7.82765 71.0439 8.86765H71.1089C71.3169 7.82765 71.5119 6.80065 71.7069 5.78665L72.8639 0.287648H73.6309L71.5379 9.76465H70.6539L68.9899 3.44665C68.8209 2.69265 68.6649 2.04265 68.4959 1.30165H68.4439C68.2749 2.04265 68.0929 2.69265 67.9239 3.44665L66.2859 9.76465H65.4019ZM82.3334 9.76465L85.6484 0.287648H86.4544L89.7694 9.76465H88.9504L87.1044 4.25265C86.7274 3.13465 86.4154 2.13365 86.0774 0.989648H86.0254C85.6874 2.14665 85.3624 3.13465 84.9854 4.25265L83.1264 9.76465H82.3334ZM83.8934 6.59265V5.95565H88.1704V6.59265H83.8934ZM100.757 9.76465V5.96865L97.9102 0.287648H98.7422L100.133 3.19965C100.471 3.88865 100.77 4.55165 101.134 5.25365H101.186C101.537 4.55165 101.888 3.88865 102.2 3.19965L103.591 0.287648H104.384L101.537 5.96865V9.76465H100.757ZM127.065 9.76465V0.963648H124.088V0.287648H130.835V0.963648H127.858V9.76465H127.065ZM143.829 9.94665C141.528 9.94665 139.903 8.00965 139.903 5.00665C139.903 1.99065 141.528 0.118648 143.829 0.118648C146.13 0.118648 147.768 2.00365 147.768 5.00665C147.768 8.00965 146.13 9.94665 143.829 9.94665ZM143.829 9.24465C145.701 9.24465 146.962 7.58065 146.962 5.00665C146.962 2.43265 145.701 0.820648 143.829 0.820648C141.957 0.820648 140.709 2.43265 140.709 5.00665C140.709 7.58065 141.957 9.24465 143.829 9.24465ZM171.198 9.76465V0.963648H168.221V0.287648H174.968V0.963648H171.991V9.76465H171.198ZM184.965 9.76465V0.287648H185.732V4.39565H190.659V0.287648H191.439V9.76465H190.659V5.08465H185.732V9.76465H184.965ZM202.385 9.76465V0.287648H207.624V0.963648H203.152V4.40865H206.909V5.08465H203.152V9.10165H207.767V9.76465H202.385ZM229.086 9.76465V0.287648H229.892L233.766 6.81365L234.819 8.71165H234.884C234.832 7.78865 234.767 6.83965 234.767 5.90365V0.287648H235.521V9.76465H234.702L230.841 3.25165L229.775 1.34065H229.723C229.762 2.26365 229.814 3.14765 229.814 4.09665V9.76465H229.086ZM245.18 9.76465L248.495 0.287648H249.301L252.616 9.76465H251.797L249.951 4.25265C249.574 3.13465 249.262 2.13365 248.924 0.989648H248.872C248.534 2.14665 248.209 3.13465 247.832 4.25265L245.973 9.76465H245.18ZM246.74 6.59265V5.95565H251.017V6.59265H246.74ZM263.629 9.76465V0.963648H260.652V0.287648H267.399V0.963648H264.422V9.76465H263.629ZM277.396 9.76465V0.287648H278.163V9.76465H277.396ZM292.456 9.94665C290.155 9.94665 288.53 8.00965 288.53 5.00665C288.53 1.99065 290.155 0.118648 292.456 0.118648C294.757 0.118648 296.395 2.00365 296.395 5.00665C296.395 8.00965 294.757 9.94665 292.456 9.94665ZM292.456 9.24465C294.328 9.24465 295.589 7.58065 295.589 5.00665C295.589 2.43265 294.328 0.820648 292.456 0.820648C290.584 0.820648 289.336 2.43265 289.336 5.00665C289.336 7.58065 290.584 9.24465 292.456 9.24465ZM306.751 9.76465V0.287648H307.557L311.431 6.81365L312.484 8.71165H312.549C312.497 7.78865 312.432 6.83965 312.432 5.90365V0.287648H313.186V9.76465H312.367L308.506 3.25165L307.44 1.34065H307.388C307.427 2.26365 307.479 3.14765 307.479 4.09665V9.76465H306.751Z" fill="#EEBA51"/>
</svg>
