<svg width="309" height="10" viewBox="0 0 309 10" fill="none" xmlns="http://www.w3.org/2000/svg">
<path d="M0.460355 9.76465V1.01665H2.51235C3.41635 1.01665 4.16435 1.19265 4.75635 1.54465C5.34835 1.89665 5.78835 2.39665 6.07635 3.04465C6.37235 3.69265 6.52035 4.46465 6.52035 5.36065C6.52035 6.25665 6.37635 7.03665 6.08836 7.70065C5.80035 8.35665 5.36035 8.86465 4.76835 9.22465C4.17635 9.58465 3.43635 9.76465 2.54835 9.76465H0.460355ZM1.18035 9.15265H2.44035C3.20835 9.15265 3.84035 8.99665 4.33635 8.68465C4.83235 8.36465 5.19635 7.92065 5.42835 7.35265C5.66035 6.77665 5.77635 6.11265 5.77635 5.36065C5.77635 4.60065 5.66035 3.94065 5.42835 3.38065C5.19635 2.82065 4.83235 2.38865 4.33635 2.08465C3.84035 1.78065 3.20835 1.62865 2.44035 1.62865H1.18035V9.15265ZM16.0829 9.76465V1.01665H18.6389C19.2229 1.01665 19.7309 1.09665 20.1629 1.25665C20.6029 1.40865 20.9429 1.65665 21.1829 2.00065C21.4309 2.33665 21.5549 2.78865 21.5549 3.35665C21.5549 3.89265 21.4309 4.34465 21.1829 4.71265C20.9429 5.08065 20.6029 5.35665 20.1629 5.54065C19.7309 5.72465 19.2229 5.81665 18.6389 5.81665H16.8029V9.76465H16.0829ZM16.8029 5.21665H18.4829C19.2349 5.21665 19.8109 5.06465 20.2109 4.76065C20.6109 4.45665 20.8109 3.98865 20.8109 3.35665C20.8109 2.71665 20.6109 2.26865 20.2109 2.01265C19.8109 1.74865 19.2349 1.61665 18.4829 1.61665H16.8029V5.21665ZM20.9189 9.76465L18.4709 5.61265L19.1309 5.34865L21.7349 9.76465H20.9189ZM29.7325 9.76465L32.7805 1.01665H33.5245L36.5965 9.76465H35.8285L34.1245 4.66465C33.9565 4.15265 33.7925 3.65665 33.6325 3.17665C33.4805 2.69665 33.3285 2.18865 33.1765 1.65265H33.1285C32.9765 2.18865 32.8205 2.69665 32.6605 3.17665C32.5085 3.65665 32.3485 4.15265 32.1805 4.66465L30.4525 9.76465H29.7325ZM31.1605 6.83665V6.24865H35.1205V6.83665H31.1605ZM46.5672 9.76465L44.6112 1.01665H45.3552L46.4112 6.08065C46.5152 6.55265 46.6152 7.02865 46.7112 7.50865C46.8072 7.98065 46.9032 8.45665 46.9992 8.93665H47.0472C47.1592 8.45665 47.2712 7.98065 47.3832 7.50865C47.4952 7.02865 47.6072 6.55265 47.7192 6.08065L49.0512 1.01665H49.7592L51.1032 6.08065C51.2152 6.55265 51.3272 7.02865 51.4392 7.50865C51.5512 7.98065 51.6632 8.45665 51.7752 8.93665H51.8352C51.9312 8.45665 52.0232 7.98065 52.1112 7.50865C52.1992 7.02865 52.2912 6.55265 52.3872 6.08065L53.4552 1.01665H54.1512L52.2312 9.76465H51.4032L49.8792 3.92065C49.7992 3.56865 49.7232 3.23665 49.6512 2.92465C49.5792 2.61265 49.5032 2.28465 49.4232 1.94065H49.3752C49.2952 2.28465 49.2112 2.61265 49.1232 2.92465C49.0432 3.23665 48.9632 3.56865 48.8832 3.92065L47.3832 9.76465H46.5672ZM65.571 9.92065C64.939 9.92065 64.371 9.80065 63.867 9.56065C63.363 9.31265 62.939 8.99665 62.595 8.61265L63.039 8.10865C63.359 8.46065 63.739 8.74465 64.179 8.96065C64.619 9.16865 65.083 9.27265 65.571 9.27265C66.219 9.27265 66.731 9.11665 67.107 8.80465C67.483 8.49265 67.671 8.08865 67.671 7.59265C67.671 7.24065 67.599 6.96065 67.455 6.75265C67.319 6.53665 67.135 6.36065 66.903 6.22465C66.671 6.08065 66.411 5.94865 66.123 5.82865L64.815 5.24065C64.559 5.12865 64.291 4.98465 64.011 4.80865C63.739 4.63265 63.507 4.40465 63.315 4.12465C63.131 3.83665 63.039 3.48065 63.039 3.05665C63.039 2.61665 63.151 2.23665 63.375 1.91665C63.599 1.58865 63.907 1.33265 64.299 1.14865C64.691 0.956648 65.135 0.860648 65.631 0.860648C66.159 0.860648 66.631 0.964648 67.047 1.17265C67.471 1.37265 67.819 1.62065 68.091 1.91665L67.695 2.38465C67.439 2.12065 67.139 1.90865 66.795 1.74865C66.451 1.58865 66.063 1.50865 65.631 1.50865C65.071 1.50865 64.619 1.64465 64.275 1.91665C63.939 2.18065 63.771 2.54065 63.771 2.99665C63.771 3.32465 63.851 3.59265 64.011 3.80065C64.171 4.00865 64.367 4.17665 64.599 4.30465C64.831 4.43265 65.055 4.54465 65.271 4.64065L66.567 5.21665C66.903 5.36065 67.207 5.52865 67.479 5.72065C67.759 5.91265 67.983 6.15265 68.151 6.44065C68.319 6.72865 68.403 7.09665 68.403 7.54465C68.403 7.99265 68.287 8.39665 68.055 8.75665C67.823 9.11665 67.495 9.40065 67.071 9.60865C66.647 9.81665 66.147 9.92065 65.571 9.92065ZM91.2244 9.92065C90.4804 9.92065 89.8204 9.73665 89.2444 9.36865C88.6764 8.99265 88.2324 8.46465 87.9124 7.78465C87.5924 7.10465 87.4324 6.30465 87.4324 5.38465C87.4324 4.68065 87.5244 4.05265 87.7084 3.50065C87.9004 2.94065 88.1684 2.46465 88.5124 2.07265C88.8644 1.68065 89.2764 1.38065 89.7484 1.17265C90.2284 0.964648 90.7564 0.860648 91.3324 0.860648C91.9324 0.860648 92.4244 0.972648 92.8084 1.19665C93.2004 1.42065 93.5124 1.66065 93.7444 1.91665L93.3364 2.38465C93.1124 2.14465 92.8404 1.94065 92.5204 1.77265C92.2084 1.59665 91.8164 1.50865 91.3444 1.50865C90.6964 1.50865 90.1364 1.66465 89.6644 1.97665C89.1924 2.28865 88.8244 2.73665 88.5604 3.32065C88.3044 3.89665 88.1764 4.58065 88.1764 5.37265C88.1764 6.16465 88.3004 6.85265 88.5484 7.43665C88.7964 8.02065 89.1524 8.47265 89.6164 8.79265C90.0804 9.11265 90.6404 9.27265 91.2964 9.27265C91.6724 9.27265 92.0244 9.21665 92.3524 9.10465C92.6884 8.99265 92.9564 8.84065 93.1564 8.64865V6.02065H91.1284V5.40865H93.8524V8.93665C93.5724 9.22465 93.2084 9.46065 92.7604 9.64465C92.3204 9.82865 91.8084 9.92065 91.2244 9.92065ZM103.619 9.76465V1.01665H104.339V9.14065H108.323V9.76465H103.619ZM120.239 9.92065C119.527 9.92065 118.899 9.73265 118.355 9.35665C117.811 8.98065 117.383 8.45265 117.071 7.77265C116.759 7.09265 116.603 6.28865 116.603 5.36065C116.603 4.43265 116.759 3.63265 117.071 2.96065C117.383 2.28865 117.811 1.77265 118.355 1.41265C118.899 1.04465 119.527 0.860648 120.239 0.860648C120.943 0.860648 121.567 1.04465 122.111 1.41265C122.663 1.78065 123.091 2.30065 123.395 2.97265C123.707 3.63665 123.863 4.43265 123.863 5.36065C123.863 6.28865 123.707 7.09265 123.395 7.77265C123.091 8.45265 122.663 8.98065 122.111 9.35665C121.567 9.73265 120.943 9.92065 120.239 9.92065ZM120.239 9.27265C120.815 9.27265 121.319 9.11265 121.751 8.79265C122.183 8.46465 122.519 8.00865 122.759 7.42465C122.999 6.84065 123.119 6.15265 123.119 5.36065C123.119 4.56865 122.999 3.88465 122.759 3.30865C122.519 2.73265 122.183 2.28865 121.751 1.97665C121.319 1.66465 120.815 1.50865 120.239 1.50865C119.663 1.50865 119.155 1.66465 118.715 1.97665C118.283 2.28865 117.947 2.73265 117.707 3.30865C117.467 3.88465 117.347 4.56865 117.347 5.36065C117.347 6.15265 117.467 6.84065 117.707 7.42465C117.947 8.00865 118.283 8.46465 118.715 8.79265C119.155 9.11265 119.663 9.27265 120.239 9.27265ZM133.422 9.76465V1.01665H135.834C136.426 1.01665 136.938 1.09265 137.37 1.24465C137.802 1.38865 138.138 1.61665 138.378 1.92865C138.626 2.24065 138.75 2.64465 138.75 3.14065C138.75 3.44465 138.698 3.72465 138.594 3.98065C138.49 4.23665 138.338 4.45665 138.138 4.64065C137.946 4.82465 137.706 4.96065 137.418 5.04865V5.10865C137.97 5.19665 138.418 5.42065 138.762 5.78065C139.106 6.13265 139.278 6.61265 139.278 7.22065C139.278 7.78065 139.142 8.24865 138.87 8.62465C138.598 9.00065 138.218 9.28465 137.73 9.47665C137.242 9.66865 136.67 9.76465 136.014 9.76465H133.422ZM134.142 4.83265H135.606C136.478 4.83265 137.098 4.68865 137.466 4.40065C137.842 4.11265 138.03 3.71665 138.03 3.21265C138.03 2.62865 137.83 2.21665 137.43 1.97665C137.038 1.72865 136.454 1.60465 135.678 1.60465H134.142V4.83265ZM134.142 9.16465H135.858C136.698 9.16465 137.358 9.00865 137.838 8.69665C138.326 8.37665 138.57 7.88065 138.57 7.20865C138.57 6.59265 138.33 6.14065 137.85 5.85265C137.378 5.55665 136.714 5.40865 135.858 5.40865H134.142V9.16465ZM147.505 9.76465L150.553 1.01665H151.297L154.369 9.76465H153.601L151.897 4.66465C151.729 4.15265 151.565 3.65665 151.405 3.17665C151.253 2.69665 151.101 2.18865 150.949 1.65265H150.901C150.749 2.18865 150.593 2.69665 150.433 3.17665C150.281 3.65665 150.121 4.15265 149.953 4.66465L148.225 9.76465H147.505ZM148.933 6.83665V6.24865H152.893V6.83665H148.933ZM163.296 9.76465V1.01665H164.016V9.14065H168V9.76465H163.296ZM186.158 9.76465L189.206 1.01665H189.95L193.022 9.76465H192.254L190.55 4.66465C190.382 4.15265 190.218 3.65665 190.058 3.17665C189.906 2.69665 189.754 2.18865 189.602 1.65265H189.554C189.402 2.18865 189.246 2.69665 189.086 3.17665C188.934 3.65665 188.774 4.15265 188.606 4.66465L186.878 9.76465H186.158ZM187.586 6.83665V6.24865H191.546V6.83665H187.586ZM203.176 9.76465V1.64065H200.428V1.01665H206.656V1.64065H203.908V9.76465H203.176ZM217.744 9.76465V1.64065H214.996V1.01665H221.224V1.64065H218.476V9.76465H217.744ZM230.452 9.76465V1.01665H235.288V1.64065H231.172V4.80865H234.628V5.43265H231.172V9.14065H235.42V9.76465H230.452ZM244.891 9.76465V1.01665H245.635L249.211 7.02865L250.195 8.79265H250.255C250.223 8.36065 250.195 7.92865 250.171 7.49665C250.155 7.05665 250.147 6.62465 250.147 6.20065V1.01665H250.831V9.76465H250.087L246.511 3.74065L245.539 1.98865H245.491C245.507 2.41265 245.523 2.83265 245.539 3.24865C245.563 3.66465 245.575 4.08865 245.575 4.52065V9.76465H244.891ZM262.795 9.76465V1.64065H260.047V1.01665H266.275V1.64065H263.527V9.76465H262.795ZM275.503 9.76465V1.01665H276.223V9.76465H275.503ZM289.416 9.92065C288.704 9.92065 288.076 9.73265 287.532 9.35665C286.988 8.98065 286.56 8.45265 286.248 7.77265C285.936 7.09265 285.78 6.28865 285.78 5.36065C285.78 4.43265 285.936 3.63265 286.248 2.96065C286.56 2.28865 286.988 1.77265 287.532 1.41265C288.076 1.04465 288.704 0.860648 289.416 0.860648C290.12 0.860648 290.744 1.04465 291.288 1.41265C291.84 1.78065 292.268 2.30065 292.572 2.97265C292.884 3.63665 293.04 4.43265 293.04 5.36065C293.04 6.28865 292.884 7.09265 292.572 7.77265C292.268 8.45265 291.84 8.98065 291.288 9.35665C290.744 9.73265 290.12 9.92065 289.416 9.92065ZM289.416 9.27265C289.992 9.27265 290.496 9.11265 290.928 8.79265C291.36 8.46465 291.696 8.00865 291.936 7.42465C292.176 6.84065 292.296 6.15265 292.296 5.36065C292.296 4.56865 292.176 3.88465 291.936 3.30865C291.696 2.73265 291.36 2.28865 290.928 1.97665C290.496 1.66465 289.992 1.50865 289.416 1.50865C288.84 1.50865 288.332 1.66465 287.892 1.97665C287.46 2.28865 287.124 2.73265 286.884 3.30865C286.644 3.88465 286.524 4.56865 286.524 5.36065C286.524 6.15265 286.644 6.84065 286.884 7.42465C287.124 8.00865 287.46 8.46465 287.892 8.79265C288.332 9.11265 288.84 9.27265 289.416 9.27265ZM302.599 9.76465V1.01665H303.343L306.919 7.02865L307.903 8.79265H307.963C307.931 8.36065 307.903 7.92865 307.879 7.49665C307.863 7.05665 307.855 6.62465 307.855 6.20065V1.01665H308.539V9.76465H307.795L304.219 3.74065L303.247 1.98865H303.199C303.215 2.41265 303.231 2.83265 303.247 3.24865C303.271 3.66465 303.283 4.08865 303.283 4.52065V9.76465H302.599Z" fill="#EEBA51"/>
</svg>
