<?xml version="1.0" encoding="UTF-8"?>
<svg id="_圖層_1" data-name="圖層_1" xmlns="http://www.w3.org/2000/svg" version="1.1" viewBox="0 0 1890 470">
  <!-- Generator: Adobe Illustrator 29.3.1, SVG Export Plug-In . SVG Version: 2.1.0 Build 151)  -->
  <defs>
    <style>
      .st0 {
        fill: #231815;
      }

      .st1 {
        fill: #fff;
      }

      .st2 {
        fill: #c6000b;
      }
    </style>
  </defs>
  <path class="st1" d="M460.7,235c0,125.4-101.7,227.1-227.1,227.1S6.5,360.4,6.5,235,108.2,7.9,233.6,7.9s227.1,101.7,227.1,227.1"/>
  <path class="st2" d="M171.9,140.3c-71.4,67.8-132,175.7-113.9,235-30.7-38.5-49.1-87.2-49.1-140.2C8.8,110.9,109.4,10.2,233.6,10.2s90.2,14.3,126.2,38.8c-44.4-10.4-123.8,30.5-187.8,91.3M389.2,72.9c11.9,27.2-2.4,71.4-52,124.7-59.5,63.9-103.6,92.6-132.2,75-28.6-17.6,41.9-110.2,63.9-123.4,22-13.2,13.2,26.4,13.2,26.4,0,0,97-59.5,68.3-92.5-18.5-21.3-112.4,46.3-163.1,112.4-50.7,66.1-78.5,133.5-48.5,165.3,37.5,39.7,123.4-13.3,196.1-68.3,26.4-19.8,26.4-6.6,17.6,6.6,0,0-132.8,168-251.4,117.8,37.2,27.1,82.9,43.1,132.3,43.1,124.2,0,224.8-100.6,224.8-224.8s-26.5-121.2-69.2-162.2"/>
  <path class="st0" d="M1059.3,113.6c0-2.6-2-4.8-4.8-4.8h-44.7c2.5-4.2,4.9-8.8,7.8-13.7h0,0l2-3.4h30.4v-17.7c0-2.7-2.2-4.9-4.9-4.9h-75c-2-5.6-4.4-11.7-7.1-16.6l-28.4,5.1c1.5,3.4,2.9,7.6,4.2,11.5h-83.1v22.5h34.4c.5,1,1.2,2.3,1.8,3.7,1.7,3.9,3.7,8.8,4.9,13.5h-49.3v22.5h211.7v-17.7ZM980,108.8h-53.7c-1.5-5.1-4.2-11.8-6.8-17.1h67.4c-1.7,5.1-4.4,11.5-6.8,17.1M985.9,258.1c9.1,0,10.5-.5,11.7-17.6h26.6c-.1,25.4-4.9,40.8-27.7,40.8h-64.8c-30.8,0-40.3-7.1-40.3-30.1v-25.7h23.6c2.6,0,4.8,2.2,4.8,4.8v20.6c0,6.4,3.9,7.1,14.9,7.1h51.2M1038.6,214.8v-69.7s0,0,0-.1c0-2.6-2.1-4.8-4.7-4.9h-166.2v74.7h71.7l-8.1,9.8c13.9,8.6,28.2,22.5,37.3,30l20.4-17.9c-6.2-4.9-21.1-15.8-32.8-22h82.5ZM895.1,158.2h114.6v10.5h-114.6v-10.5ZM895.1,185.4h114.6v11h-114.6v-11ZM839.1,269.9c5.1-8.3,15.2-30.5,21.2-44.4h26.3c-3.4,9.9-9.7,31.3-15.5,44.4h-32M1038.6,220.1c6.1,5.3,29.9,26.1,35.3,33l-20.6,18c-5.5-8.2-23.5-28.8-32.9-39.7l18.2-11.3M744.9,230.5h-27.4V93.9h22.5c2.7,0,4.9,2.2,4.9,4.9h0v131.7ZM785.9,61.1v188c0,15.7-2.9,23.5-12,28.1-8.6,4.9-22.5,5.9-42.1,5.9l-8.6-29.1c12.5.2,25.2.2,29.1.2s5.6-1.2,5.6-5.4V56.2h23c2.7,0,4.9,2.2,4.9,4.9h0ZM697.8,218.8h-86c.5-2.5.7-7.2,1.2-9.6h85v-72h0c0-2.7-2.2-4.9-4.9-4.9h-104v28.1c0,28.6-2,74.3-21.3,105.4h31c4.3-9.8,7.7-22.3,10.1-33.4v47.5h93.8v-56.3c0-2.7-2.2-4.8-4.8-4.8M615.9,160.4v-9h55.6v10.4h-55.6v-1.5ZM615.5,178.2h56v10.9h-56.5c.2-3.4.5-7.7.5-10.9M677.1,258.4h-44.1v-20.7h44.1v20.7ZM663.8,60.4l-18-9.6c-3.3-1.7-5-2-8.6,2.4-17.8,21.8-38.8,44.3-69.5,73.3h37.2c4.7-4.3,10.3-9.4,14-14v11.5h59.5v-12.6c9.2,7.1,17.1,13.4,19.5,15.4l14.1-24.3c-11.3-8.5-34.5-24.6-52.6-35.7,1.5-2.1,2.9-4.1,4.4-6.4M671.4,106h-46.7c5.7-5.9,13.5-14.8,19-20.7,3.7,2.4,15.8,11.6,27.7,20.7M1873.1,123.4h-38.7v-62.8s0,0,0,0c0-2.6-2-4.7-4.5-4.8h-23.4v67.7h-43.1v75.5c0,23.3-3.9,62.9-14.9,82.8h28.7c3.2-9.8,8.5-32.2,9.8-42.8,4.8-1.7,45.4-11.6,64.8-16.7v29.8c0,3.2-1.2,4.4-4.9,4.4-3.7.2-15.4.2-26.7-.5l8.1,26.9c17.9,0,29.5-.2,38.1-4.7,9.1-4.4,11.5-12.2,11.5-25.7v-124.2s0,0,0,0c0-2.6-2.1-4.8-4.7-4.9M1851.8,198.1c-23.7,5.4-45.6,10.8-62.9,14.2.1-2.4.1-19.6,0-36,0,0,0,0,0,0h0c0-15.6,0-28.4,0-28.4h62.9v50.2ZM1749.3,243.8l-28.2,4.5v-63.2h28.6v-24.7h-28.6v-19.8h19.8c0,0,0-17.9,0-17.9,4.4,4.4,8,7.8,9.4,9.1l12.6-21.7c-9.5-8.7-21.7-20.9-39.2-35,.7-1,3.6-5.6,5-7.5l-15.9-9.6c-3.8-2-5.5-2.8-9.3,1.8-14,18.4-32.8,39.5-58,66h25.7v14.9h26.4v19.8h-34v24.7h34v67.1c-11.6,1.8-24.9,3.4-34,4.8v27.3c23.8-5.5,57.1-11.7,86.7-18.8l-.9-21.7ZM1687.8,117.7c7.9-8.6,19-20.7,22.3-24.2,3.8,2.5,15.7,14.3,25.8,24.2h-48ZM1725.5,234.9c3.3-11.9,6.7-27,8.8-40.1l21.9,5.5c-4.8,13.8-9.5,29.6-13.6,39.9l-17.2-5.3M1671.2,245.2c-1.3-12.2-5.1-30.2-8.6-43.9l19.5-5.1c4.1,13.7,8.1,31.7,9.9,43.1l-20.8,5.8ZM1774.8,118.5c-1.7-4.5-5.9-22.3-17.3-41.8l23.3-10.5c8.1,13.3,14.8,32.4,17.9,42.8l-23.9,9.6ZM1883.5,76.3c-4.7,16.2-10.1,29.7-16.8,42.6l-24.2-9.2c6.9-12.8,11.9-27.6,16.5-42.1l24.5,8.7M1837.3,196.2c-10.7-6.8-31.5-15.2-48.4-19.8v-.2l11-17.2c16.9,3.4,38.7,11,49.9,17.6l-12.5,19.6ZM1602.7,132.9c2.6,0,4.7,2.2,4.7,4.8v22.9h-33.5v89.7c0,15.7-2.9,23.7-13.7,28.1-10.3,4.4-26.3,4.9-48.1,4.9l-8.8-29.6c14,.7,30.1.7,34.5.5,4.4,0,6.1-1,6.1-4.7v-89h-64.2v-27.7h123M1603.2,98.9h-119v-27.7h114.2c2.7,0,4.8,2.2,4.8,4.9h0v22.8ZM1479.8,115.1c-7.3,12.5-23,32.7-33,45.8v121.6h-29.1v-91.4h-37.6c24.5-24.9,50.1-53.7,70.5-81.9,0,0,0,0,0-.1,3.3-4.6,5.2-3.9,9.8-2.1l19.4,8ZM1381.9,125c14.6-15.4,36.1-38.3,51.6-58.5.2-.2.4-.5.6-.8,3-3.9,5.1-3.6,7.3-2.7l1.4.6,19,7.8c-12.1,17-30.4,40.2-42.3,53.6h-37.6ZM1288.6,186.5c13.6,27.4,32.7,48,57.4,61.5l-24,21.1c-23.6-15.3-41.7-40.1-53.8-69.7-2.4,1.7-4.6,3.3-7.4,5.2,6.9,29.4.8,57.4-11.1,68.4-9,8.3-16.8,10.7-29.6,10.9-5.4.3-12.7,0-19.8-.2l-7.8-27.7c8.6,1,16.4,1.2,22,1.2s9.7-.9,13.7-5.6c3.7-4.4,7.3-13.8,7.3-25.6-27.9,19.1-67,37.8-99.6,47.6h0s-15.2-24.2-15.2-24.2c38.7-8.3,82.5-27.5,110.2-49.1-1-2.9-2.8-6.8-4.2-10-24.5,15.4-59.9,31.1-87.8,39.7l-14.4-22.5c30.1-6.4,70-20.9,91.3-35.1-1.5-3-4.5-7-6.6-9-21.3,11.3-45,19.6-68,25.7l-14.9-22.8c27.7-5.6,56.5-16.5,79.8-28.2h-43v-23.8h131c2.6,0,4.8,2.2,4.8,4.9s0,0,0,0v18.9h-53.3c-4.4,3.9-9.3,9.1-14.7,12.5,9.5,8.8,16.6,19.1,21.5,29.6,15.2-10.1,32.4-23.1,44.2-34.2,2.2-1.9,4.2-3.2,7.8-.1l18.1,16c-9.8,7.6-23,17.2-33.7,24.5M1151.7,130.1h-26.9v-53.9h88.6c-1.7-4.7-3.9-10.7-5.9-14.4l30.8-8.8c3.9,6.6,8.1,16.1,10.5,23.2h82.3c2.6,0,4.8,2.2,4.8,4.8v49.1h-27.8v-30.2h-156.6v30.2ZM945.7,342.7c5.5,0,6.3,2.6,6.3,6.7v4h-24.4v62.1h-17.5v-62.1h-26v-10.7h61.7M1034.1,359.1c-1.7-2.8-3.8-5.3-6.2-7.5-2.4-2.2-5.1-4.1-8.1-5.7-3-1.5-6.2-2.7-9.6-3.6-3.5-.8-7.1-1.3-10.9-1.3s-7.4.4-10.9,1.3c-3.5.8-6.7,2-9.6,3.6-3,1.5-5.7,3.4-8.1,5.7-2.4,2.2-4.5,4.7-6.2,7.5-1.7,2.8-3,5.8-4,9.1-.9,3.3-1.4,6.8-1.4,10.5s.5,7.3,1.4,10.7c.9,3.4,2.3,6.5,4,9.3,1.7,2.9,3.8,5.4,6.2,7.7,2.4,2.3,5.1,4.2,8.1,5.8,3,1.6,6.2,2.8,9.6,3.7,3.5.9,7.1,1.3,10.9,1.3s7.4-.4,10.9-1.3c3.5-.8,6.7-2.1,9.6-3.6,3-1.6,5.7-3.5,8.1-5.8,2.4-2.3,4.5-4.8,6.2-7.7,1.7-2.9,3-6,4-9.4.9-3.4,1.4-7,1.4-10.9s-.5-7.1-1.4-10.4c-.9-3.3-2.3-6.3-4-9.1M1020,391.2c-.9,3.8-2.3,7.1-4.2,9.9-1.9,2.8-4.1,5-6.8,6.5-2.7,1.6-5.8,2.4-9.4,2.4s-6.7-.8-9.5-2.4c-2.7-1.6-5-3.7-6.8-6.5-1.8-2.8-3.2-6.1-4.1-9.9-.9-3.8-1.4-8-1.4-12.5s.5-8.5,1.4-12.2c.9-3.7,2.3-6.9,4.1-9.6,1.8-2.7,4.1-4.7,6.8-6.2,2.7-1.5,5.9-2.2,9.5-2.2s6.7.7,9.4,2.2c2.7,1.5,5,3.6,6.8,6.2,1.8,2.7,3.2,5.9,4.2,9.6.9,3.7,1.4,7.8,1.4,12.2s-.5,8.7-1.4,12.5M1099,377.7c2.1-1.2,3.8-2.6,5.3-4.1,1.5-1.6,2.6-3.3,3.4-5.1.8-1.9,1.2-3.8,1.2-5.9s-.6-5.5-1.8-7.9c-1.2-2.4-2.9-4.5-5.3-6.3-2.4-1.8-5.3-3.2-8.9-4.1-3.5-1-7.7-1.5-12.4-1.5h-17c-4.9,0-8.9,4-8.9,8.9v63.9h16.4v-33h3.2l24.5,33h19.4l-25.9-34.9c2.5-.8,4.8-1.8,6.8-3M1089.1,368.5c-.8,1.7-1.9,3.1-3.2,4.2-1.4,1.1-3,2-4.8,2.6-1.9.6-3.9.9-6.1.9h-3.9v-26.5h7.3c1.7,0,3.3.3,4.8,1,1.5.7,2.7,1.6,3.8,2.7,1.1,1.2,1.9,2.6,2.5,4.2.6,1.6.9,3.4.9,5.3s-.4,3.9-1.2,5.6M743.3,351.6c0-4.9,4-8.9,8.9-8.9h46.4v10.7h-38.9v19.5h30.3v10.8h-30.3v19.9h36.5v12h-52.9v-63.9h0M710.6,377.7c2.1-1.2,3.8-2.6,5.3-4.1,1.5-1.6,2.6-3.3,3.4-5.1.8-1.9,1.2-3.8,1.2-5.9s-.6-5.5-1.8-7.9c-1.2-2.4-2.9-4.5-5.3-6.3-2.4-1.8-5.3-3.2-8.9-4.1-3.5-1-7.7-1.5-12.4-1.5h-17c-4.9,0-8.9,4-8.9,8.9v63.9h16.4v-31.5h4.3l23.4,31.5h19.4l-25.9-34.9c2.5-.8,4.8-1.8,6.8-3M700.7,368.5c-.8,1.7-1.9,3.1-3.2,4.2-1.4,1.1-3,2-4.8,2.6-1.9.6-3.9.9-6.1.9h-3.9v-26.5h7.3c1.7,0,3.3.3,4.8,1,1.5.7,2.7,1.6,3.8,2.7,1.1,1.2,1.9,2.6,2.5,4.2.6,1.6.9,3.4.9,5.3s-.4,3.9-1.2,5.6M1656.8,342.7c4.7,0,6.3,1.8,6.3,5v5.7h-24.4v62.1h-17.5v-62.1h-26v-10.7h61.7M1691.1,342.7c5,0,6.2,2.2,6.3,5.7v67.1h-17.9v-72.9h11.6M1542.1,403.6h39.4v12h-55.8v-63.9h0c0-5,4-9,8.9-9h45.5v10.7h-38v19.5h30.3v10.8h-30.3v19.9ZM1411.4,377.7c2.1-1.2,3.8-2.6,5.3-4.1,1.5-1.6,2.6-3.3,3.4-5.1.8-1.9,1.2-3.8,1.2-5.9s-.6-5.5-1.8-7.9c-1.2-2.4-2.9-4.5-5.3-6.3-2.4-1.8-5.3-3.2-8.9-4.1-3.5-1-7.7-1.5-12.4-1.5h-17c-4.9,0-8.9,4-8.9,8.9v63.9h16.4v-31.5h4.3l23.4,31.5h19.4l-25.9-34.9c2.5-.8,4.8-1.8,6.8-3M1401.5,368.5c-.8,1.7-1.9,3.1-3.2,4.2-1.4,1.1-3,2-4.8,2.6-1.9.6-3.9.9-6.1.9h-3.9v-26.5h7.3c1.7,0,3.3.3,4.8,1,1.5.7,2.7,1.6,3.8,2.7,1.1,1.2,1.9,2.6,2.5,4.2.6,1.6.9,3.4.9,5.3s-.4,3.9-1.2,5.6M1318.1,340.8h-5.2c-1.3,0-2.1,1.1-2.6,2.2-8,18.3-34.2,72.5-34.2,72.5h15.4l9.3-19.9h26.8l9.1,19.9h16.8s-24.5-54.6-32.8-72.5c-.6-1.2-.9-2.2-2.6-2.2M1305.1,386.6l9.7-20.7,8.9,20.7h-18.6ZM850,340.8h-5.2c-1.3,0-2.1,1.1-2.6,2.2-8,18.3-34.2,72.5-34.2,72.5h15.4l9.3-19.9h26.8l9.1,19.9h16.8s-24.5-54.6-32.8-72.5c-.6-1.2-.9-2.2-2.6-2.2M837,386.6l9.7-20.7,8.9,20.7h-18.6ZM616.2,353.9c-14.3,0-28.4,15.6-22.7,32.8,5.3,16.1,26.2,23.3,42.7,6.5,1.3-1.4,3.1-2.1,4.9-.6l6.3,4.8c-.5.9-.9,1.7-1.5,2.5-6.9,10.9-19.5,17.4-33.7,17.4-21.7,0-39.3-17.3-39.3-38.6s17.6-38.6,39.3-38.6,31.4,13,35.4,20.6c0,0-6.2,4.4-6.3,4.5-1.9,1.4-3.5.5-4.7-.9-3.3-3.9-10.4-10.4-20.5-10.4M1875.6,380.3c2.3,0,3.9,1,3.9,4.6v19.9c-10.8,11.9-26.8,12.9-37.6,12.3-4.1-.4-8-1.2-11.6-2.4-5.1-1.8-9.5-4.3-13.2-7.5-3.7-3.2-6.6-7.1-8.6-11.7-2.1-4.5-3.1-9.6-3.1-15.2s.5-7.6,1.4-11c.9-3.5,2.3-6.7,4-9.6,1.7-2.9,3.8-5.5,6.3-7.9,2.5-2.3,5.3-4.3,8.3-5.9,3.1-1.6,6.4-2.9,10-3.7,3.6-.9,7.4-1.3,11.5-1.3s7,.5,10.3,1.5c3.3,1,6.3,2.3,9.1,4,2.8,1.7,5.3,3.6,7.6,5.7,2.2,2.1,4.1,4.4,5.6,6.6l-5.7,5.6c-1.6,1.5-3.1,1.6-4.7-.2,0,0-.2-.2-.2-.3h0c-3.5-4.2-11.1-11.4-21.3-11.4s-23.1,5.7-23.1,26.7,23.7,30.9,37.8,20.6v-13.1h-11.9v-6.3h25.2M1246.3,346.6c1.1-2.2,2.2-3.8,5.9-3.9h12.3v72.9h-17.1v-47.5l-23.8,47.5h-6.9l-24.6-48v48h-11.3v-72.9h13.5c3.4.1,4.6,1.5,5.6,3.4l23.4,46.3,22.9-45.9M1786.7,342.7c4.3,0,5.7,2,5.7,4.9v69h-14.4l-39-51v49.9h-17.3v-72.9h14.5c2.3,0,3.5,1,4.6,2.3l35.3,47v-49.3h10.5M1515.2,415.6h-21.6l-31.6-30.3v30.3h-17.1v-72.9h11.6c4,0,5.5,2,5.5,5v21.5l28.7-26.5h15.7l-32.8,31.7,41.7,41.1Z"/>
</svg>