<svg width="311" height="61" viewBox="0 0 311 61" fill="none" xmlns="http://www.w3.org/2000/svg">
<path d="M96.045 50L99.765 39.005H101.325L105.045 50H103.59L101.655 43.85C101.265 42.62 100.92 41.42 100.56 40.145H100.5C100.14 41.42 99.795 42.62 99.39 43.85L97.455 50H96.045ZM97.995 46.64V45.545H103.065V46.64H97.995ZM107.946 50.21C106.911 50.21 106.506 49.55 106.506 48.38V38.075H107.871V48.47C107.871 48.905 108.051 49.07 108.261 49.07C108.321 49.07 108.381 49.07 108.546 49.04L108.726 50.09C108.531 50.15 108.321 50.21 107.946 50.21ZM112.209 50.21C111.174 50.21 110.769 49.55 110.769 48.38V38.075H112.134V48.47C112.134 48.905 112.314 49.07 112.524 49.07C112.584 49.07 112.644 49.07 112.809 49.04L112.989 50.09C112.794 50.15 112.584 50.21 112.209 50.21ZM118.386 50V41.855H119.496L119.631 43.34H119.676C120.231 42.305 121.071 41.66 121.986 41.66C122.346 41.66 122.586 41.705 122.856 41.825L122.601 43.025C122.316 42.935 122.136 42.89 121.806 42.89C121.131 42.89 120.291 43.385 119.751 44.78V50H118.386ZM124.201 50V41.855H125.566V50H124.201ZM124.891 40.175C124.351 40.175 123.976 39.83 123.976 39.26C123.976 38.735 124.351 38.39 124.891 38.39C125.416 38.39 125.806 38.735 125.806 39.26C125.806 39.83 125.416 40.175 124.891 40.175ZM131.077 53.75C129.082 53.75 127.702 52.97 127.702 51.575C127.702 50.885 128.152 50.21 128.902 49.73V49.67C128.482 49.4 128.167 48.965 128.167 48.32C128.167 47.645 128.647 47.12 129.082 46.82V46.76C128.542 46.325 128.002 45.545 128.002 44.57C128.002 42.77 129.412 41.66 131.062 41.66C131.527 41.66 131.932 41.75 132.217 41.855H135.052V42.92H133.387C133.777 43.295 134.047 43.895 134.047 44.6C134.047 46.34 132.727 47.42 131.062 47.42C130.672 47.42 130.222 47.33 129.847 47.15C129.562 47.39 129.322 47.675 129.322 48.11C129.322 48.635 129.667 49.01 130.762 49.01H132.352C134.242 49.01 135.187 49.595 135.187 50.945C135.187 52.46 133.582 53.75 131.077 53.75ZM131.062 46.505C132.007 46.505 132.802 45.74 132.802 44.57C132.802 43.37 132.022 42.65 131.062 42.65C130.102 42.65 129.322 43.355 129.322 44.57C129.322 45.74 130.117 46.505 131.062 46.505ZM131.257 52.82C132.832 52.82 133.852 51.995 133.852 51.155C133.852 50.39 133.267 50.135 132.202 50.135H130.792C130.477 50.135 130.102 50.105 129.727 50C129.142 50.42 128.902 50.915 128.902 51.38C128.902 52.265 129.787 52.82 131.257 52.82ZM136.799 50V38.075H138.164V41.33L138.119 43.01C138.869 42.275 139.694 41.66 140.819 41.66C142.529 41.66 143.309 42.77 143.309 44.84V50H141.929V45.02C141.929 43.49 141.464 42.845 140.384 42.845C139.559 42.845 138.974 43.28 138.164 44.09V50H136.799ZM148.46 50.21C146.72 50.21 146.15 49.115 146.15 47.495V42.965H144.935V41.945L146.21 41.855L146.36 39.56H147.515V41.855H149.72V42.965H147.515V47.525C147.515 48.515 147.83 49.1 148.775 49.1C149.06 49.1 149.435 48.98 149.69 48.875L149.96 49.895C149.51 50.06 148.97 50.21 148.46 50.21ZM154.919 50V41.855H156.029L156.164 43.34H156.209C156.764 42.305 157.604 41.66 158.519 41.66C158.879 41.66 159.119 41.705 159.389 41.825L159.134 43.025C158.849 42.935 158.669 42.89 158.339 42.89C157.664 42.89 156.824 43.385 156.284 44.78V50H154.919ZM163.814 50.21C161.639 50.21 159.914 48.62 159.914 45.95C159.914 43.295 161.699 41.66 163.574 41.66C165.644 41.66 166.814 43.145 166.814 45.485C166.814 45.77 166.799 46.055 166.754 46.265H161.264C161.369 47.99 162.419 49.115 163.979 49.115C164.759 49.115 165.404 48.86 166.004 48.455L166.499 49.37C165.779 49.835 164.924 50.21 163.814 50.21ZM161.249 45.275H165.614C165.614 43.64 164.879 42.755 163.589 42.755C162.449 42.755 161.429 43.67 161.249 45.275ZM170.965 50.21C169.81 50.21 168.685 49.715 167.92 49.085L168.595 48.17C169.3 48.74 170.02 49.145 170.995 49.145C172.075 49.145 172.615 48.575 172.615 47.855C172.615 47.03 171.64 46.655 170.74 46.325C169.615 45.89 168.37 45.35 168.37 43.955C168.37 42.665 169.405 41.66 171.175 41.66C172.18 41.66 173.08 42.065 173.71 42.575L173.05 43.445C172.495 43.04 171.91 42.725 171.19 42.725C170.155 42.725 169.69 43.265 169.69 43.895C169.69 44.675 170.515 44.975 171.445 45.305C172.63 45.755 173.92 46.235 173.92 47.78C173.92 49.115 172.885 50.21 170.965 50.21ZM179.137 50.21C176.962 50.21 175.237 48.62 175.237 45.95C175.237 43.295 177.022 41.66 178.897 41.66C180.967 41.66 182.137 43.145 182.137 45.485C182.137 45.77 182.122 46.055 182.077 46.265H176.587C176.692 47.99 177.742 49.115 179.302 49.115C180.082 49.115 180.727 48.86 181.327 48.455L181.822 49.37C181.102 49.835 180.247 50.21 179.137 50.21ZM176.572 45.275H180.937C180.937 43.64 180.202 42.755 178.912 42.755C177.772 42.755 176.752 43.67 176.572 45.275ZM184.157 50V41.855H185.267L185.402 43.34H185.447C186.002 42.305 186.842 41.66 187.757 41.66C188.117 41.66 188.357 41.705 188.627 41.825L188.372 43.025C188.087 42.935 187.907 42.89 187.577 42.89C186.902 42.89 186.062 43.385 185.522 44.78V50H184.157ZM192.109 50L189.169 41.855H190.579L192.124 46.505C192.364 47.3 192.619 48.125 192.874 48.89H192.934C193.189 48.125 193.444 47.3 193.684 46.505L195.244 41.855H196.579L193.699 50H192.109ZM201.358 50.21C199.183 50.21 197.458 48.62 197.458 45.95C197.458 43.295 199.243 41.66 201.118 41.66C203.188 41.66 204.358 43.145 204.358 45.485C204.358 45.77 204.343 46.055 204.298 46.265H198.808C198.913 47.99 199.963 49.115 201.523 49.115C202.303 49.115 202.948 48.86 203.548 48.455L204.043 49.37C203.323 49.835 202.468 50.21 201.358 50.21ZM198.793 45.275H203.158C203.158 43.64 202.423 42.755 201.133 42.755C199.993 42.755 198.973 43.67 198.793 45.275ZM209.139 50.21C207.099 50.21 205.779 48.665 205.779 45.95C205.779 43.295 207.459 41.66 209.319 41.66C210.264 41.66 210.894 42.005 211.599 42.605L211.539 41.195V38.075H212.904V50H211.779L211.659 49.04H211.629C210.984 49.685 210.129 50.21 209.139 50.21ZM209.439 49.055C210.204 49.055 210.864 48.68 211.539 47.945V43.67C210.849 43.04 210.219 42.8 209.544 42.8C208.239 42.8 207.204 44.075 207.204 45.935C207.204 47.885 208.014 49.055 209.439 49.055Z" fill="white"/>
<g clip-path="url(#clip0_151_275)">
<path d="M225.238 12.4973C225.238 18.9103 219.959 24.1078 213.446 24.1078C206.932 24.1078 201.653 18.9103 201.653 12.4973C201.653 6.08424 206.932 0.886719 213.446 0.886719C219.959 0.886719 225.238 6.08424 225.238 12.4973Z" fill="white"/>
<path d="M213.44 24.1078C219.953 24.1078 225.232 18.9096 225.232 12.4973C225.232 6.08493 219.953 0.886719 213.44 0.886719C206.927 0.886719 201.647 6.08493 201.647 12.4973C201.647 18.9096 206.927 24.1078 213.44 24.1078Z" stroke="white" stroke-width="1.49934" stroke-miterlimit="10"/>
<path d="M210.398 7.90157C213.562 4.94512 217.471 2.96361 219.664 3.47007C217.889 2.28622 215.748 1.58984 213.44 1.58984C207.312 1.58984 202.354 6.47716 202.354 12.5103C202.354 15.0869 203.261 17.4546 204.779 19.3222C203.891 16.4417 206.875 11.1999 210.398 7.9079" fill="#C7000B"/>
<path d="M221.117 4.62866C221.708 5.95178 221.001 8.09156 218.551 10.6872C215.613 13.7892 213.439 15.182 212.031 14.3273C210.617 13.4727 214.095 8.97153 215.182 8.33213C216.269 7.69273 215.831 9.61727 215.831 9.61727C215.831 9.61727 220.615 6.72413 219.201 5.12246C218.288 4.09055 213.658 7.36986 211.157 10.5795C208.656 13.7892 207.286 17.0622 208.765 18.6069C210.61 20.5314 214.854 17.9612 218.442 15.2896C219.747 14.3273 219.747 14.9667 219.31 15.6125C219.31 15.6125 212.758 23.7727 206.913 21.3291C208.746 22.6459 211.003 23.4246 213.439 23.4246C219.567 23.4246 224.531 18.5372 224.531 12.5104C224.531 9.41468 223.219 6.62284 221.117 4.63499" fill="#C7000B"/>
<path d="M260.873 9.30077C260.873 9.1425 260.751 9.01589 260.583 9.01589H257.864C258.011 8.76899 258.159 8.49044 258.339 8.1929L258.462 7.99031H260.313V6.93308C260.313 6.77482 260.178 6.64187 260.018 6.64187H255.452C255.33 6.30634 255.182 5.93916 255.022 5.64795L253.292 5.95815C253.382 6.16074 253.472 6.41397 253.543 6.6482H248.489V7.99665H250.579C250.611 8.05362 250.649 8.13592 250.688 8.21822C250.791 8.45246 250.913 8.74367 250.984 9.02222H247.987V10.3707H260.866V9.31343L260.873 9.30077ZM256.05 9.01589H252.784C252.694 8.70569 252.533 8.31318 252.366 7.99031H256.468C256.365 8.30052 256.198 8.68036 256.05 9.01589Z" fill="white"/>
<path d="M256.41 17.954H253.298C252.629 17.954 252.391 17.9097 252.391 17.5299V16.2954C252.391 16.1371 252.263 16.0105 252.102 16.0042H250.668V17.5425C250.668 18.9226 251.247 19.3468 253.118 19.3468H257.059C258.442 19.3468 258.731 18.4225 258.744 16.9031H257.124C257.046 17.9287 256.963 17.954 256.41 17.954Z" fill="white"/>
<path d="M259.612 15.3587V11.1867C259.612 11.0285 259.483 10.9018 259.323 10.8955H249.215V15.365H253.574L253.086 15.9538C253.934 16.4665 254.802 17.3022 255.355 17.7517L256.596 16.6818C256.223 16.3906 255.31 15.7385 254.603 15.365H259.618L259.612 15.3587ZM250.887 11.9781H257.857V12.6111H250.887V11.9781ZM250.887 13.6051H257.857V14.2635H250.887V13.6051Z" fill="white"/>
<path d="M247.485 18.6631H249.434C249.787 17.8844 250.167 16.5992 250.379 16.0042H248.784C248.418 16.8335 247.8 18.1629 247.492 18.6631" fill="white"/>
<path d="M259.613 15.6816L258.507 16.359C259.086 17.0111 260.172 18.2456 260.507 18.733L261.754 17.6505C261.426 17.239 259.986 15.9982 259.606 15.6753" fill="white"/>
<path d="M241.75 8.4145C241.75 8.25624 241.615 8.12329 241.455 8.12329H240.085V16.3026H241.75V8.4145Z" fill="white"/>
<path d="M244.245 6.15401C244.245 5.99574 244.11 5.86279 243.949 5.86279H242.547V17.3974C242.547 17.6443 242.445 17.7202 242.207 17.7202C241.969 17.7202 241.197 17.7202 240.438 17.7076L240.959 19.4548C242.149 19.4548 242.998 19.3979 243.518 19.1003C244.071 18.8218 244.245 18.3533 244.245 17.4164V6.15401Z" fill="white"/>
<path d="M238.883 15.5994H233.655C233.687 15.4538 233.7 15.1689 233.726 15.0233H238.896V10.7121C238.896 10.5475 238.761 10.4209 238.6 10.4209H232.273V12.1049C232.273 13.8205 232.151 16.5554 230.98 18.4166H232.864C233.128 17.8278 233.334 17.0808 233.482 16.4161V19.2586H239.185V15.8843C239.185 15.726 239.05 15.5994 238.889 15.5994M233.906 12.1049V11.5668H237.282V12.1935H233.906V12.1049ZM233.88 13.1684H237.288V13.8205H233.848C233.861 13.6179 233.88 13.3584 233.88 13.1684ZM237.629 17.9734H234.948V16.7326H237.629V17.9734Z" fill="white"/>
<path d="M236.818 6.12227L235.725 5.54617C235.526 5.44488 235.423 5.42589 235.198 5.69178C234.118 6.99591 232.838 8.34435 230.974 10.079H233.237C233.52 9.81941 233.861 9.51553 234.092 9.23698V9.92703H237.706V9.17367C238.265 9.59783 238.747 9.97767 238.895 10.098L239.75 8.64189C239.069 8.13544 237.648 7.17317 236.548 6.50844C236.638 6.38183 236.728 6.26154 236.818 6.12227ZM237.281 8.84448H234.439C234.787 8.48996 235.262 7.95818 235.597 7.60366C235.822 7.74926 236.555 8.30004 237.281 8.84448Z" fill="white"/>
<path d="M310.37 9.88906H308.017V6.12862C308.017 5.97668 307.894 5.85006 307.74 5.8374H306.319V9.88906H303.696V14.4092C303.696 15.802 303.458 18.176 302.789 19.3661H304.532C304.724 18.7774 305.046 17.4416 305.13 16.8022C305.425 16.6946 307.894 16.1058 309.071 15.8019V17.5872C309.071 17.7771 308.994 17.8531 308.775 17.8531C308.55 17.8658 307.837 17.8658 307.155 17.8214L307.644 19.4358C308.73 19.4358 309.438 19.4231 309.958 19.1572C310.511 18.8913 310.659 18.4229 310.659 17.6189V10.1803C310.659 10.022 310.531 9.89539 310.37 9.88906ZM309.071 14.3649C307.624 14.6877 306.3 15.0106 305.245 15.2132C305.252 15.0739 305.252 14.0357 305.245 13.0607C305.245 12.1238 305.245 11.3578 305.245 11.3578H309.071V14.3649Z" fill="white"/>
<path d="M302.84 17.0997L301.124 17.3656V13.5798H302.866V12.0984H301.124V10.9146H302.333V9.83838C302.603 10.0979 302.815 10.3069 302.905 10.3828L303.67 9.08502C303.091 8.55957 302.352 7.83787 301.284 6.98956C301.329 6.92625 301.503 6.65403 301.587 6.54008L300.622 5.96398C300.391 5.8437 300.288 5.79938 300.056 6.0716C299.208 7.17315 298.063 8.43296 296.526 10.022H298.089V10.9146H299.696V12.0984H297.626V13.5798H299.696V17.5998C298.995 17.7075 298.179 17.8024 297.626 17.8847V19.518C299.073 19.1888 301.098 18.8217 302.898 18.3912L302.84 17.0934V17.0997ZM299.105 9.54717C299.581 9.03438 300.256 8.31268 300.461 8.09743C300.693 8.24937 301.419 8.95208 302.03 9.54717H299.111H299.105Z" fill="white"/>
<path d="M301.394 16.5619L302.442 16.8785C302.686 16.2644 302.982 15.3211 303.271 14.4918L301.934 14.1626C301.799 14.9476 301.599 15.8529 301.394 16.5619Z" fill="white"/>
<path d="M299.355 16.8334C299.246 16.1497 299.002 15.0735 298.751 14.2505L297.562 14.5544C297.78 15.371 298.012 16.4536 298.089 17.1816L299.355 16.8334Z" fill="white"/>
<path d="M305.837 9.02172C305.644 8.40131 305.239 7.25545 304.75 6.46411L303.336 7.09718C304.03 8.26837 304.288 9.33193 304.39 9.59782L305.844 9.02805L305.837 9.02172Z" fill="white"/>
<path d="M311 7.06551L309.508 6.54639C309.225 7.42003 308.923 8.30633 308.505 9.07234L309.977 9.62311C310.389 8.85077 310.717 8.04044 311 7.07184" fill="white"/>
<path d="M308.956 13.0733C308.274 12.6745 306.943 12.225 305.921 12.0161L305.252 13.048C306.281 13.3329 307.541 13.833 308.197 14.2445L308.956 13.0733Z" fill="white"/>
<path d="M293.929 10.4587H286.444V12.1174H290.354V17.4479C290.354 17.6694 290.251 17.7264 289.981 17.7264C289.711 17.7391 288.733 17.7391 287.885 17.6947L288.418 19.4674C289.743 19.4674 290.72 19.4357 291.344 19.1761C292 18.9102 292.18 18.4291 292.18 17.4922V12.1174H294.218V10.75C294.218 10.5917 294.089 10.4714 293.929 10.4651" fill="white"/>
<path d="M293.954 7.05928C293.954 6.90101 293.826 6.76807 293.665 6.76807H286.721V8.42671H293.954V7.05928Z" fill="white"/>
<path d="M285.267 8.91399C284.991 8.80004 284.875 8.76205 284.675 9.03428C284.675 9.03428 284.675 9.03427 284.675 9.04061C283.434 10.7309 281.885 12.4592 280.387 13.9469H282.676V19.4167H284.444V12.13C285.055 11.345 286.006 10.1358 286.45 9.3888L285.267 8.90766V8.91399Z" fill="white"/>
<path d="M282.779 9.98429C283.499 9.18029 284.618 7.79386 285.351 6.77462L284.2 6.30614L284.116 6.27449C283.981 6.22384 283.852 6.20485 283.672 6.43909C283.66 6.45808 283.647 6.47074 283.634 6.4834C282.695 7.69257 281.39 9.06634 280.496 9.98429H282.779Z" fill="white"/>
<path d="M274.819 13.6681C275.475 13.2313 276.272 12.6552 276.87 12.1994L275.771 11.2435C275.552 11.0599 275.43 11.1358 275.295 11.2498C274.575 11.9145 273.526 12.6869 272.607 13.2946C272.311 12.6616 271.88 12.0475 271.295 11.522C271.623 11.3194 271.919 11.0092 272.189 10.775H275.43V9.6418C275.43 9.48353 275.301 9.35692 275.14 9.35059H267.174V10.775H269.791C268.376 11.4777 266.621 12.1234 264.943 12.4653L265.849 13.8264C267.251 13.4592 268.691 12.9591 269.99 12.288C270.119 12.4083 270.299 12.6489 270.389 12.8261C269.096 13.6745 266.672 14.5481 264.84 14.9279L265.721 16.2764C267.418 15.7636 269.572 14.8203 271.064 13.896C271.154 14.086 271.263 14.3202 271.321 14.4975C269.636 15.7889 266.974 16.9348 264.621 17.4349L265.547 18.8846C267.527 18.2959 269.906 17.1817 271.604 16.0358C271.604 16.7385 271.385 17.3083 271.16 17.5679C270.916 17.8527 270.684 17.9034 270.324 17.9034C269.964 17.9034 269.508 17.8907 268.987 17.8274L269.463 19.4861C269.894 19.4987 270.344 19.5177 270.672 19.4987C271.443 19.4861 271.919 19.3405 272.472 18.8467C273.199 18.1883 273.565 16.5106 273.147 14.7507C273.321 14.6367 273.449 14.5418 273.597 14.4405C274.33 16.2131 275.436 17.7008 276.87 18.6188L278.33 17.3589C276.825 16.5486 275.668 15.3205 274.838 13.6745" fill="white"/>
<path d="M266.493 8.47785H276.015V10.2884H277.706V7.35098C277.706 7.19271 277.571 7.0661 277.417 7.0661H272.408C272.26 6.64194 272.003 6.07218 271.765 5.67334L269.888 6.19879C270.01 6.42036 270.138 6.78122 270.248 7.05977H264.859V10.2884H266.493V8.47785Z" fill="white"/>
<path d="M44.8675 6.94427V3.81689C39.19 5.87438 32.4193 6.98858 25.3014 6.98858C18.1836 6.98858 11.4194 5.88071 5.73535 3.81689V6.94427C11.5287 8.89413 18.2672 9.9387 25.3014 9.9387C32.3357 9.9387 39.0742 8.89413 44.8675 6.94427Z" fill="#DCA435"/>
<path d="M50.6031 13.9774C42.6043 12.4454 34.0719 11.6414 25.3015 11.6414C16.5312 11.6414 7.99876 12.4454 0 13.9774V16.9782C6.3077 15.7373 12.9755 14.9713 19.8426 14.7054C17.2642 17.7378 12.0817 20.1625 5.74187 21.2767V24.2901C14.3386 22.9164 20.9807 19.2889 23.5012 14.6105C24.0992 14.6041 24.7036 14.5915 25.3015 14.5915C25.8995 14.5915 26.5039 14.6041 27.1019 14.6105C29.6224 19.2889 36.2645 22.9164 44.8612 24.2901V21.2767C38.5214 20.1625 33.3389 17.7378 30.7605 14.7054C37.6276 14.9713 44.2954 15.7373 50.6031 16.9782V13.9774Z" fill="#DCA435"/>
<path d="M62.0938 19.9349C61.7787 19.9349 61.6244 19.8336 61.6244 19.6373C61.6822 18.7637 61.7272 17.8837 61.7465 16.9974V15.516C61.2707 16.9911 60.6213 18.0989 59.7854 18.8396L59.5732 18.7194C59.6954 18.3142 59.7919 17.9407 59.8754 17.6051C59.9783 17.1177 60.0362 16.5796 60.0619 15.9718C60.0876 15.3704 60.0683 14.8639 60.0105 14.4588L61.7465 14.845V13.4965C61.3672 13.6421 61.0007 13.7814 60.647 13.8954C60.557 14.0916 60.4156 14.1992 60.2227 14.2245L59.5925 12.357C60.0233 12.357 60.6213 12.3443 61.3865 12.3127C61.6501 11.7556 61.9201 11.1478 62.2159 10.4704C62.666 9.38155 62.9682 8.43194 63.1225 7.62161C64.2349 8.08375 64.9358 8.41295 65.2187 8.60287C65.4309 8.74215 65.4437 8.83711 65.2637 8.88775L64.9743 8.96372C64.4728 9.61579 63.9648 10.2299 63.4505 10.806L63.5083 10.7933C64.3506 11.0908 64.955 11.4833 65.3151 11.9645C65.6238 12.3696 65.7331 12.7685 65.6302 13.1673C65.5402 13.5408 65.328 13.7814 65 13.8764C64.64 13.9776 64.2928 13.8637 63.9584 13.5345C63.9584 13.2053 63.9327 12.9204 63.8813 12.6735L63.6241 12.7938V14.2942L63.7141 14.2625C64.4857 14.6171 65.0386 15.0412 65.373 15.535C65.643 15.9528 65.7266 16.358 65.6302 16.7505C65.5402 17.1177 65.3408 17.3456 65.0258 17.4342C64.685 17.5229 64.3635 17.4026 64.0613 17.0797C64.0934 16.3707 63.9456 15.516 63.6241 14.5284V16.1617C63.6562 17.5355 63.6884 18.5991 63.7269 19.3524C63.6562 19.479 63.489 19.6057 63.2318 19.7259C62.8911 19.8715 62.5117 19.9475 62.0873 19.9475L62.0938 19.9349ZM60.5442 10.7047C60.4541 9.95131 60.1391 9.19796 59.5925 8.45093L59.7276 8.37497C60.2612 8.4636 60.6985 8.59021 61.0393 8.76114V8.72949C61.3093 7.65959 61.4443 6.65934 61.4443 5.71606C62.6467 6.10224 63.4054 6.38079 63.7205 6.54539C63.9391 6.66567 63.9648 6.76063 63.7784 6.83027L63.489 6.95055C62.8975 7.72923 62.2288 8.42561 61.4829 9.02703C61.8944 9.3309 62.0873 9.69175 62.068 10.0969C62.0552 10.4641 61.8944 10.7173 61.5729 10.8693C61.2386 11.0402 60.8978 10.9832 60.5313 10.7047H60.5442ZM62.0938 12.281C62.576 12.2494 63.1418 12.224 63.7977 12.1924C63.6948 11.7682 63.5598 11.3314 63.3926 10.8883C62.9425 11.3947 62.5053 11.8569 62.1002 12.281H62.0938ZM64.177 19.9032L64.087 19.7386C65.4501 18.7194 66.2796 17.2823 66.5561 15.4211C66.6075 15.1235 66.6204 14.6677 66.6011 14.0536C66.5818 13.5218 66.5432 13.0597 66.4982 12.6672C66.4532 12.2747 66.4211 12.2177 66.4082 12.4963L67.8871 12.4836L69.1988 12.5406C69.1666 12.8001 68.993 12.9457 68.6715 12.9837C68.6136 14.6677 68.3114 16.0035 67.7649 16.9911C67.064 18.2889 65.8681 19.2575 64.177 19.8969V19.9032ZM65.8488 12.7685L65.0644 10.5147C65.7974 10.5147 66.4275 10.5147 66.9612 10.5021C67.1733 9.67276 67.3212 8.95106 67.4113 8.33698H66.6397C66.2153 8.34964 65.7781 8.41928 65.3151 8.54589L64.9229 7.8052C65.463 7.86218 66.1188 7.90649 66.884 7.92548H67.8163C67.8163 7.07717 67.7778 6.39978 67.6942 5.89332C68.9094 6.12123 69.681 6.29216 70.0154 6.41244C70.234 6.50107 70.279 6.59603 70.1504 6.69733L69.9253 6.84293V7.92548H70.7548L71.2049 7.28608C71.2435 7.23544 71.3078 7.15947 71.3849 7.04552C71.5778 6.77963 71.7 6.64668 71.7643 6.64668C71.8672 6.64668 72.1694 6.86192 72.6837 7.29241C73.1981 7.7229 73.4553 7.99512 73.4553 8.10274C73.4168 8.26101 73.2817 8.34331 73.0503 8.34331H69.8546C69.1023 9.22328 68.4143 9.93865 67.8035 10.4958C68.3436 10.4831 69.2373 10.4641 70.4719 10.4198H70.6969C70.504 10.0336 70.2275 9.54615 69.8675 8.96372L69.9896 8.88775C71.0763 9.13465 71.8929 9.52083 72.4458 10.0463C72.9088 10.4831 73.1403 10.9516 73.1403 11.458C73.1274 11.9138 72.9474 12.2367 72.6002 12.4203C72.2272 12.6102 71.8286 12.5469 71.3913 12.2304C71.3142 11.8632 71.1663 11.439 70.9541 10.9516C69.7774 11.3884 68.2278 11.8885 66.2989 12.4519C66.196 12.6292 66.0481 12.7368 65.8488 12.7811V12.7685ZM70.8062 19.5613C70.1954 19.5613 69.7967 19.4411 69.6167 19.2068C69.4431 18.9979 69.3595 18.5738 69.3595 17.928V15.1235C69.3595 13.9776 69.3016 13.0154 69.1795 12.243C70.3433 12.4709 71.0827 12.6482 71.3913 12.7748C71.6035 12.8634 71.6357 12.9584 71.4942 13.0597L71.2692 13.2053V17.3583C71.2692 17.5165 71.3335 17.5988 71.4621 17.5988H72.0343C72.1565 17.5798 72.2465 17.5229 72.3044 17.4216C72.3944 17.2443 72.6066 16.6049 72.9345 15.5097H73.0824L73.1274 17.5292C73.3267 17.6368 73.4618 17.7571 73.5325 17.8837C73.5839 17.985 73.6097 18.1369 73.6097 18.3458C73.6097 19.1562 72.9088 19.5613 71.5006 19.5613H70.7934H70.8062Z" fill="white"/>
<path d="M75.886 19.9347C75.8538 19.2637 75.7638 18.8015 75.6159 18.5546C75.4359 18.2381 75.1016 18.0292 74.6065 17.9342V17.7443C75.0565 17.7633 75.5131 17.7886 75.9632 17.8203C76.1368 17.8203 76.2204 17.7443 76.2204 17.5987V14.4523L75.706 14.8068C75.6352 15.0347 75.5002 15.174 75.3009 15.2373L74.5293 12.895C74.7736 12.8443 75.333 12.7114 76.2139 12.4961V9.82456H75.7445C75.4938 9.83722 75.243 9.90053 74.9922 10.0335L74.6 9.29278C74.9022 9.34975 75.2752 9.39407 75.7124 9.41306H76.2075V8.79265C76.2075 7.5455 76.1432 6.53258 76.0146 5.75391C76.8505 5.92484 77.4549 6.05778 77.8342 6.17173C78.175 6.27302 78.3744 6.36165 78.4387 6.43762C78.4901 6.48827 78.4579 6.54525 78.3486 6.61488L78.0914 6.77948V9.36241L78.4258 8.6787C78.4579 8.62172 78.4965 8.53309 78.548 8.42547C78.6959 8.12793 78.8052 7.98232 78.863 7.98232C78.953 7.98232 79.1781 8.22289 79.5317 8.71035C79.8854 9.19782 80.0654 9.48903 80.0654 9.60298C80.0333 9.76125 79.9111 9.84355 79.6861 9.84355H78.0914V12.0276C78.7537 11.8504 79.3195 11.6921 79.7761 11.5528L79.8082 11.6858C79.3388 12.1036 78.7666 12.5721 78.0914 13.0975V17.738C78.0914 18.4723 77.9628 18.9851 77.7121 19.2826C77.4034 19.6562 76.7862 19.8841 75.8731 19.9664L75.886 19.9347ZM79.9818 19.9347L79.8789 19.7448C80.8113 19.1117 81.6279 18.314 82.3223 17.3581C82.9781 16.4465 83.4797 15.4462 83.8462 14.3447H83.7883C82.856 16.016 81.2228 17.3328 78.8887 18.2887L78.7666 18.0988C80.0011 17.2062 80.9785 16.0413 81.6922 14.5979C80.8049 15.2816 79.7439 15.8704 78.4965 16.3768L78.3744 16.1869C79.5189 15.3639 80.4383 14.2371 81.1328 12.7873H80.5026C80.1619 12.8 79.8082 12.8633 79.4481 12.9962L79.0688 12.2556C79.6218 12.3125 80.2905 12.3568 81.0749 12.3758H85.7173L86.5017 11.3503C86.1931 11.4705 85.9037 11.5275 85.6401 11.5275H85.28V10.9957H82.3544V11.3376C82.3544 11.4389 82.1744 11.5592 81.8143 11.7111C81.4221 11.882 81.0428 11.9643 80.6698 11.9643C80.4191 11.9643 80.2905 11.863 80.2905 11.6668C80.329 11.23 80.3612 10.6729 80.3805 9.98916V8.99523C80.3805 7.74808 80.3162 6.7415 80.1876 5.96915L82.4316 6.84279H85.1257L85.5501 6.33633C85.5501 6.33633 85.6208 6.26036 85.6723 6.20339C85.8844 5.95649 86.0259 5.82987 86.0966 5.82987C86.1995 5.82987 86.521 6.04512 87.074 6.46928C87.6269 6.89344 87.9034 7.15933 87.9034 7.27328C87.7813 7.41888 87.5948 7.53284 87.3312 7.60248V10.8818C87.3312 10.9578 87.1897 11.0654 86.9068 11.192C86.9389 11.2236 86.9904 11.268 87.074 11.3249C87.7684 11.882 88.2699 12.2872 88.5786 12.5594C88.5464 12.7177 88.4114 12.8 88.1735 12.8H83.3639C83.1132 13.1862 82.8045 13.566 82.4445 13.9395H85.788L86.2702 13.4647C86.3217 13.4267 86.386 13.3634 86.4631 13.2748C86.6625 13.0785 86.7975 12.9773 86.8554 12.9773C86.9582 12.9773 87.254 13.1925 87.762 13.623C88.2699 14.0535 88.5143 14.3257 88.5143 14.4333C88.405 14.5726 88.2056 14.6612 87.9291 14.6992C87.8391 16.1553 87.6977 17.2315 87.5048 17.9342C87.3054 18.6369 87.0097 19.1244 86.6175 19.4029C86.1224 19.7385 85.4794 19.9094 84.6885 19.9094C84.7078 19.2573 84.6306 18.8142 84.4442 18.5736C84.232 18.2887 83.859 18.0735 83.3318 17.9342C82.4252 18.7255 81.3128 19.3966 79.9883 19.9537L79.9818 19.9347ZM82.348 8.70402H85.2736V7.24796H82.348V8.70402ZM82.348 10.5716H85.2736V9.11552H82.348V10.5716ZM84.8042 17.8266C84.9971 17.8266 85.145 17.7886 85.2543 17.7063C85.563 17.4594 85.788 16.3389 85.9166 14.3384H85.8587C85.3636 15.6362 84.5856 16.7757 83.5054 17.7633C84.1098 17.8013 84.5406 17.8203 84.8042 17.8203V17.8266Z" fill="white"/>
<path d="M102.254 19.8145C101.83 19.6753 101.425 19.422 101.033 19.0422C100.692 18.7067 100.415 18.3901 100.203 18.0926C99.2581 18.8523 98.1072 19.4157 96.7504 19.7829L96.6283 19.593C97.7728 18.9409 98.7308 18.0673 99.5089 16.9847C99.0781 16.1934 98.7373 15.2691 98.4865 14.2118H97.5542C97.522 14.6297 97.4642 15.0412 97.3741 15.459C98.03 15.6173 98.4865 15.8705 98.763 16.2187C98.9816 16.5036 99.0395 16.8074 98.9302 17.124C98.8273 17.4089 98.628 17.5924 98.3258 17.6747C98.0043 17.7634 97.6956 17.6747 97.3934 17.4089C97.4256 17.0164 97.3613 16.6049 97.2005 16.1934C96.699 17.795 95.6188 19.0295 93.9599 19.9032L93.812 19.7132C94.5321 18.9219 95.0337 18.0039 95.3037 16.9657C95.4838 16.2947 95.5931 15.3767 95.6188 14.2245H95.0915C94.9887 14.522 94.8022 14.7056 94.5321 14.7753C94.2428 14.8512 93.9663 14.7563 93.7027 14.4777C93.7413 13.7434 93.5998 12.9963 93.2783 12.2367V15.8135C93.2976 17.0417 93.3362 18.2002 93.4005 19.3017C93.3298 19.4284 93.1369 19.5613 92.8154 19.7006C92.4617 19.8462 92.1145 19.9222 91.7737 19.9222C91.4329 19.9222 91.2593 19.8209 91.2593 19.6246C91.2593 19.5676 91.2593 19.4853 91.2722 19.384C91.3429 18.3458 91.3879 17.3076 91.4072 16.2693V14.4461C90.9443 15.1488 90.3784 15.8072 89.7033 16.4213L89.5361 16.2757C90.327 14.7816 90.88 12.7051 91.195 10.0462H90.7707C90.5521 10.0589 90.327 10.1222 90.1084 10.2551L89.7162 9.51445C90.0248 9.57143 90.4106 9.61575 90.8607 9.63474H91.4008V8.83074C91.4008 7.58359 91.3365 6.57067 91.2079 5.79199C92.0438 5.96925 92.6482 6.11486 93.0275 6.22248C93.3683 6.32377 93.5677 6.4124 93.632 6.48837C93.6834 6.53902 93.6512 6.59599 93.5419 6.66563L93.2719 6.83023V9.34986L93.5291 8.86239C93.5291 8.86239 93.5741 8.78642 93.6062 8.71678C93.7348 8.48888 93.8313 8.37492 93.8956 8.37492C93.9856 8.37492 94.2042 8.59017 94.5579 9.01433C94.9115 9.43849 95.0851 9.70438 95.0851 9.81833C95.053 9.9766 94.9308 10.0589 94.7057 10.0589H93.2719V11.8252C93.902 12.0911 94.3843 12.4203 94.7057 12.8064C94.9758 13.1356 95.1237 13.4712 95.143 13.832H98.3836C98.3515 13.6927 98.3129 13.4838 98.2615 13.1926L98.1714 12.6608C98.03 12.7495 97.8692 12.7874 97.6892 12.7621C97.5092 12.7305 97.3356 12.6355 97.162 12.4646C97.162 12.2557 97.1491 12.0467 97.1169 11.8442C96.6926 12.1417 96.1846 12.4899 95.5931 12.8824C95.5031 13.0723 95.3745 13.1799 95.2008 13.2116L94.3585 11.477C94.4614 11.477 94.6479 11.477 94.9179 11.4643C95.1494 11.4453 95.323 11.4327 95.4452 11.4327C95.5159 11.2427 95.6188 10.9452 95.7602 10.5274C95.8503 10.2488 95.921 10.0399 95.9724 9.90696C95.6895 10.0082 95.4066 9.94494 95.1301 9.7297C95.1108 9.44482 95.0272 9.12828 94.8729 8.79275C94.7443 8.49521 94.5836 8.23565 94.4036 8.00774L94.5386 7.91911C94.7508 7.93811 95.0015 7.98875 95.2909 8.06472C95.413 7.26705 95.4709 6.53902 95.4709 5.89961C96.4354 6.23514 97.0334 6.47571 97.2648 6.62765C97.4449 6.73527 97.4513 6.8239 97.2777 6.89354L97.0076 6.99483C96.5383 7.53927 96.146 7.96976 95.831 8.28629C96.0496 8.42557 96.2168 8.57751 96.3261 8.74844L96.5511 8.00774L97.8307 8.52686C97.8114 7.39999 97.7985 6.52636 97.7985 5.91861C98.8723 6.0199 99.5474 6.10853 99.8175 6.20349C100.017 6.26047 100.036 6.3491 99.8754 6.45672L99.6182 6.62132C99.6053 6.9062 99.6053 7.33036 99.6053 7.89379L99.6503 7.86214C99.8689 7.89379 100.062 7.93811 100.223 7.99508C100.351 7.20374 100.409 6.50736 100.39 5.90595C101.393 6.26047 102.017 6.51369 102.261 6.66563C102.441 6.78591 102.447 6.88088 102.274 6.95051L101.984 7.05181C101.586 7.45697 101.174 7.84314 100.763 8.21033C100.994 8.33694 101.161 8.48888 101.277 8.65348L101.399 8.21033L101.444 8.07738C101.515 7.86214 101.579 7.74818 101.637 7.74818C101.759 7.74818 102.087 7.85581 102.614 8.07738C103.18 8.30529 103.457 8.46989 103.457 8.56485C103.367 8.7611 103.18 8.84973 102.897 8.81808C102.705 9.05864 102.409 9.41316 102.01 9.88797L102.068 9.8753C102.692 10.1602 103.129 10.502 103.38 10.9009C103.592 11.2301 103.643 11.5403 103.547 11.8378C103.47 12.1164 103.296 12.2873 103.032 12.3569C102.75 12.4139 102.492 12.319 102.248 12.0594C102.261 11.9138 102.248 11.6796 102.235 11.363C101.791 11.6416 101.322 11.9201 100.821 12.2113C101.341 12.2303 101.708 12.3506 101.92 12.5659C102.1 12.7431 102.145 12.9457 102.055 13.1736C101.965 13.4015 101.798 13.5471 101.56 13.6168C101.277 13.7054 101.001 13.6547 100.731 13.4712C100.718 13.1863 100.621 12.8824 100.428 12.5659C100.37 12.5849 100.325 12.5975 100.293 12.5975L99.7082 10.9642C99.7854 12.0594 99.9332 13.028 100.145 13.8573H101.714L102.049 13.3255C102.081 13.2749 102.126 13.2053 102.184 13.1166C102.325 12.8887 102.428 12.7748 102.486 12.7748C102.576 12.7748 102.807 12.9584 103.174 13.3255C103.54 13.6927 103.727 13.927 103.727 14.0346C103.695 14.1929 103.573 14.2752 103.347 14.2752H101.341C102.145 14.6233 102.64 14.8702 102.833 15.0158C102.975 15.1361 102.955 15.2121 102.775 15.2564L102.473 15.3134C102.209 15.8452 101.894 16.3453 101.521 16.7948C101.669 16.9657 101.849 17.143 102.049 17.3266C102.152 17.4342 102.229 17.4848 102.293 17.4722C102.357 17.4595 102.422 17.3962 102.486 17.2633C102.775 16.7568 103.071 16.1427 103.36 15.4084L103.528 15.44L103.193 18.0039C103.663 18.8523 103.778 19.4094 103.528 19.6626C103.206 19.9791 102.782 20.0488 102.248 19.8715L102.254 19.8145ZM95.9724 11.3567L97.0141 11.2997C96.9626 11.1225 96.8855 10.8692 96.789 10.54L96.7762 10.4957C96.744 10.5337 96.699 10.5907 96.6283 10.6603C96.3389 10.9768 96.1203 11.2111 95.9789 11.3567H95.9724ZM97.9593 10.8566C97.94 10.6097 97.9207 10.2362 97.9014 9.7297C97.8885 9.4828 97.8821 9.29921 97.8693 9.17893C97.7921 9.26756 97.6763 9.40683 97.522 9.59675C97.2713 9.90063 97.0784 10.1285 96.9498 10.2805C97.3806 10.4577 97.7214 10.654 97.9593 10.8566ZM99.721 10.8249H100.486C100.563 10.6287 100.686 10.2995 100.846 9.84365C100.615 9.8943 100.377 9.81833 100.139 9.62208C100.152 9.35619 100.1 9.0713 99.9911 8.77376C99.9011 8.48888 99.7725 8.24198 99.6117 8.03307C99.6117 9.06497 99.6439 9.98926 99.7146 10.8249H99.721ZM100.583 15.0665C100.66 14.8892 100.776 14.6044 100.917 14.2055H100.287C100.409 14.598 100.505 14.8892 100.589 15.0665H100.583ZM101.168 10.8123L102.177 10.7679C102.126 10.521 102.049 10.2425 101.933 9.93861C101.592 10.3311 101.335 10.6287 101.161 10.8123H101.168Z" fill="white"/>
<path d="M106.82 19.9222C106.466 19.9222 106.293 19.8209 106.293 19.6247C106.363 18.6244 106.408 17.5229 106.428 16.3137V14.5031C105.997 15.1742 105.476 15.8199 104.859 16.434L104.679 16.2884C105.379 14.807 105.862 12.7179 106.125 10.0273H105.701C105.482 10.04 105.257 10.1033 105.039 10.2362L104.646 9.49554C104.981 9.55251 105.379 9.59683 105.855 9.61582H106.428V8.7675C106.428 7.52035 106.363 6.50744 106.235 5.72876C107.077 5.89969 107.694 6.03263 108.086 6.14659C108.44 6.24788 108.646 6.33651 108.704 6.41248C108.755 6.46312 108.723 6.5201 108.614 6.58974L108.344 6.767V9.5715L108.678 8.99541C108.678 8.99541 108.729 8.91944 108.768 8.8498C108.942 8.55226 109.057 8.40665 109.128 8.40665C109.218 8.40665 109.456 8.61557 109.842 9.02073C110.228 9.43223 110.421 9.69179 110.421 9.79941C110.388 9.95768 110.266 10.04 110.041 10.04H108.337V11.1542C109.225 11.4201 109.823 11.8062 110.144 12.3127C110.144 11.9835 110.131 11.686 110.099 11.4074L112.073 12.2684H112.857V11.2302H111.726C111.07 11.2428 110.382 11.3061 109.649 11.4391L109.257 10.6984C109.636 10.7553 110.093 10.7997 110.613 10.8187H111.244V9.53985H110.909C110.768 9.55251 110.62 9.61582 110.459 9.74876L110.067 9.00807C110.298 9.06505 110.568 9.10936 110.883 9.12835H111.244V7.92552H110.774C110.523 7.93818 110.26 8.00782 109.99 8.13443L109.597 7.39374C109.9 7.45071 110.273 7.49503 110.71 7.51402H111.237C111.237 6.89361 111.205 6.3555 111.147 5.91235C112.163 6.12759 112.812 6.30485 113.089 6.43147C113.282 6.5201 113.314 6.6024 113.192 6.6847L112.999 6.80498V7.51402H114.143C114.143 6.89361 114.111 6.3555 114.053 5.91235C115.089 6.12759 115.738 6.30485 116.014 6.43147C116.214 6.5201 116.252 6.60873 116.117 6.69736L115.905 6.8303V7.51402H116.117L116.477 6.9949C116.51 6.95692 116.555 6.89361 116.612 6.80498C116.773 6.58974 116.883 6.47578 116.947 6.47578C117.05 6.47578 117.3 6.65304 117.706 7.00123C118.111 7.34942 118.316 7.58366 118.316 7.69128C118.278 7.84955 118.143 7.92552 117.924 7.92552H115.905V9.12835H116.098L116.413 8.65355C116.445 8.61557 116.484 8.55859 116.535 8.48895C116.683 8.28004 116.793 8.17875 116.85 8.17875C116.953 8.17875 117.185 8.33702 117.545 8.65988C117.905 8.98275 118.085 9.19799 118.085 9.30561C118.053 9.46388 117.931 9.54618 117.706 9.54618H115.899V10.825H116.368L116.728 10.3059C116.76 10.2679 116.805 10.2046 116.863 10.1159C117.024 9.9007 117.133 9.78675 117.198 9.78675C117.3 9.78675 117.551 9.96401 117.956 10.3122C118.361 10.6604 118.567 10.8946 118.567 11.0022C118.529 11.1605 118.394 11.2428 118.175 11.2428H114.619V12.2811H115.384L115.744 11.8379C115.744 11.8379 115.815 11.7619 115.867 11.6923C116.047 11.4834 116.169 11.3821 116.227 11.3821C116.33 11.3821 116.625 11.572 117.12 11.9519C117.616 12.3317 117.866 12.5786 117.866 12.6862C117.744 12.8255 117.571 12.9205 117.339 12.9711V13.7878L117.461 13.5472C117.461 13.5472 117.481 13.5155 117.493 13.4902C117.564 13.3699 117.635 13.313 117.706 13.313C117.796 13.313 117.995 13.4776 118.291 13.8004C118.586 14.1233 118.741 14.3449 118.741 14.4525C118.702 14.6108 118.574 14.6931 118.361 14.6931H117.339V15.8642L117.487 15.554C117.487 15.554 117.519 15.5034 117.545 15.4527C117.616 15.3135 117.68 15.2438 117.738 15.2438C117.828 15.2438 118.033 15.4337 118.361 15.8199C118.689 16.2061 118.85 16.453 118.85 16.5606C118.818 16.7189 118.702 16.8012 118.49 16.8012H117.333V18.0167C117.333 18.6498 117.21 19.0929 116.973 19.3525C116.664 19.669 116.06 19.8652 115.166 19.9475C115.134 19.3461 115.05 18.96 114.909 18.789C114.716 18.5105 114.375 18.3332 113.886 18.2572V18.0673C114.349 18.0863 114.806 18.1116 115.256 18.1433C115.429 18.1433 115.513 18.0483 115.513 17.8584V16.8075H111.957V17.6558C111.957 17.7824 111.957 17.9534 111.97 18.1623C111.989 18.6498 112.009 19.0106 112.028 19.2448C111.989 19.3904 111.809 19.5424 111.488 19.688C111.134 19.8589 110.774 19.9412 110.401 19.9412C110.138 19.9412 110.009 19.8399 110.009 19.6437C110.06 19.2005 110.093 18.6054 110.112 17.8647V16.8138H109.752C109.578 16.8265 109.398 16.8898 109.212 17.0228L108.832 16.2821C109.077 16.339 109.366 16.3834 109.707 16.4023H110.112V14.712H109.932C109.874 14.7247 109.816 14.7817 109.765 14.8893L109.752 14.921L109.36 14.1803C109.507 14.2372 109.694 14.2816 109.9 14.3006H110.112V13.6168C109.964 13.8068 109.765 13.9017 109.527 13.9144C109.263 13.9334 109.012 13.8321 108.774 13.6042C108.762 13.0028 108.607 12.3317 108.305 11.6037V15.8769C108.324 17.1051 108.363 18.2636 108.427 19.3651C108.357 19.4917 108.164 19.6247 107.842 19.764C107.482 19.9096 107.128 19.9855 106.788 19.9855L106.82 19.9222ZM111.989 14.2372H112.864V12.6672H111.989V14.2372ZM111.989 16.3454H112.864V14.6551H111.989V16.3454ZM113.012 9.10303H114.156V7.9002H113.012V9.10303ZM113.012 10.7933H114.156V9.51453H113.012V10.7933ZM114.639 14.2372H115.545V12.6672H114.639V14.2372ZM114.639 16.3454H115.545V14.6551H114.639V16.3454Z" fill="white"/>
<path d="M133.536 19.9349C133.221 19.9349 133.067 19.8336 133.067 19.6373C133.125 18.7637 133.17 17.8837 133.189 16.9974V15.516C132.713 16.9911 132.064 18.0989 131.228 18.8396L131.016 18.7194C131.138 18.3142 131.234 17.9407 131.318 17.6051C131.421 17.1177 131.479 16.5796 131.504 15.9718C131.53 15.3704 131.511 14.8639 131.453 14.4588L133.189 14.845V13.4965C132.81 13.6421 132.443 13.7814 132.089 13.8954C131.999 14.0916 131.858 14.1992 131.665 14.2245L131.035 12.357C131.466 12.357 132.064 12.3443 132.829 12.3127C133.092 11.7556 133.363 11.1478 133.658 10.4704C134.108 9.38155 134.411 8.43194 134.565 7.62161C135.677 8.08375 136.378 8.41295 136.661 8.60287C136.873 8.74215 136.886 8.83711 136.706 8.88775L136.417 8.96372C135.915 9.61579 135.407 10.2299 134.893 10.806L134.951 10.7933C135.793 11.0908 136.397 11.4833 136.758 11.9645C137.066 12.3696 137.175 12.7685 137.073 13.1673C136.983 13.5408 136.77 13.7814 136.442 13.8764C136.082 13.9776 135.735 13.8637 135.401 13.5345C135.401 13.2053 135.375 12.9204 135.324 12.6735L135.066 12.7938V14.2942L135.156 14.2625C135.928 14.6171 136.481 15.0412 136.815 15.535C137.085 15.9528 137.169 16.358 137.073 16.7505C136.983 17.1177 136.783 17.3456 136.468 17.4342C136.127 17.5229 135.806 17.4026 135.504 17.0797C135.536 16.3707 135.388 15.516 135.066 14.5284V16.1617C135.099 17.5355 135.131 18.5991 135.169 19.3524C135.099 19.479 134.931 19.6057 134.674 19.7259C134.333 19.8715 133.954 19.9475 133.53 19.9475L133.536 19.9349ZM131.987 10.7047C131.897 9.95131 131.581 9.19796 131.035 8.45093L131.17 8.37497C131.704 8.4636 132.141 8.59021 132.482 8.76114V8.72949C132.752 7.65959 132.887 6.65934 132.887 5.71606C134.089 6.10224 134.848 6.38079 135.163 6.54539C135.382 6.66567 135.407 6.76063 135.221 6.83027L134.931 6.95055C134.34 7.72923 133.671 8.42561 132.925 9.02703C133.337 9.3309 133.53 9.69175 133.51 10.0969C133.498 10.4641 133.337 10.7173 133.015 10.8693C132.681 11.0402 132.34 10.9832 131.974 10.7047H131.987ZM133.536 12.281C134.018 12.2494 134.584 12.224 135.24 12.1924C135.137 11.7682 135.002 11.3314 134.835 10.8883C134.385 11.3947 133.948 11.8569 133.543 12.281H133.536ZM135.619 19.9032L135.529 19.7386C136.893 18.7194 137.722 17.2823 137.998 15.4211C138.05 15.1235 138.063 14.6677 138.043 14.0536C138.024 13.5218 137.986 13.0597 137.941 12.6672C137.896 12.2747 137.863 12.2177 137.851 12.4963L139.329 12.4836L140.641 12.5406C140.609 12.8001 140.435 12.9457 140.114 12.9837C140.056 14.6677 139.754 16.0035 139.207 16.9911C138.506 18.2889 137.31 19.2575 135.619 19.8969V19.9032ZM137.291 12.7685L136.507 10.5147C137.24 10.5147 137.87 10.5147 138.404 10.5021C138.616 9.67276 138.764 8.95106 138.854 8.33698H138.082C137.658 8.34964 137.22 8.41928 136.758 8.54589L136.365 7.8052C136.905 7.86218 137.561 7.90649 138.326 7.92548H139.259C139.259 7.07717 139.22 6.39978 139.137 5.89332C140.352 6.12123 141.123 6.29216 141.458 6.41244C141.676 6.50107 141.721 6.59603 141.593 6.69733L141.368 6.84293V7.92548H142.197L142.647 7.28608C142.686 7.23544 142.75 7.15947 142.827 7.04552C143.02 6.77963 143.142 6.64668 143.207 6.64668C143.31 6.64668 143.612 6.86192 144.126 7.29241C144.641 7.7229 144.898 7.99512 144.898 8.10274C144.859 8.26101 144.724 8.34331 144.493 8.34331H141.297C140.545 9.22328 139.857 9.93865 139.246 10.4958C139.786 10.4831 140.68 10.4641 141.914 10.4198H142.139C141.946 10.0336 141.67 9.54615 141.31 8.96372L141.432 8.88775C142.519 9.13465 143.335 9.52083 143.888 10.0463C144.351 10.4831 144.583 10.9516 144.583 11.458C144.57 11.9138 144.39 12.2367 144.043 12.4203C143.67 12.6102 143.271 12.5469 142.834 12.2304C142.757 11.8632 142.609 11.439 142.397 10.9516C141.22 11.3884 139.67 11.8885 137.741 12.4519C137.638 12.6292 137.491 12.7368 137.291 12.7811V12.7685ZM142.249 19.5613C141.638 19.5613 141.239 19.4411 141.059 19.2068C140.885 18.9979 140.802 18.5738 140.802 17.928V15.1235C140.802 13.9776 140.744 13.0154 140.622 12.243C141.786 12.4709 142.525 12.6482 142.834 12.7748C143.046 12.8634 143.078 12.9584 142.937 13.0597L142.712 13.2053V17.3583C142.712 17.5165 142.776 17.5988 142.904 17.5988H143.477C143.599 17.5798 143.689 17.5229 143.747 17.4216C143.837 17.2443 144.049 16.6049 144.377 15.5097H144.525L144.57 17.5292C144.769 17.6368 144.904 17.7571 144.975 17.8837C145.026 17.985 145.052 18.1369 145.052 18.3458C145.052 19.1562 144.351 19.5613 142.943 19.5613H142.236H142.249Z" fill="white"/>
<path d="M146.107 19.9218L146.049 19.7888C147.496 18.8519 148.511 17.63 149.09 16.1233C149.553 14.9332 149.791 13.3948 149.81 11.4956H148.666C147.984 11.5082 147.271 11.5715 146.525 11.7045L146.145 10.9638C146.698 11.0208 147.367 11.0651 148.151 11.0841H156.652L157.783 9.57104C158.028 9.76729 158.272 9.96354 158.523 10.1661C159.076 10.6093 159.513 10.9765 159.834 11.2613C159.796 11.4196 159.648 11.5019 159.397 11.5019H155.842V17.0793C155.842 17.1995 155.874 17.2818 155.932 17.3262C155.989 17.3705 156.105 17.3958 156.279 17.3958H157.256C157.635 17.3958 157.886 17.3958 158.008 17.3831C158.169 17.3831 158.298 17.3072 158.388 17.1426C158.548 16.902 158.831 16.1613 159.23 14.9015H159.365L159.41 17.2755C159.674 17.3831 159.854 17.5161 159.95 17.6617C160.027 17.7883 160.072 17.9656 160.072 18.1935C160.072 18.6366 159.854 18.9595 159.423 19.1557C158.954 19.371 158.143 19.4849 156.999 19.4849H155.732C154.916 19.4849 154.376 19.3647 154.105 19.1241C153.835 18.8835 153.7 18.3961 153.7 17.6617V11.5019H152.176C152.048 13.6797 151.591 15.4016 150.807 16.6678C149.842 18.1998 148.274 19.2887 146.107 19.9344V19.9218ZM148.004 7.96303L147.624 7.22234C148.177 7.27932 148.846 7.32363 149.63 7.34262H155.552L156.652 5.91821C156.896 6.10813 157.134 6.29173 157.372 6.46899C157.906 6.89314 158.323 7.24766 158.626 7.51988C158.594 7.67815 158.458 7.75412 158.221 7.75412H150.267C149.553 7.76678 148.801 7.83642 148.01 7.96303H148.004Z" fill="white"/>
<path d="M161.216 19.9664L161.094 19.8018C162.078 18.9092 162.83 17.6684 163.358 16.0794C163.088 15.4083 162.862 14.6613 162.695 13.8383C162.663 13.9079 162.618 14.0156 162.56 14.1675C162.297 14.7816 162.117 15.1867 162.02 15.383C162.123 15.5223 162.097 15.6426 161.962 15.7375L161.056 14.598C161.576 14.2688 162.059 13.9079 162.502 13.5154L162.56 12.8634L163.19 13.0533L162.798 13.5851C163.049 14.3194 163.306 14.8892 163.57 15.307C163.801 14.4081 163.968 13.2685 164.084 11.8948H163.647L163.377 12.5025C162.856 12.6608 162.239 12.6101 161.538 12.3569C162.239 10.6729 162.85 9.0776 163.364 7.56456H162.715C162.374 7.57722 162.014 7.64053 161.628 7.77347L161.236 7.03278C161.628 7.08975 162.097 7.13407 162.65 7.15306H163.325L163.705 6.67826C163.743 6.64027 163.795 6.57697 163.853 6.501C164.02 6.29209 164.142 6.19079 164.2 6.19079C164.303 6.19079 164.611 6.41237 165.132 6.84919C165.653 7.28601 165.917 7.56456 165.917 7.67218C165.788 7.81779 165.569 7.91275 165.267 7.95073C165.023 8.6028 164.547 9.78031 163.821 11.4833H163.943L164.38 10.9768C164.412 10.9388 164.457 10.8819 164.515 10.8122C164.727 10.5716 164.862 10.4577 164.92 10.4577C165.023 10.4577 165.319 10.6729 165.827 11.1098C166.335 11.5466 166.579 11.8188 166.579 11.9264C166.508 12.053 166.335 12.1417 166.052 12.1923C165.801 13.9902 165.364 15.459 164.74 16.5858C165.351 17.029 166.148 17.3392 167.119 17.5038C167.923 17.6494 169.042 17.7254 170.482 17.7254C172.752 17.7254 174.263 17.7127 175.015 17.6937V17.8583C174.674 17.9469 174.404 18.1558 174.198 18.4787C174.025 18.7763 173.935 19.1371 173.909 19.5613H170.385C168.778 19.5613 167.524 19.422 166.618 19.1434C165.576 18.8269 164.753 18.2761 164.161 17.4975C163.409 18.5167 162.425 19.3397 161.21 19.9601L161.216 19.9664ZM168.81 17.5291C168.501 17.5291 168.341 17.4278 168.341 17.2316C168.36 17.0606 168.379 16.8391 168.399 16.5668C168.411 16.4402 168.411 16.3326 168.411 16.2566V15.6172H167.524C167.01 15.6299 166.47 15.6995 165.897 15.8261L165.518 15.0855C166.058 15.1424 166.714 15.1867 167.479 15.2057H168.411V13.661H167.691C167.293 13.6737 166.868 13.737 166.425 13.87L166.032 13.1293C166.482 13.1862 167.029 13.2306 167.659 13.2495H168.411V11.7365H167.736C167.344 11.7492 166.945 11.8125 166.527 11.9454L166.122 11.2047C166.553 11.2617 167.074 11.306 167.691 11.325H168.411V9.82463H167.447C166.875 9.83729 166.283 9.90059 165.666 10.0335L165.274 9.29284C165.827 9.34982 166.495 9.39414 167.28 9.41313H168.411V7.9444H167.736C167.344 7.95706 166.945 8.0267 166.527 8.15332L166.122 7.41262C166.553 7.4696 167.074 7.51391 167.691 7.53291H168.411C168.411 6.82386 168.379 6.23511 168.309 5.7793C169.144 5.95023 169.755 6.08317 170.148 6.19712C170.488 6.29842 170.688 6.38705 170.752 6.46301C170.803 6.51366 170.771 6.57064 170.662 6.64027L170.405 6.81753V7.52657H171.176L171.568 7.06443C171.601 7.02645 171.646 6.96947 171.704 6.89983C171.884 6.69092 172.006 6.58963 172.064 6.58963C172.166 6.58963 172.475 6.78588 172.99 7.18472C173.504 7.58355 173.768 7.83045 173.768 7.93807C173.665 8.07735 173.485 8.17864 173.227 8.23562V9.4068L173.562 8.7674C173.581 8.72941 173.613 8.67243 173.652 8.6028C173.825 8.2736 173.941 8.11533 174.012 8.11533C174.102 8.11533 174.327 8.33058 174.687 8.7674C175.047 9.20421 175.227 9.47644 175.227 9.58406C175.195 9.74233 175.073 9.82463 174.848 9.82463H173.221V11.8251C173.202 11.8948 172.996 11.9897 172.604 12.11C172.636 12.1417 172.681 12.186 172.752 12.243C173.395 12.7747 173.845 13.1736 174.108 13.4331C174.076 13.5914 173.941 13.6737 173.703 13.6737H170.405V15.2184H171.549L172.044 14.5537L172.179 14.3764C172.424 14.0409 172.578 13.87 172.649 13.87C172.752 13.87 173.08 14.0979 173.639 14.5537C174.198 15.0095 174.475 15.288 174.475 15.3957C174.436 15.5539 174.295 15.6362 174.05 15.6362H170.405V16.111C170.411 16.2123 170.418 16.3326 170.418 16.4845L170.463 16.972C170.43 17.0923 170.244 17.2126 169.903 17.3455C169.53 17.4848 169.164 17.5544 168.804 17.5544L168.81 17.5291ZM170.411 9.40047H171.331V7.93174H170.411V9.40047ZM170.411 11.3123H171.331V9.81196H170.411V11.3123ZM170.411 13.2432H171.543L172.308 12.1733C172.089 12.2303 171.864 12.262 171.646 12.262H171.331V11.7302H170.411V13.2432Z" fill="white"/>
<path d="M176.501 9.47688L176.108 8.73619C176.661 8.79317 177.33 8.83748 178.115 8.85647H180.526L180.918 8.3057C180.95 8.26772 180.995 8.20441 181.053 8.11578C181.233 7.86888 181.355 7.74227 181.413 7.74227C181.516 7.74227 181.78 7.93219 182.217 8.3057C182.654 8.67921 182.873 8.92611 182.873 9.03373C182.84 9.192 182.712 9.2743 182.48 9.2743H178.365C177.761 9.28696 177.137 9.3566 176.494 9.48321L176.501 9.47688ZM177.234 19.9226C177.002 19.9226 176.886 19.8213 176.886 19.625C176.925 19.1882 176.957 18.6374 176.976 17.9664V16.9851C176.976 15.7506 176.912 14.744 176.784 13.9717L178.88 14.801H179.844L180.236 14.3389C180.275 14.3009 180.326 14.2376 180.384 14.1616C180.558 13.9717 180.674 13.8767 180.731 13.8767C180.834 13.8767 181.13 14.0667 181.638 14.4528C182.146 14.839 182.39 15.0859 182.39 15.1935C182.281 15.3391 182.114 15.4341 181.895 15.4784V16.6053C181.915 17.5169 181.947 18.2323 181.985 18.7577C181.927 18.8653 181.715 18.992 181.355 19.1312C180.976 19.2768 180.635 19.3528 180.333 19.3528C180.069 19.3528 179.941 19.2515 179.941 19.0553C179.953 19.0173 179.96 18.954 179.973 18.878C179.986 18.821 179.992 18.7704 180.005 18.7324V18.4222H178.848V18.7324C178.854 18.821 178.86 18.9223 178.86 19.0299C178.867 19.1376 178.88 19.2135 178.893 19.2515C178.873 19.3908 178.693 19.5364 178.352 19.682C177.992 19.8403 177.626 19.9226 177.253 19.9226H177.234ZM177.266 11.4204L176.874 10.6797C177.407 10.7367 178.05 10.781 178.802 10.8H179.722L180.101 10.2682C180.133 10.2302 180.172 10.1733 180.224 10.1036C180.404 9.84406 180.526 9.71745 180.584 9.71745C180.686 9.71745 180.95 9.90104 181.374 10.2682C181.799 10.6354 182.017 10.8696 182.017 10.9773C181.979 11.1355 181.844 11.2178 181.625 11.2178H178.597C178.172 11.2305 177.735 11.2938 177.272 11.4267L177.266 11.4204ZM177.266 13.3639L176.874 12.6233C177.407 12.6802 178.05 12.7245 178.802 12.7435H179.722L180.101 12.2118C180.133 12.1738 180.172 12.1168 180.224 12.0472C180.404 11.7876 180.526 11.661 180.584 11.661C180.686 11.661 180.95 11.8446 181.374 12.2118C181.799 12.5789 182.017 12.8132 182.017 12.9208C181.979 13.0791 181.844 13.1614 181.625 13.1614H178.597C178.172 13.174 177.735 13.2373 177.272 13.3703L177.266 13.3639ZM177.343 7.59033L176.951 6.84964C177.452 6.90661 178.063 6.95093 178.79 6.96992H179.677L180.056 6.41915C180.088 6.38116 180.133 6.31786 180.191 6.22923C180.371 5.98233 180.494 5.85571 180.551 5.85571C180.654 5.85571 180.918 6.04563 181.355 6.41915C181.792 6.79266 182.011 7.03956 182.011 7.14718C181.979 7.30545 181.85 7.38775 181.619 7.38775H179.6C178.886 7.40041 178.134 7.46372 177.343 7.59666V7.59033ZM178.835 18.0044H179.992V15.2125H178.835V18.0044ZM181.246 19.8909L181.169 19.7263C182.635 18.9856 183.824 18.0107 184.737 16.8015C184.114 15.8456 183.644 14.5921 183.336 13.0474H183.001C182.84 13.0601 182.68 13.1234 182.519 13.2563L182.127 12.5156C182.68 12.5726 183.348 12.6169 184.133 12.6359H186.422L186.949 12.0851C186.949 12.0851 187.026 12.0092 187.084 11.9395C187.348 11.661 187.509 11.5217 187.579 11.5217C187.682 11.5217 188.004 11.7686 188.557 12.2624C189.11 12.7562 189.386 13.0601 189.386 13.1677C189.296 13.307 189.097 13.3893 188.782 13.4209C188.338 14.6681 187.714 15.7506 186.898 16.6686C187.772 17.1307 188.872 17.5169 190.196 17.8271L190.183 17.9917C189.296 18.188 188.704 18.821 188.389 19.8909C187.206 19.3148 186.268 18.6564 185.573 17.9031C184.409 18.7957 182.963 19.4541 181.233 19.8909H181.246ZM182.165 12.3574L182.075 12.2244C182.487 11.661 182.77 10.9583 182.918 10.1163C183.021 9.58451 183.066 8.90079 183.066 8.07146V7.15351C183.066 6.76101 183.046 6.42548 183.008 6.15959L185.239 6.98891H185.933L186.358 6.50145C186.39 6.46346 186.435 6.40649 186.505 6.33685C186.698 6.10894 186.821 5.99499 186.878 5.99499C186.981 5.99499 187.258 6.18491 187.714 6.56475C188.171 6.9446 188.402 7.19149 188.402 7.29912C188.325 7.4194 188.184 7.49537 187.978 7.53968V9.42624C187.978 9.55285 188.029 9.61616 188.126 9.61616H188.531C188.621 9.61616 188.698 9.56551 188.756 9.47055C188.904 9.21099 189.116 8.69187 189.386 7.90053H189.521L189.566 9.53386C189.746 9.64148 189.875 9.75543 189.945 9.87572C189.997 9.97701 190.023 10.1226 190.023 10.3189C190.023 11.0722 189.367 11.4457 188.062 11.4457H187.431C186.846 11.4457 186.473 11.3381 186.3 11.1165C186.158 10.9266 186.088 10.5215 186.088 9.90104V7.40674H184.943V8.07146C184.943 10.1289 184.011 11.5597 182.152 12.3574H182.165ZM185.464 15.7063C185.933 14.8453 186.287 13.959 186.518 13.0537H183.58C183.979 14.1046 184.609 14.9846 185.464 15.7063Z" fill="white"/>
<path d="M124.901 13.8705C125.554 13.8705 126.084 13.349 126.084 12.7056C126.084 12.0623 125.554 11.5408 124.901 11.5408C124.247 11.5408 123.718 12.0623 123.718 12.7056C123.718 13.349 124.247 13.8705 124.901 13.8705Z" fill="white"/>
</g>
<defs>
<clipPath id="clip0_151_275">
<rect width="311" height="25" fill="white"/>
</clipPath>
</defs>
</svg>
