<svg width="387" height="37" viewBox="0 0 387 37" fill="none" xmlns="http://www.w3.org/2000/svg">
<path d="M0.045 25.7227L3.765 14.7277H5.325L9.045 25.7227H7.59L5.655 19.5727C5.265 18.3427 4.92 17.1427 4.56 15.8677H4.5C4.14 17.1427 3.795 18.3427 3.39 19.5727L1.455 25.7227H0.045ZM1.995 22.3627V21.2677H7.065V22.3627H1.995ZM11.946 25.9327C10.911 25.9327 10.506 25.2727 10.506 24.1027V13.7977H11.871V24.1927C11.871 24.6277 12.051 24.7927 12.261 24.7927C12.321 24.7927 12.381 24.7927 12.546 24.7627L12.726 25.8127C12.531 25.8727 12.321 25.9327 11.946 25.9327ZM16.2087 25.9327C15.1737 25.9327 14.7687 25.2727 14.7687 24.1027V13.7977H16.1337V24.1927C16.1337 24.6277 16.3137 24.7927 16.5237 24.7927C16.5837 24.7927 16.6437 24.7927 16.8087 24.7627L16.9887 25.8127C16.7937 25.8727 16.5837 25.9327 16.2087 25.9327ZM22.3859 25.7227V17.5777H23.4959L23.6309 19.0627H23.6759C24.2309 18.0277 25.0709 17.3827 25.9859 17.3827C26.3459 17.3827 26.5859 17.4277 26.8559 17.5477L26.6009 18.7477C26.3159 18.6577 26.1359 18.6127 25.8059 18.6127C25.1309 18.6127 24.2909 19.1077 23.7509 20.5027V25.7227H22.3859ZM28.2013 25.7227V17.5777H29.5663V25.7227H28.2013ZM28.8913 15.8977C28.3513 15.8977 27.9763 15.5527 27.9763 14.9827C27.9763 14.4577 28.3513 14.1127 28.8913 14.1127C29.4163 14.1127 29.8063 14.4577 29.8063 14.9827C29.8063 15.5527 29.4163 15.8977 28.8913 15.8977ZM35.0771 29.4727C33.0821 29.4727 31.7021 28.6927 31.7021 27.2977C31.7021 26.6077 32.1521 25.9327 32.9021 25.4527V25.3927C32.4821 25.1227 32.1671 24.6877 32.1671 24.0427C32.1671 23.3677 32.6471 22.8427 33.0821 22.5427V22.4827C32.5421 22.0477 32.0021 21.2677 32.0021 20.2927C32.0021 18.4927 33.4121 17.3827 35.0621 17.3827C35.5271 17.3827 35.9321 17.4727 36.2171 17.5777H39.0521V18.6427H37.3871C37.7771 19.0177 38.0471 19.6177 38.0471 20.3227C38.0471 22.0627 36.7271 23.1427 35.0621 23.1427C34.6721 23.1427 34.2221 23.0527 33.8471 22.8727C33.5621 23.1127 33.3221 23.3977 33.3221 23.8327C33.3221 24.3577 33.6671 24.7327 34.7621 24.7327H36.3521C38.2421 24.7327 39.1871 25.3177 39.1871 26.6677C39.1871 28.1827 37.5821 29.4727 35.0771 29.4727ZM35.0621 22.2277C36.0071 22.2277 36.8021 21.4627 36.8021 20.2927C36.8021 19.0927 36.0221 18.3727 35.0621 18.3727C34.1021 18.3727 33.3221 19.0777 33.3221 20.2927C33.3221 21.4627 34.1171 22.2277 35.0621 22.2277ZM35.2571 28.5427C36.8321 28.5427 37.8521 27.7177 37.8521 26.8777C37.8521 26.1127 37.2671 25.8577 36.2021 25.8577H34.7921C34.4771 25.8577 34.1021 25.8277 33.7271 25.7227C33.1421 26.1427 32.9021 26.6377 32.9021 27.1027C32.9021 27.9877 33.7871 28.5427 35.2571 28.5427ZM40.7989 25.7227V13.7977H42.1639V17.0527L42.1189 18.7327C42.8689 17.9977 43.6939 17.3827 44.8189 17.3827C46.5289 17.3827 47.3089 18.4927 47.3089 20.5627V25.7227H45.9289V20.7427C45.9289 19.2127 45.4639 18.5677 44.3839 18.5677C43.5589 18.5677 42.9739 19.0027 42.1639 19.8127V25.7227H40.7989ZM52.4603 25.9327C50.7203 25.9327 50.1503 24.8377 50.1503 23.2177V18.6877H48.9353V17.6677L50.2103 17.5777L50.3603 15.2827H51.5153V17.5777H53.7203V18.6877H51.5153V23.2477C51.5153 24.2377 51.8303 24.8227 52.7753 24.8227C53.0603 24.8227 53.4353 24.7027 53.6903 24.5977L53.9603 25.6177C53.5103 25.7827 52.9703 25.9327 52.4603 25.9327ZM58.9191 25.7227V17.5777H60.0291L60.1641 19.0627H60.2091C60.7641 18.0277 61.6041 17.3827 62.5191 17.3827C62.8791 17.3827 63.1191 17.4277 63.3891 17.5477L63.1341 18.7477C62.8491 18.6577 62.6691 18.6127 62.3391 18.6127C61.6641 18.6127 60.8241 19.1077 60.2841 20.5027V25.7227H58.9191ZM67.8144 25.9327C65.6394 25.9327 63.9144 24.3427 63.9144 21.6727C63.9144 19.0177 65.6994 17.3827 67.5744 17.3827C69.6444 17.3827 70.8144 18.8677 70.8144 21.2077C70.8144 21.4927 70.7994 21.7777 70.7544 21.9877H65.2644C65.3694 23.7127 66.4194 24.8377 67.9794 24.8377C68.7594 24.8377 69.4044 24.5827 70.0044 24.1777L70.4994 25.0927C69.7794 25.5577 68.9244 25.9327 67.8144 25.9327ZM65.2494 20.9977H69.6144C69.6144 19.3627 68.8794 18.4777 67.5894 18.4777C66.4494 18.4777 65.4294 19.3927 65.2494 20.9977ZM74.9651 25.9327C73.8101 25.9327 72.6851 25.4377 71.9201 24.8077L72.5951 23.8927C73.3001 24.4627 74.0201 24.8677 74.9951 24.8677C76.0751 24.8677 76.6151 24.2977 76.6151 23.5777C76.6151 22.7527 75.6401 22.3777 74.7401 22.0477C73.6151 21.6127 72.3701 21.0727 72.3701 19.6777C72.3701 18.3877 73.4051 17.3827 75.1751 17.3827C76.1801 17.3827 77.0801 17.7877 77.7101 18.2977L77.0501 19.1677C76.4951 18.7627 75.9101 18.4477 75.1901 18.4477C74.1551 18.4477 73.6901 18.9877 73.6901 19.6177C73.6901 20.3977 74.5151 20.6977 75.4451 21.0277C76.6301 21.4777 77.9201 21.9577 77.9201 23.5027C77.9201 24.8377 76.8851 25.9327 74.9651 25.9327ZM83.1367 25.9327C80.9617 25.9327 79.2367 24.3427 79.2367 21.6727C79.2367 19.0177 81.0217 17.3827 82.8967 17.3827C84.9667 17.3827 86.1367 18.8677 86.1367 21.2077C86.1367 21.4927 86.1217 21.7777 86.0767 21.9877H80.5867C80.6917 23.7127 81.7417 24.8377 83.3017 24.8377C84.0817 24.8377 84.7267 24.5827 85.3267 24.1777L85.8217 25.0927C85.1017 25.5577 84.2467 25.9327 83.1367 25.9327ZM80.5717 20.9977H84.9367C84.9367 19.3627 84.2017 18.4777 82.9117 18.4777C81.7717 18.4777 80.7517 19.3927 80.5717 20.9977ZM88.1573 25.7227V17.5777H89.2673L89.4023 19.0627H89.4473C90.0023 18.0277 90.8423 17.3827 91.7573 17.3827C92.1173 17.3827 92.3573 17.4277 92.6273 17.5477L92.3723 18.7477C92.0873 18.6577 91.9073 18.6127 91.5773 18.6127C90.9023 18.6127 90.0623 19.1077 89.5223 20.5027V25.7227H88.1573ZM96.1086 25.7227L93.1686 17.5777H94.5786L96.1236 22.2277C96.3636 23.0227 96.6186 23.8477 96.8736 24.6127H96.9336C97.1886 23.8477 97.4436 23.0227 97.6836 22.2277L99.2436 17.5777H100.579L97.6986 25.7227H96.1086ZM105.358 25.9327C103.183 25.9327 101.458 24.3427 101.458 21.6727C101.458 19.0177 103.243 17.3827 105.118 17.3827C107.188 17.3827 108.358 18.8677 108.358 21.2077C108.358 21.4927 108.343 21.7777 108.298 21.9877H102.808C102.913 23.7127 103.963 24.8377 105.523 24.8377C106.303 24.8377 106.948 24.5827 107.548 24.1777L108.043 25.0927C107.323 25.5577 106.468 25.9327 105.358 25.9327ZM102.793 20.9977H107.158C107.158 19.3627 106.423 18.4777 105.133 18.4777C103.993 18.4777 102.973 19.3927 102.793 20.9977ZM113.139 25.9327C111.099 25.9327 109.779 24.3877 109.779 21.6727C109.779 19.0177 111.459 17.3827 113.319 17.3827C114.264 17.3827 114.894 17.7277 115.599 18.3277L115.539 16.9177V13.7977H116.904V25.7227H115.779L115.659 24.7627H115.629C114.984 25.4077 114.129 25.9327 113.139 25.9327ZM113.439 24.7777C114.204 24.7777 114.864 24.4027 115.539 23.6677V19.3927C114.849 18.7627 114.219 18.5227 113.544 18.5227C112.239 18.5227 111.204 19.7977 111.204 21.6577C111.204 23.6077 112.014 24.7777 113.439 24.7777Z" fill="white"/>
<g clip-path="url(#clip0_151_274)">
<path d="M315.578 18.2933C315.578 23.7177 311.182 28.114 305.757 28.114C300.333 28.114 295.937 23.7177 295.937 18.2933C295.937 12.8689 300.333 8.47266 305.757 8.47266C311.182 8.47266 315.578 12.8689 315.578 18.2933Z" fill="white"/>
<path d="M305.752 28.114C311.176 28.114 315.572 23.7171 315.572 18.2933C315.572 12.8695 311.176 8.47266 305.752 8.47266C300.328 8.47266 295.931 12.8695 295.931 18.2933C295.931 23.7171 300.328 28.114 305.752 28.114Z" stroke="white" stroke-width="1.49934" stroke-miterlimit="10"/>
<path d="M303.219 14.4061C305.853 11.9054 309.109 10.2294 310.935 10.6578C309.457 9.65641 307.674 9.06738 305.752 9.06738C300.649 9.06738 296.52 13.2013 296.52 18.3044C296.52 20.4838 297.275 22.4865 298.539 24.0661C297.8 21.6297 300.284 17.1959 303.219 14.4115" fill="#C7000B"/>
<path d="M312.145 11.6377C312.638 12.7568 312.049 14.5668 310.009 16.7622C307.562 19.3861 305.752 20.5641 304.579 19.8412C303.401 19.1183 306.298 15.3111 307.203 14.7702C308.108 14.2294 307.744 15.8573 307.744 15.8573C307.744 15.8573 311.728 13.4101 310.55 12.0554C309.789 11.1825 305.934 13.9563 303.851 16.6712C301.768 19.3861 300.627 22.1545 301.859 23.461C303.396 25.0889 306.93 22.9149 309.918 20.6551C311.005 19.8412 311.005 20.3821 310.641 20.9282C310.641 20.9282 305.184 27.8305 300.317 25.7636C301.843 26.8774 303.722 27.536 305.752 27.536C310.855 27.536 314.989 23.4021 314.989 18.3044C314.989 15.6859 313.896 13.3245 312.145 11.6431" fill="#C7000B"/>
<path d="M345.254 15.5897C345.254 15.4558 345.152 15.3487 345.013 15.3487H342.748C342.871 15.1399 342.994 14.9043 343.144 14.6526L343.246 14.4813H344.788V13.587C344.788 13.4532 344.676 13.3407 344.542 13.3407H340.74C340.638 13.0569 340.515 12.7463 340.381 12.5L338.941 12.7624C339.016 12.9337 339.091 13.1479 339.149 13.3461H334.941V14.4866H336.681C336.708 14.5348 336.74 14.6044 336.772 14.674C336.858 14.8722 336.959 15.1185 337.018 15.3541H334.523V16.4947H345.249V15.6004L345.254 15.5897ZM341.238 15.3487H338.518C338.443 15.0864 338.309 14.7544 338.17 14.4813H341.586C341.5 14.7437 341.361 15.0649 341.238 15.3487Z" fill="white"/>
<path d="M341.538 22.909H338.946C338.389 22.909 338.191 22.8716 338.191 22.5503V21.5061C338.191 21.3722 338.084 21.2651 337.95 21.2598H336.756V22.561C336.756 23.7283 337.238 24.0871 338.796 24.0871H342.079C343.23 24.0871 343.471 23.3053 343.481 22.0201H342.132C342.068 22.8876 341.998 22.909 341.538 22.909Z" fill="white"/>
<path d="M344.205 20.7136V17.1848C344.205 17.0509 344.097 16.9438 343.964 16.9385H335.546V20.719H339.176L338.769 21.2169C339.476 21.6507 340.199 22.3575 340.66 22.7377L341.693 21.8327C341.383 21.5864 340.622 21.0349 340.033 20.719H344.21L344.205 20.7136ZM336.938 17.8541H342.743V18.3896H336.938V17.8541ZM336.938 19.2303H342.743V19.7872H336.938V19.2303Z" fill="white"/>
<path d="M334.105 23.5088H335.728C336.022 22.8501 336.338 21.7631 336.515 21.2598H335.187C334.882 21.9612 334.368 23.0857 334.111 23.5088" fill="white"/>
<path d="M344.204 20.9868L343.283 21.5598C343.765 22.1113 344.67 23.1555 344.949 23.5678L345.988 22.6521C345.715 22.3041 344.515 21.2545 344.199 20.9814" fill="white"/>
<path d="M329.329 14.8401C329.329 14.7062 329.216 14.5938 329.082 14.5938H327.942V21.5121H329.329V14.8401Z" fill="white"/>
<path d="M331.407 12.928C331.407 12.7941 331.294 12.6816 331.16 12.6816H329.993V22.438C329.993 22.6469 329.907 22.7111 329.709 22.7111C329.511 22.7111 328.868 22.7111 328.237 22.7004L328.67 24.1784C329.661 24.1784 330.368 24.1302 330.802 23.8785C331.262 23.6429 331.407 23.2466 331.407 22.4541V12.928Z" fill="white"/>
<path d="M326.941 20.9173H322.587C322.614 20.7942 322.625 20.5532 322.646 20.43H326.951V16.7834C326.951 16.6442 326.839 16.5371 326.705 16.5371H321.436V17.9615C321.436 19.4126 321.334 21.7259 320.36 23.3002H321.929C322.148 22.8022 322.319 22.1703 322.443 21.6081V24.0124H327.192V21.1583C327.192 21.0244 327.08 20.9173 326.946 20.9173M322.796 17.9615V17.5063H325.607V18.0364H322.796V17.9615ZM322.775 18.8611H325.613V19.4126H322.748C322.759 19.2413 322.775 19.0217 322.775 18.8611ZM325.896 22.9254H323.664V21.8758H325.896V22.9254Z" fill="white"/>
<path d="M325.222 12.9012L324.311 12.4139C324.145 12.3283 324.06 12.3122 323.872 12.5371C322.973 13.6402 321.907 14.7807 320.354 16.248H322.239C322.475 16.0284 322.759 15.7714 322.951 15.5358V16.1194H325.961V15.4822C326.427 15.841 326.828 16.1623 326.951 16.264L327.664 15.0324C327.096 14.604 325.913 13.7901 324.997 13.2279C325.072 13.1208 325.147 13.019 325.222 12.9012ZM325.607 15.2038H323.24C323.53 14.9039 323.926 14.4541 324.204 14.1542C324.392 14.2774 325.002 14.7433 325.607 15.2038Z" fill="white"/>
<path d="M386.475 16.0872H384.515V12.9065C384.515 12.778 384.414 12.6709 384.285 12.6602H383.102V16.0872H380.917V19.9105C380.917 21.0886 380.719 23.0966 380.162 24.1033H381.613C381.774 23.6053 382.041 22.4755 382.111 21.9346C382.357 21.8436 384.414 21.3456 385.393 21.0886V22.5986C385.393 22.7593 385.329 22.8235 385.147 22.8235C384.96 22.8342 384.365 22.8342 383.798 22.7968L384.205 24.1622C385.11 24.1622 385.699 24.1515 386.132 23.9266C386.593 23.7017 386.716 23.3055 386.716 22.6254V16.3335C386.716 16.1997 386.609 16.0926 386.475 16.0872ZM385.393 19.873C384.189 20.1461 383.086 20.4192 382.207 20.5906C382.213 20.4728 382.213 19.5946 382.207 18.77C382.207 17.9775 382.207 17.3295 382.207 17.3295H385.393V19.873Z" fill="white"/>
<path d="M380.205 22.1864L378.775 22.4113V19.2091H380.226V17.9561H378.775V16.9547H379.782V16.0444C380.007 16.264 380.183 16.4407 380.258 16.5049L380.895 15.4072C380.414 14.9628 379.798 14.3523 378.909 13.6348C378.946 13.5812 379.091 13.351 379.16 13.2546L378.357 12.7673C378.165 12.6656 378.079 12.6281 377.886 12.8583C377.179 13.7901 376.226 14.8557 374.946 16.1997H376.247V16.9547H377.586V17.9561H375.862V19.2091H377.586V22.6094C377.003 22.7004 376.322 22.7807 375.862 22.8504V24.2319C377.067 23.9534 378.754 23.6429 380.253 23.2787L380.205 22.181V22.1864ZM377.094 15.7981C377.49 15.3644 378.052 14.7539 378.223 14.5719C378.416 14.7004 379.021 15.2948 379.53 15.7981H377.099H377.094Z" fill="white"/>
<path d="M379 21.7316L379.873 21.9993C380.076 21.4799 380.322 20.6821 380.563 19.9806L379.45 19.7021C379.337 20.3661 379.171 21.1319 379 21.7316Z" fill="white"/>
<path d="M377.302 21.9611C377.211 21.3828 377.008 20.4725 376.799 19.7764L375.808 20.0334C375.99 20.7242 376.183 21.6398 376.247 22.2556L377.302 21.9611Z" fill="white"/>
<path d="M382.7 15.3538C382.539 14.829 382.202 13.8598 381.795 13.1904L380.617 13.7259C381.195 14.7165 381.409 15.6161 381.495 15.841L382.705 15.3591L382.7 15.3538Z" fill="white"/>
<path d="M387 13.6989L385.757 13.2598C385.522 13.9987 385.27 14.7484 384.922 15.3963L386.148 15.8622C386.491 15.2089 386.764 14.5235 387 13.7042" fill="white"/>
<path d="M385.297 18.781C384.729 18.4436 383.621 18.0634 382.77 17.8867L382.213 18.7595C383.069 19.0005 384.119 19.4235 384.665 19.7716L385.297 18.781Z" fill="white"/>
<path d="M372.783 16.5693H366.55V17.9723H369.806V22.481C369.806 22.6684 369.72 22.7166 369.495 22.7166C369.27 22.7273 368.456 22.7273 367.75 22.6899L368.194 24.1892C369.297 24.1892 370.111 24.1624 370.63 23.9429C371.177 23.718 371.327 23.311 371.327 22.5185V17.9723H373.024V16.8157C373.024 16.6818 372.917 16.58 372.783 16.5747" fill="white"/>
<path d="M372.804 13.6936C372.804 13.5597 372.697 13.4473 372.563 13.4473H366.78V14.8502H372.804V13.6936Z" fill="white"/>
<path d="M365.57 15.2625C365.34 15.1661 365.243 15.134 365.077 15.3642C365.077 15.3642 365.077 15.3642 365.077 15.3696C364.044 16.7993 362.754 18.2612 361.506 19.5195H363.412V24.1461H364.885V17.9827C365.393 17.3187 366.186 16.296 366.555 15.6641L365.57 15.2571V15.2625Z" fill="white"/>
<path d="M363.498 16.1679C364.097 15.4879 365.029 14.3152 365.64 13.4531L364.681 13.0568L364.611 13.03C364.499 12.9872 364.392 12.9711 364.242 13.1693C364.231 13.1853 364.221 13.196 364.21 13.2068C363.428 14.2295 362.341 15.3915 361.597 16.1679H363.498Z" fill="white"/>
<path d="M356.868 19.2838C357.415 18.9143 358.079 18.427 358.577 18.0415L357.661 17.2329C357.479 17.0776 357.377 17.1419 357.265 17.2383C356.665 17.8005 355.792 18.4538 355.026 18.9679C354.78 18.4324 354.421 17.913 353.934 17.4685C354.207 17.2972 354.453 17.0348 354.678 16.8367H357.377V15.8782C357.377 15.7443 357.27 15.6372 357.136 15.6318H350.502V16.8367H352.681C351.503 17.431 350.041 17.9772 348.643 18.2664L349.398 19.4177C350.566 19.1071 351.765 18.6841 352.847 18.1165C352.954 18.2182 353.104 18.4217 353.179 18.5716C352.103 19.2892 350.084 20.0281 348.558 20.3494L349.291 21.49C350.705 21.0562 352.499 20.2584 353.741 19.4766C353.816 19.6372 353.907 19.8353 353.955 19.9853C352.552 21.0776 350.336 22.0469 348.376 22.4699L349.147 23.6961C350.796 23.1981 352.777 22.2557 354.191 21.2865C354.191 21.8809 354.009 22.3628 353.822 22.5823C353.618 22.8233 353.425 22.8661 353.125 22.8661C352.826 22.8661 352.445 22.8554 352.012 22.8019L352.408 24.2048C352.767 24.2155 353.141 24.2316 353.415 24.2155C354.057 24.2048 354.453 24.0817 354.914 23.664C355.519 23.1071 355.824 21.6881 355.476 20.1995C355.621 20.1031 355.728 20.0228 355.851 19.9371C356.461 21.4364 357.382 22.6948 358.577 23.4712L359.792 22.4056C358.539 21.7202 357.575 20.6814 356.884 19.2892" fill="white"/>
<path d="M349.934 14.8937H357.865V16.4251H359.273V13.9405C359.273 13.8066 359.16 13.6995 359.032 13.6995H354.86C354.737 13.3408 354.523 12.8588 354.325 12.5215L352.761 12.9659C352.863 13.1533 352.97 13.4586 353.061 13.6942H348.574V16.4251H349.934V14.8937Z" fill="white"/>
<path d="M165.366 13.5964V10.9512C160.637 12.6915 154.999 13.6339 149.071 13.6339C143.143 13.6339 137.51 12.6968 132.776 10.9512V13.5964C137.601 15.2457 143.213 16.1292 149.071 16.1292C154.929 16.1292 160.541 15.2457 165.366 13.5964Z" fill="#DCA435"/>
<path d="M170.142 19.5453C163.481 18.2494 156.375 17.5693 149.071 17.5693C141.767 17.5693 134.661 18.2494 128 19.5453V22.0834C133.253 21.0339 138.806 20.386 144.525 20.161C142.378 22.726 138.062 24.7769 132.782 25.7193V28.2682C139.941 27.1062 145.473 24.0379 147.572 20.0807C148.07 20.0754 148.573 20.0647 149.071 20.0647C149.569 20.0647 150.072 20.0754 150.57 20.0807C152.669 24.0379 158.201 27.1062 165.36 28.2682V25.7193C160.08 24.7769 155.765 22.726 153.617 20.161C159.336 20.386 164.889 21.0339 170.142 22.0834V19.5453Z" fill="#DCA435"/>
<path d="M179.711 24.5845C179.449 24.5845 179.32 24.4988 179.32 24.3328C179.368 23.5938 179.406 22.8495 179.422 22.0998V20.8468C179.026 22.0945 178.485 23.0316 177.789 23.6581L177.612 23.5563C177.714 23.2136 177.794 22.8977 177.864 22.6139C177.949 22.2016 177.998 21.7464 178.019 21.2324C178.04 20.7237 178.024 20.2953 177.976 19.9526L179.422 20.2792V19.1386C179.106 19.2618 178.801 19.3796 178.506 19.476C178.431 19.642 178.314 19.733 178.153 19.7544L177.628 18.1748C177.987 18.1748 178.485 18.1641 179.122 18.1373C179.342 17.6661 179.567 17.152 179.813 16.5791C180.188 15.658 180.439 14.8548 180.568 14.1694C181.494 14.5603 182.078 14.8388 182.314 14.9994C182.49 15.1172 182.501 15.1975 182.351 15.2404L182.11 15.3046C181.692 15.8562 181.269 16.3756 180.841 16.8629L180.889 16.8522C181.591 17.1038 182.094 17.4358 182.394 17.8428C182.651 18.1855 182.742 18.5228 182.656 18.8602C182.581 19.1761 182.405 19.3796 182.131 19.4599C181.832 19.5456 181.542 19.4492 181.264 19.1708C181.264 18.8923 181.243 18.6514 181.2 18.4425L180.986 18.5443V19.8133L181.061 19.7866C181.703 20.0864 182.164 20.4452 182.442 20.8629C182.667 21.2163 182.737 21.559 182.656 21.891C182.581 22.2016 182.415 22.3943 182.153 22.4693C181.869 22.5443 181.601 22.4425 181.35 22.1694C181.376 21.5697 181.253 20.8468 180.986 20.0115V21.393C181.012 22.555 181.039 23.4546 181.071 24.0918C181.012 24.1989 180.873 24.306 180.659 24.4077C180.375 24.5309 180.059 24.5952 179.706 24.5952L179.711 24.5845ZM178.421 16.7772C178.346 16.14 178.083 15.5027 177.628 14.8709L177.741 14.8066C178.185 14.8816 178.549 14.9887 178.833 15.1333V15.1065C179.058 14.2015 179.17 13.3555 179.17 12.5576C180.172 12.8843 180.804 13.1199 181.066 13.2591C181.248 13.3608 181.269 13.4412 181.114 13.5001L180.873 13.6018C180.38 14.2604 179.824 14.8495 179.202 15.3582C179.545 15.6152 179.706 15.9204 179.69 16.2631C179.679 16.5737 179.545 16.7879 179.277 16.9164C178.999 17.061 178.715 17.0128 178.41 16.7772H178.421ZM179.711 18.1105C180.113 18.0838 180.584 18.0623 181.13 18.0356C181.044 17.6768 180.932 17.3073 180.793 16.9325C180.418 17.3609 180.054 17.7518 179.716 18.1105H179.711ZM181.446 24.5577L181.371 24.4185C182.506 23.5563 183.197 22.3408 183.427 20.7665C183.47 20.5148 183.481 20.1293 183.465 19.6099C183.449 19.1601 183.417 18.7692 183.379 18.4372C183.342 18.1052 183.315 18.057 183.304 18.2926L184.536 18.2819L185.628 18.3301C185.601 18.5496 185.457 18.6728 185.189 18.7049C185.141 20.1293 184.889 21.2591 184.434 22.0945C183.85 23.1922 182.854 24.0115 181.446 24.5523V24.5577ZM182.838 18.5228L182.185 16.6165C182.795 16.6165 183.32 16.6165 183.765 16.6058C183.941 15.9044 184.065 15.2939 184.14 14.7745H183.497C183.144 14.7852 182.779 14.8441 182.394 14.9512L182.067 14.3247C182.517 14.3729 183.063 14.4104 183.7 14.4264H184.477C184.477 13.7089 184.445 13.1359 184.375 12.7076C185.387 12.9003 186.03 13.0449 186.308 13.1466C186.49 13.2216 186.528 13.3019 186.421 13.3876L186.233 13.5108V14.4264H186.924L187.299 13.8856C187.331 13.8428 187.385 13.7785 187.449 13.6821C187.609 13.4572 187.711 13.3448 187.765 13.3448C187.85 13.3448 188.102 13.5268 188.53 13.891C188.959 14.2551 189.173 14.4853 189.173 14.5764C189.141 14.7102 189.028 14.7799 188.836 14.7799H186.174C185.548 15.5242 184.975 16.1293 184.466 16.6005C184.916 16.5898 185.66 16.5737 186.688 16.5362H186.876C186.715 16.2096 186.485 15.7973 186.185 15.3046L186.287 15.2404C187.192 15.4492 187.872 15.7758 188.332 16.2203C188.718 16.5898 188.911 16.986 188.911 17.4144C188.9 17.7999 188.75 18.073 188.461 18.2283C188.15 18.389 187.818 18.3354 187.454 18.0677C187.39 17.7571 187.267 17.3983 187.09 16.986C186.11 17.3555 184.82 17.7785 183.213 18.2551C183.127 18.405 183.004 18.4961 182.838 18.5336V18.5228ZM186.967 24.2685C186.458 24.2685 186.126 24.1668 185.976 23.9687C185.832 23.7919 185.762 23.4332 185.762 22.887V20.5148C185.762 19.5456 185.714 18.7317 185.612 18.0784C186.581 18.2712 187.197 18.4211 187.454 18.5282C187.631 18.6032 187.658 18.6835 187.54 18.7692L187.352 18.8923V22.4051C187.352 22.5389 187.406 22.6085 187.513 22.6085H187.99C188.091 22.5925 188.166 22.5443 188.215 22.4586C188.289 22.3087 188.466 21.7678 188.739 20.8415H188.862L188.9 22.5496C189.066 22.6407 189.178 22.7424 189.237 22.8495C189.28 22.9352 189.302 23.0637 189.302 23.2404C189.302 23.9258 188.718 24.2685 187.545 24.2685H186.956H186.967Z" fill="white"/>
<path d="M191.197 24.5846C191.17 24.0169 191.095 23.626 190.972 23.4172C190.822 23.1495 190.544 22.9728 190.132 22.8924V22.7318C190.506 22.7479 190.887 22.7693 191.261 22.7961C191.406 22.7961 191.476 22.7318 191.476 22.6086V19.9473L191.047 20.2472C190.988 20.44 190.876 20.5578 190.71 20.6113L190.067 18.63C190.271 18.5872 190.737 18.4747 191.47 18.2927V16.033H191.079C190.871 16.0437 190.662 16.0972 190.453 16.2097L190.126 15.5832C190.378 15.6314 190.689 15.6688 191.053 15.6849H191.465V15.1601C191.465 14.1052 191.411 13.2485 191.304 12.5898C192 12.7344 192.504 12.8469 192.82 12.9433C193.104 13.0289 193.27 13.1039 193.323 13.1682C193.366 13.211 193.339 13.2592 193.248 13.3181L193.034 13.4573V15.6421L193.312 15.0638C193.339 15.0156 193.371 14.9406 193.414 14.8496C193.537 14.5979 193.628 14.4747 193.677 14.4747C193.751 14.4747 193.939 14.6782 194.233 15.0905C194.528 15.5028 194.678 15.7492 194.678 15.8455C194.651 15.9794 194.549 16.049 194.362 16.049H193.034V17.8964C193.585 17.7465 194.057 17.6126 194.437 17.4948L194.464 17.6073C194.073 17.9607 193.596 18.3569 193.034 18.8014V22.7264C193.034 23.3476 192.927 23.7813 192.718 24.033C192.461 24.3489 191.947 24.5417 191.187 24.6113L191.197 24.5846ZM194.608 24.5846L194.523 24.4239C195.299 23.8884 195.979 23.2137 196.557 22.4052C197.104 21.6341 197.521 20.788 197.826 19.8563H197.778C197.002 21.2699 195.642 22.3837 193.698 23.1923L193.596 23.0317C194.624 22.2766 195.438 21.2914 196.033 20.0705C195.294 20.6488 194.41 21.1468 193.371 21.5752L193.27 21.4145C194.223 20.7184 194.988 19.7652 195.567 18.539H195.042C194.758 18.5497 194.464 18.6033 194.164 18.7157L193.848 18.0892C194.308 18.1374 194.865 18.1749 195.519 18.1909H199.385L200.038 17.3235C199.781 17.4252 199.54 17.4734 199.32 17.4734H199.021V17.0236H196.584V17.3128C196.584 17.3984 196.434 17.5002 196.134 17.6287C195.808 17.7733 195.492 17.8429 195.181 17.8429C194.972 17.8429 194.865 17.7572 194.865 17.5912C194.897 17.2217 194.924 16.7505 194.94 16.1722V15.3315C194.94 14.2766 194.887 13.4252 194.78 12.7719L196.648 13.5109H198.892L199.245 13.0825C199.245 13.0825 199.304 13.0182 199.347 12.97C199.524 12.7612 199.642 12.6541 199.701 12.6541C199.786 12.6541 200.054 12.8362 200.515 13.1949C200.975 13.5537 201.205 13.7786 201.205 13.875C201.104 13.9982 200.948 14.0945 200.729 14.1534V16.9272C200.729 16.9915 200.611 17.0825 200.375 17.1896C200.402 17.2164 200.445 17.2539 200.515 17.302C201.093 17.7733 201.511 18.116 201.768 18.3462C201.741 18.4801 201.628 18.5497 201.43 18.5497H197.425C197.216 18.8764 196.959 19.1976 196.659 19.5136H199.444L199.845 19.112C199.888 19.0798 199.942 19.0263 200.006 18.9513C200.172 18.7853 200.284 18.6996 200.332 18.6996C200.418 18.6996 200.664 18.8817 201.088 19.2458C201.511 19.61 201.714 19.8402 201.714 19.9312C201.623 20.0491 201.457 20.124 201.227 20.1561C201.152 21.3877 201.034 22.2981 200.873 22.8924C200.707 23.4868 200.461 23.8991 200.134 24.1347C199.722 24.4186 199.187 24.5631 198.528 24.5631C198.544 24.0116 198.48 23.6368 198.324 23.4333C198.148 23.1923 197.837 23.0102 197.398 22.8924C196.643 23.5618 195.717 24.1294 194.614 24.6006L194.608 24.5846ZM196.579 15.0852H199.015V13.8536H196.579V15.0852ZM196.579 16.6648H199.015V15.4332H196.579V16.6648ZM198.624 22.8014C198.785 22.8014 198.908 22.7693 198.999 22.6997C199.256 22.4908 199.444 21.543 199.551 19.8509H199.503C199.09 20.9487 198.442 21.9125 197.543 22.7479C198.046 22.78 198.405 22.7961 198.624 22.7961V22.8014Z" fill="white"/>
<path d="M213.157 24.4829C212.804 24.3651 212.466 24.1509 212.14 23.8296C211.856 23.5458 211.626 23.2781 211.449 23.0264C210.662 23.669 209.703 24.1456 208.573 24.4561L208.472 24.2955C209.425 23.7439 210.223 23.005 210.871 22.0893C210.512 21.42 210.228 20.6382 210.019 19.7439H209.243C209.216 20.0973 209.168 20.4454 209.093 20.7988C209.639 20.9327 210.019 21.1469 210.25 21.4414C210.432 21.6824 210.48 21.9394 210.389 22.2071C210.303 22.4481 210.137 22.6034 209.885 22.673C209.618 22.748 209.361 22.673 209.109 22.4481C209.136 22.1161 209.082 21.768 208.948 21.42C208.531 22.7747 207.631 23.8189 206.25 24.5579L206.126 24.3972C206.726 23.7279 207.144 22.9514 207.369 22.0733C207.519 21.5057 207.61 20.7292 207.631 19.7546H207.192C207.106 20.0063 206.951 20.1616 206.726 20.2205C206.485 20.2848 206.255 20.2044 206.035 19.9688C206.067 19.3477 205.95 18.7158 205.682 18.0732V21.0987C205.698 22.1375 205.73 23.1174 205.784 24.0492C205.725 24.1563 205.564 24.2687 205.296 24.3865C205.002 24.5097 204.713 24.5739 204.429 24.5739C204.145 24.5739 204.001 24.4883 204.001 24.3223C204.001 24.2741 204.001 24.2045 204.011 24.1188C204.07 23.2406 204.108 22.3624 204.124 21.4842V19.9421C203.738 20.5364 203.267 21.0933 202.705 21.6127L202.565 21.4896C203.224 20.2259 203.685 18.4695 203.947 16.2205H203.594C203.411 16.2312 203.224 16.2847 203.042 16.3972L202.715 15.7707C202.972 15.8189 203.294 15.8564 203.669 15.8724H204.118V15.1924C204.118 14.1375 204.065 13.2807 203.958 12.6221C204.654 12.772 205.157 12.8952 205.473 12.9862C205.757 13.0719 205.923 13.1468 205.976 13.2111C206.019 13.2539 205.992 13.3021 205.901 13.361L205.677 13.5003V15.6315L205.891 15.2191C205.891 15.2191 205.928 15.1549 205.955 15.096C206.062 14.9032 206.142 14.8068 206.196 14.8068C206.271 14.8068 206.453 14.9889 206.748 15.3477C207.042 15.7064 207.187 15.9313 207.187 16.0277C207.16 16.1616 207.058 16.2312 206.871 16.2312H205.677V17.7252C206.201 17.9501 206.603 18.2285 206.871 18.5552C207.096 18.8336 207.219 19.1174 207.235 19.4226H209.934C209.907 19.3048 209.875 19.1281 209.832 18.8818L209.757 18.432C209.639 18.507 209.505 18.5391 209.355 18.5177C209.205 18.4909 209.061 18.4106 208.916 18.266C208.916 18.0893 208.905 17.9126 208.879 17.7412C208.525 17.9929 208.102 18.2874 207.61 18.6194C207.535 18.7801 207.428 18.8711 207.283 18.8979L206.582 17.4307C206.667 17.4307 206.822 17.4307 207.047 17.42C207.24 17.4039 207.385 17.3932 207.486 17.3932C207.545 17.2325 207.631 16.9809 207.749 16.6274C207.824 16.3918 207.883 16.2151 207.926 16.1027C207.69 16.1884 207.454 16.1348 207.224 15.9527C207.208 15.7118 207.138 15.444 207.01 15.1602C206.903 14.9086 206.769 14.689 206.619 14.4962L206.731 14.4213C206.908 14.4373 207.117 14.4802 207.358 14.5444C207.46 13.8697 207.508 13.2539 207.508 12.7131C208.311 12.9969 208.809 13.2004 209.002 13.3289C209.152 13.4199 209.157 13.4949 209.013 13.5538L208.788 13.6395C208.397 14.1 208.07 14.4641 207.808 14.7319C207.99 14.8497 208.129 14.9782 208.22 15.1228L208.407 14.4962L209.473 14.9353C209.457 13.9822 209.446 13.2432 209.446 12.7292C210.341 12.8148 210.903 12.8898 211.128 12.9701C211.294 13.0183 211.31 13.0933 211.176 13.1843L210.962 13.3235C210.951 13.5645 210.951 13.9233 210.951 14.3999L210.988 14.3731C211.171 14.3999 211.331 14.4373 211.465 14.4855C211.572 13.8162 211.62 13.2272 211.604 12.7185C212.44 13.0183 212.959 13.2325 213.163 13.361C213.312 13.4628 213.318 13.5431 213.173 13.602L212.932 13.6877C212.6 14.0304 212.258 14.357 211.915 14.6676C212.108 14.7747 212.247 14.9032 212.343 15.0424L212.445 14.6676L212.482 14.5551C212.541 14.3731 212.595 14.2767 212.643 14.2767C212.745 14.2767 213.018 14.3677 213.457 14.5551C213.928 14.7479 214.159 14.8871 214.159 14.9675C214.084 15.1335 213.928 15.2084 213.693 15.1817C213.532 15.3851 213.286 15.685 212.954 16.0866L213.002 16.0759C213.521 16.3169 213.885 16.606 214.094 16.9434C214.271 17.2218 214.314 17.4842 214.233 17.7359C214.169 17.9715 214.025 18.1161 213.805 18.175C213.57 18.2232 213.355 18.1428 213.152 17.9233C213.163 17.8001 213.152 17.602 213.141 17.3343C212.772 17.5699 212.381 17.8055 211.963 18.0518C212.397 18.0679 212.702 18.1696 212.879 18.3517C213.029 18.5016 213.066 18.673 212.991 18.8657C212.916 19.0585 212.777 19.1817 212.579 19.2406C212.343 19.3155 212.113 19.2727 211.888 19.1174C211.877 18.8765 211.797 18.6194 211.636 18.3517C211.588 18.3677 211.551 18.3785 211.524 18.3785L211.037 16.9969C211.101 17.9233 211.224 18.7426 211.401 19.4441H212.707L212.986 18.9943C213.013 18.9514 213.05 18.8925 213.098 18.8176C213.216 18.6248 213.302 18.5284 213.35 18.5284C213.425 18.5284 213.618 18.6837 213.923 18.9943C214.228 19.3048 214.383 19.503 214.383 19.594C214.357 19.7279 214.255 19.7975 214.067 19.7975H212.397C213.066 20.092 213.478 20.3008 213.639 20.424C213.757 20.5257 213.741 20.59 213.591 20.6275L213.339 20.6757C213.12 21.1255 212.857 21.5485 212.547 21.9287C212.67 22.0733 212.82 22.2232 212.986 22.3785C213.072 22.4695 213.136 22.5123 213.189 22.5016C213.243 22.4909 213.296 22.4374 213.35 22.3249C213.591 21.8965 213.837 21.3771 214.078 20.756L214.217 20.7828L213.939 22.9514C214.33 23.669 214.426 24.1402 214.217 24.3544C213.95 24.6221 213.596 24.681 213.152 24.5311L213.157 24.4829ZM207.926 17.3289L208.793 17.2807C208.75 17.1308 208.686 16.9166 208.606 16.6382L208.595 16.6007C208.568 16.6328 208.531 16.681 208.472 16.7399C208.231 17.0076 208.049 17.2058 207.931 17.3289H207.926ZM209.58 16.9059C209.564 16.6971 209.548 16.3811 209.532 15.9527C209.521 15.7439 209.516 15.5886 209.505 15.4869C209.441 15.5618 209.345 15.6796 209.216 15.8403C209.007 16.0973 208.847 16.2901 208.739 16.4186C209.098 16.5685 209.382 16.7345 209.58 16.9059ZM211.047 16.8791H211.685C211.749 16.7131 211.851 16.4347 211.984 16.0491C211.792 16.092 211.594 16.0277 211.395 15.8617C211.406 15.6368 211.363 15.3958 211.272 15.1442C211.197 14.9032 211.09 14.6944 210.956 14.5177C210.956 15.3905 210.983 16.1723 211.042 16.8791H211.047ZM211.765 20.4668C211.829 20.3169 211.926 20.0759 212.043 19.7386H211.519C211.62 20.0706 211.701 20.3169 211.77 20.4668H211.765ZM212.252 16.8684L213.093 16.8309C213.05 16.6221 212.986 16.3865 212.889 16.1295C212.606 16.4614 212.391 16.7131 212.247 16.8684H212.252Z" fill="white"/>
<path d="M216.959 24.5738C216.664 24.5738 216.52 24.4881 216.52 24.3221C216.579 23.476 216.616 22.5443 216.632 21.5216V19.9901C216.273 20.5577 215.84 21.1039 215.326 21.6233L215.176 21.5001C215.759 20.2471 216.161 18.48 216.381 16.2043H216.027C215.845 16.215 215.658 16.2685 215.476 16.381L215.149 15.7545C215.427 15.8026 215.759 15.8401 216.156 15.8562H216.632V15.1387C216.632 14.0838 216.579 13.227 216.472 12.5684C217.173 12.7129 217.687 12.8254 218.014 12.9218C218.308 13.0075 218.48 13.0824 218.528 13.1467C218.571 13.1895 218.544 13.2377 218.453 13.2966L218.228 13.4465V15.8187L218.506 15.3314C218.506 15.3314 218.549 15.2672 218.581 15.2083C218.726 14.9566 218.822 14.8334 218.881 14.8334C218.956 14.8334 219.154 15.0101 219.476 15.3528C219.797 15.7009 219.958 15.9205 219.958 16.0115C219.931 16.1454 219.829 16.215 219.642 16.215H218.223V17.1574C218.962 17.3823 219.46 17.7089 219.727 18.1373C219.727 17.8589 219.717 17.6072 219.69 17.3716L221.334 18.0998H221.987V17.2217H221.045C220.498 17.2324 219.925 17.2859 219.315 17.3984L218.988 16.7719C219.304 16.8201 219.684 16.8575 220.118 16.8736H220.643V15.7919H220.364C220.247 15.8026 220.124 15.8562 219.99 15.9686L219.663 15.3421C219.856 15.3903 220.081 15.4278 220.343 15.4439H220.643V14.4265H220.252C220.043 14.4372 219.824 14.4961 219.599 14.6032L219.272 13.9767C219.524 14.0249 219.834 14.0623 220.198 14.0784H220.638C220.638 13.5536 220.611 13.0985 220.563 12.7236C221.409 12.9057 221.949 13.0556 222.18 13.1627C222.34 13.2377 222.367 13.3073 222.265 13.3769L222.105 13.4787V14.0784H223.058C223.058 13.5536 223.031 13.0985 222.983 12.7236C223.845 12.9057 224.386 13.0556 224.616 13.1627C224.782 13.2377 224.814 13.3127 224.702 13.3876L224.525 13.5001V14.0784H224.702L225.002 13.6393C225.028 13.6072 225.066 13.5536 225.114 13.4787C225.248 13.2966 225.339 13.2002 225.393 13.2002C225.478 13.2002 225.687 13.3502 226.024 13.6447C226.362 13.9392 226.533 14.1373 226.533 14.2283C226.501 14.3622 226.389 14.4265 226.207 14.4265H224.525V15.4439H224.686L224.948 15.0423C224.975 15.0101 225.007 14.9619 225.05 14.903C225.173 14.7263 225.264 14.6407 225.312 14.6407C225.398 14.6407 225.591 14.7745 225.891 15.0476C226.19 15.3207 226.34 15.5028 226.34 15.5938C226.314 15.7277 226.212 15.7973 226.024 15.7973H224.52V16.879H224.911L225.211 16.4399C225.237 16.4077 225.275 16.3542 225.323 16.2792C225.457 16.0972 225.548 16.0008 225.601 16.0008C225.687 16.0008 225.896 16.1507 226.233 16.4452C226.571 16.7397 226.742 16.9379 226.742 17.0289C226.71 17.1628 226.597 17.2324 226.415 17.2324H223.454V18.1106H224.091L224.391 17.7357C224.391 17.7357 224.45 17.6715 224.493 17.6126C224.643 17.4359 224.745 17.3502 224.793 17.3502C224.879 17.3502 225.125 17.5108 225.537 17.8321C225.95 18.1534 226.158 18.3622 226.158 18.4533C226.057 18.5711 225.912 18.6514 225.719 18.6942V19.385L225.821 19.1815C225.821 19.1815 225.837 19.1547 225.848 19.1333C225.907 19.0316 225.966 18.9834 226.024 18.9834C226.099 18.9834 226.265 19.1226 226.512 19.3957C226.758 19.6688 226.887 19.8562 226.887 19.9472C226.854 20.0811 226.747 20.1507 226.571 20.1507H225.719V21.1414L225.842 20.879C225.842 20.879 225.869 20.8361 225.891 20.7933C225.95 20.6755 226.003 20.6166 226.051 20.6166C226.126 20.6166 226.298 20.7772 226.571 21.1039C226.844 21.4305 226.978 21.6394 226.978 21.7304C226.951 21.8643 226.854 21.9339 226.678 21.9339H225.714V22.962C225.714 23.4975 225.612 23.8723 225.414 24.0918C225.157 24.3596 224.654 24.5256 223.909 24.5952C223.883 24.0865 223.813 23.7599 223.695 23.6153C223.535 23.3797 223.251 23.2297 222.844 23.1655V23.0048C223.229 23.0209 223.609 23.0423 223.984 23.0691C224.129 23.0691 224.199 22.9888 224.199 22.8281V21.9392H221.237V22.6568C221.237 22.7639 221.237 22.9084 221.248 23.0851C221.264 23.4975 221.28 23.8027 221.296 24.0008C221.264 24.124 221.114 24.2525 220.846 24.3756C220.552 24.5202 220.252 24.5898 219.941 24.5898C219.722 24.5898 219.615 24.5042 219.615 24.3382C219.658 23.9633 219.684 23.46 219.7 22.8335V21.9446H219.401C219.256 21.9553 219.106 22.0088 218.951 22.1213L218.635 21.4948C218.838 21.543 219.079 21.5805 219.363 21.5965H219.7V20.1668H219.551C219.502 20.1775 219.454 20.2257 219.411 20.3167L219.401 20.3435L219.074 19.717C219.197 19.7652 219.352 19.8027 219.524 19.8187H219.7V19.2404C219.577 19.4011 219.411 19.4814 219.213 19.4921C218.994 19.5082 218.785 19.4225 218.587 19.2297C218.576 18.721 218.447 18.1534 218.196 17.5376V21.1521C218.212 22.1909 218.244 23.1708 218.298 24.1026C218.239 24.2097 218.078 24.3221 217.81 24.4399C217.51 24.5631 217.216 24.6273 216.932 24.6273L216.959 24.5738ZM221.264 19.7652H221.992V18.4372H221.264V19.7652ZM221.264 21.5483H221.992V20.1186H221.264V21.5483ZM222.115 15.4225H223.069V14.405H222.115V15.4225ZM222.115 16.8522H223.069V15.7705H222.115V16.8522ZM223.47 19.7652H224.225V18.4372H223.47V19.7652ZM223.47 21.5483H224.225V20.1186H223.47V21.5483Z" fill="white"/>
<path d="M239.208 24.5845C238.946 24.5845 238.817 24.4988 238.817 24.3328C238.865 23.5938 238.903 22.8495 238.919 22.0998V20.8468C238.523 22.0945 237.982 23.0316 237.286 23.6581L237.109 23.5563C237.211 23.2136 237.291 22.8977 237.361 22.6139C237.446 22.2016 237.494 21.7464 237.516 21.2324C237.537 20.7237 237.521 20.2953 237.473 19.9526L238.919 20.2792V19.1386C238.603 19.2618 238.298 19.3796 238.003 19.476C237.928 19.642 237.81 19.733 237.65 19.7544L237.125 18.1748C237.484 18.1748 237.982 18.1641 238.619 18.1373C238.838 17.6661 239.063 17.152 239.31 16.5791C239.685 15.658 239.936 14.8548 240.065 14.1694C240.991 14.5603 241.575 14.8388 241.81 14.9994C241.987 15.1172 241.998 15.1975 241.848 15.2404L241.607 15.3046C241.189 15.8562 240.766 16.3756 240.338 16.8629L240.386 16.8522C241.087 17.1038 241.591 17.4358 241.891 17.8428C242.148 18.1855 242.239 18.5228 242.153 18.8602C242.078 19.1761 241.901 19.3796 241.628 19.4599C241.328 19.5456 241.039 19.4492 240.761 19.1708C240.761 18.8923 240.739 18.6514 240.697 18.4425L240.482 18.5443V19.8133L240.557 19.7866C241.2 20.0864 241.66 20.4452 241.939 20.8629C242.164 21.2163 242.233 21.559 242.153 21.891C242.078 22.2016 241.912 22.3943 241.65 22.4693C241.366 22.5443 241.098 22.4425 240.847 22.1694C240.873 21.5697 240.75 20.8468 240.482 20.0115V21.393C240.509 22.555 240.536 23.4546 240.568 24.0918C240.509 24.1989 240.37 24.306 240.156 24.4077C239.872 24.5309 239.556 24.5952 239.203 24.5952L239.208 24.5845ZM237.917 16.7772C237.842 16.14 237.58 15.5027 237.125 14.8709L237.237 14.8066C237.682 14.8816 238.046 14.9887 238.33 15.1333V15.1065C238.555 14.2015 238.667 13.3555 238.667 12.5576C239.668 12.8843 240.3 13.1199 240.563 13.2591C240.745 13.3608 240.766 13.4412 240.611 13.5001L240.37 13.6018C239.877 14.2604 239.32 14.8495 238.699 15.3582C239.042 15.6152 239.203 15.9204 239.187 16.2631C239.176 16.5737 239.042 16.7879 238.774 16.9164C238.496 17.061 238.212 17.0128 237.907 16.7772H237.917ZM239.208 18.1105C239.61 18.0838 240.081 18.0623 240.627 18.0356C240.541 17.6768 240.429 17.3073 240.29 16.9325C239.915 17.3609 239.551 17.7518 239.213 18.1105H239.208ZM240.943 24.5577L240.868 24.4185C242.003 23.5563 242.694 22.3408 242.924 20.7665C242.967 20.5148 242.978 20.1293 242.962 19.6099C242.946 19.1601 242.913 18.7692 242.876 18.4372C242.839 18.1052 242.812 18.057 242.801 18.2926L244.033 18.2819L245.125 18.3301C245.098 18.5496 244.954 18.6728 244.686 18.7049C244.638 20.1293 244.386 21.2591 243.931 22.0945C243.347 23.1922 242.351 24.0115 240.943 24.5523V24.5577ZM242.335 18.5228L241.682 16.6165C242.292 16.6165 242.817 16.6165 243.262 16.6058C243.438 15.9044 243.561 15.2939 243.636 14.7745H242.994C242.64 14.7852 242.276 14.8441 241.891 14.9512L241.564 14.3247C242.014 14.3729 242.56 14.4104 243.197 14.4264H243.974C243.974 13.7089 243.942 13.1359 243.872 12.7076C244.884 12.9003 245.527 13.0449 245.805 13.1466C245.987 13.2216 246.025 13.3019 245.918 13.3876L245.73 13.5108V14.4264H246.421L246.796 13.8856C246.828 13.8428 246.881 13.7785 246.946 13.6821C247.106 13.4572 247.208 13.3448 247.262 13.3448C247.347 13.3448 247.599 13.5268 248.027 13.891C248.456 14.2551 248.67 14.4853 248.67 14.5764C248.638 14.7102 248.525 14.7799 248.333 14.7799H245.671C245.045 15.5242 244.472 16.1293 243.963 16.6005C244.413 16.5898 245.157 16.5737 246.185 16.5362H246.373C246.212 16.2096 245.982 15.7973 245.682 15.3046L245.784 15.2404C246.689 15.4492 247.369 15.7758 247.829 16.2203C248.215 16.5898 248.407 16.986 248.407 17.4144C248.397 17.7999 248.247 18.073 247.958 18.2283C247.647 18.389 247.315 18.3354 246.951 18.0677C246.887 17.7571 246.764 17.3983 246.587 16.986C245.607 17.3555 244.316 17.7785 242.71 18.2551C242.624 18.405 242.501 18.4961 242.335 18.5336V18.5228ZM246.464 24.2685C245.955 24.2685 245.623 24.1668 245.473 23.9687C245.328 23.7919 245.259 23.4332 245.259 22.887V20.5148C245.259 19.5456 245.211 18.7317 245.109 18.0784C246.078 18.2712 246.694 18.4211 246.951 18.5282C247.128 18.6032 247.154 18.6835 247.037 18.7692L246.849 18.8923V22.4051C246.849 22.5389 246.903 22.6085 247.01 22.6085H247.486C247.588 22.5925 247.663 22.5443 247.711 22.4586C247.786 22.3087 247.963 21.7678 248.236 20.8415H248.359L248.397 22.5496C248.563 22.6407 248.675 22.7424 248.734 22.8495C248.777 22.9352 248.798 23.0637 248.798 23.2404C248.798 23.9258 248.215 24.2685 247.042 24.2685H246.453H246.464Z" fill="white"/>
<path d="M249.677 24.5733L249.628 24.4608C250.833 23.6683 251.679 22.6349 252.161 21.3604C252.547 20.3537 252.745 19.0525 252.761 17.4461H251.808C251.24 17.4568 250.646 17.5103 250.025 17.6228L249.709 16.9963C250.169 17.0445 250.726 17.082 251.379 17.098H258.458L259.401 15.8182C259.604 15.9842 259.808 16.1502 260.017 16.3216C260.477 16.6964 260.841 17.007 261.109 17.248C261.077 17.3818 260.954 17.4514 260.745 17.4514H257.784V22.169C257.784 22.2707 257.811 22.3403 257.859 22.3778C257.907 22.4153 258.003 22.4367 258.148 22.4367H258.962C259.278 22.4367 259.487 22.4367 259.588 22.426C259.722 22.426 259.829 22.3618 259.904 22.2225C260.038 22.0191 260.274 21.3925 260.606 20.3269H260.718L260.756 22.335C260.975 22.426 261.125 22.5385 261.205 22.6616C261.27 22.7687 261.307 22.9187 261.307 23.1114C261.307 23.4863 261.125 23.7594 260.766 23.9254C260.375 24.1074 259.701 24.2038 258.748 24.2038H257.693C257.013 24.2038 256.563 24.1021 256.338 23.8986C256.113 23.6951 256.001 23.2828 256.001 22.6616V17.4514H254.732C254.624 19.2935 254.244 20.75 253.591 21.8209C252.788 23.1168 251.481 24.0378 249.677 24.584V24.5733ZM251.256 14.4581L250.94 13.8316C251.401 13.8798 251.958 13.9173 252.611 13.9333H257.543L258.458 12.7285C258.662 12.8892 258.86 13.0444 259.058 13.1944C259.503 13.5532 259.851 13.853 260.102 14.0833C260.076 14.2171 259.963 14.2814 259.765 14.2814H253.141C252.547 14.2921 251.92 14.351 251.262 14.4581H251.256Z" fill="white"/>
<path d="M262.26 24.6114L262.159 24.4722C262.978 23.7171 263.604 22.6676 264.043 21.3236C263.819 20.7559 263.631 20.1241 263.492 19.428C263.465 19.4869 263.428 19.5779 263.379 19.7064C263.16 20.2258 263.01 20.5685 262.93 20.7345C263.015 20.8523 262.994 20.9541 262.881 21.0344L262.126 20.0705C262.56 19.7921 262.962 19.4869 263.331 19.1549L263.379 18.6033L263.904 18.764L263.578 19.2138C263.786 19.8349 264.001 20.3169 264.22 20.6703C264.413 19.9099 264.552 18.946 264.649 17.784H264.284L264.06 18.2981C263.626 18.432 263.112 18.3891 262.528 18.1749C263.112 16.7506 263.62 15.4012 264.049 14.1214H263.508C263.224 14.1321 262.924 14.1856 262.603 14.2981L262.276 13.6716C262.603 13.7198 262.994 13.7573 263.454 13.7733H264.017L264.333 13.3717C264.365 13.3396 264.408 13.286 264.456 13.2218C264.595 13.0451 264.697 12.9594 264.745 12.9594C264.831 12.9594 265.088 13.1468 265.521 13.5163C265.955 13.8858 266.175 14.1214 266.175 14.2124C266.068 14.3356 265.886 14.4159 265.634 14.448C265.43 14.9996 265.034 15.9955 264.429 17.436H264.531L264.895 17.0076C264.922 16.9755 264.959 16.9273 265.007 16.8684C265.184 16.6649 265.296 16.5685 265.345 16.5685C265.43 16.5685 265.677 16.7506 266.1 17.1201C266.523 17.4895 266.726 17.7198 266.726 17.8108C266.667 17.9179 266.523 17.9929 266.287 18.0357C266.078 19.5565 265.714 20.7988 265.195 21.7519C265.703 22.1268 266.367 22.3892 267.176 22.5284C267.845 22.6515 268.777 22.7158 269.977 22.7158C271.867 22.7158 273.125 22.7051 273.752 22.689V22.8282C273.468 22.9032 273.243 23.0799 273.072 23.353C272.927 23.6047 272.852 23.9099 272.831 24.2687H269.896C268.558 24.2687 267.513 24.1509 266.758 23.9153C265.891 23.6475 265.205 23.1817 264.713 22.523C264.086 23.3851 263.267 24.0813 262.255 24.606L262.26 24.6114ZM268.584 22.5498C268.327 22.5498 268.193 22.4641 268.193 22.2981C268.209 22.1535 268.226 21.9661 268.242 21.7359C268.252 21.6288 268.252 21.5377 268.252 21.4735V20.9327H267.513C267.085 20.9434 266.635 21.0023 266.159 21.1094L265.843 20.4829C266.292 20.531 266.839 20.5685 267.476 20.5846H268.252V19.278H267.653C267.321 19.2887 266.967 19.3423 266.598 19.4547L266.271 18.8282C266.646 18.8764 267.101 18.9139 267.626 18.93H268.252V17.6502H267.69C267.363 17.6609 267.031 17.7144 266.683 17.8269L266.346 17.2004C266.705 17.2486 267.139 17.2861 267.653 17.3021H268.252V16.033H267.449C266.973 16.0437 266.48 16.0973 265.966 16.2097L265.639 15.5832C266.1 15.6314 266.657 15.6689 267.31 15.685H268.252V14.4427H267.69C267.363 14.4534 267.031 14.5123 266.683 14.6194L266.346 13.9929C266.705 14.0411 267.139 14.0785 267.653 14.0946H268.252C268.252 13.4949 268.226 12.9969 268.167 12.6113C268.863 12.7559 269.371 12.8684 269.698 12.9647C269.982 13.0504 270.148 13.1254 270.201 13.1896C270.244 13.2325 270.218 13.2807 270.127 13.3396L269.912 13.4895V14.0892H270.555L270.882 13.6983C270.908 13.6662 270.946 13.618 270.994 13.5591C271.144 13.3824 271.246 13.2967 271.294 13.2967C271.38 13.2967 271.637 13.4627 272.065 13.8001C272.493 14.1374 272.713 14.3463 272.713 14.4373C272.627 14.5551 272.477 14.6408 272.263 14.689V15.6796L272.542 15.1388C272.558 15.1067 272.584 15.0585 272.616 14.9996C272.761 14.7211 272.857 14.5872 272.916 14.5872C272.991 14.5872 273.179 14.7693 273.479 15.1388C273.778 15.5083 273.928 15.7385 273.928 15.8296C273.902 15.9634 273.8 16.033 273.612 16.033H272.258V17.7251C272.242 17.784 272.07 17.8644 271.744 17.9661C271.77 17.9929 271.808 18.0304 271.867 18.0786C272.402 18.5284 272.777 18.8657 272.997 19.0853C272.97 19.2191 272.857 19.2887 272.659 19.2887H269.912V20.5953H270.865L271.278 20.0331L271.39 19.8831C271.594 19.5993 271.722 19.4547 271.781 19.4547C271.867 19.4547 272.14 19.6475 272.606 20.0331C273.072 20.4186 273.302 20.6542 273.302 20.7452C273.27 20.8791 273.152 20.9487 272.948 20.9487H269.912V21.3503C269.918 21.436 269.923 21.5377 269.923 21.6663L269.961 22.0786C269.934 22.1803 269.778 22.2821 269.495 22.3945C269.184 22.5123 268.879 22.5712 268.579 22.5712L268.584 22.5498ZM269.918 15.6743H270.683V14.432H269.918V15.6743ZM269.918 17.2914H270.683V16.0223H269.918V17.2914ZM269.918 18.9246H270.86L271.497 18.0197C271.315 18.0678 271.128 18.0946 270.946 18.0946H270.683V17.6448H269.918V18.9246Z" fill="white"/>
<path d="M274.989 15.7387L274.662 15.1122C275.123 15.1604 275.68 15.1979 276.333 15.2139H278.341L278.667 14.7481C278.694 14.716 278.732 14.6624 278.78 14.5874C278.93 14.3786 279.032 14.2715 279.08 14.2715C279.165 14.2715 279.385 14.4321 279.749 14.7481C280.113 15.064 280.295 15.2728 280.295 15.3639C280.269 15.4978 280.161 15.5674 279.969 15.5674H276.542C276.038 15.5781 275.519 15.637 274.983 15.7441L274.989 15.7387ZM275.599 24.5741C275.406 24.5741 275.31 24.4884 275.31 24.3224C275.342 23.9529 275.369 23.4871 275.385 22.9195V22.0895C275.385 21.0453 275.331 20.1939 275.224 19.5406L276.97 20.2421H277.773L278.1 19.8512C278.132 19.8191 278.175 19.7655 278.223 19.7013C278.368 19.5406 278.464 19.4603 278.512 19.4603C278.598 19.4603 278.844 19.6209 279.267 19.9476C279.69 20.2742 279.894 20.4831 279.894 20.5741C279.803 20.6972 279.663 20.7776 279.481 20.815V21.7682C279.497 22.5393 279.524 23.1444 279.556 23.5888C279.508 23.6799 279.331 23.7869 279.032 23.9048C278.716 24.0279 278.432 24.0922 278.18 24.0922C277.961 24.0922 277.854 24.0065 277.854 23.8405C277.864 23.8084 277.87 23.7548 277.88 23.6906C277.891 23.6424 277.896 23.5995 277.907 23.5674V23.305H276.943V23.5674C276.949 23.6424 276.954 23.728 276.954 23.8191C276.959 23.9101 276.97 23.9744 276.981 24.0065C276.965 24.1243 276.815 24.2475 276.531 24.3706C276.231 24.5045 275.926 24.5741 275.615 24.5741H275.599ZM275.626 17.3826L275.299 16.7561C275.744 16.8043 276.279 16.8418 276.906 16.8579H277.671L277.987 16.4081C278.014 16.3759 278.046 16.3277 278.089 16.2688C278.239 16.0493 278.341 15.9422 278.389 15.9422C278.475 15.9422 278.694 16.0975 279.048 16.4081C279.401 16.7186 279.583 16.9168 279.583 17.0078C279.551 17.1417 279.439 17.2113 279.257 17.2113H276.734C276.381 17.222 276.017 17.2755 275.631 17.388L275.626 17.3826ZM275.626 19.0266L275.299 18.4C275.744 18.4482 276.279 18.4857 276.906 18.5018H277.671L277.987 18.052C278.014 18.0199 278.046 17.9717 278.089 17.9128C278.239 17.6932 278.341 17.5861 278.389 17.5861C278.475 17.5861 278.694 17.7414 279.048 18.052C279.401 18.3626 279.583 18.5607 279.583 18.6517C279.551 18.7856 279.439 18.8552 279.257 18.8552H276.734C276.381 18.8659 276.017 18.9195 275.631 19.0319L275.626 19.0266ZM275.69 14.143L275.364 13.5165C275.781 13.5647 276.29 13.6022 276.895 13.6182H277.634L277.95 13.1524C277.977 13.1202 278.014 13.0667 278.062 12.9917C278.212 12.7829 278.314 12.6758 278.362 12.6758C278.448 12.6758 278.667 12.8364 279.032 13.1524C279.396 13.4683 279.578 13.6771 279.578 13.7682C279.551 13.902 279.444 13.9716 279.251 13.9716H277.57C276.975 13.9823 276.349 14.0359 275.69 14.1483V14.143ZM276.933 22.9516H277.896V20.5901H276.933V22.9516ZM278.941 24.5473L278.876 24.4081C280.097 23.7816 281.088 22.957 281.848 21.9342C281.329 21.1256 280.938 20.0654 280.681 18.7588H280.402C280.269 18.7695 280.135 18.8231 280.001 18.9355L279.674 18.309C280.135 18.3572 280.692 18.3947 281.345 18.4107H283.251L283.69 17.9449C283.69 17.9449 283.755 17.8806 283.803 17.8217C284.022 17.5861 284.156 17.4683 284.215 17.4683C284.301 17.4683 284.568 17.6771 285.029 18.0948C285.489 18.5125 285.72 18.7695 285.72 18.8606C285.645 18.9784 285.479 19.048 285.216 19.0747C284.847 20.1296 284.327 21.0453 283.647 21.8217C284.376 22.2126 285.291 22.5393 286.394 22.8017L286.384 22.9409C285.645 23.1069 285.152 23.6424 284.89 24.5473C283.904 24.06 283.123 23.5031 282.544 22.8659C281.575 23.621 280.37 24.1778 278.93 24.5473H278.941ZM279.706 18.1751L279.631 18.0627C279.974 17.5861 280.21 16.9917 280.333 16.2795C280.418 15.8297 280.456 15.2514 280.456 14.55V13.7735C280.456 13.4415 280.44 13.1577 280.408 12.9328L282.266 13.6343H282.844L283.198 13.222C283.224 13.1898 283.262 13.1416 283.321 13.0827C283.481 12.89 283.583 12.7936 283.631 12.7936C283.717 12.7936 283.947 12.9542 284.327 13.2755C284.708 13.5968 284.9 13.8056 284.9 13.8967C284.836 13.9984 284.718 14.0627 284.547 14.1002V15.6959C284.547 15.803 284.59 15.8565 284.67 15.8565H285.008C285.082 15.8565 285.147 15.8137 285.195 15.7334C285.318 15.5138 285.495 15.0747 285.72 14.4054H285.832L285.87 15.7869C286.02 15.8779 286.127 15.9743 286.186 16.0761C286.228 16.1617 286.25 16.2849 286.25 16.4509C286.25 17.0881 285.704 17.4041 284.617 17.4041H284.092C283.605 17.4041 283.294 17.313 283.149 17.1256C283.032 16.965 282.973 16.6223 282.973 16.0975V13.9877H282.02V14.55C282.02 16.2903 281.243 17.5004 279.696 18.1751H279.706ZM282.453 21.0078C282.844 20.2796 283.139 19.5299 283.331 18.7642H280.884C281.216 19.6531 281.741 20.3974 282.453 21.0078Z" fill="white"/>
<path d="M232.017 19.4549C232.561 19.4549 233.002 19.0138 233.002 18.4697C233.002 17.9255 232.561 17.4844 232.017 17.4844C231.472 17.4844 231.031 17.9255 231.031 18.4697C231.031 19.0138 231.472 19.4549 232.017 19.4549Z" fill="white"/>
</g>
<defs>
<clipPath id="clip0_151_274">
<rect width="259" height="21.146" fill="white" transform="translate(128 7.72266)"/>
</clipPath>
</defs>
</svg>
