<svg width="421" height="175" viewBox="0 0 421 175" fill="none" xmlns="http://www.w3.org/2000/svg">
<path d="M24.0403 0H4.08028C1.85028 0 0.0302734 1.82 0.0302734 4.05V51.96C0.0302734 54.19 1.85028 56.01 4.08028 56.01H24.0403C26.2703 56.01 28.0903 54.19 28.0903 51.96V4.05C28.0903 1.82 26.2703 0 24.0403 0ZM25.9803 4.05V5.6H19.7403V2.11H24.0403C25.1103 2.11 25.9803 2.98 25.9803 4.05ZM25.7003 52.96L21.6603 48.43C21.3403 48.07 21.1703 47.62 21.1703 47.14V40.08H25.9903V51.97C25.9903 52.33 25.8803 52.67 25.7103 52.96H25.7003ZM2.14027 51.97V40.08H6.96027V47.14C6.96027 47.62 6.79028 48.07 6.47028 48.43L2.43027 52.96C2.26027 52.67 2.15028 52.33 2.15028 51.97H2.14027ZM8.04028 49.83C8.70028 49.09 9.07027 48.13 9.07027 47.13V40.07H19.0503V47.13C19.0503 48.13 19.4203 49.08 20.0803 49.83L23.7103 53.9H4.40028L8.03027 49.83H8.04028ZM2.14027 37.96V27.01H3.65028C4.45028 27.01 5.11028 26.36 5.11028 25.55V19.36H3.00027V24.89H2.14027V15.08L6.13027 19.07V27.01H8.24027V19.07L11.6103 15.7H14.4103V24.9H11.3703V19.37H9.26028V25.56C9.26028 26.36 9.91028 27.02 10.7203 27.02H15.0703C15.8703 27.02 16.5303 26.37 16.5303 25.56V15.71H20.8503V25.56C20.8503 26.36 21.5003 27.02 22.3103 27.02H26.0003V37.97H2.16028L2.14027 37.96ZM14.8003 13.59L18.6803 8.42L22.5603 13.59H14.8103H14.8003ZM12.1603 13.59H11.6103L8.67027 10.65L11.6103 7.71H16.5603L12.1603 13.58V13.59ZM7.18027 17.15L4.68027 14.65L7.18027 12.15L9.68027 14.65L7.18027 17.15ZM17.6203 5.6H11.6103L8.12028 2.11H17.6203V5.6ZM9.68027 6.66L7.18027 9.16L4.68027 6.66L7.18027 4.16L9.68027 6.66ZM5.69028 10.65L2.14027 14.2V7.1L5.69028 10.65ZM22.9503 24.9V15.7H25.9803V24.9H22.9503ZM25.2003 13.59L20.8003 7.72H25.9903V13.59H25.2103H25.2003ZM4.07027 2.11H6.24027L2.13027 6.22V4.05C2.13027 2.98 3.00027 2.11 4.07027 2.11Z" fill="white"/>
<path d="M22.5403 31.6699H5.57031V33.7799H22.5403V31.6699Z" fill="white"/>
<path d="M17.0604 73.09C16.9704 73.08 16.9604 73.05 16.9604 72.97V67.83C16.9604 67.74 17.0004 67.71 17.0604 67.71H25.3404C25.4004 67.71 25.4405 67.74 25.4405 67.81V72.8C25.4405 72.88 25.4304 72.9 25.3504 72.92L24.1505 73.06C24.0905 73.07 24.0304 73.05 24.0304 72.97V69.27H21.9805V72.63C21.9805 72.69 21.9704 72.72 21.8904 72.72H20.6605C20.6005 72.72 20.5805 72.68 20.5805 72.63V69.27H18.3605V73.18C18.3605 73.26 18.3205 73.28 18.2605 73.27L17.0604 73.08V73.09Z" fill="white"/>
<path d="M25.4504 76.3099V78.3799C25.4504 78.4599 25.4205 78.4799 25.3605 78.5099C24.0505 78.8999 20.2204 80.0199 19.0204 80.2799C20.1204 80.5699 24.0305 81.8399 25.3605 82.2399C25.4105 82.2699 25.4504 82.2799 25.4504 82.3599V84.3799C25.4504 84.4399 25.4405 84.4699 25.3705 84.4799L17.0604 84.8299C16.9804 84.8399 16.9604 84.7999 16.9604 84.7399V83.3099C16.9604 83.2499 16.9705 83.2099 17.0505 83.2099C19.8005 83.1499 23.5204 83.1199 24.3404 83.1299C23.1004 82.8199 18.7804 81.4899 17.0704 80.9699C16.9804 80.9599 16.9705 80.9099 16.9705 80.8499V79.5599C16.9705 79.4699 16.9804 79.4399 17.0604 79.4299C19.0204 78.8699 22.7805 77.8399 24.3605 77.4799V77.4499C23.0605 77.4399 19.7704 77.3299 17.0604 77.1999C16.9804 77.1999 16.9705 77.1699 16.9705 77.0999V75.8099C16.9705 75.7299 16.9804 75.7099 17.0704 75.7199L25.3804 76.2099C25.4604 76.2199 25.4604 76.2499 25.4604 76.3099H25.4504Z" fill="white"/>
<path d="M25.3204 87.8799C25.3804 87.8799 25.4204 87.8899 25.4404 87.9599C25.4504 88.4299 25.4804 89.5999 25.4804 90.4699C25.4804 93.1699 24.0604 93.5799 23.2304 93.5799C22.3104 93.5799 21.7804 93.0899 21.5504 92.7699C21.3004 93.2499 20.7404 94.0099 19.5504 94.0099C17.9204 94.0099 16.9404 92.5999 16.9404 90.4699C16.9404 89.3499 16.9504 88.4699 16.9704 87.9799C16.9804 87.9199 17.0204 87.8899 17.0704 87.8899H25.3304L25.3204 87.8799ZM18.2704 89.4199C18.2604 89.6999 18.2404 90.0299 18.2404 90.4199C18.2304 91.6299 18.6404 92.4099 19.5104 92.4099C20.0404 92.4099 20.4704 92.1499 20.6304 91.4799C20.6904 91.2499 20.7204 90.9499 20.7204 90.5999V89.4199H18.2704ZM22.0604 89.4199V90.3999C22.0604 90.8699 22.0204 91.3799 21.9804 91.5799C22.2004 91.8499 22.5004 92.0699 23.0004 92.0699C23.7604 92.0699 24.1404 91.4999 24.1404 90.4399C24.1404 90.0299 24.1304 89.6899 24.1304 89.4199H22.0604Z" fill="white"/>
<path d="M16.9604 96.7499C16.9604 96.6699 16.9904 96.6499 17.0604 96.6499H25.3204C25.3805 96.6499 25.4405 96.6599 25.4405 96.7399C25.4705 97.7599 25.4805 98.2999 25.4805 99.2999C25.4805 101.37 24.5905 102.58 22.9305 102.58C21.8105 102.58 21.0005 101.86 20.6605 100.91C20.0705 101.34 17.7505 102.89 17.1105 103.26C17.0305 103.3 16.9705 103.31 16.9705 103.23V101.61C16.9705 101.51 17.0004 101.47 17.0304 101.43C17.6104 101.06 19.1005 100.15 20.0005 99.5799C20.1605 99.4899 20.2205 99.4199 20.2205 99.2799V98.1699H17.0704C16.9904 98.1699 16.9705 98.1299 16.9705 98.0699V96.7399L16.9604 96.7499ZM21.5505 99.3099C21.5505 100.36 22.0204 101.03 22.8404 101.03C23.6604 101.03 24.1205 100.35 24.1205 99.2499C24.1205 98.8099 24.1104 98.3999 24.0904 98.1899H21.5405V99.3099H21.5505Z" fill="white"/>
<path d="M19.2002 106.85L17.0702 106.14C16.9902 106.11 16.9702 106.08 16.9702 106V104.71C16.9702 104.63 17.0102 104.61 17.1002 104.62L24.6702 107.28C24.8002 107.33 24.9302 107.37 25.3702 107.4C25.4202 107.4 25.4602 107.43 25.4602 107.48V109.28C25.4602 109.35 25.4502 109.36 25.3802 109.37L17.0902 112.36C17.0102 112.37 16.9702 112.36 16.9702 112.28V110.83C16.9702 110.77 17.0002 110.73 17.0502 110.7L19.2102 109.95V106.86L19.2002 106.85ZM20.6002 109.52C21.4502 109.25 23.2502 108.64 24.1502 108.38C23.2802 108.16 21.7702 107.64 20.6002 107.26V109.52Z" fill="white"/>
<path d="M17.2306 120.33C17.1506 120.33 17.0906 120.3 17.0606 120.24C16.9006 119.81 16.8306 119.18 16.8306 118.46C16.8306 116.07 18.2406 114.03 21.1806 114.03C23.7806 114.03 25.5706 115.84 25.5706 118.65C25.5706 119.49 25.4906 120.01 25.3506 120.33C25.3206 120.38 25.2906 120.41 25.2106 120.41H23.9806C23.8806 120.41 23.8806 120.36 23.9006 120.31C24.0906 119.9 24.1806 119.3 24.1806 118.63C24.1806 116.81 23.0206 115.64 21.2106 115.64C18.9706 115.64 18.2106 117.29 18.2106 118.65C18.2106 119.28 18.2606 119.76 18.4306 120.24C18.4606 120.29 18.4406 120.33 18.3706 120.33H17.2206H17.2306Z" fill="white"/>
<path d="M17.0604 128.38C16.9704 128.37 16.9604 128.34 16.9604 128.26V123.12C16.9604 123.03 17.0004 123 17.0604 123H25.3404C25.4004 123 25.4405 123.03 25.4405 123.1V128.09C25.4405 128.17 25.4304 128.19 25.3504 128.21L24.1505 128.35C24.0905 128.36 24.0304 128.34 24.0304 128.26V124.56H21.9805V127.92C21.9805 127.98 21.9704 128.01 21.8904 128.01H20.6605C20.6005 128.01 20.5805 127.97 20.5805 127.92V124.56H18.3605V128.47C18.3605 128.55 18.3205 128.57 18.2605 128.56L17.0604 128.37V128.38Z" fill="white"/>
<path d="M19.2002 136.72L17.0702 136.01C16.9902 135.98 16.9702 135.95 16.9702 135.87V134.58C16.9702 134.5 17.0102 134.48 17.1002 134.49L24.6702 137.15C24.8002 137.2 24.9302 137.24 25.3702 137.27C25.4202 137.27 25.4602 137.3 25.4602 137.35V139.15C25.4602 139.22 25.4502 139.23 25.3802 139.24L17.0902 142.23C17.0102 142.24 16.9702 142.23 16.9702 142.15V140.7C16.9702 140.64 17.0002 140.6 17.0502 140.57L19.2102 139.82V136.73L19.2002 136.72ZM20.6002 139.39C21.4502 139.12 23.2502 138.51 24.1502 138.25C23.2802 138.03 21.7702 137.51 20.6002 137.13V139.39Z" fill="white"/>
<path d="M16.9604 148.88C16.9604 148.78 17.0004 148.75 17.0904 148.75H25.3305C25.3905 148.75 25.4504 148.78 25.4504 148.85V150.23C25.4504 150.28 25.4105 150.31 25.3605 150.31H18.3705V154.11C18.3705 154.19 18.3304 154.21 18.2804 154.2L17.0704 153.98C16.9804 153.97 16.9705 153.93 16.9705 153.86V148.87L16.9604 148.88Z" fill="white"/>
<path d="M17.0805 158.04C16.9905 158.04 16.9604 158.01 16.9604 157.94V156.58C16.9604 156.5 17.0005 156.48 17.0805 156.48H25.3504C25.4404 156.48 25.4504 156.52 25.4504 156.58V157.94C25.4504 158.02 25.4204 158.04 25.3504 158.04H17.0805Z" fill="white"/>
<path d="M17.0604 162.82C16.9804 162.82 16.9604 162.79 16.9604 162.72V161.35C16.9604 161.29 17.0004 161.26 17.0604 161.26H25.3605C25.4205 161.26 25.4504 161.29 25.4504 161.36V166.35C25.4504 166.43 25.4204 166.45 25.3504 166.47L24.1505 166.6C24.0705 166.61 24.0505 166.57 24.0505 166.5V162.83H21.7905V166.13C21.7905 166.19 21.7804 166.23 21.7004 166.23H20.4904C20.4304 166.23 20.4005 166.19 20.4005 166.13V162.83H17.0805L17.0604 162.82Z" fill="white"/>
<path d="M17.0604 174.44C16.9704 174.43 16.9604 174.4 16.9604 174.32V169.18C16.9604 169.09 17.0004 169.06 17.0604 169.06H25.3404C25.4004 169.06 25.4405 169.09 25.4405 169.16V174.15C25.4405 174.23 25.4304 174.25 25.3504 174.27L24.1505 174.41C24.0905 174.42 24.0304 174.4 24.0304 174.32V170.62H21.9805V173.98C21.9805 174.04 21.9704 174.07 21.8904 174.07H20.6605C20.6005 174.07 20.5805 174.03 20.5805 173.98V170.62H18.3605V174.53C18.3605 174.61 18.3205 174.63 18.2605 174.62L17.0604 174.43V174.44Z" fill="white"/>
<path d="M6.11043 75.23C3.44043 75.24 1.69043 73.59 1.69043 71.24C1.69043 68.73 3.55043 67.23 6.07043 67.23C8.59043 67.23 10.4404 68.86 10.4404 71.24C10.4404 73.77 8.50043 75.22 6.11043 75.23ZM3.08043 71.29C3.08043 72.75 4.28043 73.63 6.08043 73.62C7.89043 73.62 9.06042 72.73 9.06042 71.22C9.06042 69.85 7.99043 68.86 6.08043 68.86C4.41043 68.86 3.08043 69.71 3.08043 71.3V71.29Z" fill="white"/>
<path d="M1.93056 79.51C1.85056 79.51 1.83057 79.48 1.83057 79.41V78.04C1.83057 77.98 1.87056 77.95 1.93056 77.95H10.2306C10.2906 77.95 10.3206 77.98 10.3206 78.05V83.04C10.3206 83.12 10.2906 83.14 10.2206 83.16L9.02056 83.29C8.94056 83.3 8.92056 83.26 8.92056 83.19V79.52H6.66057V82.82C6.66057 82.88 6.65056 82.92 6.57056 82.92H5.36057C5.30057 82.92 5.27056 82.88 5.27056 82.82V79.52H1.95056L1.93056 79.51Z" fill="white"/>
<path d="M1.93056 95.42C1.84056 95.41 1.83057 95.38 1.83057 95.3V90.16C1.83057 90.07 1.87056 90.04 1.93056 90.04H10.2106C10.2706 90.04 10.3106 90.07 10.3106 90.14V95.13C10.3106 95.21 10.3006 95.23 10.2206 95.25L9.02056 95.39C8.96056 95.4 8.90057 95.38 8.90057 95.3V91.6H6.85056V94.96C6.85056 95.02 6.84057 95.05 6.76057 95.05H5.53056C5.47056 95.05 5.45056 95.01 5.45056 94.96V91.6H3.23057V95.51C3.23057 95.59 3.19056 95.61 3.13056 95.6L1.93056 95.41V95.42Z" fill="white"/>
<path d="M4.06056 99.82L1.93056 99.11C1.85056 99.08 1.83057 99.05 1.83057 98.97V97.68C1.83057 97.6 1.87056 97.58 1.96056 97.59L9.53056 100.25C9.66056 100.3 9.79057 100.34 10.2306 100.37C10.2806 100.37 10.3206 100.4 10.3206 100.45V102.25C10.3206 102.32 10.3106 102.33 10.2406 102.34L1.95056 105.33C1.87056 105.34 1.83057 105.33 1.83057 105.25V103.8C1.83057 103.74 1.86057 103.7 1.91057 103.67L4.07056 102.92V99.83L4.06056 99.82ZM5.47057 102.5C6.32057 102.23 8.12056 101.62 9.02056 101.36C8.15056 101.14 6.64057 100.62 5.47057 100.24V102.5Z" fill="white"/>
<path d="M2.16043 107.49C2.20043 107.42 2.25043 107.4 2.35043 107.4H3.69043C3.74043 107.4 3.77043 107.45 3.74043 107.5C3.29043 108.2 3.07043 109.05 3.07043 109.8C3.07043 110.86 3.48043 111.31 4.04043 111.31C4.52043 111.31 4.88043 111 5.29043 110.02L5.55043 109.4C6.22043 107.81 7.02042 107.4 7.99043 107.4C9.37043 107.4 10.4304 108.45 10.4304 110.4C10.4304 111.21 10.3104 111.95 10.0904 112.38C10.0504 112.44 10.0104 112.46 9.92043 112.46H8.67043C8.62043 112.46 8.57043 112.42 8.62043 112.34C8.90043 111.85 9.05043 111.14 9.05043 110.39C9.05043 109.28 8.59042 108.93 8.13042 108.93C7.67042 108.93 7.34043 109.23 6.92043 110.25L6.71043 110.74C6.01043 112.42 5.20043 112.9 4.18043 112.9C2.67043 112.9 1.69043 111.71 1.69043 109.76C1.69043 108.82 1.87043 108.03 2.16043 107.5V107.49Z" fill="white"/>
<path d="M1.93056 120.97C1.84056 120.96 1.83057 120.93 1.83057 120.85V115.71C1.83057 115.62 1.87056 115.59 1.93056 115.59H10.2106C10.2706 115.59 10.3106 115.62 10.3106 115.69V120.68C10.3106 120.76 10.3006 120.78 10.2206 120.8L9.02056 120.94C8.96056 120.95 8.90057 120.93 8.90057 120.85V117.15H6.85056V120.51C6.85056 120.57 6.84057 120.6 6.76057 120.6H5.53056C5.47056 120.6 5.45056 120.56 5.45056 120.51V117.15H3.23057V121.06C3.23057 121.14 3.19056 121.16 3.13056 121.15L1.93056 120.96V120.97Z" fill="white"/>
<path d="M420.26 85.8899H343.39V64.4199H389.51C393.32 64.4199 396.4 61.3299 396.4 57.5299H343.38V36.0599H405.41C409.22 36.0599 412.3 32.9699 412.3 29.1699H260.14C256.33 29.1699 253.25 32.2599 253.25 36.0599H322.17V57.5299H276.05C272.24 57.5299 269.16 60.6199 269.16 64.4199H322.18V85.8899H252.2C248.39 85.8899 245.31 88.9799 245.31 92.7799H413.38C417.19 92.7799 420.27 89.6899 420.27 85.8899H420.26Z" fill="white"/>
<path d="M354.79 24.17H354.88C364.25 24.17 373.11 21.95 380.95 18.02C387.86 14.56 387.77 4.56001 380.86 1.11001C380.79 1.07001 380.71 1.04001 380.64 1.00001C376.34 -1.11999 371.18 0.240007 368.46 4.19001C364.37 10.13 359.2 15.28 353.24 19.35C351.1 20.81 352.2 24.17 354.78 24.17H354.79Z" fill="white"/>
<path d="M284.6 18.02C292.44 21.95 301.3 24.17 310.67 24.17H310.76C313.35 24.17 314.44 20.81 312.3 19.35C306.34 15.28 301.17 10.13 297.08 4.19001C294.36 0.240007 289.2 -1.11999 284.9 1.00001C284.83 1.04001 284.75 1.07001 284.68 1.11001C277.77 4.56001 277.68 14.56 284.59 18.02H284.6Z" fill="white"/>
<path d="M415.95 169.57C385.53 162.94 361 144.74 349.88 121.15H408.06C411.87 121.15 414.95 118.06 414.95 114.26H340.56C342.27 108.55 343.25 102.61 343.34 96.5H342.61C331.63 96.5 322.15 103.68 318.6 114.07C318.58 114.13 318.55 114.19 318.53 114.26H257.49C253.68 114.26 250.6 117.35 250.6 121.15H315.68C304.56 144.73 280.03 162.94 249.61 169.57C247.08 170.12 245.29 172.38 245.29 174.96C283.5 174.96 316.59 157.23 332.76 131.36C348.94 157.22 382.02 174.96 420.23 174.96C420.23 172.38 418.44 170.12 415.92 169.57H415.95Z" fill="white"/>
<path d="M144.15 126.18V66.27C144.15 63.93 142.25 62.03 139.91 62.03H112.87C110.53 62.03 108.63 63.93 108.63 66.27V126.18C108.63 128.52 110.53 130.42 112.87 130.42H139.91C142.25 130.42 144.15 128.52 144.15 126.18ZM130.89 123.53H121.88V68.92H130.89V123.53Z" fill="white"/>
<path d="M100.67 169.66H218.37C222.18 169.66 225.26 166.57 225.26 162.77H107.56C103.75 162.77 100.67 165.86 100.67 169.66Z" fill="white"/>
<path d="M129.39 42.32C128.58 44.41 130.12 46.65 132.36 46.65H147.33C149.67 46.65 151.57 48.5499 151.57 50.8899V139.96C151.57 142.3 149.67 144.2 147.33 144.2H134.61C130.8 144.2 127.72 147.29 127.72 151.09H164.83C167.76 151.09 170.13 148.72 170.13 145.79V45.06C170.13 42.13 167.76 39.7599 164.83 39.7599H151.6L161.27 14.84H212.09C215.9 14.84 218.98 11.75 218.98 7.94995H112.87C109.06 7.94995 105.98 11.04 105.98 14.84H140.06L129.4 42.32H129.39Z" fill="white"/>
<path d="M104.65 96.15C96.2 81.35 90.83 64.56 89.42 46.66H104.38C108.19 46.66 111.27 43.57 111.27 39.77H89V0C79.92 0 72.56 7.36 72.56 16.44V39.77H57.18C53.37 39.77 50.29 42.86 50.29 46.66H70.91C69.2 68.2 63.82 88.71 55.38 107.55C52.04 115 50.29 123.07 50.29 131.23C59.03 120.15 66.5 108.04 72.56 95.13V174.96C81.64 174.96 89 167.6 89 158.52V85.85C93.05 92.74 97.77 99.19 103.08 105.1C105.71 102.89 106.35 99.13 104.65 96.14V96.15Z" fill="white"/>
<path d="M207.76 39.76H184.44C180.63 39.76 177.55 42.85 177.55 46.65H191.51C196.39 46.65 200.43 50.39 200.89 55.25C201.23 58.88 201.41 62.55 201.41 66.27C201.41 79.61 199.2 92.43 195.15 104.41C189.48 91.43 186.3 77.11 186.3 62.03C178.27 62.03 172.14 69.4 173.8 77.26C176.83 91.6 182.44 104.99 190.11 116.92C185.58 126.55 179.82 135.48 173 143.49C172.26 144.36 172.35 145.67 173.23 146.4C173.98 147.03 175.08 147.05 175.85 146.44C183.49 140.37 190.33 133.36 196.28 125.63C202.67 133.85 210.1 141.21 218.39 147.51C221.2 149.65 225.25 147.68 225.25 144.15C216.1 136.67 208.24 127.68 202.01 117.58C214.02 98.97 221.01 76.82 221.01 53.02C221.01 45.73 215.04 39.77 207.75 39.77L207.76 39.76Z" fill="white"/>
</svg>
